<?xml version="1.0" standalone="no"?>
<svg height="104.897" preserveAspectRatio="none" viewBox="0.000 0.000 126.086 104.897" width="126.086" x="0.000" xmlns="http://www.w3.org/2000/svg" xmlns:svg="http://www.w3.org/2000/svg" xmlns:xlink="http://www.w3.org/1999/xlink" y="0.000">
<svg width="126.086" height="104.897" xmlns="http://www.w3.org/2000/svg"><defs><clipPath id="3e0ucRisclipPath1"><path fill="#000000" stroke="none" d="M 0 0 L 126.086 0 L 126.086 104.897 L 0 104.897 Z"/></clipPath></defs><g transform="matrix(1 0 0 1 -845.195 -303.183)"><g transform="matrix(1 0 0 1 845.1954 303.18314)"><g clip-path="url(#3e0ucRisclipPath1)"><path fill="#f57c3a" stroke="none" d="M 30.313 88.785 C 32.684 87.449 30.676 83.891 28.305 85.23 L 27.555 84.41 L 27.391 84.512 L 26.66 83.695 C 21.957 86.746 26.535 93.801 31.238 90.75 L 30.789 89.75 L 30.625 89.852 Z M 30.773 91.012 C 35.824 88.578 32.176 81.004 27.125 83.438 L 26.801 83.074 L 27.016 82.977 L 26.715 82.602 C 20.402 85.258 24.391 94.723 30.699 92.063 L 30.641 91.586 L 30.855 91.488 Z M 31 91.926 C 37.125 88.871 32.539 79.68 26.414 82.738 L 26.125 82.461 L 26.602 82.25 L 26.348 81.945 C 19.023 84.773 23.266 95.758 30.59 92.93 L 30.574 92.535 L 31.047 92.324 Z M 29.078 93.293 C 36.887 92.48 35.668 80.77 27.859 81.582 L 27.703 81.316 L 29.063 81.328 L 28.984 81.035 C 20.449 80.027 18.938 92.832 27.477 93.84 L 27.621 93.574 L 28.98 93.586 Z M 25.477 93.266 C 33.246 96.938 38.758 85.281 30.984 81.609 L 31 81.383 L 33.727 83.758 L 33.859 83.574 C 28.848 75.906 17.344 83.426 22.359 91.094 L 22.582 91.047 L 25.309 93.422 Z M 21.332 88.461 C 22.836 97.496 36.391 95.242 34.887 86.207 L 35.039 86.063 L 35.09 88.039 L 35.281 87.898 C 36.402 78.336 22.059 76.656 20.938 86.219 L 21.094 86.398 L 21.141 88.375 Z M 21.195 84.98 C 18.426 94.203 32.254 98.355 35.023 89.137 L 35.234 88.969 L 34.957 89.738 L 35.215 89.523 C 39.148 80.289 25.297 74.391 21.363 83.625 L 21.391 83.957 L 21.109 84.727 Z M 21.582 83.152 C 17.023 92.094 30.434 98.938 34.996 89.996 L 35.293 89.715 L 35.063 90.133 L 35.426 89.793 C 40.723 80.832 27.285 72.887 21.988 81.848 L 21.863 82.328 L 21.637 82.746 Z M 22.211 81.488 C 16.438 90.148 29.426 98.813 35.203 90.152 L 35.633 89.746 L 35.422 90.043 L 35.93 89.574 C 42.309 80.906 29.305 71.344 22.93 80.012 L 22.633 80.637 L 22.422 80.938 Z M 23.141 79.734 C 16.395 88.117 28.973 98.238 35.719 89.852 L 36.305 89.32 L 36.133 89.527 L 36.816 88.926 C 44.051 80.516 31.434 69.664 24.199 78.074 L 23.707 78.84 L 23.535 79.047 Z M 24.348 77.906 C 16.891 86.117 29.207 97.305 36.668 89.094 L 37.43 88.387 L 37.32 88.508 L 38.188 87.723 C 45.969 79.484 33.613 67.809 25.828 76.047 L 25.094 76.957 L 24.98 77.078 Z M 25.918 75.957 C 18.012 84.078 30.195 95.934 38.098 87.813 L 39.012 86.875 L 38.934 86.953 L 39.941 85.941 C 47.949 77.918 35.914 65.91 27.91 73.934 L 26.902 74.945 L 26.828 75.02 Z M 27.977 73.867 C 19.883 81.801 31.785 93.941 39.875 86.008 L 40.969 84.938 L 40.914 84.992 L 42.098 83.852 C 50.262 75.996 38.477 63.742 30.309 71.602 L 29.125 72.742 L 29.07 72.797 Z M 30.371 71.543 C 22.125 79.32 33.793 91.688 42.035 83.91 L 43.316 82.703 L 43.289 82.727 L 44.652 81.453 C 52.926 73.711 41.313 61.297 33.035 69.039 L 31.676 70.313 L 31.648 70.336 Z M 33.031 69.043 C 24.762 76.789 36.383 89.199 44.656 81.449 L 46.094 80.102 L 46.09 80.105 L 47.59 78.703 C 55.863 70.961 44.25 58.547 35.973 66.289 L 34.477 67.691 L 34.473 67.695 Z M 35.973 66.289 C 27.699 74.031 39.313 86.445 47.59 78.703 L 49.121 77.27 L 49.117 77.273 L 50.699 75.793 C 58.984 68.059 47.379 55.633 39.098 63.371 L 37.512 64.852 L 37.508 64.855 Z M 39.098 63.371 C 30.813 71.105 42.418 83.531 50.699 75.793 L 52.355 74.246 L 52.34 74.262 L 54.043 72.68 C 62.348 64.969 50.777 52.512 42.473 60.227 L 40.77 61.809 L 40.754 61.824 Z M 42.504 60.199 C 34.164 67.871 45.672 80.383 54.012 72.711 L 55.734 71.125 L 55.707 71.148 L 57.461 69.551 C 65.836 61.914 54.383 49.352 46.008 56.988 L 44.254 58.586 L 44.227 58.613 Z M 46.059 56.945 C 37.621 64.512 48.977 77.164 57.41 69.598 L 59.203 67.988 L 59.219 67.977 L 61.023 66.348 C 69.445 58.762 58.066 46.129 49.648 53.715 L 47.84 55.348 L 47.852 55.336 Z M 49.551 53.805 C 41.246 61.52 52.82 73.973 61.121 66.258 L 62.918 64.59 L 64.719 62.914 C 73.023 55.199 61.449 42.746 53.148 50.461 L 51.344 52.137 Z M 53.242 50.375 C 44.824 57.961 56.207 70.59 64.625 63 L 66.457 61.352 L 66.445 61.363 L 68.27 59.723 C 76.703 52.152 65.344 39.504 56.91 47.074 L 55.086 48.711 L 55.074 48.723 Z M 56.852 47.129 C 48.492 54.777 59.965 67.32 68.328 59.672 L 70.109 58.043 L 70.109 58.039 L 71.867 56.43 C 80.227 48.781 68.75 36.238 60.391 43.891 L 58.633 45.5 Z M 60.438 43.848 C 52.02 51.441 63.406 64.063 71.82 56.473 L 73.582 54.883 L 73.57 54.898 L 75.285 53.355 C 83.719 45.785 72.359 33.137 63.926 40.707 L 62.211 42.25 L 62.195 42.262 Z M 63.93 40.703 C 55.492 48.273 66.848 60.926 75.281 53.359 L 76.91 51.898 L 76.922 51.887 L 78.477 50.484 C 86.895 42.898 75.512 30.27 67.094 37.859 L 65.543 39.258 L 65.555 39.246 Z M 67.027 37.918 C 58.691 45.594 70.203 58.102 78.543 50.426 L 80.02 49.066 L 80.008 49.078 L 81.406 47.793 C 89.762 40.133 78.273 27.605 69.922 35.262 L 68.52 36.547 L 68.508 36.559 Z M 70.031 35.16 C 61.543 42.672 72.809 55.402 81.297 47.895 L 82.625 46.719 L 82.582 46.754 L 83.832 45.668 C 92.371 38.215 81.191 25.406 72.652 32.859 L 71.406 33.945 L 71.363 33.984 Z M 72.652 32.859 C 64.113 40.313 75.297 53.117 83.832 45.664 L 84.988 44.656 L 85 44.645 L 86.066 43.711 C 94.586 36.238 83.375 23.457 74.855 30.93 L 73.793 31.863 L 73.805 31.852 Z M 74.777 31 C 66.352 38.578 77.715 51.219 86.145 43.641 L 87.113 42.77 L 88.004 41.969 C 96.43 34.391 85.066 21.75 76.637 29.328 L 75.75 30.129 Z M 76.754 29.223 C 68.188 36.645 79.316 49.492 87.887 42.074 L 88.703 41.367 L 88.691 41.375 L 89.434 40.734 C 98.012 33.332 86.906 20.461 78.324 27.867 L 77.582 28.508 L 77.574 28.516 Z M 78.191 27.984 C 69.77 35.57 81.145 48.203 89.566 40.617 L 90.18 39.957 L 90.715 39.363 C 98.973 31.926 87.816 19.539 79.559 26.973 L 78.914 27.445 L 78.91 27.445 Z M 79.73 26.824 C 71.273 34.035 82.086 46.723 90.543 39.512 L 90.93 38.918 L 90.844 38.988 L 91.156 38.465 C 99.301 31.719 89.18 19.508 81.039 26.254 L 80.465 26.465 L 80.379 26.539 Z M 81.023 26.266 C 72.898 33.027 83.043 45.219 91.172 38.453 L 91.355 37.934 L 91.23 38.035 L 91.348 37.578 C 99.027 31.457 89.844 19.941 82.168 26.063 L 81.695 26.078 L 81.57 26.18 Z M 82.535 25.785 C 74.488 31.414 82.934 43.484 90.98 37.855 L 90.996 37.367 L 90.555 37.652 L 90.535 37.207 C 98.082 32.73 91.363 21.406 83.816 25.887 L 83.438 25.656 L 83 25.938 Z M 84.676 25.457 C 76.559 28.789 81.555 40.969 89.676 37.637 L 89.605 37.125 L 87.469 37.578 L 87.516 37.074 C 94.953 36.863 94.637 25.707 87.195 25.918 L 87.121 25.418 L 84.988 25.871 Z M 92.82 32.637 C 94.34 25.355 83.414 23.07 81.891 30.355 L 82.445 30.504 L 83.266 28.625 L 83.68 29.027 C 80.246 33.852 87.484 39 90.914 34.176 L 91.434 34.434 L 92.254 32.555 Z M 91.066 33.945 C 94.195 28.918 86.652 24.23 83.527 29.258 L 83.949 29.68 L 84.063 29.504 L 84.434 29.992 C 81.93 33.574 87.297 37.328 89.801 33.75 L 90.387 33.93 L 90.504 33.754 Z M 89.734 33.844 C 92.363 30.355 87.129 26.41 84.5 29.898 L 84.797 30.441 L 84.941 30.266 L 85.152 30.867 C 83.238 33.008 86.449 35.883 88.363 33.742 L 88.988 33.887 L 89.133 33.711 Z M 88.16 33.941 C 90.34 32.066 87.535 28.801 85.355 30.672 L 85.391 31.277 L 85.469 31.215 L 85.441 31.848 C 84.184 32.801 85.613 34.688 86.871 33.73 L 87.488 33.875 L 87.566 33.809 Z M 86.824 33.766 C 88.129 32.871 86.789 30.922 85.488 31.813 L 85.297 32.391 L 85.309 32.379 L 85.191 32.898 C 84.691 33.227 85.184 33.977 85.684 33.648 L 86.207 33.742 L 86.223 33.734 Z M 86.824 33.766"/><path fill="#f57c3a" stroke="none" d="M 33.914 23.816 C 35.332 24.551 36.43 22.426 35.016 21.691 L 34.742 20.707 L 34.695 20.684 L 34.684 19.844 C 31.449 18.281 29.102 23.129 32.332 24.695 L 33 24.184 L 32.953 24.16 Z M 32.547 24.785 C 35.898 26.07 37.824 21.035 34.469 19.754 L 34.246 19.254 L 34.199 19.234 L 33.973 18.738 C 29.621 17.156 27.25 23.68 31.598 25.262 L 32.094 25.027 L 32.047 25.012 Z M 31.445 25.203 C 35.715 26.988 38.395 20.586 34.125 18.797 L 33.98 18.336 L 33.848 18.285 L 33.727 17.844 C 28.469 15.871 25.512 23.754 30.766 25.727 L 31.148 25.477 L 31.012 25.422 Z M 31.398 25.91 C 36.895 27.039 38.594 18.793 33.094 17.66 L 32.93 17.285 L 32.188 17.195 L 32.012 16.855 C 25.512 16.609 25.141 26.359 31.645 26.605 L 31.844 26.281 L 31.098 26.191 Z M 32.965 26.477 C 39.293 24.957 37.016 15.469 30.691 16.988 L 30.504 16.723 L 27.629 18.57 L 27.328 18.465 C 22.832 24.223 31.469 30.973 35.969 25.215 L 35.793 24.949 L 32.922 26.797 Z M 37.023 22.906 C 38.445 15.738 27.691 13.605 26.273 20.777 L 25.984 20.875 L 25.922 22.746 L 25.691 23.004 C 26.742 30.949 38.66 29.371 37.605 21.426 L 37.313 21.234 L 37.254 23.105 Z M 37.281 20.117 C 34.484 12.609 23.219 16.801 26.016 24.313 L 25.926 24.695 L 26.105 25.129 L 26.094 25.617 C 29.691 33.422 41.398 28.023 37.797 20.219 L 37.418 19.914 L 37.602 20.352 Z M 37.781 20.188 C 34.141 12.402 22.465 17.867 26.109 25.652 L 26.172 26.219 L 26.328 26.531 L 26.48 27.203 C 30.754 35.215 42.773 28.805 38.496 20.789 L 38.023 20.289 L 38.18 20.602 Z M 38.227 20.328 C 33.332 12.676 21.855 20.016 26.75 27.668 L 27.047 28.43 L 27.133 28.563 L 27.523 29.434 C 32.828 37.328 44.672 29.371 39.367 21.477 L 38.711 20.785 L 38.797 20.918 Z M 39.383 21.5 C 34.113 13.582 22.234 21.488 27.508 29.406 L 27.973 30.375 L 27.992 30.398 L 28.539 31.48 C 34.063 39.703 46.395 31.422 40.875 23.199 L 40.078 22.281 L 40.098 22.305 Z M 40.855 23.172 C 35.301 14.973 23 23.309 28.559 31.508 L 29.211 32.711 L 29.227 32.738 L 29.969 34.063 C 35.762 42.535 48.477 33.844 42.68 25.367 L 41.715 24.199 L 41.73 24.223 Z M 42.676 25.359 C 36.867 16.895 24.168 25.605 29.973 34.07 L 30.816 35.512 L 30.855 35.566 L 31.793 37.125 C 37.859 45.805 50.883 36.707 44.816 28.023 L 43.676 26.605 L 43.715 26.664 Z M 44.734 27.91 C 38.512 19.336 25.656 28.668 31.875 37.238 L 32.945 38.891 L 32.965 38.922 L 34.125 40.684 C 40.551 49.453 53.707 39.816 47.281 31.047 L 45.953 29.41 L 45.973 29.438 Z M 47.293 31.063 C 40.895 22.273 27.711 31.875 34.113 40.664 L 35.359 42.523 L 35.34 42.496 L 36.652 44.461 C 43.152 53.461 56.652 43.711 50.152 34.711 L 48.699 32.848 L 48.68 32.82 Z M 50.195 34.773 C 43.777 25.715 30.191 35.34 36.609 44.398 L 37.988 46.473 L 37.98 46.457 L 39.422 48.621 C 45.926 57.848 59.766 48.09 53.258 38.863 L 51.703 36.777 L 51.691 36.762 Z M 53.25 38.848 C 46.727 29.637 32.906 39.422 39.43 48.637 L 40.977 50.852 L 40.984 50.859 L 42.586 53.145 C 49.152 62.383 63.008 52.535 56.445 43.297 L 54.816 41.035 L 54.824 41.043 Z M 56.414 43.254 C 49.797 34.055 35.996 43.984 42.617 53.184 L 44.285 55.504 L 44.262 55.473 L 45.953 57.844 C 52.531 67.074 66.375 57.207 59.797 47.977 L 58.105 45.605 L 58.082 45.574 Z M 59.879 48.094 C 53.453 38.754 39.449 48.391 45.871 57.727 L 47.551 60.168 L 47.527 60.133 L 49.207 62.602 C 55.582 71.973 69.637 62.41 63.262 53.039 L 61.582 50.57 L 61.559 50.535 Z M 63.242 53.012 C 56.828 43.668 42.813 53.285 49.227 62.629 L 50.914 65.09 L 50.898 65.07 L 52.57 67.52 C 58.957 76.883 73 67.305 66.617 57.941 L 64.945 55.488 L 64.93 55.469 Z M 66.66 58.008 C 60.359 48.586 46.23 58.035 52.527 67.453 L 54.16 69.898 L 54.152 69.883 L 55.754 72.293 C 62.031 81.73 76.188 72.313 69.91 62.879 L 68.305 60.469 L 68.293 60.453 Z M 69.891 62.852 C 63.574 53.438 49.457 62.91 55.773 72.324 L 57.352 74.672 L 57.355 74.68 L 58.895 76.969 C 65.219 86.375 79.328 76.887 73.004 67.484 L 71.465 65.195 L 71.469 65.199 Z M 73.008 67.492 C 66.691 58.078 52.574 67.555 58.891 76.965 L 60.387 79.191 L 60.395 79.207 L 61.84 81.348 C 68.176 90.742 82.27 81.238 75.934 71.844 L 74.492 69.703 L 74.504 69.719 Z M 75.902 71.797 C 69.504 62.441 55.473 72.039 61.871 81.395 L 63.254 83.414 L 63.266 83.43 L 64.582 85.344 C 71 94.688 85.012 85.059 78.59 75.719 L 77.277 73.805 L 77.285 73.816 Z M 78.605 75.738 C 72.215 66.379 58.176 75.965 64.566 85.324 L 65.852 87.102 L 65.859 87.113 L 67.07 88.773 C 73.383 97.996 87.211 88.523 80.898 79.305 L 79.789 77.574 L 79.793 77.582 Z M 80.875 79.266 C 74.512 70.082 60.73 79.625 67.094 88.813 L 68.297 90.309 L 68.309 90.328 L 69.426 91.699 C 75.609 100.574 88.922 91.297 82.738 82.422 L 81.84 80.898 L 81.855 80.918 Z M 82.727 82.402 C 76.52 73.543 63.23 82.855 69.438 91.715 L 70.52 92.91 L 70.512 92.902 L 71.492 93.961 C 77.387 102.398 90.039 93.559 84.148 85.125 L 83.488 83.836 L 83.48 83.824 Z M 84.195 85.191 C 78.395 76.695 65.645 85.395 71.445 93.895 L 72.406 94.762 L 72.391 94.738 L 73.258 95.469 C 78.57 103.316 90.34 95.348 85.023 87.5 L 84.668 86.426 L 84.652 86.402 Z M 85.02 87.488 C 79.691 79.652 67.938 87.645 73.262 95.48 L 74.164 96.008 L 74.195 96.051 L 74.996 96.422 C 79.707 103.23 89.922 96.164 85.207 89.352 L 85.145 88.473 L 85.176 88.52 Z M 85.082 89.18 C 80.141 82.535 70.176 89.953 75.121 96.594 L 75.891 96.695 L 76.016 96.855 L 76.668 96.777 C 80.918 102.074 88.859 95.699 84.613 90.402 L 84.832 89.781 L 84.957 89.945 Z M 84.582 90.367 C 80.285 85.109 72.402 91.559 76.699 96.813 L 77.27 96.57 L 84.902 95.441 L 84.363 95.188 C 86.352 90.383 79.145 87.398 77.16 92.203 L 76.598 92.004 L 84.23 90.879 Z M 77.082 94.992 C 78.813 99.895 86.168 97.305 84.441 92.398 L 83.805 92.379 L 83.715 92.148 L 83.004 92.008 C 81.547 88.695 76.578 90.883 78.035 94.195 L 77.656 94.809 L 77.566 94.578 Z M 78.094 94.324 C 79.723 97.555 84.57 95.113 82.945 91.879 L 82.188 91.602 L 81.363 91.188 C 80.398 89.266 77.512 90.715 78.48 92.641 L 78.32 93.547 L 78.32 93.551 Z M 78.457 92.598 C 79.371 94.551 82.297 93.18 81.387 91.23 L 80.613 90.641 L 80.617 90.641 L 79.793 89.938 C 79.387 89.07 78.082 89.676 78.488 90.547 L 78.5 91.629 Z M 78.492 90.555 C 78.91 91.418 80.207 90.793 79.789 89.93 L 78.965 88.902 L 78.238 88.086 C 78.16 87.93 77.93 88.043 78.004 88.199 L 78.199 89.273 Z M 78.492 90.555"/><path fill="#f57c3a" stroke="none" d="M 56.297 9.293 C 56.547 11.367 59.656 10.992 59.406 8.918 L 60.32 8.563 L 60.277 8.313 L 61.176 7.973 C 60.168 3.461 53.398 4.973 54.41 9.488 L 55.367 9.41 L 55.324 9.164 Z M 54.328 8.832 C 54.461 13.453 61.395 13.254 61.258 8.629 L 61.691 8.492 L 61.688 8.758 L 62.125 8.684 C 62.355 2.906 53.688 2.563 53.461 8.34 L 53.891 8.449 L 53.891 8.719 Z M 54.004 10.617 C 56.809 15.672 64.391 11.461 61.582 6.406 L 61.895 6.227 L 53.102 8.785 L 52.746 8.867 C 53.148 15.598 63.242 14.992 62.84 8.266 L 62.477 8.227 L 53.684 10.785 Z M 62.77 7.676 C 61.582 1.043 51.629 2.82 52.816 9.457 L 52.551 9.629 L 52.555 9.645 L 52.301 9.902 C 53.648 17.301 64.746 15.281 63.402 7.883 L 63.078 7.73 L 63.078 7.746 Z M 63.398 7.859 C 62.023 0.465 50.93 2.527 52.305 9.922 L 52.145 10.27 L 52.117 10.133 L 51.961 10.566 C 53.258 18.578 65.277 16.637 63.984 8.621 L 63.699 8.258 L 63.672 8.121 Z M 64.008 8.797 C 62.945 0.75 50.875 2.344 51.938 10.391 L 51.852 10.898 L 51.824 10.68 L 51.73 11.285 C 52.547 19.77 65.273 18.547 64.457 10.063 L 64.25 9.484 L 64.223 9.266 Z M 64.48 10.402 C 64.121 1.887 51.348 2.426 51.707 10.941 L 51.625 11.641 L 51.625 11.605 L 51.543 12.418 C 51.859 21.234 65.082 20.754 64.762 11.941 L 64.621 11.133 L 64.621 11.094 Z M 64.754 11.754 C 64.188 2.953 50.984 3.805 51.551 12.605 L 51.523 13.551 L 51.52 13.504 L 51.492 14.566 C 52.012 23.605 65.57 22.828 65.055 13.789 L 64.906 12.738 L 64.902 12.691 Z M 65.063 13.98 C 64.801 4.93 51.227 5.32 51.484 14.371 L 51.441 15.527 L 51.438 15.469 L 51.387 16.746 C 51.57 26.008 65.461 25.73 65.277 16.469 L 65.176 15.195 L 65.172 15.133 Z M 65.277 16.465 C 65.09 7.203 51.195 7.484 51.387 16.746 L 51.34 18.172 L 51.34 18.164 L 51.297 19.711 C 51.477 29.168 65.664 28.898 65.484 19.438 L 65.383 17.895 L 65.383 17.887 Z M 65.484 19.422 C 65.281 9.965 51.094 10.27 51.297 19.727 L 51.262 21.367 L 51.262 21.324 L 51.219 23.086 C 51.371 32.73 65.836 32.504 65.688 22.859 L 65.59 21.102 L 65.59 21.063 Z M 65.688 22.957 C 65.668 13.313 51.199 13.344 51.219 22.988 L 51.16 24.895 L 51.16 24.867 L 51.094 26.895 C 51.074 36.711 65.797 36.738 65.813 26.926 L 65.754 24.895 L 65.754 24.867 Z M 65.813 26.883 C 65.777 17.07 51.059 17.121 51.094 26.938 L 51.043 29.066 L 51.043 29.016 L 50.98 31.254 C 50.949 41.215 65.891 41.266 65.926 31.305 L 65.875 29.066 L 65.875 29.012 Z M 65.922 31.445 C 66.145 21.488 51.207 21.152 50.984 31.109 L 50.883 33.461 L 50.883 33.422 L 50.77 35.871 C 50.488 45.957 65.613 46.375 65.895 36.293 L 65.914 33.84 L 65.918 33.801 Z M 65.895 36.25 C 66.121 26.168 50.992 25.828 50.77 35.914 L 50.672 38.461 L 50.672 38.445 L 50.57 41.07 C 50.324 51.258 65.602 51.633 65.852 41.445 L 65.875 38.816 L 65.879 38.801 Z M 65.848 41.504 C 66.176 31.32 50.898 30.828 50.574 41.016 L 50.457 43.707 L 50.461 43.691 L 50.336 46.445 C 49.988 56.703 65.375 57.227 65.727 46.969 L 65.789 44.211 L 65.789 44.199 Z M 65.727 46.953 C 66.055 36.695 50.664 36.203 50.336 46.461 L 50.227 49.273 L 50.227 49.277 L 50.113 52.129 C 49.789 62.445 65.266 62.934 65.59 52.617 L 65.656 49.762 L 65.656 49.766 Z M 65.59 52.625 C 65.926 42.305 50.449 41.805 50.113 52.121 L 50.004 55.004 L 50.004 55.023 L 49.902 57.914 C 49.594 68.273 65.133 68.734 65.441 58.375 L 65.512 55.484 L 65.512 55.508 Z M 65.441 58.313 C 65.668 47.953 50.125 47.617 49.902 57.977 L 49.828 60.848 L 49.828 60.867 L 49.762 63.715 C 49.563 74.105 65.148 74.406 65.348 64.016 L 65.391 61.168 L 65.391 61.188 Z M 65.348 64.043 C 65.586 53.652 50 53.297 49.762 63.684 L 49.695 66.492 L 49.695 66.512 L 49.633 69.258 C 49.418 79.656 65.02 79.98 65.234 69.578 L 65.285 66.832 L 65.285 66.852 Z M 65.234 69.516 C 65.363 59.113 49.762 58.922 49.633 69.32 L 49.605 71.984 L 49.605 72.004 L 49.59 74.574 C 49.484 84.957 65.059 85.113 65.16 74.73 L 65.195 72.16 L 65.195 72.18 Z M 65.16 74.762 C 65.309 64.383 49.734 64.16 49.59 74.543 L 49.586 77 L 49.582 77.02 L 49.586 79.363 C 49.465 89.664 64.918 89.848 65.039 79.543 L 65.098 77.203 L 65.098 77.223 Z M 65.039 79.48 C 65.074 69.18 49.621 69.125 49.586 79.426 L 49.641 81.652 L 49.641 81.707 L 49.715 83.797 C 49.75 93.93 64.949 93.875 64.91 83.742 L 64.969 81.652 L 64.969 81.707 Z M 64.91 83.648 C 64.746 73.516 49.551 73.762 49.715 83.895 L 49.848 85.828 L 49.848 85.836 L 49.98 87.621 C 50.152 97.48 64.941 97.223 64.77 87.363 L 64.84 85.574 L 64.84 85.586 Z M 64.77 87.457 C 64.723 77.598 49.934 77.668 49.98 87.527 L 50.164 89.164 L 50.164 89.094 L 50.332 90.586 C 50.285 99.973 64.367 100.047 64.418 90.66 L 64.602 89.168 L 64.602 89.098 Z M 64.414 90.727 C 64.555 81.34 50.473 81.129 50.336 90.516 L 50.59 91.871 L 50.594 91.727 L 50.824 92.926 C 50.516 101.574 63.488 102.039 63.801 93.391 L 64.117 92.211 L 64.121 92.07 Z M 63.785 93.637 C 64.426 85.008 51.48 84.047 50.84 92.676 L 51.172 93.715 L 51.203 93.402 L 51.504 94.281 C 50.555 101.785 61.813 103.211 62.762 95.707 L 63.273 94.93 L 63.305 94.617 Z M 62.684 96.18 C 64.266 88.781 53.168 86.406 51.582 93.805 L 51.953 94.547 L 52.16 93.828 L 52.48 94.453 C 50.324 100.254 59.027 103.492 61.184 97.688 L 61.832 97.426 L 62.043 96.707 Z M 60.535 98.871 C 64.27 93.934 56.863 88.332 53.129 93.27 L 53.375 93.859 L 55.457 92.414 L 55.391 93.012 C 50.879 94.375 52.922 101.145 57.438 99.781 L 57.82 100.242 L 59.898 98.793 Z M 54.863 99.574 C 59.102 101.641 62.203 95.285 57.965 93.219 L 57.473 93.59 L 58.352 94.246 L 57.66 94.309 C 55.457 91.934 51.891 95.234 54.09 97.613 L 53.977 98.301 L 54.855 98.953 Z M 53.852 97.305 C 55.645 100.008 59.691 97.316 57.898 94.617 L 57.145 94.379 L 57.219 94.504 L 56.406 94.074 C 55.473 92.406 52.973 93.809 53.906 95.473 L 53.848 96.395 L 53.926 96.516 Z M 53.875 95.418 C 54.738 97.125 57.297 95.836 56.438 94.129 L 55.672 93.516 L 55.684 93.543 L 54.875 92.785 C 54.523 92.039 53.41 92.566 53.758 93.309 L 53.828 94.414 L 53.84 94.438 Z M 53.754 93.301 C 54.094 94.051 55.219 93.543 54.879 92.793 L 54.07 91.664 L 53.367 90.75 C 53.324 90.656 53.188 90.719 53.227 90.813 L 53.438 91.949 Z M 53.754 93.301"/><path fill="#f57c3a" stroke="none" d="M 7.285 54.422 C 6.926 56.039 9.352 56.582 9.715 54.965 L 10.621 55.063 L 10.379 55.684 L 11.199 56.078 C 13.262 52.555 7.977 49.465 5.918 52.984 L 6.664 53.508 L 6.422 54.125 Z M 6.152 52.641 C 3.633 55.852 8.445 59.633 10.965 56.422 L 11.375 56.648 L 10.586 57.387 L 10.922 57.715 C 15.316 54.727 10.828 48.137 6.438 51.129 L 6.621 51.563 L 5.832 52.301 Z M 7.652 50.574 C 2.52 51.945 4.574 59.645 9.707 58.273 L 9.945 58.641 L 9.328 58.762 L 9.547 59.152 C 15.93 58.398 14.793 48.824 8.414 49.582 L 8.289 50.016 L 7.672 50.137 Z M 8.824 49.551 C 2.402 49.758 2.715 59.395 9.137 59.184 L 9.359 59.555 L 9.059 59.559 L 9.32 59.941 C 16.754 60.133 17.035 48.98 9.602 48.793 L 9.324 49.164 L 9.023 49.164 Z M 9.785 48.801 C 2.363 48.367 1.711 59.5 9.137 59.934 L 9.465 60.297 L 9.34 60.289 L 9.738 60.664 C 18.063 61.332 19.063 48.848 10.738 48.18 L 10.285 48.488 L 10.156 48.477 Z M 10.891 48.195 C 2.586 47.324 1.281 59.781 9.586 60.652 L 10.051 60.977 L 10.094 60.98 L 10.656 61.309 C 19.695 62.195 21.023 48.641 11.984 47.754 L 11.367 47.969 L 11.41 47.973 Z M 11.75 47.734 C 2.688 47.16 1.824 60.754 10.891 61.328 L 11.598 61.602 L 11.543 61.598 L 12.363 61.883 C 22.023 62.57 23.055 48.082 13.395 47.391 L 12.543 47.559 L 12.488 47.555 Z M 13.648 47.414 C 4.02 46.387 2.477 60.832 12.109 61.859 L 13.016 62.156 L 12.961 62.152 L 13.988 62.469 C 24.137 63.625 25.871 48.402 15.723 47.246 L 14.652 47.32 L 14.598 47.316 Z M 15.699 47.242 C 5.547 46.117 3.859 61.348 14.012 62.469 L 15.18 62.777 L 15.234 62.785 L 16.547 63.102 C 27.18 64.203 28.836 48.254 18.203 47.152 L 16.852 47.191 L 16.906 47.195 Z M 18.082 47.141 C 7.434 46.195 6.02 62.168 16.668 63.113 L 18.137 63.398 L 18.168 63.402 L 19.789 63.699 C 30.859 64.633 32.266 48.027 21.195 47.094 L 19.547 47.109 L 19.578 47.113 Z M 21.215 47.094 C 10.148 46.133 8.703 62.734 19.77 63.695 L 21.551 63.934 L 21.547 63.934 L 23.473 64.188 C 34.762 65.172 36.242 48.238 24.949 47.25 L 23.012 47.168 L 23.008 47.168 Z M 24.965 47.254 C 13.676 46.246 12.168 63.18 23.457 64.188 L 25.52 64.371 L 25.539 64.371 L 27.73 64.563 C 39.023 65.547 40.496 48.609 29.207 47.625 L 27.012 47.434 L 27.031 47.438 Z M 29.137 47.621 C 17.84 46.73 16.5 63.676 27.801 64.566 L 30.113 64.75 L 30.098 64.75 L 32.52 64.945 C 43.816 65.859 45.188 48.914 33.895 48 L 31.469 47.805 L 31.449 47.805 Z M 33.984 48.008 C 22.699 46.973 21.145 63.902 32.43 64.938 L 34.961 65.168 L 34.926 65.168 L 37.551 65.418 C 48.832 66.5 50.457 49.578 39.176 48.496 L 36.551 48.246 L 36.512 48.242 Z M 39.18 48.496 C 27.902 47.406 26.266 64.328 37.547 65.418 L 40.262 65.68 L 40.246 65.68 L 43.043 65.957 C 54.324 67.07 55.992 50.152 44.715 49.039 L 41.914 48.762 L 41.898 48.758 Z M 44.719 49.039 C 33.441 47.918 31.758 64.832 43.039 65.953 L 45.918 66.242 L 45.875 66.238 L 48.816 66.543 C 60.09 67.723 61.855 50.813 50.582 49.637 L 47.641 49.328 L 47.602 49.324 Z M 50.676 49.648 C 39.418 48.344 37.465 65.23 48.723 66.535 L 51.707 66.879 L 51.68 66.875 L 54.691 67.234 C 65.945 68.57 67.953 51.691 56.699 50.352 L 53.688 49.996 L 53.66 49.992 Z M 56.664 50.348 C 45.402 49.059 43.469 65.949 54.727 67.238 L 57.746 67.586 L 57.734 67.582 L 60.77 67.938 C 72.023 69.246 73.988 52.359 62.73 51.051 L 59.695 50.695 L 59.684 50.695 Z M 62.785 51.055 C 51.535 49.676 49.465 66.551 60.715 67.93 L 63.777 68.305 L 63.758 68.301 L 66.813 68.684 C 78.059 70.094 80.168 53.223 68.922 51.816 L 65.867 51.434 L 65.848 51.43 Z M 68.914 51.816 C 57.668 50.418 55.574 67.289 66.82 68.688 L 69.832 69.059 L 69.805 69.055 L 72.789 69.438 C 84.031 70.867 86.18 54.004 74.938 52.574 L 71.953 52.191 L 71.926 52.188 Z M 75.012 52.582 C 63.781 51.051 61.484 67.898 72.715 69.426 L 75.684 69.832 L 75.66 69.828 L 78.574 70.23 C 89.797 71.793 92.137 54.953 80.91 53.395 L 78 52.988 L 77.977 52.984 Z M 80.883 53.391 C 69.652 51.867 67.371 68.715 78.602 70.234 L 81.422 70.617 L 81.414 70.617 L 84.168 70.992 C 95.398 72.523 97.695 55.68 86.465 54.148 L 83.711 53.773 L 83.703 53.773 Z M 86.5 54.152 C 75.273 52.578 72.91 69.414 84.133 70.988 L 86.848 71.367 L 86.832 71.367 L 89.461 71.742 C 100.684 73.332 103.07 56.504 91.852 54.91 L 89.223 54.535 L 89.211 54.535 Z M 91.852 54.91 C 80.633 53.313 78.238 70.145 89.461 71.738 L 91.965 72.098 L 94.371 72.438 C 105.59 74.039 107.988 57.207 96.77 55.609 L 94.359 55.266 Z M 96.766 55.609 C 85.547 54.016 83.152 70.844 94.375 72.438 L 96.703 72.77 L 96.699 72.77 L 98.93 73.086 C 110.152 74.684 112.547 57.855 101.328 56.258 L 99.098 55.941 L 99.094 55.938 Z M 101.328 56.258 C 90.109 54.656 87.707 71.484 98.93 73.086 L 101.07 73.301 L 101.055 73.297 L 103.078 73.496 C 114.051 75.082 116.426 58.621 105.453 57.035 L 103.461 56.656 L 103.445 56.652 Z M 105.496 57.043 C 94.535 55.402 92.07 71.848 103.035 73.488 L 104.922 73.621 L 106.676 73.734 C 117.246 75.32 119.625 59.461 109.051 57.875 L 107.344 57.469 L 107.34 57.469 Z M 109.023 57.871 C 98.445 56.324 96.125 72.191 106.703 73.738 L 108.328 73.781 L 108.398 73.793 L 109.887 73.805 C 119.973 75.184 122.043 60.055 111.957 58.672 L 110.52 58.285 L 110.594 58.293 Z M 111.789 58.652 C 101.672 57.5 99.941 72.672 110.055 73.824 L 111.418 73.707 L 111.527 73.719 L 112.742 73.563 C 122.148 74.496 123.547 60.383 114.141 59.453 L 112.977 59.063 L 113.086 59.074 Z M 114.078 59.445 C 104.664 58.594 103.387 72.719 112.805 73.57 L 113.871 73.273 L 113.973 73.281 L 114.887 72.957 C 123.27 73.586 124.215 61.012 115.832 60.383 L 114.98 59.922 L 115.078 59.93 Z M 115.766 60.375 C 107.379 59.832 106.563 72.418 114.953 72.961 L 115.719 72.5 L 116.023 72.512 L 116.617 72.008 C 123.66 72.094 123.789 61.523 116.742 61.438 L 116.164 60.922 L 116.469 60.934 Z M 115.93 61.492 C 108.957 62.492 110.457 72.953 117.43 71.953 L 117.781 71.332 L 118.688 71.105 L 118.789 70.469 C 124.004 68.617 121.227 60.797 116.008 62.648 L 115.531 62.215 L 116.441 61.992 Z M 114.953 63.207 C 110.48 66.469 115.375 73.176 119.844 69.91 L 119.664 69.332 L 121.094 66.957 L 120.547 66.719 C 121.121 62.762 115.184 61.902 114.609 65.859 L 114.02 65.93 L 115.449 63.559 Z M 114.918 67.676 C 116.77 71.223 122.086 68.449 120.238 64.902 L 119.637 64.941 L 119.27 64.418 L 118.613 64.523 C 116.906 62.66 114.113 65.227 115.824 67.086 L 115.664 67.73 L 115.297 67.207 Z M 116.012 67.266 C 117.957 68.879 120.375 65.957 118.426 64.344 L 117.742 64.387 L 117.684 64.34 L 116.887 64.34 C 115.867 63.582 114.73 65.113 115.754 65.871 L 115.984 66.633 L 115.926 66.582 Z M 115.766 65.883 C 116.805 66.621 117.91 65.066 116.875 64.328 L 115.934 64.074 L 115.93 64.07 L 115.102 63.902 C 114.797 63.691 114.477 64.148 114.781 64.363 L 115.223 65.082 L 115.219 65.078 Z M 115.766 65.883"/></g></g></g></svg>
</svg>