<?xml version="1.0" standalone="no"?>
<svg height="603.968" preserveAspectRatio="none" viewBox="0.000 0.000 807.512 603.968" width="807.512" x="0.000" xmlns="http://www.w3.org/2000/svg" xmlns:svg="http://www.w3.org/2000/svg" xmlns:xlink="http://www.w3.org/1999/xlink" y="0.000">
<svg width="807.512" height="603.968" xmlns="http://www.w3.org/2000/svg"><defs><clipPath id="IGDK8DarclipPath1"><path fill="#000000" stroke="none" d="M 0 0 L 807.512 0 L 807.512 603.968 L 0 603.968 Z"/></clipPath><clipPath id="IGDK8Darclip-0"><path fill="#000000" stroke="none" d="M 752 44 L 807.512 44 L 807.512 574 L 752 574 Z M 752 44"/></clipPath><clipPath id="IGDK8Darclip-1"><path fill="#000000" stroke="none" d="M 36 552 L 761 552 L 761 603.969 L 36 603.969 Z M 36 552"/></clipPath></defs><g transform="matrix(1.0000001 0 0 1 2547.3342 1190.917)"><g transform="matrix(1 0 0 1 -2547.3337 -1190.9166)"><g clip-path="url(#IGDK8DarclipPath1)"><path fill="#f57c3a" stroke="none" d="M 30.883 78.059 C 62.457 78.059 62.457 30.695 30.883 30.695 L 30.711 30.695 C -0.867 30.695 -0.867 78.059 30.711 78.059 Z M 30.711 78.059 C 62.289 78.059 62.289 30.695 30.711 30.695 L 30.551 30.695 C -1.027 30.695 -1.027 78.059 30.551 78.059 Z M 40.324 75.949 C 69.086 62.922 49.543 19.773 20.781 32.805 L 20.449 32.953 C -8.316 45.984 11.23 89.129 39.992 76.102 Z M 45.758 72.402 C 69.59 51.684 38.516 15.938 14.684 36.652 L 14.523 36.793 C -9.309 57.508 21.766 93.254 45.598 72.539 Z M 49.137 68.703 C 67.852 43.27 29.703 15.195 10.988 40.629 L 10.656 41.078 C -8.059 66.512 30.09 94.586 48.805 69.152 Z M 51.98 63.23 C 62.801 33.563 18.305 17.332 7.48 47 L 7.324 47.438 C -3.5 77.102 41 93.332 51.82 63.668 Z M 52.879 59.75 C 58.48 28.676 11.863 20.277 6.266 51.352 L 6.105 52.238 C 0.504 83.316 47.121 91.715 52.719 60.637 Z M 52.855 59.809 C 57.348 28.551 10.461 21.813 5.969 53.07 L 5.801 54.254 C 1.309 85.512 48.191 92.25 52.684 60.992 Z M 52.785 60.176 C 56.188 28.781 9.098 23.68 5.695 55.074 L 5.535 56.547 C 2.133 87.941 49.227 93.043 52.625 61.648 Z M 52.703 60.805 C 54.98 29.309 7.734 25.895 5.461 57.391 L 5.301 59.602 C 3.023 91.098 50.27 94.512 52.543 63.016 Z M 52.441 64.082 C 56.141 32.723 9.102 27.176 5.402 58.535 L 5.07 61.332 C 1.371 92.691 48.414 98.242 52.113 66.883 Z M 52.246 65.242 C 53.762 33.703 6.453 31.43 4.938 62.969 L 4.766 66.516 C 3.25 98.059 50.563 100.332 52.078 68.789 Z M 52.047 69.305 C 54.25 37.805 6.996 34.5 4.797 66.004 L 4.477 70.574 C 2.273 102.074 49.527 105.375 51.727 73.875 Z M 51.746 73.582 C 53.559 42.059 6.27 39.34 4.457 70.867 L 4.129 76.613 C 2.316 108.137 49.605 110.855 51.414 79.328 Z M 51.43 79.051 C 52.871 47.508 5.555 45.348 4.113 76.891 L 3.785 84.121 C 2.344 115.664 49.66 117.824 51.102 86.281 Z M 51.121 85.637 C 51.699 54.063 4.344 53.195 3.762 84.766 L 3.602 93.473 C 3.023 125.043 50.383 125.91 50.961 94.34 Z M 50.961 94.266 C 51.445 62.695 4.082 61.969 3.602 93.543 L 3.441 104.012 C 2.961 135.586 50.32 136.309 50.801 104.734 Z M 50.805 104.371 C 50.805 72.797 3.441 72.797 3.441 104.371 L 3.441 116.773 C 3.441 148.352 50.805 148.352 50.805 116.773 Z M 50.805 116.773 C 50.805 85.195 3.441 85.195 3.441 116.773 L 3.441 131.223 C 3.441 162.801 50.805 162.801 50.805 131.223 Z M 50.805 131.223 C 50.805 99.645 3.441 99.645 3.441 131.223 L 3.441 147.598 C 3.441 179.172 50.805 179.172 50.805 147.598 Z M 50.805 147.816 C 51.098 116.238 3.73 115.801 3.441 147.379 L 3.27 165.813 C 2.977 197.387 50.344 197.824 50.633 166.25 Z M 50.637 166.031 C 50.637 134.453 3.27 134.453 3.27 166.031 L 3.27 186.238 C 3.27 217.816 50.637 217.816 50.637 186.238 Z M 50.633 186.41 C 50.863 154.832 3.5 154.488 3.27 186.066 L 3.109 208.047 C 2.879 239.621 50.246 239.969 50.477 208.391 Z M 50.477 208.379 C 50.691 176.805 3.328 176.48 3.109 208.055 L 2.949 231.359 C 2.734 262.938 50.098 263.262 50.316 231.684 Z M 50.313 231.844 C 50.738 200.27 3.379 199.629 2.953 231.203 L 2.621 255.695 C 2.195 287.27 49.559 287.906 49.984 256.332 Z M 49.984 256.164 C 50.188 224.59 2.824 224.285 2.621 255.863 L 2.461 280.789 C 2.258 312.367 49.621 312.672 49.824 281.094 Z M 49.824 281.254 C 50.238 249.68 2.879 249.055 2.461 280.629 L 2.133 305.695 C 1.715 337.27 49.078 337.895 49.492 306.32 Z M 49.492 306.32 C 49.91 274.746 2.551 274.121 2.133 305.695 L 1.801 330.625 C 1.383 362.199 48.746 362.824 49.164 331.25 Z M 49.164 331.094 C 49.375 299.516 2.008 299.203 1.801 330.781 L 1.641 354.973 C 1.434 386.547 48.797 386.859 49.004 355.285 Z M 49.004 355.301 C 49.234 323.723 1.867 323.379 1.641 354.957 L 1.469 378.563 C 1.242 410.137 48.605 410.48 48.836 378.902 Z M 48.836 378.898 C 49.059 347.324 1.695 346.988 1.469 378.563 L 1.309 401.133 C 1.086 432.707 48.453 433.043 48.676 401.469 Z M 48.676 401.301 C 48.676 369.723 1.309 369.723 1.309 401.301 L 1.309 422.543 C 1.309 454.121 48.676 454.121 48.676 422.543 Z M 48.676 422.73 C 48.926 391.156 1.563 390.777 1.309 422.355 L 1.152 442.414 C 0.898 473.988 48.266 474.367 48.516 442.789 Z M 48.516 442.82 C 48.809 411.246 1.445 410.805 1.152 442.379 L 0.98 460.664 C 0.688 492.242 48.051 492.684 48.344 461.105 Z M 48.344 461.113 C 48.648 429.539 1.285 429.082 0.98 460.656 L 0.82 477.18 C 0.516 508.754 47.879 509.215 48.184 477.637 Z M 48.188 477.41 C 48.188 445.832 0.82 445.832 0.82 477.41 L 0.82 492.02 C 0.82 523.598 48.188 523.598 48.188 492.02 Z M 48.188 492.02 C 48.188 460.441 0.82 460.441 0.82 492.02 L 0.82 504.547 C 0.82 536.125 48.188 536.125 48.188 504.547 Z M 48.188 504.547 C 48.188 472.969 0.82 472.969 0.82 504.547 L 0.82 515.023 C 0.82 546.602 48.188 546.602 48.188 515.023 Z M 48.188 515.023 C 48.188 483.449 0.82 483.449 0.82 515.023 L 0.82 523.281 C 0.82 554.859 48.188 554.859 48.188 523.281 Z M 48.188 523.281 C 48.188 491.703 0.82 491.703 0.82 523.281 L 0.82 529.625 C 0.82 561.203 48.188 561.203 48.188 529.625 Z M 48.105 531.582 C 50.711 500.113 3.508 496.199 0.902 527.668 L 0.57 531.652 C -2.035 563.121 45.168 567.035 47.773 535.566 Z M 47.121 539.457 C 54.918 508.855 9.02 497.16 1.223 527.762 L 0.734 529.684 C -7.063 560.285 38.836 571.981 46.633 541.379 Z M 47.121 539.457"/><path fill="#f57c3a" stroke="none" d="M 78.016 24.324 C 78.016 -5.676 33.016 -5.676 33.016 24.324 L 33.016 24.605 C 33.016 54.605 78.016 54.605 78.016 24.605 Z M 70.25 41.609 C 92.922 21.961 63.449 -12.043 40.777 7.605 L 40.625 7.734 C 17.957 27.383 47.426 61.391 70.098 41.742 Z M 75.195 35.363 C 89.363 8.918 49.695 -12.332 35.527 14.113 L 35.379 14.398 C 21.211 40.844 60.879 62.094 75.043 35.648 Z M 74.746 36.188 C 89.629 10.137 50.559 -12.188 35.676 13.859 L 35.512 14.145 C 20.629 40.191 59.699 62.516 74.582 36.469 Z M 77.547 25.305 C 77.547 -4.695 32.547 -4.695 32.547 25.305 L 32.547 25.438 C 32.547 55.438 77.547 55.438 77.547 25.438 Z M 32.547 25.438 C 32.547 55.438 77.547 55.438 77.547 25.438 L 77.547 25.305 C 77.547 -4.695 32.547 -4.695 32.547 25.305 Z M 32.547 25.305 C 32.547 55.305 77.547 55.305 77.547 25.305 L 77.547 25.164 C 77.547 -4.836 32.547 -4.836 32.547 25.164 Z M 32.547 25.164 C 32.547 55.164 77.547 55.164 77.547 25.164 L 77.547 25.023 C 77.547 -4.977 32.547 -4.977 32.547 25.023 Z M 35.215 35.648 C 49.383 62.094 89.047 40.844 74.883 14.398 L 74.73 14.113 C 60.563 -12.332 20.895 8.918 35.063 35.363 Z M 50.207 46.746 C 79.547 52.996 88.926 8.988 59.586 2.734 L 58.969 2.602 C 29.629 -3.652 20.246 40.359 49.59 46.613 Z M 54.277 47.105 C 84.277 47.105 84.277 2.105 54.277 2.105 L 53.813 2.105 C 23.813 2.105 23.813 47.105 53.813 47.105 Z M 57.559 46.793 C 87.141 41.801 79.648 -2.574 50.066 2.422 L 49.285 2.555 C 19.703 7.547 27.195 51.918 56.777 46.926 Z M 58.68 46.52 C 87.719 38.988 76.426 -4.57 47.387 2.961 L 46.293 3.242 C 17.25 10.773 28.543 54.332 57.586 46.805 Z M 58.348 46.59 C 87.102 38.047 74.289 -5.09 45.531 3.453 L 44.133 3.871 C 15.375 12.414 28.191 55.551 56.949 47.008 Z M 60.457 45.633 C 87.387 32.41 67.547 -7.984 40.621 5.242 L 38.91 6.082 C 11.98 19.309 31.816 59.699 58.746 46.477 Z M 59.32 46.184 C 85.859 32.191 64.871 -7.613 38.336 6.375 L 36.469 7.359 C 9.934 21.348 30.918 61.156 57.457 47.164 Z M 58.863 46.359 C 84.324 30.492 60.527 -7.699 35.063 8.164 L 33.047 9.422 C 7.586 25.289 31.383 63.48 56.848 47.613 Z M 57.938 46.891 C 82.434 29.57 56.453 -7.172 31.957 10.145 L 29.781 11.688 C 5.285 29.004 31.262 65.75 55.758 48.43 Z M 56.055 48.215 C 80.266 30.5 53.691 -5.816 29.48 11.898 L 26.988 13.723 C 2.777 31.438 29.352 67.754 53.563 50.039 Z M 55.328 48.605 C 77.625 28.539 47.523 -4.91 25.223 15.156 L 22.895 17.254 C 0.594 37.324 30.699 70.773 52.996 50.703 Z M 53.5 50.238 C 75.176 29.5 44.07 -3.016 22.391 17.723 L 20.051 19.961 C -1.625 40.699 29.48 73.215 51.16 52.477 Z M 52.516 51.063 C 72.305 28.516 38.488 -1.172 18.695 21.375 L 16.367 24.027 C -3.426 46.574 30.391 76.262 50.184 53.715 Z M 51.547 52 C 69.051 27.637 32.504 1.383 15 25.746 L 12.984 28.551 C -4.52 52.918 32.027 79.172 49.531 54.809 Z M 50.035 54.074 C 66.563 29.035 29.008 4.246 12.48 29.285 L 10.453 32.355 C -6.07 57.391 31.484 82.184 48.012 57.145 Z M 49.668 54.168 C 62.223 26.922 21.355 8.086 8.797 35.332 L 7.246 38.695 C -5.309 65.941 35.563 84.777 48.117 57.531 Z M 48.082 57.605 C 60.738 30.406 19.938 11.422 7.281 38.621 L 5.723 41.977 C -6.934 69.176 33.867 88.16 46.523 60.957 Z M 47.617 58.113 C 56.48 29.453 13.488 16.16 4.625 44.82 L 3.543 48.324 C -5.32 76.984 37.672 90.281 46.535 61.621 Z M 47.184 58.953 C 52.488 29.426 8.199 21.465 2.895 50.992 L 2.266 54.488 C -3.043 84.016 41.25 91.977 46.555 62.449 Z M 46.883 59.531 C 48.301 29.566 3.352 27.438 1.934 57.406 L 1.781 60.617 C 0.363 90.582 45.316 92.711 46.734 62.742 Z M 46.453 57.992 C 41.539 28.398 -2.852 35.77 2.063 65.367 L 2.527 68.172 C 7.441 97.766 51.836 90.395 46.918 60.801 Z M 44.641 54.016 C 30.684 27.461 -9.152 48.398 4.809 74.953 L 6.055 77.324 C 20.012 103.879 59.844 82.941 45.887 56.387 Z M 41.043 50.152 C 18.766 30.055 -11.375 63.469 10.898 83.563 L 12.762 85.246 C 35.039 105.34 65.18 71.93 42.906 51.832 Z M 36.117 47.617 C 8.223 36.574 -8.34 78.414 19.551 89.457 L 22.035 90.441 C 49.926 101.484 66.492 59.645 38.598 48.602 Z M 36.117 47.617"/><path fill="#f57c3a" stroke="none" d="M 70.449 46.684 C 100.449 46.684 100.449 1.684 70.449 1.684 L 70.133 1.684 C 40.133 1.684 40.133 46.684 70.133 46.684 Z M 76.688 45.707 C 105.387 36.973 92.285 -6.078 63.582 2.656 L 63.117 2.797 C 34.418 11.535 47.52 54.582 76.219 45.848 Z M 74.703 46.254 C 103.941 39.543 93.875 -4.316 64.637 2.395 L 64.016 2.535 C 34.777 9.246 44.844 53.105 74.082 46.395 Z M 75.602 45.992 C 104.301 37.258 91.199 -5.793 62.5 2.941 L 62.035 3.082 C 33.332 11.816 46.434 54.867 75.137 46.133 Z M 74.703 46.258 C 103.574 38.102 91.336 -5.203 62.465 2.957 L 62 3.086 C 33.129 11.246 45.367 54.551 74.238 46.391 Z M 68.117 47.238 C 98.117 47.238 98.117 2.238 68.117 2.238 L 67.965 2.238 C 37.965 2.238 37.965 47.238 67.965 47.238 Z M 67.965 2.238 C 37.965 2.238 37.965 47.238 67.965 47.238 L 68.117 47.238 C 98.117 47.238 98.117 2.238 68.117 2.238 Z M 68.117 2.238 C 38.117 2.238 38.117 47.238 68.117 47.238 L 69.668 47.238 C 99.668 47.238 99.668 2.238 69.668 2.238 Z M 66.66 2.441 C 36.93 6.453 42.949 51.051 72.68 47.035 L 74.707 46.762 C 104.434 42.75 98.414 -1.848 68.684 2.168 Z M 69.547 2.066 C 39.684 4.934 43.98 49.727 73.844 46.863 L 76.801 46.578 C 106.664 43.715 102.367 -1.078 72.504 1.785 Z M 73.188 1.73 C 43.254 3.684 46.18 48.586 76.117 46.633 L 80.313 46.359 C 110.25 44.41 107.32 -0.496 77.383 1.457 Z M 77.234 1.465 C 47.313 3.617 50.539 48.504 80.461 46.352 L 86.379 45.926 C 116.301 43.773 113.074 -1.109 83.152 1.039 Z M 83.863 1 C 53.887 2.203 55.691 47.168 85.668 45.965 L 103.082 45.266 C 133.059 44.063 131.254 -0.902 101.277 0.301 Z M 101.918 0.285 C 71.922 0.637 72.445 45.633 102.445 45.281 L 114.574 45.141 C 144.57 44.789 144.043 -0.207 114.047 0.145 Z M 114.094 0.145 C 84.094 0.43 84.527 45.43 114.523 45.141 L 129.309 45 C 159.305 44.711 158.875 -0.285 128.875 0 Z M 129.445 0.004 C 99.449 -0.469 98.742 44.523 128.738 44.996 L 146.773 45.281 C 176.77 45.754 177.477 0.758 147.48 0.285 Z M 147.57 0.289 C 117.578 -0.305 116.688 44.684 146.68 45.277 L 168.148 45.703 C 198.145 46.301 199.035 1.309 169.043 0.715 Z M 169.227 0.719 C 139.238 -0.125 137.977 44.859 167.965 45.699 L 192.848 46.398 C 222.836 47.242 224.098 2.258 194.109 1.418 Z M 194.25 1.422 C 164.27 0.391 162.723 45.363 192.707 46.395 L 221.016 47.367 C 250.996 48.398 252.543 3.426 222.559 2.395 Z M 222.605 2.395 C 192.625 1.305 190.992 46.277 220.969 47.367 L 251.922 48.492 C 281.902 49.578 283.539 4.609 253.559 3.52 Z M 253.402 3.516 C 223.418 2.633 222.09 47.613 252.078 48.496 L 285.055 49.469 C 315.043 50.352 316.371 5.371 286.383 4.488 Z M 286.375 4.488 C 256.387 3.613 255.078 48.594 285.063 49.469 L 318.813 50.453 C 348.801 51.324 350.109 6.344 320.125 5.469 Z M 319.84 5.465 C 289.844 4.969 289.102 49.961 319.098 50.457 L 352.848 51.016 C 382.84 51.512 383.586 6.516 353.59 6.02 Z M 353.508 6.02 C 323.508 5.637 322.93 50.633 352.93 51.016 L 386.059 51.441 C 416.059 51.828 416.637 6.832 386.637 6.445 Z M 386.449 6.445 C 356.449 6.313 356.25 51.313 386.25 51.445 L 418.449 51.586 C 448.449 51.719 448.645 6.719 418.645 6.586 Z M 418.445 6.586 C 388.445 6.723 388.652 51.723 418.648 51.586 L 449.602 51.445 C 479.602 51.305 479.395 6.305 449.398 6.445 Z M 449.395 6.445 C 419.395 6.586 419.605 51.586 449.605 51.445 L 479.625 51.301 C 509.625 51.16 509.414 6.16 479.414 6.301 Z M 479.41 6.301 C 449.41 6.449 449.629 51.449 479.629 51.301 L 508.707 51.16 C 538.707 51.012 538.488 6.016 508.488 6.16 Z M 508.598 6.16 C 478.598 6.16 478.598 51.16 508.598 51.16 L 536.441 51.16 C 566.441 51.16 566.441 6.16 536.441 6.16 Z M 536.559 6.16 C 506.563 6 506.32 51 536.32 51.16 L 563.078 51.301 C 593.078 51.461 593.316 6.461 563.316 6.301 Z M 563.566 6.305 C 533.57 5.813 532.836 50.809 562.832 51.301 L 588.18 51.715 C 618.176 52.207 618.914 7.211 588.918 6.719 Z M 588.949 6.723 C 558.957 6.184 558.152 51.176 588.148 51.715 L 611.945 52.141 C 641.941 52.676 642.746 7.684 612.75 7.148 Z M 613.059 7.152 C 583.074 6.207 581.652 51.184 611.637 52.133 L 633.723 52.832 C 663.707 53.781 665.133 8.801 635.148 7.852 Z M 635.219 7.855 C 605.238 6.813 603.672 51.785 633.652 52.828 L 653.715 53.527 C 683.695 54.574 685.262 9.598 655.281 8.555 Z M 655.527 8.566 C 625.559 7.191 623.5 52.145 653.469 53.516 L 671.824 54.359 C 701.793 55.73 703.856 10.777 673.887 9.406 Z M 674.023 9.414 C 644.066 7.855 641.727 52.793 671.688 54.352 L 687.856 55.191 C 717.816 56.75 720.152 11.813 690.195 10.254 Z M 690.125 10.25 C 660.16 8.785 657.965 53.734 687.93 55.195 L 702.246 55.895 C 732.211 57.359 734.402 12.41 704.441 10.949 Z M 704.859 10.973 C 674.926 8.949 671.895 53.848 701.824 55.871 L 714.266 56.711 C 744.199 58.734 747.234 13.836 717.301 11.813 Z M 717.004 11.797 C 687.047 10.168 684.609 55.102 714.563 56.73 L 724.828 57.289 C 754.785 58.914 757.223 13.98 727.266 12.352 Z M 727.535 12.371 C 697.602 10.383 694.625 55.285 724.559 57.27 L 732.957 57.828 C 762.891 59.813 765.871 14.914 735.938 12.926 Z M 735.473 12.902 C 705.504 11.535 703.453 56.488 733.422 57.855 L 739.645 58.137 C 769.613 59.504 771.66 14.551 741.691 13.184 Z M 741.348 13.172 C 711.363 12.266 710 57.246 739.988 58.152 L 744.344 58.281 C 774.332 59.188 775.691 14.211 745.703 13.305 Z M 743.668 13.332 C 713.723 15.145 716.438 60.063 746.383 58.25 L 748.563 58.121 C 778.508 56.309 775.789 11.391 745.844 13.203 Z M 743.668 13.332"/><path fill="#f57c3a" stroke="none" d="M 744.094 13.578 C 714.094 13.578 714.094 58.578 744.094 58.578 L 744.246 58.578 C 774.246 58.578 774.246 13.578 744.246 13.578 Z M 759.598 19.629 C 737.664 -0.84 706.961 32.055 728.891 52.523 L 729.043 52.668 C 750.977 73.137 781.68 40.238 759.75 19.77 Z M 759.211 19.285 C 736.637 -0.469 707.004 33.395 729.578 53.152 L 729.742 53.293 C 752.32 73.047 781.953 39.184 759.375 19.426 Z M 759.91 19.91 C 737.981 -0.559 707.273 32.34 729.207 52.809 L 729.359 52.949 C 751.289 73.422 781.992 40.523 760.063 20.055 Z M 753.41 15.754 C 725.746 4.152 708.344 45.648 736.008 57.25 L 736.324 57.383 C 763.988 68.984 781.391 27.484 753.727 15.883 Z M 751.574 15.109 C 722.875 6.375 709.773 49.426 738.473 58.16 L 738.938 58.301 C 767.641 67.035 780.742 23.984 752.043 15.25 Z M 752.043 15.25 C 723.34 6.516 710.238 49.566 738.938 58.301 L 739.406 58.441 C 768.106 67.176 781.207 24.129 752.508 15.391 Z M 749.981 14.781 C 720.465 9.414 712.414 53.688 741.93 59.055 L 742.711 59.195 C 772.227 64.563 780.277 20.289 750.762 14.922 Z M 749.656 14.75 C 719.91 10.859 714.07 55.477 743.816 59.371 L 744.902 59.512 C 774.648 63.402 780.484 18.785 750.738 14.891 Z M 752.645 15.223 C 723.344 8.793 713.695 52.746 742.996 59.18 L 744.242 59.453 C 773.547 65.883 783.195 21.93 753.891 15.5 Z M 755.023 15.777 C 726.094 7.836 714.18 51.23 743.109 59.172 L 744.66 59.598 C 773.59 67.539 785.504 24.145 756.574 16.203 Z M 755.922 16.035 C 726.766 8.961 716.156 52.691 745.313 59.766 L 747.023 60.18 C 776.18 67.254 786.789 23.523 757.633 16.449 Z M 759.668 17.047 C 731.309 7.262 716.633 49.801 744.992 59.586 L 747.02 60.285 C 775.379 70.07 790.055 27.527 761.695 17.746 Z M 761.231 17.59 C 732.668 8.422 718.914 51.27 747.481 60.438 L 749.66 61.137 C 778.223 70.305 791.977 27.457 763.41 18.289 Z M 765.277 18.98 C 737.637 7.324 720.148 48.789 747.789 60.445 L 750.121 61.43 C 777.762 73.086 795.25 31.621 767.609 19.965 Z M 768.992 20.605 C 742.203 7.102 721.949 47.285 748.738 60.789 L 751.231 62.043 C 778.02 75.547 798.273 35.363 771.484 21.859 Z M 772.035 22.148 C 745.629 7.91 724.273 47.52 750.68 61.758 L 753.008 63.016 C 779.418 77.25 800.77 37.641 774.363 23.406 Z M 776.273 24.559 C 751.406 7.777 726.234 45.078 751.102 61.859 L 753.594 63.543 C 778.461 80.324 803.633 43.02 778.766 26.242 Z M 779.969 27.113 C 756.266 8.727 728.684 44.281 752.391 62.668 L 754.559 64.352 C 778.262 82.738 805.844 47.184 782.137 28.793 Z M 783.953 30.363 C 762.344 9.559 731.129 41.973 752.742 62.781 L 754.922 64.879 C 776.531 85.688 807.742 53.27 786.133 32.461 Z M 787.777 34.227 C 768.523 11.223 734.016 40.109 753.273 63.113 L 755.148 65.352 C 774.402 88.355 808.91 59.473 789.652 36.469 Z M 791.051 38.324 C 774.273 13.457 736.969 38.625 753.75 63.492 L 755.449 66.016 C 772.231 90.887 809.535 65.719 792.754 40.848 Z M 793.75 42.469 C 779.133 16.27 739.836 38.199 754.453 64.395 L 756.016 67.191 C 770.633 93.391 809.93 71.465 795.313 45.266 Z M 796.375 47.441 C 784.664 19.824 743.234 37.395 754.949 65.016 L 756.195 67.953 C 767.91 95.57 809.336 78 797.625 50.383 Z M 798.02 51.379 C 787.633 23.234 745.414 38.809 755.801 66.957 L 756.883 69.895 C 767.27 98.039 809.488 82.461 799.102 54.316 Z M 799.805 56.582 C 792.438 27.5 748.816 38.547 756.184 67.629 L 756.961 70.711 C 764.328 99.793 807.949 88.742 800.586 59.66 Z M 800.793 60.555 C 794.617 31.195 750.578 40.461 756.754 69.816 L 757.375 72.754 C 763.547 102.113 807.586 92.852 801.41 63.492 Z M 801.551 64.234 C 796.363 34.684 752.043 42.465 757.231 72.016 L 757.695 74.668 C 762.883 104.219 807.207 96.434 802.02 66.887 Z M 802.184 68 C 798.481 38.227 753.824 43.789 757.531 73.559 L 757.844 76.082 C 761.551 105.852 806.207 100.293 802.5 70.52 Z M 802.613 71.676 C 800.445 41.754 755.563 45.004 757.731 74.926 L 757.891 77.164 C 760.059 107.086 804.941 103.836 802.773 73.914 Z M 802.832 75.539 C 802.832 45.539 757.832 45.539 757.832 75.539 L 757.832 77.355 C 757.832 107.355 802.832 107.355 802.832 77.355 Z M 802.727 75.145 C 799.777 45.289 754.996 49.707 757.941 79.563 L 758.094 81.102 C 761.039 110.957 805.824 106.539 802.875 76.684 Z M 802.984 78.895 C 802.984 48.895 757.984 48.895 757.984 78.895 L 757.984 80.148 C 757.984 110.148 802.984 110.148 802.984 80.148 Z M 802.984 80.148 C 802.984 50.148 757.984 50.148 757.984 80.148 L 757.984 80.848 C 757.984 110.848 802.984 110.848 802.984 80.848 Z M 802.984 80.848 C 802.984 50.848 757.984 50.848 757.984 80.848 L 757.984 81.133 C 757.984 111.133 802.984 111.133 802.984 81.133 Z M 802.984 80.848"/><path fill="#f57c3a" stroke="none" d="M 54.984 33.559 C 27.555 21.414 9.34 62.563 36.773 74.707 L 37.391 74.98 C 64.824 87.121 83.035 45.973 55.605 33.832 Z M 58.609 35.445 C 33.328 19.293 9.102 57.215 34.383 73.367 L 35.477 74.066 C 60.758 90.215 84.984 52.297 59.707 36.145 Z M 61.023 37.051 C 36.953 19.145 10.09 55.246 34.16 73.156 L 35.863 74.422 C 59.93 92.332 86.793 56.227 62.727 38.32 Z M 61.121 37.23 C 35.598 21.461 11.945 59.742 37.465 75.512 L 39.961 77.051 C 65.48 92.82 89.133 54.539 63.613 38.77 Z M 64.48 39.332 C 39.707 22.41 14.324 59.566 39.094 76.488 L 42.355 78.719 C 67.125 95.641 92.512 58.484 67.742 41.563 Z M 67.859 41.641 C 43.195 24.563 17.574 61.559 42.238 78.637 L 46.293 81.445 C 70.953 98.523 96.574 61.527 71.91 44.449 Z M 71.867 44.418 C 47.164 27.398 21.633 64.453 46.336 81.473 L 51.613 85.109 C 76.316 102.133 101.848 65.078 77.145 48.055 Z M 77.574 48.355 C 53.27 30.766 26.887 67.219 51.188 84.809 L 57.57 89.43 C 81.871 107.02 108.258 70.566 83.957 52.977 Z M 84.293 53.227 C 60.324 35.188 33.262 71.141 57.23 89.18 L 64.852 94.914 C 88.82 112.957 115.883 77 91.914 58.961 Z M 91.695 58.801 C 67.512 41.047 40.883 77.324 65.07 95.078 L 74.398 101.926 C 98.586 119.676 125.211 83.398 101.027 65.648 Z M 101.188 65.766 C 77.16 47.805 50.215 83.844 74.238 101.809 L 85.285 110.066 C 109.309 128.027 136.258 91.988 112.23 74.023 Z M 112.688 74.379 C 89.133 55.801 61.27 91.137 84.824 109.711 L 97.43 119.652 C 120.984 138.227 148.852 102.895 125.293 84.316 Z M 125.434 84.43 C 102.027 65.664 73.879 100.773 97.289 119.539 L 111.594 131.008 C 135 149.773 163.148 114.664 139.742 95.898 Z M 140.016 96.121 C 116.91 76.988 88.211 111.652 111.316 130.785 L 126.871 143.66 C 149.977 162.793 178.676 128.133 155.57 109 Z M 155.523 108.961 C 132.363 89.891 103.758 124.629 126.918 143.699 L 143.563 157.406 C 166.723 176.48 195.328 141.742 172.168 122.672 Z M 172.203 122.699 C 149.086 103.582 120.406 138.262 143.527 157.379 L 160.793 171.656 C 183.914 190.773 212.59 156.094 189.469 136.977 Z M 189.395 136.914 C 166.191 117.895 137.664 152.699 160.867 171.715 L 178.285 185.992 C 201.484 205.008 230.012 170.207 206.809 151.188 Z M 206.793 151.176 C 183.574 132.18 155.082 167.012 178.301 186.004 L 195.566 200.129 C 218.785 219.125 247.277 184.297 224.059 165.301 Z M 224.121 165.352 C 200.969 146.273 172.352 181 195.504 200.078 L 212.148 213.797 C 235.301 232.875 263.918 198.148 240.77 179.07 Z M 240.816 179.109 C 217.719 159.965 189.004 194.609 212.102 213.754 L 227.965 226.906 C 251.063 246.051 279.781 211.406 256.684 192.262 Z M 256.66 192.242 C 233.535 173.129 204.867 207.816 227.992 226.926 L 243.23 239.52 C 266.355 258.633 295.02 223.945 271.898 204.836 Z M 271.852 204.797 C 248.68 185.746 220.102 220.508 243.273 239.559 L 257.742 251.453 C 280.918 270.504 309.492 235.742 286.32 216.691 Z M 286.48 216.828 C 263.488 197.559 234.586 232.051 257.582 251.32 L 271.27 262.789 C 294.262 282.055 323.164 247.563 300.168 228.297 Z M 300.238 228.352 C 277.32 208.992 248.281 243.371 271.199 262.73 L 283.793 273.367 C 306.711 292.727 335.75 258.352 312.832 238.992 Z M 312.898 239.047 C 290.055 219.602 260.883 253.867 283.73 273.313 L 295.238 283.109 C 318.082 302.555 347.25 268.289 324.406 248.844 Z M 324.609 249.016 C 301.992 229.305 272.426 263.223 295.039 282.938 L 305.148 291.754 C 327.762 311.465 357.332 277.547 334.719 257.832 Z M 334.688 257.805 C 312.039 238.133 282.531 272.105 305.18 291.781 L 314.199 299.609 C 336.848 319.285 366.355 285.309 343.707 265.637 Z M 343.641 265.582 C 320.918 245.996 291.539 280.082 314.262 299.668 L 321.891 306.242 C 344.617 325.828 373.996 291.742 351.27 272.156 Z M 351.438 272.301 C 328.906 252.492 299.195 286.289 321.727 306.098 L 328.098 311.699 C 350.629 331.508 380.34 297.711 357.809 277.906 Z M 357.738 277.84 C 335.125 258.129 305.555 292.051 328.168 311.762 L 333.145 316.098 C 355.758 335.813 385.328 301.891 362.715 282.18 Z M 362.234 281.773 C 339.082 262.699 310.469 297.43 333.621 316.504 L 337.359 319.586 C 360.516 338.66 389.129 303.93 365.973 284.852 Z M 367.273 286.012 C 345.66 265.203 314.449 297.621 336.063 318.426 L 338.238 320.523 C 359.852 341.332 391.063 308.914 369.449 288.109 Z M 367.637 286.539 C 343.934 268.148 316.352 303.707 340.055 322.094 L 341.141 322.934 C 364.844 341.324 392.426 305.766 368.719 287.379 Z M 367.637 286.539"/><path fill="#f57c3a" stroke="none" d="M 384.898 306 C 384.898 276 339.898 276 339.898 306 L 339.898 306.129 C 339.898 336.129 384.898 336.129 384.898 306.129 Z M 377.75 322.578 C 399.68 302.109 368.977 269.211 347.043 289.68 L 346.891 289.824 C 324.961 310.293 355.664 343.191 377.598 322.719 Z M 384.746 306.273 C 384.746 276.273 339.746 276.273 339.746 306.273 L 339.746 306.555 C 339.746 336.555 384.746 336.555 384.746 306.555 Z M 384.746 306.555 C 384.746 276.555 339.746 276.555 339.746 306.555 L 339.746 306.828 C 339.746 336.828 384.746 336.828 384.746 306.828 Z M 383.434 299.262 C 373.344 271.008 330.965 286.145 341.055 314.395 L 341.207 314.82 C 351.297 343.074 393.676 327.938 383.586 299.688 Z M 384.105 301.336 C 376.211 272.391 332.797 284.23 340.691 313.176 L 340.84 313.73 C 348.734 342.676 392.148 330.836 384.258 301.891 Z M 381.27 295.332 C 364.629 270.371 327.188 295.332 343.828 320.293 L 344.293 320.992 C 360.934 345.953 398.375 320.992 381.734 296.031 Z M 381.734 296.031 C 365.094 271.07 327.652 296.031 344.293 320.992 L 344.758 321.691 C 361.402 346.652 398.844 321.691 382.203 296.73 Z M 381.102 295.223 C 362.453 271.723 327.207 299.703 345.859 323.199 L 346.637 324.184 C 365.289 347.68 400.535 319.699 381.883 296.203 Z M 380.586 294.711 C 359.941 272.941 327.293 303.91 347.938 325.676 L 348.867 326.66 C 369.512 348.426 402.164 317.457 381.52 295.691 Z M 382.16 296.398 C 362.457 273.777 328.523 303.332 348.227 325.953 L 349.32 327.211 C 369.023 349.832 402.957 320.277 383.254 297.652 Z M 381.355 295.723 C 359.078 275.633 328.941 309.047 351.219 329.141 L 352.77 330.539 C 375.043 350.629 405.184 317.215 382.906 297.121 Z M 382.883 297.102 C 360.578 277.039 330.484 310.496 352.793 330.559 L 354.504 332.098 C 376.809 352.16 406.902 318.703 384.598 298.641 Z M 383.945 298.078 C 360.891 278.883 332.098 313.465 355.152 332.66 L 357.332 334.477 C 380.387 353.672 409.18 319.086 386.125 299.891 Z M 384.504 298.66 C 359.805 281.629 334.258 318.676 358.953 335.707 L 361.598 337.531 C 386.293 354.563 411.844 317.516 387.148 300.484 Z M 386.133 299.824 C 360.555 284.145 337.035 322.512 362.613 338.191 L 365.57 340.004 C 391.148 355.684 414.668 317.316 389.09 301.637 Z M 388.555 301.32 C 362.559 286.355 340.105 325.352 366.105 340.32 L 369.52 342.285 C 395.52 357.254 417.969 318.254 391.973 303.285 Z M 389.977 302.266 C 362.617 289.961 344.156 330.996 371.516 343.305 L 375.254 344.988 C 402.613 357.297 421.074 316.258 393.715 303.949 Z M 392.449 303.426 C 364.391 292.805 348.461 334.895 376.52 345.512 L 380.563 347.043 C 408.621 357.66 424.547 315.574 396.492 304.953 Z M 395.672 304.664 C 367.227 295.137 352.934 337.805 381.379 347.332 L 385.586 348.742 C 414.031 358.27 428.324 315.598 399.879 306.07 Z M 397.645 305.449 C 368.367 298.898 358.543 342.813 387.816 349.363 L 392.164 350.336 C 421.441 356.887 431.266 312.973 401.992 306.422 Z M 400.52 306.145 C 370.871 301.559 363.992 346.027 393.637 350.613 L 398.156 351.313 C 427.805 355.902 434.684 311.43 405.035 306.844 Z M 402.305 306.59 C 372.32 305.645 370.902 350.625 400.891 351.566 L 405.398 351.711 C 435.383 352.652 436.797 307.676 406.813 306.73 Z M 404.691 306.766 C 374.75 308.648 377.578 353.559 407.52 351.676 L 412.027 351.391 C 441.969 349.508 439.141 304.598 409.199 306.48 Z M 407.051 306.719 C 377.43 311.473 384.559 355.906 414.18 351.152 L 418.535 350.453 C 448.156 345.699 441.027 301.27 411.406 306.023 Z M 408.516 306.684 C 379.777 315.293 392.688 358.398 421.426 349.793 L 425.621 348.535 C 454.359 339.926 441.449 296.82 412.711 305.426 Z M 410.594 306.176 C 382.855 317.602 399.996 359.211 427.734 347.785 L 431.473 346.246 C 459.211 334.82 442.074 293.211 414.336 304.637 Z M 412.727 305.375 C 385.973 318.941 406.324 359.078 433.078 345.508 L 436.656 343.695 C 463.414 330.129 443.063 289.992 416.305 303.559 Z M 414.867 304.355 C 389.172 319.836 412.395 358.383 438.09 342.898 L 441.355 340.934 C 467.051 325.453 443.828 286.906 418.133 302.391 Z M 416.273 303.637 C 392.242 321.598 419.18 357.645 443.211 339.684 L 446.02 337.59 C 470.051 319.629 443.113 283.582 419.082 301.543 Z M 418.027 302.379 C 395.113 321.738 424.156 356.113 447.07 336.75 L 449.555 334.652 C 472.469 315.293 443.426 280.918 420.512 300.281 Z M 418.852 301.832 C 398.004 323.406 430.367 354.676 451.211 333.102 L 453.238 331.004 C 474.086 309.43 441.723 278.16 420.875 299.734 Z M 418.852 301.832"/><path fill="#f57c3a" stroke="none" d="M 49.727 570.875 C 72.305 590.633 101.934 556.766 79.359 537.012 L 79.195 536.867 C 56.617 517.113 26.984 550.981 49.563 570.734 Z M 49.027 570.25 C 70.961 590.719 101.664 557.824 79.73 537.352 L 79.578 537.211 C 57.648 516.742 26.945 549.641 48.875 570.109 Z M 49.449 570.625 C 72.074 590.332 101.629 556.398 79.004 536.691 L 78.691 536.418 C 56.07 516.715 26.516 550.648 49.137 570.352 Z M 48.563 569.836 C 70.492 590.305 101.199 557.406 79.266 536.938 L 78.961 536.652 C 57.031 516.184 26.324 549.082 48.258 569.551 Z M 48.527 569.801 C 70.793 589.91 100.953 556.516 78.691 536.406 L 78.379 536.121 C 56.113 516.012 25.949 549.406 48.215 569.516 Z M 42.164 560.551 C 52.473 588.723 94.734 573.262 84.426 545.09 L 84.273 544.672 C 73.965 516.5 31.707 531.961 42.012 560.133 Z M 43.609 563.566 C 58.492 589.613 97.563 567.289 82.68 541.242 L 82.516 540.957 C 67.633 514.91 28.563 537.234 43.445 563.281 Z M 43.313 563.047 C 57.883 589.273 97.219 567.418 82.648 541.191 L 82.5 540.918 C 67.93 514.695 28.59 536.547 43.16 562.773 Z M 42.996 562.473 C 57.164 588.914 96.828 567.664 82.664 541.223 L 82.512 540.938 C 68.344 514.492 28.676 535.742 42.844 562.188 Z M 40.176 551.563 C 40.176 581.563 85.176 581.563 85.176 551.563 L 85.176 551.148 C 85.176 521.148 40.176 521.148 40.176 551.148 Z M 42.844 540.523 C 28.676 566.965 68.344 588.215 82.512 561.773 L 82.664 561.488 C 96.828 535.043 57.164 513.793 42.996 540.238 Z M 41.699 543.133 C 31.391 571.309 73.652 586.77 83.961 558.594 L 84.113 558.18 C 94.418 530.004 52.16 514.543 41.852 542.719 Z M 45.594 536.168 C 26.555 559.348 61.324 587.91 80.367 564.731 L 80.832 564.164 C 99.875 540.981 65.102 512.418 46.063 535.598 Z M 46.711 534.844 C 26.66 557.156 60.133 587.234 80.184 564.918 L 80.813 564.219 C 100.863 541.906 67.391 511.828 47.34 534.145 Z M 47.949 533.492 C 27.031 554.996 59.285 586.375 80.203 564.871 L 81.289 563.754 C 102.207 542.25 69.949 510.875 49.031 532.379 Z M 50.93 530.641 C 27.691 549.613 56.152 584.469 79.391 565.496 L 81.102 564.098 C 104.34 545.121 75.879 510.266 52.641 529.242 Z M 52.43 529.418 C 29.426 548.676 58.313 583.18 81.316 563.922 L 83.492 562.098 C 106.496 542.84 77.609 508.336 54.605 527.594 Z M 54.484 527.695 C 31.621 547.117 60.75 581.414 83.617 561.996 L 86.574 559.481 C 109.441 540.063 80.309 505.762 57.445 525.184 Z M 57.27 525.332 C 34.602 544.981 64.078 578.984 86.746 559.336 L 90.629 555.969 C 113.297 536.32 83.82 502.316 61.152 521.969 Z M 60.855 522.227 C 38.535 542.273 68.602 575.754 90.922 555.711 L 95.594 551.516 C 117.914 531.469 87.848 497.988 65.527 518.035 Z M 65.289 518.25 C 43.258 538.613 73.801 571.66 95.832 551.297 L 101.586 545.977 C 123.617 525.613 93.074 492.57 71.043 512.934 Z M 70.539 513.41 C 49.148 534.445 80.699 566.531 102.09 545.496 L 108.777 538.922 C 130.168 517.887 98.617 485.801 77.227 506.836 Z M 77.051 507.012 C 55.895 528.277 87.793 560.016 108.953 538.75 L 116.887 530.773 C 138.043 509.508 106.145 477.77 84.984 499.035 Z M 84.742 499.281 C 63.914 520.871 96.297 552.117 117.129 530.527 L 126.305 521.016 C 147.137 499.426 114.754 468.18 93.922 489.77 Z M 93.969 489.719 C 73.074 511.246 105.363 542.59 126.258 521.063 L 136.988 510.008 C 157.883 488.484 125.594 457.141 104.699 478.668 Z M 104.441 478.938 C 83.906 500.809 116.715 531.609 137.246 509.738 L 149.07 497.145 C 169.605 475.273 136.797 444.473 116.266 466.344 Z M 116.371 466.23 C 95.688 487.957 128.277 518.988 148.965 497.258 L 162.023 483.539 C 182.711 461.813 150.117 430.785 129.434 452.512 Z M 129.441 452.504 C 108.742 474.219 141.316 505.266 162.016 483.551 L 176.016 468.859 C 196.715 447.141 164.141 416.094 143.441 437.813 Z M 143.488 437.762 C 122.727 459.418 155.207 490.563 175.973 468.906 L 190.59 453.66 C 211.355 432.004 178.871 400.859 158.109 422.516 Z M 158.133 422.492 C 137.34 444.117 169.777 475.305 190.57 453.68 L 205.504 438.148 C 226.297 416.523 193.859 385.336 173.066 406.961 Z M 172.98 407.047 C 152.305 428.785 184.914 459.797 205.59 438.059 L 220.359 422.527 C 241.035 400.789 208.43 369.777 187.754 391.516 Z M 187.73 391.539 C 167.086 413.309 199.742 444.273 220.383 422.504 L 234.852 407.246 C 255.492 385.477 222.84 354.512 202.199 376.281 Z M 201.898 376.602 C 181.684 398.77 214.938 429.09 235.152 406.926 L 248.676 392.09 C 268.891 369.926 235.641 339.602 215.426 361.77 Z M 215.52 361.668 C 195.168 383.711 228.23 414.234 248.582 392.195 L 261.5 378.203 C 281.852 356.16 248.789 325.633 228.438 347.676 Z M 228.055 348.102 C 208.27 370.652 242.098 400.328 261.883 377.777 L 273.543 364.484 C 293.328 341.934 259.5 312.258 239.719 334.809 Z M 239.668 334.863 C 219.957 357.477 253.879 387.043 273.594 364.43 L 284.32 352.121 C 304.035 329.504 270.109 299.938 250.398 322.551 Z M 250.078 322.93 C 230.867 345.977 265.438 374.785 284.645 351.742 L 293.977 340.547 C 313.184 317.5 278.617 288.691 259.406 311.734 Z M 259.355 311.801 C 240.234 334.918 274.91 363.598 294.031 340.48 L 302.125 330.691 C 321.246 307.578 286.57 278.895 267.449 302.012 Z M 267.301 302.191 C 248.422 325.508 283.391 353.828 302.273 330.512 L 308.961 322.254 C 327.84 298.941 292.867 270.621 273.988 293.934 Z M 273.59 294.445 C 255.387 318.293 291.16 345.594 309.359 321.746 L 314.488 315.027 C 332.688 291.18 296.914 263.879 278.715 287.727 Z M 278.191 288.441 C 260.941 312.984 297.758 338.859 315.008 314.316 L 318.746 308.996 C 336 284.453 299.184 258.578 281.93 283.121 Z M 281.188 284.25 C 265.441 309.785 303.746 333.402 319.492 307.867 L 321.82 304.09 C 337.566 278.555 299.266 254.934 283.52 280.469 Z M 281.188 284.25"/><path fill="#f57c3a" stroke="none" d="M 513.66 267.52 C 499.492 241.078 459.828 262.328 473.992 288.77 L 474.145 289.055 C 488.313 315.5 527.977 294.25 513.813 267.805 Z M 514.938 270.25 C 504.031 242.301 462.113 258.66 473.02 286.609 L 473.18 287.023 C 484.086 314.973 526.008 298.613 515.102 270.664 Z M 510.734 263.648 C 490.477 241.523 457.285 271.914 477.547 294.039 L 478.316 294.879 C 498.574 317.008 531.766 286.617 511.504 264.492 Z M 510.887 263.84 C 489.758 242.543 457.809 274.23 478.938 295.531 L 480.184 296.789 C 501.309 318.086 533.258 286.395 512.133 265.098 Z M 510.602 263.691 C 487.598 244.434 458.711 278.938 481.715 298.195 L 483.891 300.02 C 506.895 319.277 535.781 284.773 512.777 265.516 Z M 512.934 265.645 C 490.105 246.18 460.91 280.422 483.734 299.887 L 486.695 302.41 C 509.523 321.875 538.719 287.633 515.895 268.168 Z M 515.344 267.715 C 491.914 248.98 463.813 284.129 487.242 302.863 L 491.438 306.215 C 514.871 324.949 542.969 289.801 519.539 271.07 Z M 520.027 271.473 C 497.133 252.086 468.055 286.426 490.949 305.813 L 496.238 310.293 C 519.133 329.68 548.211 295.336 525.316 275.949 Z M 525.211 275.859 C 502.199 256.613 473.328 291.133 496.344 310.379 L 503.027 315.973 C 526.043 335.219 554.91 300.699 531.898 281.453 Z M 532.352 281.844 C 509.855 261.992 480.082 295.734 502.578 315.586 L 510.672 322.727 C 533.168 342.578 562.941 308.832 540.445 288.984 Z M 540.606 289.129 C 518.305 269.066 488.207 302.52 510.512 322.582 L 519.996 331.113 C 542.297 351.18 572.395 317.723 550.09 297.66 Z M 550.211 297.766 C 528.051 277.547 497.715 310.785 519.875 331.008 L 530.77 340.945 C 552.926 361.168 583.262 327.93 561.102 307.707 Z M 561.598 308.172 C 540.059 287.289 508.734 319.598 530.273 340.48 L 542.25 352.09 C 563.785 372.973 595.109 340.668 573.57 319.785 Z M 573.609 319.82 C 552.117 298.887 520.719 331.125 542.211 352.055 L 555.434 364.934 C 576.926 385.863 608.32 353.629 586.832 332.695 Z M 587.047 332.91 C 565.844 311.691 534.012 343.5 555.215 364.719 L 569.055 378.57 C 590.262 399.789 622.094 367.98 600.887 346.762 Z M 601.176 347.055 C 580.359 325.449 547.953 356.672 568.77 378.277 L 582.922 392.969 C 603.738 414.57 636.145 383.352 615.328 361.746 Z M 615.406 361.824 C 594.695 340.121 562.137 371.184 582.848 392.891 L 597.004 407.723 C 617.715 429.426 650.27 398.359 629.559 376.656 Z M 629.816 376.93 C 609.469 354.883 576.398 385.402 596.746 407.449 L 610.434 422.281 C 630.777 444.328 663.848 413.809 643.504 391.762 Z M 643.691 391.969 C 623.625 369.672 590.176 399.773 610.246 422.074 L 623.465 436.766 C 643.535 459.063 676.984 428.961 656.914 406.66 Z M 657.035 406.797 C 637.148 384.336 603.457 414.168 623.344 436.629 L 636.102 451.035 C 655.988 473.496 689.68 443.668 669.793 421.207 Z M 670.023 421.469 C 650.484 398.703 616.336 428.004 635.871 450.773 L 648 464.906 C 667.535 487.676 701.688 458.371 682.148 435.602 Z M 682.219 435.684 C 662.785 412.824 628.5 441.969 647.93 464.828 L 659.594 478.547 C 679.023 501.402 713.309 472.258 693.879 449.398 Z M 694.086 449.648 C 674.988 426.516 640.285 455.164 659.383 478.297 L 670.125 491.305 C 689.223 514.441 723.926 485.793 704.828 462.656 Z M 704.785 462.609 C 685.621 439.527 651 468.273 670.164 491.355 L 680.277 503.535 C 699.441 526.613 734.063 497.867 714.898 474.789 Z M 715.023 474.938 C 696.059 451.691 661.188 480.137 680.152 503.383 L 689.168 514.438 C 708.133 537.684 743.004 509.238 724.039 485.992 Z M 724.012 485.961 C 705.004 462.75 670.191 491.258 689.195 514.469 L 697.445 524.543 C 716.453 547.75 751.266 519.242 732.258 496.031 Z M 732.371 496.164 C 713.543 472.809 678.508 501.051 697.336 524.406 L 704.324 533.078 C 723.152 556.438 758.188 528.195 739.359 504.84 Z M 739.387 504.871 C 720.606 481.48 685.516 509.652 704.297 533.047 L 710.367 540.606 C 729.148 563.996 764.238 535.82 745.457 512.43 Z M 745.77 512.828 C 727.52 489.02 691.805 516.395 710.055 540.203 L 714.875 546.496 C 733.129 570.305 768.844 542.93 750.594 519.121 Z M 750.293 518.738 C 731.535 495.328 696.418 523.465 715.176 546.879 L 719.219 551.922 C 737.977 575.336 773.094 547.199 754.336 523.785 Z M 754.848 524.449 C 736.973 500.355 700.832 527.168 718.707 551.262 L 721.504 555.031 C 739.379 579.121 775.52 552.309 757.645 528.219 Z M 757.633 528.203 C 739.742 504.125 703.621 530.961 721.512 555.043 L 723.387 557.566 C 741.277 581.645 777.398 554.809 759.508 530.727 Z M 760.012 531.434 C 743.066 506.68 705.934 532.106 722.883 556.859 L 723.652 557.981 C 740.602 582.734 777.731 557.313 760.781 532.559 Z M 760.012 531.434"/><g clip-path="url(#IGDK8Darclip-0)"><path fill="#f57c3a" stroke="none" d="M 783.828 91.973 C 815.406 91.973 815.406 44.609 783.828 44.609 L 783.66 44.609 C 752.082 44.609 752.082 91.973 783.66 91.973 Z M 783.66 91.973 C 815.234 91.973 815.234 44.609 783.66 44.609 L 783.5 44.609 C 751.922 44.609 751.922 91.973 783.5 91.973 Z M 793.246 89.875 C 822.023 76.879 802.535 33.711 773.754 46.707 L 773.422 46.855 C 744.645 59.848 764.137 103.02 792.914 90.023 Z M 798.703 86.316 C 822.539 65.609 791.477 29.852 767.637 50.563 L 767.477 50.699 C 743.641 71.41 774.703 107.168 798.543 86.457 Z M 802.094 82.605 C 820.793 57.16 782.625 29.109 763.926 54.555 L 763.598 55.004 C 744.895 80.445 783.063 108.496 801.762 83.055 Z M 804.918 77.172 C 815.773 47.52 771.297 31.234 760.441 60.887 L 760.281 61.32 C 749.422 90.973 793.902 107.258 804.758 77.605 Z M 805.828 73.668 C 811.434 42.594 764.816 34.184 759.211 65.262 L 759.051 66.148 C 753.445 97.223 800.063 105.633 805.668 74.555 Z M 805.801 73.715 C 810.285 42.457 763.402 35.73 758.918 66.988 L 758.746 68.172 C 754.262 99.43 801.148 106.156 805.633 74.898 Z M 805.734 74.094 C 809.141 42.699 762.051 37.586 758.645 68.98 L 758.484 70.453 C 755.078 101.848 802.168 106.961 805.574 75.566 Z M 805.652 74.719 C 807.93 43.227 760.688 39.805 758.41 71.301 L 758.25 73.512 C 755.969 105.008 803.211 108.426 805.492 76.93 Z M 805.391 77.996 C 809.09 46.637 762.047 41.086 758.348 72.449 L 758.02 75.246 C 754.32 106.605 801.359 112.152 805.059 80.793 Z M 805.195 79.152 C 806.707 47.613 759.395 45.344 757.883 76.887 L 757.715 80.43 C 756.203 111.973 803.512 114.242 805.023 82.699 Z M 804.996 83.219 C 807.199 51.719 759.949 48.41 757.746 79.91 L 757.426 84.484 C 755.219 115.984 802.469 119.293 804.676 87.793 Z M 804.695 87.496 C 806.504 55.969 759.215 53.254 757.406 84.781 L 757.074 90.527 C 755.266 122.051 802.555 124.766 804.363 93.242 Z M 804.379 92.965 C 805.816 61.418 758.5 59.258 757.063 90.805 L 756.731 98.035 C 755.293 129.578 802.609 131.738 804.047 100.195 Z M 804.07 99.547 C 804.645 67.973 757.285 67.109 756.711 98.68 L 756.551 107.387 C 755.977 138.957 803.332 139.824 803.91 108.25 Z M 803.91 108.18 C 804.395 76.605 757.031 75.883 756.551 107.457 L 756.391 117.922 C 755.906 149.496 803.27 150.223 803.75 118.648 Z M 803.754 118.285 C 803.754 86.707 756.387 86.707 756.387 118.285 L 756.387 130.684 C 756.387 162.262 803.754 162.262 803.754 130.684 Z M 803.754 130.684 C 803.754 99.109 756.387 99.109 756.387 130.684 L 756.387 145.137 C 756.387 176.711 803.754 176.711 803.754 145.137 Z M 803.754 145.137 C 803.754 113.559 756.387 113.559 756.387 145.137 L 756.387 161.508 C 756.387 193.086 803.754 193.086 803.754 161.508 Z M 803.754 161.73 C 804.047 130.152 756.68 129.715 756.387 161.289 L 756.219 179.723 C 755.926 211.301 803.289 211.738 803.582 180.164 Z M 803.582 179.945 C 803.582 148.367 756.215 148.367 756.215 179.945 L 756.215 200.152 C 756.215 231.727 803.582 231.727 803.582 200.152 Z M 803.582 200.32 C 803.809 168.746 756.445 168.402 756.219 199.98 L 756.059 221.961 C 755.828 253.535 803.195 253.879 803.422 222.305 Z M 803.422 222.293 C 803.641 190.719 756.273 190.391 756.059 221.969 L 755.898 245.273 C 755.68 276.852 803.047 277.176 803.262 245.598 Z M 803.262 245.754 C 803.688 214.18 756.324 213.543 755.898 245.117 L 755.57 269.609 C 755.145 301.184 802.504 301.82 802.93 270.246 Z M 802.934 270.078 C 803.137 238.5 755.77 238.199 755.566 269.773 L 755.406 294.703 C 755.207 326.277 802.57 326.582 802.773 295.008 Z M 802.77 295.168 C 803.188 263.59 755.824 262.969 755.41 294.543 L 755.078 319.609 C 754.664 351.184 802.027 351.809 802.441 320.234 Z M 802.441 320.234 C 802.859 288.66 755.496 288.035 755.078 319.609 L 754.75 344.535 C 754.332 376.109 801.695 376.738 802.113 345.164 Z M 802.113 345.008 C 802.32 313.43 754.957 313.117 754.746 344.691 L 754.59 368.883 C 754.379 400.461 801.742 400.773 801.953 369.195 Z M 801.953 369.211 C 802.18 337.633 754.816 337.293 754.59 368.871 L 754.418 392.473 C 754.191 424.051 801.555 424.391 801.781 392.816 Z M 801.781 392.813 C 802.008 361.234 754.641 360.898 754.418 392.477 L 754.258 415.043 C 754.035 446.621 801.398 446.957 801.621 415.379 Z M 801.625 415.211 C 801.625 383.637 754.258 383.637 754.258 415.211 L 754.258 436.457 C 754.258 468.031 801.625 468.031 801.625 436.457 Z M 801.621 436.645 C 801.875 405.066 754.512 404.691 754.258 436.266 L 754.098 456.324 C 753.848 487.902 801.211 488.277 801.461 456.703 Z M 801.461 456.734 C 801.758 425.156 754.391 424.719 754.098 456.293 L 753.93 474.578 C 753.637 506.156 801 506.594 801.293 475.02 Z M 801.293 475.027 C 801.598 443.453 754.234 442.992 753.93 474.57 L 753.77 491.094 C 753.461 522.668 800.828 523.125 801.133 491.551 Z M 801.133 491.32 C 801.133 459.746 753.766 459.746 753.766 491.32 L 753.766 505.934 C 753.766 537.512 801.133 537.512 801.133 505.934 Z M 801.133 505.934 C 801.133 474.355 753.766 474.355 753.766 505.934 L 753.766 518.461 C 753.766 550.039 801.133 550.039 801.133 518.461 Z M 801.133 518.461 C 801.133 486.883 753.766 486.883 753.766 518.461 L 753.766 528.938 C 753.766 560.516 801.133 560.516 801.133 528.938 Z M 801.133 528.938 C 801.133 497.359 753.766 497.359 753.766 528.938 L 753.766 537.195 C 753.766 568.77 801.133 568.77 801.133 537.195 Z M 801.133 537.195 C 801.133 505.617 753.766 505.617 753.766 537.195 L 753.766 543.539 C 753.766 575.117 801.133 575.117 801.133 543.539 Z M 801.051 545.492 C 803.66 514.023 756.457 510.113 753.848 541.582 L 753.52 545.566 C 750.91 577.035 798.117 580.945 800.723 549.477 Z M 800.07 553.371 C 807.867 522.77 761.969 511.074 754.172 541.672 L 753.68 543.598 C 745.883 574.195 791.781 585.891 799.582 555.293 Z M 800.07 553.371"/></g><path fill="#f57c3a" stroke="none" d="M 727.875 579.094 C 728.199 609.09 773.195 608.606 772.871 578.609 L 772.871 578.324 C 772.547 548.324 727.547 548.813 727.871 578.809 Z M 735.5 561.684 C 712.988 581.512 742.731 615.281 765.242 595.449 L 765.395 595.32 C 787.906 575.488 758.16 541.723 735.648 561.551 Z M 730.57 568.031 C 716.699 594.633 756.602 615.438 770.473 588.836 L 770.621 588.551 C 784.492 561.949 744.59 541.145 730.719 567.746 Z M 731.008 567.211 C 716.426 593.43 755.75 615.305 770.332 589.086 L 770.492 588.801 C 785.074 562.582 745.75 540.707 731.168 566.926 Z M 728.332 578.106 C 728.652 608.106 773.652 607.617 773.328 577.621 L 773.328 577.488 C 773.004 547.488 728.004 547.977 728.328 577.973 Z M 773.328 577.488 C 773.004 547.488 728.004 547.977 728.328 577.973 L 728.332 578.106 C 728.652 608.106 773.652 607.617 773.328 577.621 Z M 773.328 577.621 C 773.004 547.621 728.008 548.106 728.332 578.106 L 728.332 578.246 C 728.656 608.246 773.652 607.762 773.328 577.762 Z M 773.328 577.762 C 773.004 547.766 728.008 548.25 728.332 578.246 L 728.332 578.391 C 728.656 608.387 773.656 607.902 773.332 577.902 Z M 770.555 567.316 C 756.113 541.02 716.668 562.684 731.109 588.977 L 731.266 589.262 C 745.707 615.555 785.148 593.895 770.711 567.598 Z M 755.414 556.371 C 726.004 550.465 717.145 594.586 746.559 600.488 L 747.18 600.613 C 776.594 606.516 785.449 562.398 756.035 556.492 Z M 751.363 556.055 C 721.367 556.379 721.852 601.375 751.848 601.051 L 752.316 601.047 C 782.313 600.723 781.828 555.727 751.828 556.051 Z M 748.106 556.402 C 718.578 561.688 726.508 605.984 756.039 600.695 L 756.816 600.559 C 786.348 595.27 778.414 550.973 748.887 556.262 Z M 746.969 556.691 C 718.012 564.535 729.777 607.969 758.734 600.125 L 759.828 599.832 C 788.781 591.984 777.016 548.551 748.059 556.395 Z M 747.293 556.617 C 718.633 565.484 731.934 608.473 760.594 599.609 L 761.984 599.176 C 790.645 590.313 777.348 547.32 748.688 556.188 Z M 745.199 557.594 C 718.418 571.113 738.691 611.285 765.473 597.77 L 767.176 596.91 C 793.961 583.391 773.684 543.219 746.902 556.734 Z M 746.34 557.031 C 719.949 571.301 741.352 610.883 767.742 596.613 L 769.594 595.613 C 795.984 581.344 774.582 541.762 748.191 556.027 Z M 746.785 556.856 C 721.5 572.996 745.711 610.926 771 594.785 L 773 593.508 C 798.289 577.367 774.078 539.434 748.789 555.578 Z M 747.707 556.313 C 723.402 573.895 749.777 610.356 774.082 592.773 L 776.246 591.211 C 800.551 573.625 774.176 537.164 749.871 554.75 Z M 749.578 554.965 C 725.559 572.938 752.516 608.965 776.535 590.992 L 779.008 589.145 C 803.031 571.172 776.07 535.141 752.051 553.113 Z M 750.297 554.57 C 728.219 574.879 758.68 608 780.762 587.688 L 783.07 585.566 C 805.148 565.258 774.688 532.137 752.606 552.445 Z M 752.109 552.918 C 730.656 573.891 762.117 606.066 783.566 585.094 L 785.883 582.828 C 807.332 561.856 775.875 529.68 754.422 550.652 Z M 753.09 552.078 C 733.535 574.828 767.664 604.16 787.219 581.406 L 789.52 578.727 C 809.074 555.977 774.945 526.645 755.391 549.398 Z M 754.039 551.137 C 736.805 575.691 773.633 601.543 790.871 576.988 L 792.856 574.16 C 810.094 549.609 773.262 523.754 756.027 548.309 Z M 755.527 549.043 C 739.277 574.262 777.102 598.641 793.352 573.426 L 795.348 570.332 C 811.598 545.117 773.773 520.738 757.523 545.953 Z M 755.898 548.949 C 743.641 576.328 784.711 594.719 796.969 567.336 L 798.484 563.957 C 810.742 536.574 769.672 518.188 757.41 545.566 Z M 757.449 545.484 C 745.082 572.82 786.078 591.371 798.445 564.039 L 799.973 560.668 C 812.34 533.336 771.34 514.785 758.973 542.117 Z M 757.906 544.977 C 749.356 573.734 792.488 586.563 801.039 557.805 L 802.086 554.289 C 810.637 525.535 767.504 512.707 758.953 541.461 Z M 758.332 544.137 C 753.344 573.719 797.719 581.199 802.707 551.613 L 803.297 548.113 C 808.281 518.531 763.91 511.051 758.922 540.633 Z M 758.625 543.551 C 757.527 573.531 802.5 575.176 803.594 545.195 L 803.711 541.981 C 804.805 512 759.836 510.359 758.742 540.34 Z M 759.07 545.082 C 764.305 574.625 808.613 566.777 803.383 537.234 L 802.887 534.434 C 797.652 504.895 753.344 512.742 758.574 542.281 Z M 760.93 549.043 C 775.176 575.445 814.777 554.074 800.531 527.672 L 799.258 525.316 C 785.012 498.914 745.41 520.285 759.656 546.688 Z M 764.57 552.871 C 787.063 572.723 816.84 538.981 794.348 519.133 L 792.465 517.469 C 769.969 497.621 740.195 531.359 762.688 551.211 Z M 769.516 555.348 C 797.527 566.094 813.645 524.078 785.633 513.332 L 783.141 512.375 C 755.133 501.633 739.016 543.645 767.023 554.391 Z M 769.516 555.348"/><g clip-path="url(#IGDK8Darclip-1)"><path fill="#f57c3a" stroke="none" d="M 735.199 556.656 C 705.203 556.981 705.688 601.977 735.684 601.652 L 736 601.648 C 765.996 601.324 765.512 556.328 735.512 556.652 Z M 728.965 557.699 C 700.363 566.754 713.945 609.656 742.547 600.602 L 743.012 600.453 C 771.613 591.402 758.031 548.5 729.43 557.551 Z M 730.945 557.129 C 701.781 564.164 712.332 607.91 741.496 600.875 L 742.113 600.727 C 771.277 593.695 760.727 549.949 731.563 556.981 Z M 730.047 557.402 C 701.445 566.457 715.027 609.359 743.629 600.305 L 744.09 600.16 C 772.691 591.106 759.113 548.203 730.512 557.258 Z M 730.981 557.113 C 702.188 565.543 714.832 608.731 743.625 600.301 L 744.09 600.164 C 772.879 591.734 760.234 548.547 731.445 556.977 Z M 737.523 556.074 C 707.523 556.398 708.012 601.395 738.008 601.07 L 738.16 601.07 C 768.16 600.746 767.672 555.746 737.676 556.07 Z M 738.16 601.07 C 768.16 600.746 767.672 555.746 737.676 556.07 L 737.523 556.074 C 707.523 556.398 708.012 601.395 738.008 601.07 Z M 738.008 601.07 C 768.008 600.746 767.523 555.75 737.523 556.074 L 735.973 556.09 C 705.977 556.414 706.461 601.41 736.457 601.086 Z M 739.461 600.852 C 769.148 596.527 762.656 551.996 732.973 556.324 L 730.949 556.617 C 701.262 560.945 707.75 605.477 737.438 601.148 Z M 736.586 601.258 C 766.414 598.066 761.633 553.324 731.801 556.512 L 728.848 556.828 C 699.016 560.016 703.797 604.762 733.629 601.57 Z M 732.941 601.633 C 762.856 599.363 759.449 554.492 729.535 556.766 L 725.344 557.082 C 695.43 559.352 698.836 604.223 728.75 601.953 Z M 728.902 601.941 C 758.801 599.465 755.086 554.617 725.188 557.094 L 719.277 557.586 C 689.379 560.063 693.094 604.906 722.992 602.43 Z M 722.277 602.477 C 752.242 600.953 749.949 556.012 719.988 557.535 L 702.582 558.422 C 672.621 559.949 674.91 604.891 704.871 603.363 Z M 704.231 603.387 C 734.223 602.715 733.211 557.727 703.219 558.398 L 691.094 558.672 C 661.102 559.348 662.113 604.336 692.106 603.66 Z M 692.059 603.664 C 722.055 603.051 721.137 558.059 691.141 558.672 L 676.363 558.973 C 646.367 559.586 647.285 604.574 677.281 603.965 Z M 676.711 603.969 C 706.707 604.117 706.934 559.117 676.934 558.969 L 658.895 558.879 C 628.895 558.731 628.672 603.731 658.672 603.879 Z M 658.578 603.879 C 688.578 604.148 688.984 559.152 658.988 558.879 L 637.516 558.684 C 607.516 558.414 607.109 603.41 637.109 603.684 Z M 636.922 603.68 C 666.918 604.199 667.695 559.207 637.699 558.688 L 612.809 558.258 C 582.816 557.738 582.035 602.731 612.031 603.25 Z M 611.891 603.246 C 641.883 603.953 642.941 558.965 612.949 558.262 L 584.633 557.594 C 554.641 556.887 553.582 601.875 583.574 602.582 Z M 583.531 602.578 C 613.52 603.348 614.668 558.359 584.68 557.594 L 553.715 556.805 C 523.727 556.039 522.578 601.023 552.566 601.789 Z M 552.719 601.793 C 582.715 602.352 583.559 557.363 553.563 556.801 L 520.574 556.184 C 490.578 555.621 489.738 600.613 519.734 601.176 Z M 519.742 601.176 C 549.738 601.723 550.559 556.731 520.566 556.184 L 486.809 555.566 C 456.813 555.016 455.988 600.008 485.984 600.559 Z M 486.266 600.563 C 516.266 600.734 516.523 555.734 486.523 555.563 L 452.773 555.367 C 422.773 555.195 422.516 600.195 452.512 600.367 Z M 452.598 600.367 C 482.598 600.43 482.688 555.43 452.688 555.367 L 419.555 555.301 C 389.555 555.238 389.465 600.238 419.465 600.301 Z M 419.652 600.301 C 449.652 600.109 449.363 555.109 419.367 555.301 L 387.168 555.504 C 357.168 555.695 357.453 600.695 387.453 600.504 Z M 387.656 600.504 C 417.652 600.039 416.961 555.047 386.965 555.508 L 356.016 555.984 C 326.02 556.445 326.711 601.438 356.707 600.977 Z M 356.711 600.977 C 386.707 600.512 386.008 555.52 356.012 555.984 L 325.996 556.449 C 296 556.914 296.695 601.91 326.691 601.445 Z M 326.695 601.445 C 356.691 600.973 355.988 555.981 325.992 556.449 L 296.918 556.906 C 266.922 557.375 267.625 602.371 297.621 601.898 Z M 297.512 601.902 C 327.512 601.578 327.023 556.578 297.027 556.902 L 269.188 557.203 C 239.188 557.527 239.672 602.523 269.672 602.199 Z M 269.551 602.203 C 299.551 602.039 299.305 557.039 269.305 557.203 L 242.547 557.348 C 212.547 557.512 212.793 602.512 242.793 602.348 Z M 242.543 602.348 C 272.543 602.516 272.797 557.52 242.797 557.348 L 217.445 557.207 C 187.445 557.039 187.191 602.039 217.191 602.207 Z M 217.16 602.207 C 247.156 602.418 247.477 557.418 217.477 557.207 L 193.676 557.039 C 163.676 556.828 163.355 601.824 193.355 602.039 Z M 193.047 602.035 C 223.039 602.66 223.977 557.668 193.984 557.043 L 171.891 556.582 C 141.898 555.957 140.957 600.945 170.953 601.574 Z M 170.879 601.57 C 200.871 602.293 201.953 557.305 171.961 556.582 L 151.895 556.102 C 121.902 555.379 120.82 600.367 150.813 601.09 Z M 150.566 601.082 C 180.547 602.129 182.121 557.156 152.141 556.109 L 133.773 555.465 C 103.793 554.418 102.219 599.387 132.199 600.438 Z M 132.063 600.434 C 162.035 601.668 163.887 556.707 133.914 555.473 L 117.734 554.805 C 87.762 553.57 85.91 598.531 115.883 599.766 Z M 115.953 599.77 C 145.934 600.91 147.641 555.941 117.664 554.801 L 103.34 554.258 C 73.363 553.117 71.652 598.086 101.629 599.223 Z M 101.211 599.203 C 131.16 600.906 133.711 555.977 103.762 554.277 L 91.313 553.57 C 61.359 551.871 58.809 596.797 88.762 598.496 Z M 89.059 598.512 C 119.027 599.816 120.988 554.859 91.016 553.555 L 80.746 553.109 C 50.773 551.805 48.816 596.762 78.789 598.066 Z M 78.52 598.051 C 108.473 599.715 110.969 554.785 81.012 553.121 L 72.609 552.656 C 42.656 550.992 40.16 595.922 70.117 597.586 Z M 70.578 597.606 C 100.559 598.652 102.129 553.68 72.145 552.633 L 65.922 552.418 C 35.941 551.371 34.371 596.344 64.355 597.391 Z M 64.703 597.398 C 94.699 597.977 95.566 552.984 65.57 552.406 L 61.215 552.324 C 31.219 551.746 30.352 596.738 60.348 597.316 Z M 62.375 597.262 C 92.297 595.141 89.113 550.25 59.188 552.375 L 57.012 552.531 C 27.086 554.656 30.273 599.543 60.195 597.418 Z M 62.375 597.262"/></g><path fill="#f57c3a" stroke="none" d="M 61.953 597.023 C 91.949 596.699 91.465 551.703 61.465 552.027 L 61.313 552.027 C 31.316 552.352 31.801 597.348 61.801 597.027 Z M 46.375 591.133 C 68.516 611.375 98.879 578.164 76.738 557.922 L 76.586 557.781 C 54.445 537.539 24.082 570.75 46.223 590.992 Z M 46.754 591.465 C 69.527 610.996 98.824 576.84 76.051 557.309 L 75.887 557.168 C 53.117 537.637 23.82 571.797 46.594 591.324 Z M 46.059 590.852 C 68.199 611.094 98.563 577.883 76.422 557.641 L 76.27 557.5 C 54.125 537.258 23.762 570.469 45.906 590.711 Z M 52.648 594.965 C 80.457 606.215 97.336 564.5 69.523 553.25 L 69.211 553.121 C 41.398 541.871 24.523 583.586 52.332 594.836 Z M 54.445 595.57 C 83.234 604.004 95.887 560.82 67.098 552.387 L 66.629 552.25 C 37.84 543.816 25.188 587 53.977 595.434 Z M 53.977 595.434 C 82.766 603.867 95.418 560.684 66.629 552.25 L 66.16 552.113 C 37.371 543.676 24.719 586.863 53.512 595.297 Z M 56.047 595.883 C 85.617 600.938 93.199 556.582 63.629 551.527 L 62.844 551.395 C 33.273 546.34 25.691 590.695 55.262 595.75 Z M 56.371 595.91 C 86.16 599.484 91.523 554.809 61.734 551.231 L 60.652 551.102 C 30.863 547.527 25.5 592.203 55.289 595.781 Z M 53.391 595.469 C 82.762 601.574 91.918 557.516 62.547 551.41 L 61.297 551.152 C 31.926 545.047 22.77 589.106 52.141 595.211 Z M 50.996 594.941 C 80.008 602.574 91.457 559.055 62.445 551.422 L 60.891 551.012 C 31.875 543.379 20.426 586.898 49.441 594.531 Z M 50.102 594.695 C 79.332 601.445 89.461 557.602 60.23 550.848 L 58.512 550.453 C 29.281 543.699 19.152 587.547 48.383 594.297 Z M 46.34 593.723 C 74.805 603.199 89.02 560.508 60.559 551.027 L 58.523 550.352 C 30.059 540.871 15.844 583.566 44.305 593.047 Z M 44.77 593.195 C 73.434 602.055 86.723 559.063 58.059 550.203 L 55.875 549.527 C 27.211 540.668 13.922 583.66 42.586 592.52 Z M 40.711 591.848 C 68.477 603.207 85.516 561.555 57.75 550.199 L 55.406 549.238 C 27.641 537.883 10.602 579.531 38.371 590.891 Z M 36.98 590.266 C 63.914 603.477 83.73 563.078 56.797 549.863 L 54.293 548.637 C 27.359 535.422 7.539 575.824 34.473 589.035 Z M 33.918 588.754 C 60.477 602.707 81.406 562.871 54.848 548.918 L 52.504 547.688 C 25.945 533.734 5.016 573.57 31.574 587.523 Z M 29.652 586.387 C 54.699 602.902 79.469 565.336 54.426 548.82 L 51.914 547.164 C 26.867 530.652 2.098 568.219 27.141 584.734 Z M 25.93 583.875 C 49.828 602.008 77.027 566.156 53.129 548.023 L 50.941 546.367 C 27.043 528.234 -0.156 564.082 23.742 582.215 Z M 21.918 580.672 C 43.754 601.238 74.609 568.481 52.77 547.91 L 50.566 545.84 C 28.727 525.27 -2.125 558.027 19.715 578.598 Z M 18.043 576.844 C 37.547 599.641 71.738 570.387 52.238 547.59 L 50.34 545.371 C 30.84 522.574 -3.355 551.828 16.145 574.625 Z M 14.727 572.781 C 31.77 597.469 68.805 571.902 51.758 547.215 L 50.031 544.711 C 32.984 520.023 -4.047 545.59 12.996 570.277 Z M 11.984 568.668 C 26.883 594.707 65.941 572.359 51.043 546.32 L 49.453 543.543 C 34.555 517.504 -4.504 539.852 10.395 565.891 Z M 9.309 563.731 C 21.324 591.215 62.559 573.188 50.539 545.703 L 49.262 542.777 C 37.242 515.289 -3.988 533.316 8.027 560.805 Z M 7.621 559.805 C 18.305 587.836 60.355 571.809 49.668 543.777 L 48.555 540.852 C 37.871 512.816 -4.18 528.844 6.504 556.875 Z M 5.777 554.621 C 13.457 583.625 56.957 572.106 49.281 543.106 L 48.465 540.035 C 40.789 511.031 -2.711 522.551 4.965 551.551 Z M 4.75 550.66 C 11.242 579.949 55.176 570.211 48.684 540.922 L 48.035 537.992 C 41.543 508.703 -2.391 518.441 4.098 547.731 Z M 3.949 546.992 C 9.457 576.481 53.691 568.223 48.184 538.731 L 47.691 536.082 C 42.184 506.594 -2.051 514.852 3.453 544.344 Z M 3.273 543.231 C 7.301 572.961 51.895 566.922 47.867 537.191 L 47.527 534.672 C 43.5 504.945 -1.09 510.984 2.934 540.711 Z M 2.809 539.559 C 5.297 569.457 50.141 565.723 47.652 535.828 L 47.469 533.59 C 44.98 503.691 0.133 507.426 2.621 537.32 Z M 2.547 535.699 C 2.871 565.695 47.867 565.211 47.543 535.215 L 47.523 533.398 C 47.199 503.402 2.203 503.887 2.527 533.883 Z M 2.66 536.094 C 5.926 565.914 50.66 561.012 47.391 531.191 L 47.223 529.652 C 43.953 499.832 -0.777 504.734 2.492 534.555 Z M 2.359 532.348 C 2.68 562.344 47.68 561.859 47.355 531.859 L 47.34 530.606 C 47.02 500.605 2.02 501.094 2.344 531.09 Z M 2.344 531.09 C 2.668 561.09 47.664 560.602 47.34 530.606 L 47.332 529.906 C 47.012 499.906 2.012 500.395 2.336 530.391 Z M 2.336 530.391 C 2.66 560.391 47.656 559.902 47.332 529.906 L 47.332 529.621 C 47.008 499.625 2.012 500.109 2.332 530.106 Z M 2.336 530.391"/><path fill="#f57c3a" stroke="none" d="M 424.859 294.207 C 407.023 318.328 443.211 345.082 461.043 320.957 L 461.445 320.414 C 479.281 296.289 443.094 269.539 425.262 293.664 Z M 427.523 291.047 C 406.203 312.152 437.863 344.133 459.184 323.027 L 460.105 322.113 C 481.426 301.008 449.766 269.027 428.445 290.133 Z M 429.609 289.063 C 406.859 308.617 436.191 342.742 458.941 323.188 L 460.551 321.805 C 483.301 302.25 453.969 268.121 431.219 287.68 Z M 429.805 289 C 408.82 310.438 440.977 341.918 461.965 320.48 L 464.012 318.387 C 485 296.949 452.844 265.469 431.855 286.906 Z M 432.594 286.188 C 410.648 306.645 441.332 339.563 463.273 319.105 L 466.164 316.414 C 488.109 295.957 457.43 263.039 435.484 283.496 Z M 435.59 283.395 C 413.512 303.707 443.98 336.824 466.059 316.512 L 469.688 313.176 C 491.766 292.863 461.297 259.746 439.219 280.059 Z M 439.176 280.098 C 417.148 300.465 447.703 333.504 469.727 313.137 L 474.434 308.785 C 496.461 288.414 465.91 255.375 443.883 275.746 Z M 444.27 275.395 C 421.777 295.242 451.555 328.984 474.047 309.133 L 479.953 303.922 C 502.449 284.07 472.672 250.328 450.18 270.18 Z M 450.496 269.902 C 427.637 289.328 456.773 323.621 479.637 304.195 L 486.902 298.02 C 509.766 278.594 480.625 244.305 457.766 263.73 Z M 457.559 263.906 C 434.934 283.609 464.484 317.543 487.109 297.844 L 495.84 290.242 C 518.465 270.539 488.914 236.605 466.289 256.305 Z M 466.441 256.176 C 443.641 275.672 472.891 309.871 495.688 290.371 L 506.168 281.41 C 528.965 261.91 499.719 227.715 476.918 247.211 Z M 477.363 246.844 C 454.07 265.75 482.43 300.688 505.723 281.781 L 518.184 271.664 C 541.477 252.758 513.117 217.82 489.824 236.727 Z M 489.965 236.613 C 466.523 255.328 494.598 290.496 518.043 271.777 L 532.371 260.34 C 555.816 241.621 527.742 206.453 504.297 225.172 Z M 504.574 224.953 C 480.84 243.301 508.359 278.902 532.094 260.559 L 548.07 248.207 C 571.805 229.863 544.285 194.258 520.551 212.605 Z M 520.504 212.641 C 496.816 231.051 524.43 266.582 548.117 248.172 L 565.145 234.941 C 588.832 216.531 561.219 181 537.531 199.41 Z M 537.566 199.379 C 513.84 217.742 541.383 253.328 565.109 234.969 L 582.824 221.254 C 606.551 202.895 579.008 167.309 555.281 185.668 Z M 555.207 185.727 C 531.563 204.191 559.254 239.66 582.902 221.195 L 600.648 207.336 C 624.297 188.875 596.602 153.406 572.957 171.867 Z M 572.938 171.883 C 549.313 190.367 577.039 225.809 600.668 207.324 L 618.234 193.578 C 641.863 175.094 614.133 139.652 590.508 158.137 Z M 590.57 158.09 C 566.875 176.488 594.481 212.031 618.172 193.629 L 635.207 180.398 C 658.902 161.996 631.301 126.457 607.606 144.855 Z M 607.656 144.816 C 583.91 163.152 611.41 198.77 635.156 180.438 L 651.469 167.844 C 675.215 149.508 647.715 113.891 623.969 132.223 Z M 623.945 132.242 C 600.223 150.609 627.773 186.191 651.496 167.824 L 667.125 155.719 C 690.848 137.352 663.297 101.773 639.574 120.141 Z M 639.527 120.176 C 615.856 138.605 643.5 174.113 667.172 155.684 L 681.953 144.18 C 705.625 125.75 677.981 90.242 654.309 108.668 Z M 654.477 108.543 C 630.633 126.75 657.941 162.512 681.785 144.305 L 695.977 133.469 C 719.82 115.262 692.512 79.496 668.668 97.703 Z M 668.738 97.648 C 644.824 115.758 671.988 151.633 695.906 133.523 L 709.047 123.57 C 732.965 105.461 705.797 69.586 681.883 87.695 Z M 681.949 87.645 C 657.965 105.664 684.996 141.645 708.981 123.621 L 721.066 114.543 C 745.051 96.523 718.02 60.547 694.035 78.566 Z M 694.246 78.41 C 670.051 96.148 696.66 132.438 720.856 114.699 L 731.672 106.77 C 755.867 89.031 729.258 52.738 705.063 70.477 Z M 705.031 70.5 C 680.871 88.281 707.539 124.527 731.703 106.746 L 741.324 99.668 C 765.484 81.887 738.816 45.641 714.652 63.422 Z M 714.582 63.473 C 690.488 81.344 717.297 117.488 741.391 99.617 L 749.481 93.617 C 773.578 75.742 746.77 39.602 722.672 57.473 Z M 722.852 57.344 C 698.582 74.977 725.035 111.383 749.305 93.746 L 756.168 88.758 C 780.438 71.121 753.984 34.719 729.715 52.355 Z M 729.637 52.41 C 705.445 70.152 732.055 106.441 756.246 88.699 L 761.57 84.797 C 785.762 67.059 759.152 30.77 734.961 48.508 Z M 734.461 48.887 C 710.77 67.293 738.379 102.828 762.07 84.422 L 765.895 81.449 C 789.586 63.043 761.977 27.508 738.285 45.914 Z M 739.703 44.898 C 714.66 61.41 739.43 98.98 764.473 82.465 L 767 80.801 C 792.047 64.289 767.277 26.719 742.231 43.23 Z M 740.285 44.668 C 717.156 63.773 745.813 98.469 768.941 79.367 L 770 78.492 C 793.129 59.387 764.477 24.691 741.344 43.797 Z M 740.285 44.668"/></g></g></g></svg>
</svg>