<?xml version="1.0" standalone="no"?>
<svg height="641.224" preserveAspectRatio="none" viewBox="0.000 0.000 650.809 641.224" width="650.809" x="0.000" xmlns="http://www.w3.org/2000/svg" xmlns:svg="http://www.w3.org/2000/svg" xmlns:xlink="http://www.w3.org/1999/xlink" y="0.000">
<svg width="650.809" height="641.224" xmlns="http://www.w3.org/2000/svg"><defs><clipPath id="caQPjwRQclipPath1"><path fill="#000000" stroke="none" d="M 0 0 L 650.809 0 L 650.809 641.224 L 0 641.224 Z"/></clipPath><clipPath id="caQPjwRQclip-0"><path fill="#000000" stroke="none" d="M 0 184 L 650.809 184 L 650.809 584 L 0 584 Z M 0 184"/></clipPath><clipPath id="caQPjwRQclip-1"><path fill="#000000" stroke="none" d="M 4 468 L 179 468 L 179 641.223 L 4 641.223 Z M 4 468"/></clipPath><clipPath id="caQPjwRQclip-2"><path fill="#000000" stroke="none" d="M 606 50 L 650.809 50 L 650.809 174 L 606 174 Z M 606 50"/></clipPath></defs><g transform="matrix(1 0 0 1 321.723 294.639)"><g transform="matrix(1 0 0 1 -321.72305 -294.63867)"><g clip-path="url(#caQPjwRQclipPath1)"><g clip-path="url(#caQPjwRQclip-0)"><path fill="#f57c3a" stroke="none" d="M 54.078 218.684 C 69.922 194.453 33.574 170.688 17.734 194.918 L 12.957 202.227 C -2.887 226.457 33.461 250.219 49.301 225.988 Z M 50.383 224.141 C 63.762 198.465 25.25 178.398 11.875 204.074 L 7.938 211.625 C -5.438 237.301 33.074 257.367 46.449 231.691 Z M 47.586 229.113 C 57.523 201.922 16.738 187.016 6.801 214.207 L 3.855 222.27 C -6.082 249.461 34.703 264.367 44.641 237.176 Z M 45.453 234.387 C 51.672 206.113 9.262 196.785 3.043 225.059 L 1.211 233.375 C -5.008 261.648 37.402 270.98 43.621 242.707 Z M 44.059 239.797 C 46.398 210.941 3.113 207.43 0.777 236.285 L 0.07 244.98 C -2.27 273.836 41.016 277.344 43.355 248.488 Z M 43.402 245.727 C 42.059 216.809 -1.32 218.82 0.023 247.742 L 0.445 256.809 C 1.785 285.727 45.164 283.711 43.824 254.793 Z M 43.547 252.199 C 38.742 223.648 -4.082 230.852 0.723 259.402 L 2.27 268.594 C 7.07 297.145 49.895 289.941 45.09 261.391 Z M 44.613 259.223 C 36.918 231.316 -4.945 242.855 2.75 270.766 L 5.281 279.961 C 12.977 307.867 54.84 296.328 47.145 268.418 Z M 46.602 266.723 C 36.645 239.535 -4.129 254.473 5.828 281.656 L 9.195 290.852 C 19.152 318.035 59.926 303.098 49.969 275.914 Z M 49.156 273.988 C 36.629 247.887 -2.52 266.68 10.008 292.777 L 14.363 301.852 C 26.891 327.953 66.039 309.164 53.512 283.063 Z M 52.906 281.891 C 38.816 256.602 0.879 277.734 14.973 303.027 L 19.887 311.844 C 33.977 337.137 71.91 316 57.82 290.711 Z M 56.777 289.027 C 40.445 265.125 4.594 289.625 20.926 313.527 L 26.691 321.965 C 43.023 345.867 78.879 321.367 62.543 297.465 Z M 61.563 296.141 C 43.461 273.547 9.57 300.699 27.672 323.293 L 34.133 331.355 C 52.234 353.949 86.125 326.793 68.023 304.203 Z M 66.828 302.836 C 46.902 281.832 15.402 311.719 35.328 332.723 L 42.492 340.273 C 62.418 361.277 93.918 331.391 73.996 310.387 Z M 72.453 308.914 C 50.566 289.965 22.145 322.797 44.031 341.746 L 52.039 348.68 C 73.926 367.625 102.348 334.797 80.461 315.848 Z M 79.133 314.785 C 55.828 297.609 30.063 332.563 53.367 349.742 L 62.078 356.16 C 85.383 373.34 111.148 338.383 87.844 321.207 Z M 86.48 320.277 C 61.938 304.922 38.902 341.73 63.445 357.09 L 72.715 362.891 C 97.254 378.25 120.289 341.438 95.75 326.078 Z M 93.91 325.051 C 67.996 312.145 48.641 351.02 74.555 363.922 L 84.664 368.957 C 110.582 381.859 129.938 342.988 104.02 330.082 Z M 102.625 329.449 C 75.863 318.406 59.301 358.551 86.063 369.59 L 96.742 373.996 C 123.504 385.039 140.066 344.895 113.305 333.855 Z M 111.668 333.254 C 84.109 324.395 70.816 365.734 98.375 374.598 L 109.75 378.254 C 137.313 387.117 150.605 345.773 123.043 336.914 Z M 121.66 336.52 C 93.57 329.504 83.047 371.633 111.137 378.648 L 123.223 381.668 C 151.313 388.684 161.836 346.551 133.746 339.535 Z M 132.367 339.238 C 103.883 334.063 96.121 376.789 124.605 381.965 L 137.105 384.234 C 165.59 389.41 173.352 346.688 144.867 341.512 Z M 144.059 341.379 C 115.402 337.281 109.254 380.27 137.914 384.367 L 151.117 386.254 C 179.777 390.352 185.922 347.367 157.266 343.27 Z M 156.188 343.141 C 127.359 340.477 123.367 383.719 152.191 386.383 L 165.82 387.641 C 194.645 390.305 198.641 347.063 169.813 344.398 Z M 169.168 344.352 C 140.273 342.547 137.57 385.891 166.465 387.691 L 180.66 388.574 C 209.551 390.375 212.254 347.035 183.359 345.234 Z M 182.559 345.199 C 153.621 344.465 152.52 387.875 181.457 388.609 L 196.199 388.984 C 225.141 389.719 226.242 346.309 197.301 345.574 Z M 196.934 345.566 C 167.984 345.324 167.621 388.746 196.57 388.992 L 211.742 389.117 C 240.691 389.363 241.055 345.938 212.105 345.695 Z M 211.566 345.695 C 182.621 346.172 183.332 389.59 212.281 389.117 L 227.871 388.859 C 256.82 388.387 256.109 344.969 227.16 345.441 Z M 227 345.445 C 198.059 346.133 199.09 389.547 228.031 388.859 L 243.773 388.484 C 272.715 387.797 271.684 344.383 242.742 345.07 Z M 242.75 345.07 C 213.809 345.746 214.82 389.16 243.762 388.484 L 259.777 388.109 C 288.719 387.434 287.707 344.02 258.766 344.695 Z M 258.578 344.703 C 229.645 345.625 231.027 389.027 259.965 388.105 L 275.977 387.594 C 304.914 386.672 303.527 343.27 274.594 344.191 Z M 274.773 344.188 C 245.832 344.867 246.855 388.281 275.797 387.598 L 291.672 387.227 C 320.613 386.543 319.594 343.129 290.652 343.813 Z M 290.625 343.813 C 261.684 344.531 262.758 387.941 291.699 387.223 L 307.148 386.84 C 336.09 386.125 335.012 342.711 306.07 343.43 Z M 306.609 343.422 C 277.66 343.422 277.66 386.848 306.609 386.848 L 321.926 386.848 C 350.879 386.848 350.879 343.422 321.926 343.422 Z M 322.113 343.426 C 293.168 343.172 292.789 386.598 321.738 386.848 L 336.492 386.977 C 365.441 387.227 365.816 343.801 336.867 343.551 Z M 337.254 343.559 C 308.313 342.793 307.164 386.203 336.105 386.969 L 350.57 387.352 C 379.512 388.117 380.66 344.707 351.723 343.941 Z M 351.93 343.949 C 322.996 342.906 321.434 386.301 350.363 387.344 L 364.273 387.848 C 393.203 388.891 394.77 345.492 365.84 344.449 Z M 366.461 344.48 C 337.574 342.605 334.758 385.938 363.648 387.816 L 377.273 388.699 C 406.164 390.574 408.977 347.242 380.09 345.367 Z M 380.117 345.367 C 351.23 343.453 348.359 386.781 377.246 388.699 L 390.449 389.574 C 419.336 391.488 422.211 348.16 393.324 346.242 Z M 393.602 346.266 C 364.742 343.977 361.313 387.266 390.172 389.555 L 402.957 390.566 C 431.816 392.852 435.242 349.563 406.383 347.277 Z M 406.648 347.297 C 377.82 344.66 373.863 387.906 402.691 390.543 L 415.055 391.676 C 443.883 394.313 447.84 351.066 419.012 348.43 Z M 418.867 348.418 C 390.023 345.969 386.352 389.238 415.199 391.688 L 427.129 392.699 C 455.977 395.148 459.648 351.879 430.801 349.43 Z M 430.848 349.434 C 402.008 346.922 398.242 390.184 427.082 392.695 L 438.602 393.699 C 467.445 396.211 471.211 352.949 442.371 350.438 Z M 442.461 350.445 C 413.629 347.816 409.684 391.063 438.516 393.691 L 449.613 394.703 C 478.445 397.332 482.391 354.086 453.559 351.457 Z M 453.105 351.422 C 424.223 349.398 421.191 392.719 450.07 394.738 L 460.75 395.488 C 489.629 397.512 492.664 354.191 463.781 352.168 Z M 463.867 352.176 C 434.992 350.043 431.797 393.348 460.668 395.48 L 470.914 396.238 C 499.785 398.371 502.984 355.063 474.113 352.93 Z M 474.16 352.934 C 445.293 350.742 442.004 394.043 470.871 396.234 L 480.848 396.992 C 509.715 399.184 513 355.883 484.133 353.691 Z M 484.23 353.699 C 455.371 351.379 451.895 394.664 480.75 396.984 L 490.164 397.742 C 519.023 400.063 522.504 356.777 493.645 354.457 Z M 493.699 354.461 C 464.848 352.07 461.262 395.348 490.113 397.738 L 499.246 398.496 C 528.098 400.887 531.684 357.609 502.832 355.219 Z M 503.23 355.254 C 474.43 352.328 470.043 395.531 498.844 398.457 L 507.555 399.344 C 536.359 402.266 540.746 359.066 511.945 356.141 Z M 512.031 356.148 C 483.242 353.105 478.676 396.289 507.469 399.332 L 515.75 400.207 C 544.539 403.254 549.106 360.07 520.316 357.023 Z M 521.016 357.109 C 492.34 353.133 486.375 396.145 515.047 400.125 L 523.203 401.254 C 551.879 405.23 557.844 362.219 529.168 358.242 Z M 530.09 358.391 C 501.609 353.184 493.805 395.902 522.281 401.105 L 529.867 402.492 C 558.348 407.699 566.152 364.98 537.676 359.773 Z M 537.75 359.789 C 509.289 354.484 501.332 397.176 529.793 402.48 L 537.234 403.867 C 565.695 409.168 573.648 366.48 545.188 361.176 Z M 546.242 361.398 C 518.082 354.688 508.016 396.934 536.18 403.641 L 543.07 405.285 C 571.231 411.992 581.297 369.75 553.133 363.043 Z M 553.699 363.184 C 525.727 355.719 514.531 397.68 542.504 405.141 L 549.102 406.902 C 577.074 414.363 588.27 372.406 560.297 364.945 Z M 561.039 365.156 C 533.348 356.703 520.672 398.238 548.359 406.691 L 554.547 408.578 C 582.234 417.027 594.914 375.496 567.223 367.043 Z M 568.309 367.406 C 541.102 357.512 526.258 398.32 553.465 408.215 L 559.356 410.359 C 586.563 420.254 601.406 379.445 574.199 369.551 Z M 574.914 369.824 C 548.074 358.977 531.801 399.234 558.641 410.086 L 564.262 412.355 C 591.102 423.203 607.375 382.945 580.535 372.094 Z M 581.648 372.582 C 555.461 360.246 536.953 399.531 563.145 411.867 L 568.488 414.387 C 594.68 426.723 613.184 387.438 586.996 375.102 Z M 588.191 375.711 C 562.813 361.777 541.914 399.844 567.293 413.777 L 572.344 416.551 C 597.723 430.48 618.617 392.414 593.242 378.48 Z M 594.637 379.316 C 570.371 363.527 546.688 399.926 570.949 415.715 L 575.59 418.734 C 599.856 434.523 623.539 398.125 599.273 382.336 Z M 600.219 382.988 C 576.824 365.938 551.25 401.031 574.645 418.082 L 579.137 421.355 C 602.535 438.406 628.109 403.313 604.715 386.262 Z M 606.426 387.648 C 584.875 368.316 555.879 400.641 577.426 419.973 L 581.363 423.5 C 602.91 442.832 631.91 410.508 610.359 391.176 Z M 611.426 392.199 C 591.238 371.449 560.109 401.727 580.297 422.48 L 584.094 426.383 C 604.281 447.133 635.406 416.855 615.223 396.102 Z M 616.32 397.324 C 597.762 375.105 564.434 402.945 582.996 425.164 L 586.363 429.195 C 604.922 451.414 638.25 423.574 619.691 401.355 Z M 620.633 402.57 C 603.695 379.094 568.481 404.5 585.418 427.98 L 588.512 432.266 C 605.449 455.742 640.664 430.336 623.727 406.859 Z M 624.574 408.125 C 609.324 383.516 572.414 406.391 587.664 431 L 590.473 435.531 C 605.723 460.141 642.633 437.266 627.383 412.656 Z M 628.02 413.75 C 614.227 388.297 576.047 408.984 589.84 434.438 L 592.363 439.102 C 606.156 464.555 644.336 443.863 630.543 418.41 Z M 631.188 419.703 C 619.117 393.391 579.648 411.496 591.719 437.809 L 593.969 442.715 C 606.039 469.031 645.512 450.922 633.441 424.609 Z M 633.664 425.117 C 622.273 398.504 582.352 415.594 593.746 442.207 L 595.848 447.125 C 607.242 473.738 647.164 456.648 635.77 430.035 Z M 636.031 430.676 C 625.496 403.711 585.051 419.516 595.586 446.48 L 597.555 451.516 C 608.09 478.48 648.535 462.676 638 435.711 Z M 638.422 436.891 C 629.461 409.363 588.168 422.809 597.133 450.336 L 598.816 455.508 C 607.777 483.035 649.07 469.594 640.106 442.063 Z M 640.102 442.055 C 631.125 414.531 589.84 427.996 598.82 455.52 L 600.504 460.68 C 609.481 488.203 650.762 474.738 641.785 447.215 Z M 641.777 447.184 C 632.754 419.676 591.492 433.207 600.512 460.715 L 602.207 465.875 C 611.227 493.387 652.488 479.855 643.469 452.344 Z M 643.758 453.305 C 636.016 425.41 594.172 437.023 601.914 464.918 L 603.316 469.961 C 611.059 497.859 652.902 486.242 645.16 458.348 Z M 645.148 458.305 C 637.344 430.426 595.527 442.129 603.328 470.008 L 604.738 475.043 C 612.539 502.922 654.359 491.215 646.555 463.336 Z M 646.844 464.488 C 640.578 436.227 598.184 445.625 604.449 473.891 L 605.566 478.926 C 611.832 507.188 654.227 497.789 647.961 469.523 Z M 648.051 469.945 C 642.344 441.563 599.77 450.121 605.477 478.504 L 606.465 483.422 C 612.172 511.801 654.742 503.246 649.039 474.863 Z M 649.234 475.98 C 645.02 447.34 602.055 453.66 606.27 482.301 L 606.977 487.09 C 611.188 515.73 654.152 509.41 649.938 480.77 Z M 650.09 482.074 C 647.613 453.23 604.348 456.941 606.824 485.785 L 607.242 490.691 C 609.719 519.535 652.984 515.824 650.512 486.98 Z M 650.582 488.215 C 649.75 459.277 606.344 460.52 607.172 489.461 L 607.313 494.246 C 608.141 523.188 651.547 521.941 650.719 493.004 Z M 650.645 495.527 C 653.18 466.688 609.922 462.887 607.387 491.723 L 606.965 496.512 C 604.43 525.352 647.688 529.156 650.223 500.316 Z M 649.996 502.078 C 654.879 473.543 612.078 466.215 607.191 494.75 L 606.352 499.664 C 601.465 528.199 644.266 535.531 649.152 506.996 Z M 648.621 509.324 C 656.613 481.5 614.875 469.512 606.883 497.336 L 605.473 502.246 C 597.484 530.07 639.219 542.055 647.211 514.23 Z M 646.5 516.305 C 657.258 489.426 616.941 473.293 606.184 500.172 L 604.215 505.086 C 593.461 531.965 633.777 548.098 644.531 521.223 Z M 643.578 523.285 C 657.086 497.676 618.676 477.418 605.168 503.023 L 602.645 507.813 C 589.137 533.422 627.547 553.68 641.055 528.07 Z M 639.84 530.102 C 656.051 506.117 620.07 481.801 603.859 505.785 L 600.629 510.563 C 584.418 534.551 620.398 558.867 636.609 534.879 Z M 635.211 536.731 C 653.887 514.609 620.703 486.594 602.027 508.715 L 598.094 513.375 C 579.418 535.496 612.598 563.512 631.273 541.391 Z M 629.645 543.117 C 650.625 523.168 620.699 491.699 599.723 511.648 L 594.945 516.191 C 573.965 536.141 603.891 567.609 624.871 547.66 Z M 622.859 549.352 C 646.094 532.082 620.191 497.23 596.957 514.5 L 591.199 518.777 C 567.965 536.047 593.867 570.898 617.102 553.629 Z M 614.863 555.09 C 640.047 540.805 618.617 503.035 593.438 517.316 L 586.555 521.223 C 561.375 535.508 582.805 573.277 607.984 558.992 Z M 606.289 559.859 C 632.621 547.836 614.586 508.332 588.254 520.355 L 579.961 524.141 C 553.625 536.164 571.66 575.668 597.996 563.645 Z M 595.93 564.461 C 623.356 555.195 609.457 514.055 582.027 523.324 L 572.336 526.598 C 544.91 535.863 558.813 577.004 586.238 567.738 Z M 585.008 568.113 C 612.938 560.484 601.496 518.594 573.566 526.223 L 562.047 529.367 C 534.121 536.996 545.563 578.887 573.488 571.258 Z M 572.184 571.574 C 600.527 565.688 591.695 523.168 563.352 529.055 L 550 531.828 C 521.656 537.715 530.484 580.231 558.832 574.344 Z M 558.004 574.5 C 586.555 569.719 579.379 526.891 550.828 531.672 L 535.801 534.191 C 507.25 538.973 514.426 581.801 542.977 577.02 Z M 542.106 577.145 C 570.828 573.523 565.398 530.441 536.676 534.063 L 519.672 536.207 C 490.949 539.828 496.379 582.91 525.102 579.289 Z M 524.441 579.363 C 553.262 576.625 549.156 533.395 520.336 536.133 L 501.797 537.895 C 472.977 540.629 477.078 583.859 505.898 581.125 Z M 505.207 581.18 C 534.098 579.367 531.383 536.027 502.488 537.84 L 482.402 539.098 C 453.512 540.906 456.227 584.246 485.121 582.438 Z M 484.668 582.461 C 513.59 581.254 511.781 537.867 482.855 539.074 L 461.645 539.957 C 432.719 541.164 434.531 584.551 463.453 583.344 Z M 462.793 583.363 C 491.738 583.039 491.254 539.617 462.309 539.941 L 440.246 540.188 C 411.297 540.508 411.781 583.934 440.73 583.609 Z M 440.488 583.609 C 469.438 583.609 469.438 540.184 440.488 540.184 L 418.012 540.184 C 389.063 540.184 389.063 583.609 418.012 583.609 Z M 417.898 583.609 C 446.848 583.762 447.078 540.34 418.125 540.184 L 395.652 540.066 C 366.703 539.914 366.473 583.34 395.422 583.492 Z M 395.16 583.488 C 424.105 583.992 424.859 540.574 395.914 540.07 L 373.859 539.688 C 344.914 539.184 344.16 582.602 373.105 583.106 Z M 373.227 583.106 C 402.176 583.449 402.688 540.027 373.738 539.684 L 352.801 539.438 C 323.855 539.098 323.344 582.52 352.289 582.859 Z M 352.406 582.863 C 381.355 583.051 381.637 539.629 352.688 539.438 L 333.16 539.309 C 304.211 539.121 303.926 582.543 332.875 582.734 Z M 333.02 582.734 C 361.969 582.734 361.969 539.309 333.02 539.309 L 315.457 539.309 C 286.508 539.309 286.508 582.734 315.457 582.734 Z M 315.641 582.734 C 344.59 582.488 344.223 539.066 315.273 539.309 L 300.102 539.438 C 271.152 539.68 271.52 583.106 300.469 582.863 Z M 300.703 582.859 C 329.648 582.301 328.813 538.883 299.867 539.441 L 287.094 539.688 C 258.148 540.246 258.984 583.664 287.93 583.106 Z M 288.043 583.102 C 316.984 582.391 315.918 538.981 286.977 539.691 L 276.574 539.945 C 247.633 540.656 248.699 584.066 277.641 583.356 Z M 277.105 583.363 C 306.055 583.363 306.055 539.938 277.105 539.938 L 269.383 539.938 C 240.434 539.938 240.434 583.363 269.383 583.363 Z M 267.906 583.313 C 296.789 585.281 299.742 541.957 270.859 539.988 L 265.242 539.606 C 236.359 537.637 233.402 580.961 262.285 582.93 Z M 258.301 582.281 C 286.316 589.566 297.246 547.539 269.227 540.254 L 265.859 539.379 C 237.844 532.094 226.914 574.121 254.934 581.406 Z M 258.301 582.281"/></g><g clip-path="url(#caQPjwRQclip-1)"><path fill="#f57c3a" stroke="none" d="M 63.961 481.953 C 32.051 481.953 32.051 529.82 63.961 529.82 L 64.113 529.82 C 96.023 529.82 96.023 481.953 64.113 481.953 Z M 48.352 487.875 C 24.336 508.887 55.855 544.914 79.875 523.898 L 80.035 523.758 C 104.051 502.742 72.527 466.719 48.512 487.734 Z M 43.352 494.121 C 27.855 522.02 69.699 545.266 85.195 517.367 L 85.348 517.098 C 100.844 489.199 59 465.953 43.504 493.852 Z M 43.328 516.777 C 58.398 544.906 100.59 522.301 85.523 494.172 L 85.371 493.891 C 70.301 465.758 28.105 488.363 43.176 516.492 Z M 40.34 505.191 C 40.34 537.106 88.207 537.106 88.207 505.191 L 88.207 504.91 C 88.207 472.996 40.34 472.996 40.34 504.91 Z M 41.293 511.594 C 50.207 542.238 96.168 528.867 87.254 498.223 L 87.094 497.672 C 78.18 467.027 32.219 480.398 41.133 511.043 Z M 44.797 518.488 C 63.641 544.242 102.273 515.977 83.43 490.223 L 83.125 489.809 C 64.281 464.055 25.652 492.32 44.496 518.074 Z M 42.961 515.695 C 58.629 543.496 100.328 519.992 84.66 492.191 L 84.348 491.637 C 68.68 463.836 26.98 487.34 42.648 515.141 Z M 42.559 514.98 C 58.016 542.898 99.895 519.719 84.438 491.797 L 84.125 491.234 C 68.672 463.313 26.789 486.496 42.246 514.418 Z M 47.16 520.602 C 70.859 541.969 102.914 506.418 79.215 485.051 L 78.598 484.496 C 54.898 463.125 22.844 498.676 46.543 520.047 Z M 46.688 520.176 C 70.563 541.352 102.328 505.543 78.453 484.367 L 77.832 483.813 C 53.957 462.637 22.191 498.445 46.063 519.621 Z M 49.668 522.262 C 77.059 538.637 101.617 497.551 74.227 481.176 L 73.301 480.621 C 45.91 464.246 21.348 505.332 48.738 521.707 Z M 52.277 523.441 C 81.98 535.102 99.473 490.543 69.766 478.883 L 68.688 478.461 C 38.984 466.801 21.492 511.359 51.199 523.02 Z M 52.375 523.445 C 82.648 533.539 97.785 488.125 67.512 478.035 L 66.273 477.621 C 36 467.531 20.863 512.941 51.137 523.035 Z M 56.539 524.164 C 88.32 527.051 92.652 479.383 60.871 476.492 L 59.32 476.352 C 27.539 473.461 23.207 521.133 54.988 524.023 Z M 59.141 524.039 C 90.941 521.387 86.969 473.684 55.164 476.336 L 53.473 476.477 C 21.672 479.125 25.648 526.828 57.449 524.18 Z M 58.918 524.012 C 90.496 519.402 83.582 472.035 52.004 476.645 L 50.141 476.918 C 18.566 481.523 25.477 528.891 57.055 524.281 Z M 59.633 523.762 C 90.512 515.719 78.449 469.395 47.566 477.438 L 45.402 478.004 C 14.52 486.047 26.586 532.367 57.465 524.324 Z M 61.23 523 C 90.348 509.938 70.754 466.266 41.637 479.324 L 39.48 480.293 C 10.367 493.355 29.957 537.027 59.074 523.969 Z M 62.207 522.273 C 89.063 505.035 63.207 464.75 36.352 481.988 L 34.184 483.379 C 7.328 500.617 33.184 540.898 60.043 523.66 Z M 61.824 522.398 C 86.996 502.785 57.574 465.027 32.402 484.641 L 30.074 486.453 C 4.902 506.066 34.324 543.828 59.496 524.211 Z M 61.891 522.074 C 84.211 499.266 50.004 465.785 27.684 488.59 L 25.367 490.957 C 3.043 513.766 37.254 547.246 59.574 524.441 Z M 61.695 521.953 C 80.703 496.316 42.25 467.809 23.242 493.445 L 21.078 496.367 C 2.074 522 40.527 550.508 59.531 524.875 Z M 60.617 523.277 C 77.496 496.195 36.871 470.879 19.992 497.961 L 17.828 501.438 C 0.949 528.52 41.574 553.836 58.453 526.754 Z M 59.57 524.754 C 73.781 496.184 30.926 474.863 16.711 503.434 L 14.707 507.461 C 0.492 536.035 43.352 557.356 57.566 528.785 Z M 57.941 527.988 C 71.098 498.914 27.484 479.184 14.332 508.254 L 12.316 512.707 C -0.84 541.781 42.773 561.516 55.926 532.441 Z M 56.844 530.09 C 66.867 499.793 21.418 484.762 11.398 515.059 L 9.695 520.203 C -0.324 550.504 45.121 565.535 55.145 535.234 Z M 55.258 534.879 C 64.805 504.43 19.129 490.109 9.582 520.559 L 7.879 525.988 C -1.668 556.438 44.008 570.758 53.555 540.309 Z M 54.184 537.856 C 60.461 506.57 13.531 497.152 7.25 528.441 L 6.023 534.563 C -0.254 565.852 46.676 575.27 52.957 543.981 Z M 53.172 542.738 C 57.793 511.164 10.434 504.227 5.809 535.805 L 4.871 542.199 C 0.246 573.773 47.609 580.711 52.234 549.133 Z M 52.426 547.359 C 54.684 515.527 6.934 512.141 4.68 543.973 L 4.215 550.512 C 1.957 582.344 49.707 585.727 51.965 553.895 Z M 52.023 552.203 C 52.023 520.289 4.156 520.289 4.156 552.203 L 4.156 559.02 C 4.156 590.934 52.023 590.934 52.023 559.02 Z M 51.805 555.793 C 47.5 524.172 0.07 530.629 4.375 562.246 L 5.301 569.055 C 9.605 600.676 57.035 594.223 52.73 562.602 Z M 52.355 560.52 C 45.273 529.402 -1.402 540.02 5.68 571.137 L 7.23 577.953 C 14.309 609.07 60.984 598.453 53.906 567.336 Z M 53.008 564.32 C 41.906 534.402 -2.973 551.055 8.129 580.973 L 10.605 587.648 C 21.707 617.566 66.586 600.914 55.484 570.996 Z M 54.184 568.102 C 39.227 539.914 -3.059 562.356 11.902 590.543 L 15.297 596.938 C 30.258 625.125 72.539 602.688 57.578 574.496 Z M 55.738 571.563 C 36.859 545.828 -1.734 574.145 17.141 599.875 L 21.633 605.996 C 40.508 631.731 79.102 603.414 60.227 577.684 Z M 58.523 575.613 C 36.887 552.156 1.699 584.609 23.336 608.066 L 28.594 613.766 C 50.227 637.227 85.414 604.773 63.781 581.316 Z M 61.496 579.145 C 36.969 558.731 6.348 595.523 30.875 615.938 L 37.059 621.082 C 61.59 641.496 92.207 604.703 67.68 584.289 Z M 65.281 582.535 C 38.41 565.32 12.59 605.629 39.461 622.84 L 46.41 627.293 C 73.281 644.504 99.102 604.199 72.23 586.984 Z M 70.125 585.785 C 41.652 571.375 20.039 614.082 48.512 628.492 L 55.934 632.25 C 84.406 646.66 106.023 603.949 77.547 589.539 Z M 75.195 588.504 C 45.34 577.231 28.43 622.012 58.285 633.285 L 66.02 636.207 C 95.875 647.481 112.785 602.699 82.93 591.426 Z M 80.102 590.551 C 49.082 583.051 37.832 629.578 68.848 637.078 L 76.887 639.023 C 107.902 646.523 119.156 599.996 88.137 592.496 Z M 86.285 592.125 C 54.773 587.094 47.227 634.363 78.738 639.395 L 86.625 640.652 C 118.137 645.684 125.684 598.414 94.172 593.383 Z M 91.207 593.098 C 59.313 592.02 57.695 639.859 89.59 640.938 L 97.625 641.211 C 129.52 642.289 131.137 594.449 99.242 593.371 Z M 96.723 593.418 C 64.895 595.695 68.313 643.441 100.145 641.164 L 107.879 640.609 C 139.707 638.328 136.289 590.582 104.457 592.863 Z M 101.762 593.211 C 70.395 599.086 79.207 646.133 110.574 640.262 L 117.996 638.871 C 149.363 632.996 140.551 585.949 109.184 591.82 Z M 106.855 592.379 C 76.234 601.359 89.703 647.293 120.324 638.313 L 127.434 636.231 C 158.059 627.25 144.59 581.316 113.965 590.293 Z M 110.887 591.434 C 81.781 604.52 101.41 648.176 130.516 635.09 L 137.012 632.172 C 166.117 619.082 146.488 575.426 117.383 588.512 Z M 114.531 590.035 C 87.453 606.922 112.785 647.539 139.863 630.648 L 145.887 626.891 C 172.961 610.004 147.629 569.387 120.551 586.277 Z M 117.754 588.32 C 93.398 608.941 124.332 645.473 148.684 624.852 L 153.941 620.398 C 178.297 599.777 147.363 563.246 123.008 583.867 Z M 120.703 586.102 C 99.328 609.797 134.871 641.859 156.246 618.164 L 160.891 613.02 C 182.266 589.324 146.723 557.262 125.348 580.953 Z M 123.16 583.773 C 105.543 610.383 145.457 636.809 163.074 610.199 L 166.941 604.359 C 184.559 577.75 144.645 551.324 127.027 577.934 Z M 125.352 580.91 C 111.703 609.758 154.977 630.227 168.621 601.379 L 171.711 594.844 C 185.359 565.996 142.086 545.527 128.441 574.375 Z M 127.328 577.176 C 117.414 607.512 162.918 622.375 172.828 592.043 L 175.145 584.953 C 185.055 554.617 139.555 539.754 129.641 570.086 Z M 128.953 572.68 C 122.5 603.934 169.383 613.613 175.832 582.359 L 177.383 574.848 C 183.836 543.594 136.957 533.914 130.504 565.168 Z M 130.086 568.125 C 127.578 599.941 175.297 603.699 177.805 571.887 L 178.418 564.094 C 180.926 532.281 133.207 528.52 130.699 560.332 Z M 130.629 562.66 C 131.227 594.566 179.086 593.672 178.488 561.766 L 178.336 553.699 C 177.738 521.793 129.879 522.688 130.477 554.594 Z M 130.633 556.906 C 134.313 588.606 181.863 583.086 178.184 551.387 L 177.246 543.32 C 173.566 511.621 126.016 517.141 129.695 548.84 Z M 130.145 551.438 C 137.289 582.539 183.941 571.824 176.797 540.719 L 174.945 532.652 C 167.801 501.551 121.148 512.27 128.293 543.371 Z M 128.984 545.797 C 139.363 575.973 184.629 560.406 174.25 530.231 L 171.621 522.586 C 161.246 492.406 115.98 507.973 126.355 538.152 Z M 127.395 540.691 C 141.16 569.484 184.348 548.84 170.582 520.047 L 167.188 512.945 C 153.426 484.156 110.238 504.801 124 533.59 Z M 125.523 536.305 C 142.906 563.066 183.051 536.992 165.668 510.23 L 161.336 503.566 C 143.953 476.801 103.809 502.879 121.195 529.641 Z M 123.285 532.402 C 144.352 556.371 180.309 524.773 159.242 500.801 L 153.988 494.82 C 132.922 470.848 96.965 502.449 118.031 526.418 Z M 120.66 528.984 C 145.148 549.449 175.844 512.719 151.355 492.254 L 144.859 486.824 C 120.371 466.363 89.676 503.094 114.164 523.559 Z M 117.203 525.719 C 144.57 542.129 169.191 501.078 141.82 484.664 L 134.398 480.215 C 107.031 463.801 82.414 504.852 109.781 521.266 Z M 112.414 522.633 C 141.605 535.531 160.953 491.75 131.766 478.848 L 123.266 475.094 C 94.078 462.191 74.727 505.977 103.914 518.875 Z M 106.719 519.91 C 137.289 529.07 151.031 483.219 120.461 474.059 L 111.188 471.277 C 80.617 462.117 66.875 507.969 97.445 517.133 Z M 100.656 517.855 C 132.195 522.734 139.512 475.43 107.973 470.551 L 98.074 469.02 C 66.535 464.145 59.223 511.449 90.758 516.328 Z M 94.074 516.605 C 125.984 517.059 126.664 469.195 94.758 468.742 L 84.867 468.602 C 52.957 468.145 52.277 516.008 84.184 516.465 Z M 88.242 516.176 C 119.766 511.223 112.336 463.934 80.809 468.891 L 71.07 470.418 C 39.547 475.375 46.98 522.664 78.504 517.707 Z M 83.145 516.492 C 113.047 505.348 96.336 460.492 66.43 471.637 L 57.457 474.98 C 27.555 486.121 44.27 530.977 74.172 519.836 Z M 78.641 517.613 C 105.582 500.512 79.93 460.098 52.988 477.199 L 45.102 482.203 C 18.16 499.309 43.813 539.723 70.754 522.621 Z M 75.258 518.922 C 97.27 495.816 62.613 462.797 40.602 485.902 L 34.105 492.719 C 12.094 515.824 46.75 548.844 68.762 525.738 Z M 72.277 520.988 C 87.957 493.195 46.266 469.676 30.586 497.469 L 25.805 505.949 C 10.125 533.746 51.816 557.266 67.496 529.469 Z M 69.43 525.047 C 79.215 494.672 33.652 479.996 23.867 510.371 L 20.777 519.969 C 10.992 550.344 56.555 565.02 66.34 534.645 Z M 67.324 530.129 C 71.086 498.441 23.555 492.797 19.789 524.484 L 18.551 534.918 C 14.789 566.609 62.324 572.25 66.086 540.563 Z M 66.242 537.066 C 65.344 505.164 17.496 506.516 18.395 538.414 L 18.695 549.121 C 19.598 581.02 67.445 579.668 66.547 547.77 Z M 66.203 544.348 C 60.734 512.906 13.574 521.105 19.043 552.547 L 20.902 563.262 C 26.371 594.703 73.531 586.5 68.066 555.063 Z M 66.203 544.348"/></g><path fill="#f57c3a" stroke="none" d="M 34.633 224.602 C 62.082 224.602 62.082 183.426 34.633 183.426 L 34.496 183.426 C 7.047 183.426 7.047 224.602 34.496 224.602 Z M 55.086 204.016 C 55.086 176.566 13.91 176.566 13.91 204.016 L 13.91 204.141 C 13.91 231.59 55.086 231.59 55.086 204.141 Z M 34.496 224.727 C 61.949 224.727 61.949 183.551 34.496 183.551 L 34.371 183.551 C 6.918 183.551 6.918 224.727 34.371 224.727 Z M 34.371 224.727 C 61.82 224.727 61.82 183.551 34.371 183.551 L 34.242 183.551 C 6.793 183.551 6.793 224.727 34.242 224.727 Z M 13.656 204.141 C 13.656 231.59 54.832 231.59 54.832 204.141 L 54.832 203.891 C 54.832 176.441 13.656 176.441 13.656 203.891 Z M 13.656 203.891 C 13.656 231.344 54.832 231.344 54.832 203.891 L 54.832 203.652 C 54.832 176.203 13.656 176.203 13.656 203.652 Z M 14.305 198.52 C 7.461 225.105 47.34 235.367 54.18 208.785 L 54.309 208.289 C 61.148 181.707 21.273 171.441 14.434 198.027 Z M 17.035 192.051 C 2.227 215.168 36.898 237.379 51.707 214.266 L 52.098 213.652 C 66.902 190.539 32.23 168.328 17.426 191.441 Z M 17.945 190.672 C 2.109 213.094 35.742 236.848 51.578 214.426 L 52.094 213.691 C 67.93 191.27 34.297 167.516 18.461 189.938 Z M 20.305 187.688 C 1.465 207.652 31.418 235.91 50.254 215.941 L 51.172 214.973 C 70.008 195.004 40.059 166.746 21.219 186.715 Z M 21.398 186.531 C 2.313 206.262 31.91 234.887 50.992 215.156 L 52.293 213.813 C 71.379 194.082 41.781 165.457 22.695 185.188 Z M 23.465 184.434 C 3.375 203.145 31.441 233.273 51.527 214.566 L 53.227 212.984 C 73.313 194.273 45.25 164.145 25.16 182.852 Z M 26.051 182.07 C 4.922 199.594 31.207 231.289 52.336 213.766 L 54.551 211.926 C 75.684 194.402 49.395 162.707 28.266 180.234 Z M 28.914 179.715 C 7.098 196.375 32.086 229.102 53.902 212.441 L 56.773 210.25 C 78.594 193.59 53.602 160.867 31.785 177.523 Z M 33.227 176.52 C 10.066 191.258 32.176 225.996 55.336 211.258 L 58.984 208.934 C 82.145 194.191 60.035 159.457 36.875 174.195 Z M 38.055 173.5 C 13.969 186.668 33.723 222.797 57.809 209.629 L 62.496 207.066 C 86.582 193.898 66.828 157.77 42.742 170.938 Z M 44.059 170.277 C 19.094 181.691 36.215 219.141 61.18 207.723 L 66.785 205.16 C 91.75 193.746 74.625 156.301 49.66 167.715 Z M 50.367 167.41 C 24.992 177.883 40.707 215.945 66.082 205.469 L 72.867 202.668 C 98.238 192.191 82.523 154.133 57.152 164.605 Z M 58.242 164.191 C 32.316 173.215 45.848 212.102 71.773 203.082 L 79.852 200.27 C 105.777 191.25 92.242 152.359 66.316 161.383 Z M 67.254 161.082 C 40.93 168.852 52.586 208.344 78.914 200.57 L 88.434 197.762 C 114.762 189.988 103.102 150.5 76.773 158.27 Z M 77.82 157.992 C 51.121 164.371 60.688 204.418 87.387 198.039 L 98.598 195.363 C 125.297 188.984 115.73 148.938 89.031 155.313 Z M 89.684 155.168 C 62.789 160.676 71.051 201.016 97.941 195.508 L 110.461 192.945 C 137.352 187.438 129.094 147.102 102.199 152.605 Z M 102.945 152.469 C 75.871 156.977 82.637 197.594 109.715 193.082 L 123.664 190.758 C 150.742 186.25 143.977 145.633 116.898 150.145 Z M 117.277 150.082 C 90.121 154.09 96.129 194.824 123.285 190.82 L 138.148 188.629 C 165.305 184.621 159.297 143.887 132.141 147.891 Z M 132.594 147.832 C 105.352 151.23 110.453 192.09 137.695 188.688 L 153.336 186.734 C 180.574 183.336 175.473 142.477 148.234 145.879 Z M 148.441 145.852 C 121.168 148.98 125.859 189.887 153.129 186.762 L 169.164 184.922 C 196.434 181.797 191.746 140.887 164.473 144.016 Z M 164.996 143.961 C 137.652 146.391 141.297 187.402 168.637 184.977 L 185.063 183.52 C 212.406 181.09 208.762 140.074 181.422 142.504 Z M 181.703 142.48 C 154.332 144.527 157.402 185.59 184.777 183.539 L 201.074 182.32 C 228.445 180.273 225.375 139.211 198 141.262 Z M 198.457 141.23 C 171.043 142.672 173.207 183.793 200.617 182.352 L 216.914 181.492 C 244.328 180.051 242.164 138.934 214.75 140.375 Z M 215.203 140.355 C 187.766 141.195 189.023 182.352 216.461 181.512 L 232.367 181.027 C 259.805 180.188 258.547 139.031 231.109 139.871 Z M 231.574 139.859 C 204.125 140.078 204.449 181.254 231.902 181.035 L 247.543 180.91 C 274.992 180.695 274.668 139.52 247.219 139.738 Z M 247.715 139.738 C 220.266 139.293 219.598 180.465 247.047 180.91 L 262.305 181.156 C 289.754 181.602 290.422 140.43 262.973 139.984 Z M 263.66 140.008 C 236.242 138.648 234.203 179.773 261.617 181.133 L 276.215 181.859 C 303.633 183.219 305.676 142.094 278.258 140.734 Z M 278.695 140.758 C 251.313 138.816 248.398 179.887 275.777 181.832 L 289.594 182.813 C 316.977 184.758 319.895 143.684 292.512 141.742 Z M 292.988 141.781 C 265.66 139.199 261.789 180.191 289.117 182.773 L 302.023 183.992 C 329.352 186.574 333.227 145.582 305.898 143 Z M 306.668 143.086 C 279.457 139.477 274.043 180.297 301.254 183.906 L 313.242 185.496 C 340.457 189.105 345.871 148.289 318.66 144.68 Z M 318.93 144.715 C 291.77 140.746 285.813 181.488 312.973 185.457 L 323.793 187.039 C 350.953 191.012 356.91 150.27 329.75 146.297 Z M 330.031 146.34 C 302.93 141.992 296.402 182.645 323.508 186.996 L 333.418 188.586 C 360.52 192.938 367.047 152.281 339.941 147.934 Z M 340.023 147.945 C 312.934 143.488 306.254 184.121 333.34 188.574 L 342.203 190.031 C 369.293 194.488 375.973 153.859 348.887 149.402 Z M 349.086 149.438 C 322.047 144.715 314.965 185.277 342.004 190 L 349.699 191.344 C 376.738 196.063 383.82 155.5 356.781 150.781 Z M 356.551 150.742 C 329.457 146.324 322.836 186.965 349.926 191.383 L 356.703 192.484 C 383.797 196.902 390.422 156.262 363.328 151.848 Z M 363.453 151.867 C 336.387 147.285 329.512 187.883 356.578 192.465 L 362.32 193.438 C 389.383 198.02 396.258 157.422 369.195 152.84 Z M 368.773 152.773 C 341.621 148.75 335.586 189.48 362.738 193.504 L 367.691 194.238 C 394.844 198.262 400.879 157.527 373.723 153.504 Z M 373.164 153.43 C 345.91 150.152 340.996 191.035 368.25 194.313 L 372.293 194.797 C 399.547 198.074 404.461 157.195 377.207 153.918 Z M 376.25 153.824 C 348.871 151.824 345.871 192.891 373.25 194.891 L 376.637 195.137 C 404.016 197.137 407.016 156.07 379.637 154.07 Z M 378.137 154.016 C 350.688 154.016 350.688 195.191 378.137 195.191 L 381.008 195.191 C 408.457 195.191 408.457 154.016 381.008 154.016 Z M 378.137 154.016"/><path fill="#f57c3a" stroke="none" d="M 490.211 215.73 C 483.227 190.133 444.828 200.605 451.813 226.203 L 451.938 226.664 C 458.918 252.262 497.316 241.789 490.336 216.191 Z M 489.777 214.465 C 480.496 189.609 443.211 203.535 452.492 228.391 L 452.754 229.086 C 462.035 253.941 499.32 240.016 490.039 215.16 Z M 490.605 216.93 C 483.684 191.316 445.262 201.699 452.184 227.316 L 452.438 228.242 C 459.359 253.859 497.781 243.473 490.855 217.859 Z M 491.34 220.188 C 487.52 193.93 448.133 199.66 451.953 225.918 L 452.086 226.836 C 455.906 253.094 495.293 247.367 491.473 221.109 Z M 490.992 218.781 C 484.07 193.168 445.648 203.551 452.57 229.164 L 452.82 230.094 C 459.742 255.707 498.164 245.324 491.242 219.711 Z M 491.723 222.039 C 487.906 195.781 448.52 201.508 452.34 227.766 L 452.473 228.688 C 456.293 254.945 495.68 249.215 491.859 222.961 Z M 492.066 225.824 C 492.066 199.289 452.266 199.289 452.266 225.824 L 452.266 226.746 C 452.266 253.277 492.066 253.277 492.066 226.746 Z M 491.75 223.207 C 487.031 197.094 447.863 204.172 452.582 230.285 L 452.707 230.98 C 457.426 257.09 496.594 250.012 491.875 223.902 Z M 491.875 230.98 C 496.594 204.867 457.426 197.789 452.707 223.902 L 452.582 224.594 C 447.863 250.707 487.031 257.785 491.75 231.672 Z M 492.066 228.133 C 492.066 201.602 452.266 201.602 452.266 228.133 L 452.266 228.594 C 452.266 255.129 492.066 255.129 492.066 228.594 Z M 491.301 234.063 C 498.59 208.551 460.32 197.617 453.031 223.129 L 452.898 223.598 C 445.609 249.109 483.875 260.043 491.168 234.531 Z M 491.23 234.301 C 498.211 208.703 459.813 198.23 452.832 223.828 L 452.707 224.289 C 445.727 249.887 484.125 260.359 491.105 234.762 Z M 489.449 238.922 C 501.977 215.531 466.895 196.738 454.363 220.129 L 454.238 220.363 C 441.711 243.75 476.793 262.543 489.32 239.156 Z M 488.902 239.902 C 502.426 217.078 468.188 196.789 454.66 219.613 L 454.527 219.84 C 441 242.668 475.238 262.957 488.766 240.129 Z M 471.648 249.887 C 498.18 249.887 498.18 210.086 471.648 210.086 L 471.52 210.086 C 444.988 210.086 444.988 249.887 471.52 249.887 Z M 454.125 239.648 C 467.012 262.844 501.801 243.516 488.918 220.32 L 488.793 220.094 C 475.906 196.898 441.113 216.23 454 239.422 Z M 453.984 239.398 C 466.836 262.609 501.656 243.336 488.805 220.121 L 488.547 219.652 C 475.695 196.438 440.875 215.715 453.727 238.93 Z M 451.98 234.688 C 459.18 260.227 497.488 249.43 490.289 223.891 L 490.031 222.973 C 482.832 197.434 444.523 208.227 451.723 233.766 Z M 451.211 231.41 C 455.266 257.633 494.598 251.551 490.543 225.328 L 490.293 223.703 C 486.238 197.48 446.902 203.563 450.957 229.785 Z M 450.848 228.965 C 453.813 255.332 493.363 250.891 490.402 224.523 L 490.141 222.211 C 487.18 195.844 447.629 200.285 450.59 226.656 Z M 450.531 226.027 C 452.652 252.477 492.324 249.289 490.203 222.84 L 489.941 219.609 C 487.816 193.16 448.145 196.348 450.27 222.793 Z M 450.215 221.785 C 450.992 248.309 490.777 247.141 489.996 220.617 L 489.871 216.34 C 489.094 189.816 449.309 190.984 450.09 217.508 Z M 450.086 217.434 C 450.77 243.957 490.555 242.934 489.875 216.41 L 489.738 211.203 C 489.059 184.68 449.27 185.703 449.953 212.227 Z M 449.945 211.715 C 449.945 238.246 489.746 238.246 489.746 211.715 L 489.746 205.469 C 489.746 178.934 449.945 178.934 449.945 205.469 Z M 449.945 205.469 C 449.945 232 489.746 232 489.746 205.469 L 489.746 198.301 C 489.746 171.766 449.945 171.766 449.945 198.301 Z M 449.949 198.605 C 450.355 225.137 490.148 224.527 489.742 197.996 L 489.617 189.789 C 489.211 163.258 449.418 163.867 449.824 190.398 Z M 449.82 190.094 C 449.82 216.629 489.621 216.629 489.621 190.094 L 489.621 180.957 C 489.621 154.426 449.82 154.426 449.82 180.957 Z M 449.824 181.215 C 450.164 207.746 489.961 207.234 489.617 180.703 L 489.492 170.98 C 489.152 144.449 449.355 144.965 449.695 171.496 Z M 449.695 171.496 C 450.043 198.027 489.84 197.508 489.492 170.977 L 489.359 160.688 C 489.016 134.156 449.219 134.676 449.563 161.207 Z M 449.563 160.945 C 449.563 187.48 489.359 187.48 489.359 160.945 L 489.359 150.195 C 489.359 123.66 449.563 123.66 449.563 150.195 Z M 449.563 149.949 C 449.234 176.48 489.031 176.973 489.359 150.441 L 489.492 139.57 C 489.82 113.039 450.023 112.551 449.695 139.082 Z M 449.695 139.098 C 449.395 165.629 489.191 166.086 489.492 139.555 L 489.621 128.566 C 489.922 102.035 450.125 101.582 449.82 128.113 Z M 449.832 127.621 C 448.875 154.137 488.648 155.574 489.609 129.059 L 489.992 118.418 C 490.953 91.902 451.18 90.461 450.219 116.977 Z M 450.219 116.953 C 449.227 143.469 489 144.957 489.992 118.441 L 490.379 108.152 C 491.371 81.637 451.598 80.148 450.605 106.664 Z M 450.621 106.332 C 449.188 132.828 488.93 134.977 490.363 108.48 L 490.883 98.887 C 492.316 72.391 452.574 70.242 451.141 96.734 Z M 451.129 96.93 C 449.953 123.434 489.715 125.199 490.891 98.695 L 491.277 90.02 C 492.453 63.512 452.691 61.746 451.516 88.254 Z M 451.539 87.828 C 449.793 114.301 489.508 116.922 491.254 90.445 L 491.762 82.699 C 493.508 56.223 453.797 53.605 452.051 80.082 Z M 452.02 80.633 C 451.012 107.148 490.785 108.66 491.793 82.148 L 492.051 75.324 C 493.059 48.809 453.289 47.297 452.281 73.809 Z M 452.285 73.676 C 451.098 100.18 490.855 101.965 492.047 75.457 L 492.305 69.672 C 493.496 43.164 453.734 41.383 452.547 67.887 Z M 452.523 68.781 C 452.523 95.313 492.324 95.313 492.324 68.781 L 492.324 64.043 C 492.324 37.508 452.523 37.508 452.523 64.043 Z M 452.523 64.043 C 452.523 90.574 492.324 90.574 492.324 64.043 L 492.324 60.34 C 492.324 33.809 452.523 33.809 452.523 60.34 Z M 452.621 62.277 C 455.203 88.684 494.813 84.813 492.23 58.402 L 491.973 55.75 C 489.391 29.34 449.777 33.215 452.359 59.621 Z M 452.324 59.211 C 454.359 85.668 494.043 82.613 492.008 56.16 L 491.875 54.418 C 489.84 27.961 450.156 31.016 452.191 57.469 Z M 452.586 60.172 C 458.223 86.098 497.113 77.645 491.477 51.715 L 491.352 51.141 C 485.715 25.211 446.824 33.664 452.461 59.594 Z M 489.449 45.969 C 476.918 22.582 441.836 41.375 454.363 64.762 L 454.492 64.996 C 467.02 88.387 502.102 69.594 489.574 46.203 Z M 491.723 52.734 C 487.906 26.48 448.52 32.207 452.34 58.465 L 452.473 59.387 C 456.293 85.645 495.68 79.914 491.859 53.656 Z M 491.816 53.383 C 487.629 27.18 448.328 33.461 452.516 59.66 L 452.773 61.285 C 456.961 87.488 496.262 81.207 492.074 55.008 Z M 491.809 53.633 C 485.789 27.793 447.027 36.816 453.043 62.66 L 453.555 64.852 C 459.57 90.695 498.336 81.668 492.316 55.828 Z M 491.809 53.633"/><g clip-path="url(#caQPjwRQclip-2)"><path fill="#f57c3a" stroke="none" d="M 617.332 85.758 C 636.727 103.859 663.883 74.766 644.488 56.66 L 644.359 56.543 C 624.965 38.438 597.809 67.535 617.203 85.641 Z M 610.883 71.09 C 610.883 97.625 650.684 97.625 650.684 71.09 L 650.684 70.973 C 650.684 44.441 610.883 44.441 610.883 70.973 Z M 617.75 86.012 C 637.801 103.391 663.867 73.313 643.816 55.938 L 643.691 55.828 C 623.641 38.449 597.574 68.527 617.625 85.902 Z M 630.656 90.766 C 657.191 90.766 657.191 50.965 630.656 50.965 L 630.523 50.965 C 603.988 50.965 603.988 90.766 630.523 90.766 Z M 643.555 85.902 C 663.609 68.527 637.543 38.449 617.492 55.828 L 617.363 55.938 C 597.313 73.313 623.379 103.391 643.43 86.012 Z M 647.938 80.371 C 660.469 56.984 625.387 38.188 612.856 61.578 L 612.731 61.813 C 600.199 85.199 635.285 103.996 647.813 80.605 Z M 649.379 76.766 C 656.793 51.289 618.574 40.172 611.164 65.648 L 611.031 66.109 C 603.617 91.586 641.836 102.703 649.246 77.227 Z M 649.723 75.207 C 654.441 49.098 615.273 42.02 610.555 68.129 L 610.43 68.824 C 605.711 94.934 644.875 102.012 649.594 75.902 Z M 649.77 74.754 C 652.953 48.414 613.441 43.633 610.258 69.973 L 610.133 71.012 C 606.945 97.355 646.457 102.133 649.645 75.793 Z M 649.785 73.402 C 649.785 46.871 609.988 46.871 609.988 73.402 L 609.988 74.793 C 609.988 101.324 649.785 101.324 649.785 74.793 Z M 649.727 76.324 C 651.773 49.871 612.09 46.805 610.047 73.258 L 609.914 74.992 C 607.867 101.445 647.551 104.516 649.594 78.059 Z M 649.621 77.66 C 651.133 51.168 611.395 48.902 609.887 75.395 L 609.758 77.594 C 608.25 104.086 647.984 106.352 649.496 79.859 Z M 649.504 79.668 C 650.758 53.164 611.004 51.285 609.75 77.789 L 609.625 80.441 C 608.371 106.945 648.125 108.828 649.379 82.324 Z M 649.332 83.031 C 651.531 56.59 611.867 53.293 609.672 79.734 L 609.41 82.859 C 607.215 109.301 646.875 112.598 649.074 86.152 Z M 649.129 85.227 C 650.09 58.711 610.316 57.27 609.356 83.785 L 609.223 87.488 C 608.262 114.004 648.035 115.441 648.996 88.926 Z M 648.922 90.039 C 651.367 63.621 611.738 59.953 609.293 86.371 L 608.906 90.535 C 606.461 116.953 646.094 120.621 648.539 94.203 Z M 648.594 93.473 C 650.066 66.98 610.328 64.77 608.856 91.262 L 608.602 95.777 C 607.129 122.27 646.867 124.48 648.34 97.988 Z M 648.316 98.383 C 650.316 71.926 610.629 68.922 608.629 95.379 L 608.242 100.473 C 606.242 126.93 645.93 129.93 647.93 103.473 Z M 647.934 103.41 C 649.852 76.945 610.156 74.07 608.238 100.535 L 607.856 105.852 C 605.938 132.316 645.633 135.191 647.551 108.727 Z M 647.555 108.668 C 649.391 82.199 609.688 79.441 607.848 105.914 L 607.465 111.465 C 605.629 137.934 645.332 140.688 647.168 114.219 Z M 647.195 113.734 C 648.387 87.227 608.629 85.441 607.438 111.949 L 607.176 117.727 C 605.984 144.23 645.746 146.02 646.938 119.512 Z M 646.938 119.527 C 648.148 93.023 608.391 91.203 607.176 117.707 L 606.918 123.379 C 605.703 149.883 645.461 151.703 646.676 125.199 Z M 646.676 125.199 C 647.891 98.691 608.133 96.871 606.918 123.379 L 606.66 129.047 C 605.445 155.551 645.203 157.371 646.418 130.867 Z M 646.434 130.418 C 647.047 103.891 607.258 102.969 606.645 129.496 L 606.516 134.93 C 605.902 161.457 645.695 162.375 646.309 135.852 Z M 646.313 135.391 C 646.313 108.859 606.512 108.859 606.512 135.391 L 606.512 140.363 C 606.512 166.898 646.313 166.898 646.313 140.363 Z M 646.313 140.363 C 646.313 113.832 606.512 113.832 606.512 140.363 L 606.512 144.871 C 606.512 171.402 646.313 171.402 646.313 144.871 Z M 646.301 144.215 C 645.43 117.695 605.652 119.004 606.523 145.523 L 606.648 149.344 C 607.52 175.859 647.301 174.551 646.426 148.035 Z M 646.359 146.906 C 643.984 120.48 604.344 124.043 606.719 150.469 L 606.977 153.359 C 609.352 179.785 648.992 176.223 646.617 149.797 Z M 646.656 150.301 C 644.953 123.82 605.238 126.375 606.938 152.852 L 607.07 154.938 C 608.773 181.418 648.492 178.863 646.789 152.387 Z M 646.656 150.301"/></g><path fill="#f57c3a" stroke="none" d="M 475.273 112.313 C 448.777 122.668 464.309 162.41 490.805 152.055 L 491.105 151.938 C 517.602 141.582 502.066 101.84 475.57 112.195 Z M 470.305 115.172 C 447.781 132.547 473.844 166.336 496.367 148.961 L 496.813 148.617 C 519.336 131.242 493.277 97.453 470.75 114.828 Z M 472.164 113.828 C 448.305 129.316 471.535 165.109 495.398 149.621 L 496.285 149.043 C 520.148 133.555 496.914 97.762 473.051 113.25 Z M 470.563 115.141 C 449.219 133.953 477.438 165.965 498.777 147.152 L 499.82 146.234 C 521.16 127.422 492.945 95.414 471.602 114.223 Z M 472.547 113.438 C 450.16 130.988 476.484 164.57 498.875 147.02 L 500.207 145.977 C 522.594 128.426 496.27 94.844 473.879 112.395 Z M 474.637 111.828 C 451.492 128.371 476.309 163.086 499.453 146.543 L 501.227 145.273 C 524.371 128.727 499.551 94.016 476.41 110.559 Z M 477.016 110.141 C 453.316 125.883 476.926 161.426 500.621 145.688 L 502.699 144.309 C 526.395 128.57 502.785 93.023 479.09 108.766 Z M 478.93 108.871 C 455.375 124.824 479.305 160.156 502.859 144.203 L 505.078 142.699 C 528.633 126.746 504.703 91.414 481.148 107.367 Z M 482.824 106.344 C 457.902 120.059 478.48 157.441 503.402 143.727 L 505.922 142.34 C 530.844 128.621 510.266 91.238 485.344 104.957 Z M 486.258 104.48 C 460.703 116.977 479.449 155.313 505.004 142.816 L 507.824 141.438 C 533.379 128.938 514.633 90.605 489.078 103.102 Z M 490.668 102.402 C 464.18 112.781 479.746 152.512 506.234 142.137 L 509.195 140.973 C 535.684 130.594 520.117 90.863 493.629 101.242 Z M 496.082 100.449 C 468.535 107.555 479.199 148.875 506.742 141.77 L 509.852 140.965 C 537.395 133.859 526.734 92.539 499.191 99.648 Z M 500.809 99.297 C 472.793 104.246 480.219 146.266 508.23 141.316 L 511.492 140.742 C 539.508 135.793 532.086 93.77 504.07 98.719 Z M 507.051 98.406 C 478.617 99.383 480.082 142.031 508.516 141.055 L 511.922 140.938 C 540.352 139.961 538.887 97.316 510.457 98.289 Z M 513.234 98.375 C 484.918 95.645 480.824 138.121 509.141 140.852 L 512.691 141.195 C 541.008 143.926 545.106 101.449 516.789 98.719 Z M 519.664 99.195 C 491.984 92.633 482.137 134.152 509.816 140.715 L 513.234 141.527 C 540.914 148.09 550.758 106.57 523.078 100.008 Z M 525.914 100.891 C 499.414 90.547 483.898 130.297 510.398 140.641 L 513.949 142.027 C 540.449 152.371 555.965 112.621 529.465 102.277 Z M 531.547 103.223 C 506.305 90.102 486.625 127.965 511.867 141.086 L 515.418 142.93 C 540.66 156.051 560.34 118.188 535.098 105.066 Z M 537.598 106.594 C 514.391 90.141 489.711 124.949 512.918 141.402 L 516.336 143.824 C 539.543 160.277 564.223 125.469 541.016 109.016 Z M 542.453 110.129 C 520.734 91.758 493.176 124.34 514.898 142.711 L 518.305 145.594 C 540.023 163.965 567.582 131.383 545.859 113.012 Z M 547.039 114.086 C 526.754 94.145 496.836 124.574 517.125 144.516 L 520.531 147.867 C 540.816 167.809 570.731 137.379 550.445 117.438 Z M 550.934 117.93 C 531.309 97.336 500.418 126.777 520.043 147.371 L 523.449 150.945 C 543.074 171.539 573.965 142.098 554.34 121.504 Z M 554.781 121.984 C 535.793 100.801 504.02 129.285 523.008 150.469 L 526.414 154.266 C 545.402 175.449 577.176 146.965 558.188 125.785 Z M 558.121 125.711 C 539.039 104.617 507.395 133.246 526.481 154.34 L 530.031 158.266 C 549.117 179.359 580.762 150.73 561.676 129.637 Z M 561.367 129.305 C 541.84 108.617 510.809 137.91 530.34 158.598 L 534.043 162.523 C 553.574 183.207 584.602 153.914 565.074 133.23 Z M 564.547 132.691 C 544.297 112.707 514.324 143.078 534.57 163.063 L 538.422 166.863 C 558.672 186.844 588.645 156.473 568.395 136.488 Z M 567.871 135.988 C 546.953 116.707 518.031 148.082 538.949 167.363 L 542.953 171.055 C 563.871 190.336 592.793 158.961 571.875 139.68 Z M 570.535 138.543 C 548.102 121.047 521.859 154.699 544.293 172.191 L 548.59 175.539 C 571.02 193.035 597.262 159.387 574.828 141.891 Z M 573.648 141.035 C 550.074 125.113 526.191 160.477 549.766 176.398 L 554.207 179.395 C 577.781 195.316 601.664 159.957 578.09 144.035 Z M 576.801 143.23 C 552.156 129.023 530.848 165.996 555.492 180.199 L 560.086 182.848 C 584.734 197.051 606.043 160.082 581.395 145.875 Z M 579.481 144.898 C 553.527 133.246 536.051 172.176 562.004 183.828 L 566.895 186.023 C 592.848 197.672 610.324 158.746 584.371 147.094 Z M 582.309 146.293 C 555.289 137.391 541.938 177.922 568.957 186.824 L 573.852 188.434 C 600.871 197.336 614.223 156.809 587.203 147.906 Z M 585.43 147.406 C 557.742 140.871 547.938 182.402 575.625 188.938 L 580.508 190.09 C 608.195 196.621 618 155.094 590.313 148.559 Z M 587.836 148.125 C 559.57 144.891 554.723 187.289 582.984 190.52 L 588.023 191.098 C 616.285 194.328 621.137 151.934 592.871 148.703 Z M 590.449 148.563 C 562 148.563 562 191.234 590.449 191.234 L 595.188 191.234 C 623.633 191.234 623.633 148.563 595.188 148.563 Z M 592.531 148.73 C 564.305 152.27 569.613 194.609 597.84 191.07 L 602.434 190.492 C 630.66 186.953 625.352 144.613 597.125 148.152 Z M 594.25 148.715 C 566.773 156.09 577.836 197.305 605.309 189.93 L 609.606 188.777 C 637.078 181.402 626.02 140.191 598.543 147.563 Z M 595.852 148.48 C 569.602 159.441 586.043 198.82 612.297 187.859 L 616.156 186.246 C 642.406 175.285 625.965 135.91 599.715 146.871 Z M 596.816 148.348 C 572.535 163.168 594.77 199.59 619.051 184.77 L 622.457 182.691 C 646.738 167.867 624.504 131.445 600.223 146.27 Z M 597.406 148.32 C 575.863 166.902 603.734 199.215 625.273 180.637 L 628.082 178.215 C 649.625 159.633 621.758 127.32 600.215 145.898 Z M 597.961 148.156 C 579.43 169.738 611.801 197.539 630.336 175.957 L 632.711 173.191 C 651.242 151.609 618.871 123.809 600.336 145.391 Z M 598.344 148.121 C 583.449 172.359 619.809 194.699 634.699 170.461 L 636.477 167.574 C 651.371 143.336 615.016 120.996 600.121 145.234 Z M 599.336 146.621 C 586.297 171.906 624.219 191.465 637.262 166.184 L 638.746 163.301 C 651.789 138.02 613.863 118.457 600.824 143.742 Z M 599.336 146.621"/><path fill="#f57c3a" stroke="none" d="M 500.238 55.266 C 500.238 26.133 456.539 26.133 456.539 55.266 L 456.539 55.391 C 456.539 84.523 500.238 84.523 500.238 55.391 Z M 459.742 44.004 C 444.559 68.867 481.852 91.641 497.035 66.777 L 497.18 66.543 C 512.363 41.68 475.07 18.902 459.887 43.766 Z M 461.566 41.387 C 443.211 64.012 477.145 91.543 495.5 68.918 L 495.801 68.551 C 514.156 45.93 480.219 18.395 461.867 41.02 Z M 459.5 44.602 C 445.926 70.379 484.586 90.742 498.164 64.969 L 498.609 64.125 C 512.184 38.352 473.52 17.984 459.945 43.762 Z M 460.023 43.613 C 446.25 69.285 484.758 89.945 498.531 64.273 L 499.117 63.176 C 512.891 37.504 474.383 16.848 460.609 42.52 Z M 461.234 41.43 C 446.012 66.27 483.27 89.102 498.492 64.266 L 499.379 62.816 C 514.605 37.98 477.348 15.145 462.121 39.984 Z M 462.434 39.492 C 446.555 63.918 483.191 87.734 499.07 63.309 L 500.254 61.484 C 516.133 37.059 479.496 13.242 463.617 37.668 Z M 464.59 36.289 C 446.875 59.418 481.566 85.992 499.281 62.863 L 500.766 60.926 C 518.48 37.797 483.789 11.223 466.074 34.352 Z M 466.125 34.285 C 448.324 57.348 482.914 84.051 500.715 60.992 L 502.488 58.691 C 520.293 35.633 485.703 8.93 467.898 31.988 Z M 469.082 30.582 C 449.406 52.063 481.629 81.582 501.305 60.102 L 503.523 57.68 C 523.203 36.199 490.977 6.68 471.301 28.164 Z M 471.879 27.555 C 451.391 48.266 482.453 78.996 502.945 58.289 L 505.461 55.746 C 525.949 35.035 494.883 4.301 474.395 25.012 Z M 474.461 24.945 C 453.883 45.563 484.813 76.434 505.395 55.813 L 508.055 53.148 C 528.633 32.527 497.703 1.656 477.121 22.277 Z M 478.766 20.789 C 456.203 39.219 483.848 73.063 506.41 54.633 L 509.523 52.09 C 532.086 33.664 504.441 -0.184 481.879 18.246 Z M 482.234 17.965 C 459.293 35.922 486.23 70.332 509.168 52.375 L 512.418 49.832 C 535.359 31.875 508.422 -2.535 485.48 15.422 Z M 485.895 15.105 C 462.535 32.516 488.648 67.555 512.004 50.145 L 515.418 47.602 C 538.777 30.195 512.664 -4.844 489.305 12.563 Z M 490.91 11.477 C 466.098 26.746 489.004 63.961 513.816 48.691 L 517.363 46.508 C 542.172 31.234 519.266 -5.977 494.457 9.293 Z M 495.773 8.543 C 469.965 22.055 490.234 60.77 516.043 47.258 L 519.746 45.32 C 545.555 31.805 525.285 -6.906 499.477 6.605 Z M 500.523 6.09 C 474.031 18.203 492.203 57.945 518.695 45.832 L 522.398 44.141 C 548.891 32.027 530.723 -7.715 504.227 4.398 Z M 506.258 3.59 C 478.684 12.996 492.793 54.355 520.367 44.949 L 523.914 43.738 C 551.484 34.332 537.375 -7.027 509.805 2.379 Z M 511.965 1.766 C 483.574 8.289 493.359 50.879 521.754 44.355 L 525.453 43.504 C 553.848 36.98 544.059 -5.609 515.668 0.914 Z M 518.266 0.48 C 489.293 3.543 493.887 47 522.855 43.938 L 526.258 43.578 C 555.231 40.516 550.641 -2.941 521.668 0.121 Z M 523.965 0 C 494.832 0 494.832 43.699 523.965 43.699 L 527.512 43.699 C 556.645 43.699 556.645 0 527.512 0 Z M 530.711 0.234 C 501.891 -4.031 495.492 39.199 524.313 43.465 L 527.57 43.945 C 556.387 48.211 562.785 4.984 533.969 0.719 Z M 536.973 1.383 C 509.035 -6.891 496.633 35.012 524.566 43.281 L 527.824 44.246 C 555.758 52.516 568.164 10.617 540.231 2.348 Z M 542.348 3.094 C 515.41 -8 498.77 32.402 525.707 43.5 L 528.664 44.719 C 555.602 55.813 572.242 15.406 545.309 4.313 Z M 548.016 5.652 C 522.867 -9.051 500.809 28.668 525.957 43.375 L 529.059 45.191 C 554.207 59.898 576.266 22.176 551.121 7.469 Z M 552.574 8.398 C 528.668 -8.25 503.695 27.613 527.602 44.262 L 530.563 46.32 C 554.469 62.969 579.441 27.109 555.535 10.461 Z M 557.645 12.133 C 535.969 -7.328 506.773 25.188 528.453 44.648 L 531.41 47.305 C 553.086 66.77 582.281 34.254 560.606 14.789 Z M 561.258 15.398 C 540.391 -4.934 509.895 26.363 530.758 46.695 L 533.871 49.73 C 554.738 70.063 585.234 38.766 564.371 18.434 Z M 564.625 18.684 C 544.094 -1.984 513.09 28.809 533.617 49.48 L 536.867 52.75 C 557.395 73.422 588.402 42.625 567.871 21.957 Z M 568.051 22.141 C 547.766 1.23 516.402 31.656 536.688 52.566 L 540.09 56.074 C 560.375 76.984 591.738 46.559 571.453 25.648 Z M 571.07 25.262 C 550.273 4.863 519.676 36.059 540.473 56.461 L 544.176 60.09 C 564.973 80.488 595.57 49.289 574.773 28.891 Z M 574.523 28.648 C 553.402 8.586 523.305 40.266 544.426 60.332 L 548.125 63.848 C 569.246 83.914 599.344 52.23 578.223 32.164 Z M 577.859 31.828 C 556.285 12.25 526.918 44.609 548.492 64.188 L 552.492 67.816 C 574.066 87.395 603.434 55.035 581.859 35.457 Z M 580.731 34.5 C 557.883 16.426 530.773 50.695 553.617 68.773 L 557.91 72.168 C 580.754 90.242 607.867 55.969 585.02 37.895 Z M 584.113 37.215 C 560.359 20.352 535.063 55.98 558.816 72.848 L 563.25 75.996 C 587.004 92.859 612.301 57.227 588.547 40.363 Z M 587.578 39.715 C 562.961 24.141 539.598 61.07 564.219 76.645 L 568.805 79.547 C 593.426 95.121 616.789 58.191 592.168 42.617 Z M 590.828 41.832 C 565.164 28.047 544.484 66.539 570.145 80.328 L 574.879 82.871 C 600.543 96.66 621.223 58.164 595.563 44.375 Z M 594.609 43.895 C 568.305 31.375 549.523 70.836 575.832 83.352 L 580.418 85.535 C 606.727 98.055 625.504 58.598 599.195 46.078 Z M 597.152 45.23 C 569.715 35.438 555.027 76.594 582.465 86.387 L 587.207 88.078 C 614.645 97.871 629.332 56.711 601.895 46.922 Z M 600.305 46.422 C 572.199 38.75 560.691 80.91 588.797 88.578 L 593.231 89.789 C 621.336 97.457 632.844 55.301 604.738 47.633 Z M 603.234 47.277 C 574.66 41.609 566.16 84.477 594.734 90.141 L 599.023 90.992 C 627.602 96.66 636.102 53.797 607.523 48.129 Z M 605.992 47.883 C 577.086 44.258 571.648 87.617 600.555 91.242 L 604.402 91.723 C 633.309 95.348 638.746 51.988 609.84 48.363 Z M 607.121 48.195 C 577.988 48.195 577.988 91.891 607.121 91.891 L 610.82 91.891 C 639.953 91.891 639.953 48.195 610.82 48.195 Z M 607.621 48.43 C 578.805 52.695 585.203 95.922 614.02 91.656 L 617.277 91.176 C 646.098 86.91 639.699 43.68 610.879 47.945 Z M 606.996 48.891 C 579.438 58.336 593.606 99.676 621.164 90.23 L 623.977 89.266 C 651.535 79.82 637.371 38.48 609.813 47.926 Z M 607.106 49.063 C 581.059 62.109 600.633 101.18 626.68 88.133 L 629.34 86.797 C 655.387 73.75 635.813 34.68 609.766 47.727 Z M 606.254 49.93 C 583.141 67.664 609.742 102.332 632.856 84.598 L 635.074 82.895 C 658.184 65.16 631.582 30.492 608.469 48.227 Z M 605.652 50.809 C 585.984 72.301 618.223 101.805 637.891 80.313 L 639.664 78.375 C 659.332 56.887 627.094 27.383 607.426 48.871 Z M 605.723 50.984 C 588.871 74.75 624.52 100.027 641.367 76.262 L 642.996 73.965 C 659.848 50.199 624.203 24.926 607.352 48.688 Z M 605.758 51.305 C 592.398 77.195 631.231 97.234 644.59 71.348 L 645.777 69.051 C 659.137 43.16 620.305 23.121 606.941 49.008 Z M 605.758 51.305"/></g></g></g></svg>
</svg>