<?xml version="1.0" standalone="no"?>
<svg height="86.268" preserveAspectRatio="none" viewBox="0.000 0.000 92.845 86.268" width="92.845" x="0.000" xmlns="http://www.w3.org/2000/svg" xmlns:svg="http://www.w3.org/2000/svg" xmlns:xlink="http://www.w3.org/1999/xlink" y="0.000">
<svg width="92.845" height="86.268" xmlns="http://www.w3.org/2000/svg"><defs><clipPath id="XysAyboEclipPath1"><path fill="#000000" stroke="none" d="M 0 0 L 92.845 0 L 92.845 86.268 L 0 86.268 Z"/></clipPath></defs><g transform="matrix(0.9999997 0 0 0.9999992 700.4597 5345.527)"><g transform="matrix(1 0 0 1 -700.46027 -5345.5313)"><g clip-path="url(#XysAyboEclipPath1)"><path fill="#f26419" stroke="none" d="M 7.902 78.859 C 7.965 78.805 7.879 78.707 7.816 78.766 L 7.711 78.711 C 7.535 78.863 7.766 79.125 7.938 78.973 Z M 7.898 79 C 8.109 78.902 7.961 78.586 7.75 78.684 L 7.617 78.563 C 7.207 78.754 7.492 79.371 7.902 79.18 Z M 7.855 79.195 C 8.289 79.066 8.098 78.418 7.664 78.547 L 7.504 78.371 C 6.797 78.582 7.113 79.641 7.816 79.43 Z M 7.66 79.453 C 8.395 79.453 8.395 78.348 7.66 78.348 L 7.563 78.09 C 6.48 78.09 6.48 79.715 7.563 79.715 Z M 7.324 79.68 C 8.363 79.992 8.836 78.441 7.797 78.125 L 7.793 77.793 C 6.355 77.355 5.699 79.512 7.137 79.949 Z M 6.695 79.695 C 7.793 80.719 9.332 79.074 8.234 78.047 L 8.426 77.711 C 6.961 76.344 4.91 78.543 6.375 79.91 Z M 6 79.359 C 6.73 81.227 9.531 80.133 8.801 78.266 L 9.152 78.027 C 8.223 75.645 4.648 77.039 5.578 79.422 Z M 5.449 78.723 C 5.449 81.281 9.285 81.281 9.285 78.723 L 9.719 78.547 C 9.719 75.41 5.012 75.41 5.012 78.547 Z M 5.039 78.207 C 4.586 81.313 9.242 81.992 9.695 78.887 L 10.172 78.715 C 10.711 75.02 5.164 74.211 4.629 77.91 Z M 4.652 77.77 C 3.93 81.438 9.426 82.52 10.148 78.855 L 10.656 78.621 C 11.496 74.363 5.113 73.102 4.273 77.359 Z M 4.414 76.855 C 2.902 80.922 9 83.191 10.516 79.125 L 11.074 78.832 C 12.785 74.234 5.891 71.668 4.18 76.266 Z M 4.203 76.211 C 2.422 80.781 9.273 83.453 11.055 78.883 L 11.633 78.43 C 13.594 73.398 6.047 70.457 4.086 75.488 Z M 4.227 75.164 C 1.832 80.004 9.094 83.594 11.488 78.754 L 12.191 78.113 C 14.789 72.859 6.91 68.961 4.309 74.215 Z M 4.434 73.98 C 1.523 79.07 9.152 83.438 12.066 78.348 L 12.914 77.543 C 16.051 72.066 7.832 67.367 4.699 72.844 Z M 4.84 72.613 C 1.398 77.906 9.336 83.063 12.773 77.773 L 13.844 76.754 C 17.531 71.082 9.023 65.551 5.336 71.223 Z M 5.426 71.09 C 1.563 76.641 9.887 82.438 13.754 76.887 L 15.086 75.582 C 19.215 69.652 10.32 63.457 6.188 69.387 Z M 6.324 69.203 C 1.945 74.957 10.574 81.52 14.949 75.77 L 16.578 74.223 C 21.246 68.086 12.047 61.086 7.379 67.223 Z M 7.488 67.082 C 2.637 73.074 11.621 80.352 16.473 74.359 L 18.418 72.523 C 23.563 66.164 14.027 58.441 8.879 64.801 Z M 9.012 64.641 C 3.652 70.824 12.926 78.863 18.285 72.68 L 20.629 70.484 C 26.277 63.965 16.5 55.492 10.852 62.012 Z M 10.957 61.891 C 5.148 68.27 14.715 76.98 20.523 70.602 L 23.262 68.035 C 29.336 61.367 19.332 52.254 13.254 58.926 Z M 13.383 58.789 C 7.129 65.289 16.879 74.672 23.133 68.172 L 26.266 65.293 C 32.762 58.543 22.637 48.797 16.141 55.551 Z M 16.242 55.445 C 9.605 62.059 19.527 72.012 26.164 65.398 L 29.648 62.223 C 36.484 55.41 26.266 45.156 19.43 51.969 Z M 19.563 51.84 C 12.555 58.48 22.512 68.988 29.52 62.348 L 33.27 58.973 C 40.398 52.215 30.266 41.523 23.137 48.277 Z M 23.188 48.23 C 15.992 54.918 26.027 65.707 33.219 59.02 L 37.113 55.398 C 44.305 48.711 34.273 37.922 27.078 44.609 Z M 27.191 44.508 C 19.863 51.051 29.676 62.039 37 55.5 L 41.09 51.852 C 48.418 45.309 38.605 34.32 31.277 40.859 Z M 31.301 40.84 C 23.949 47.348 33.711 58.379 41.066 51.871 L 45.223 48.191 C 52.578 41.684 42.813 30.652 35.457 37.16 Z M 35.52 37.105 C 28.09 43.527 37.727 54.672 45.156 48.25 L 49.375 44.602 C 56.805 38.176 47.168 27.031 39.738 33.457 Z M 39.742 33.453 C 32.309 39.875 41.941 51.023 49.375 44.602 L 53.496 41.043 C 60.926 34.621 51.297 23.473 43.863 29.895 Z M 43.891 29.871 C 36.426 36.254 46.004 47.449 53.469 41.066 L 57.457 37.652 C 64.922 31.27 55.348 20.074 47.883 26.457 Z M 47.914 26.43 C 40.414 32.766 49.922 44.02 57.422 37.684 L 61.188 34.504 C 68.688 28.164 59.18 16.91 51.68 23.25 Z M 51.664 23.262 C 44.18 29.617 53.711 40.848 61.199 34.492 L 64.668 31.551 C 72.156 25.195 62.621 13.961 55.133 20.316 Z M 55.148 20.305 C 47.645 26.641 57.145 37.898 64.652 31.563 L 67.758 28.805 C 75.156 22.559 65.785 11.457 58.387 17.703 Z M 58.344 17.742 C 50.992 24.047 60.449 35.074 67.801 28.77 L 70.461 26.176 C 77.57 20.078 68.422 9.41 61.309 15.508 Z M 61.359 15.469 C 54.191 21.5 63.242 32.254 70.41 26.219 L 72.711 23.84 C 79.531 18.098 70.918 7.863 64.098 13.605 Z M 64.008 13.68 C 57.285 19.543 66.074 29.625 72.797 23.766 L 74.637 21.578 C 80.914 16.105 72.703 6.684 66.426 12.16 Z M 66.395 12.184 C 60.148 17.699 68.418 27.066 74.664 21.555 L 76.102 19.559 C 81.805 14.527 74.254 5.973 68.555 11.008 Z M 68.516 11.039 C 62.859 16.121 70.484 24.605 76.141 19.523 L 77.066 17.723 C 82.008 13.281 75.348 5.871 70.406 10.313 Z M 70.293 10.418 C 65.492 15.008 72.379 22.207 77.18 17.617 L 77.629 15.926 C 81.551 12.176 75.922 6.289 72 10.043 Z M 71.906 10.137 C 68.105 14.012 73.922 19.711 77.723 15.836 L 77.699 14.371 C 80.523 11.484 76.199 7.246 73.371 10.129 Z M 73.285 10.223 C 70.582 13.223 75.082 17.277 77.785 14.277 L 77.43 13.105 C 79.195 11.141 76.254 8.492 74.488 10.453 Z M 74.41 10.547 C 72.766 12.617 75.867 15.078 77.508 13.012 L 76.996 12.266 C 77.918 11.102 76.172 9.719 75.25 10.879 Z M 76.371 12.656 C 77.82 12.324 77.32 10.156 75.875 10.488 L 75.879 11.109 C 75.223 11.262 75.449 12.246 76.105 12.094 Z M 76.262 12.031 C 76.832 11.672 76.293 10.816 75.723 11.176 L 75.574 11.668 C 75.387 11.785 75.566 12.07 75.754 11.949 Z M 75.758 11.949 C 75.941 11.82 75.754 11.547 75.57 11.672 L 75.125 12.137 C 75.094 12.16 75.125 12.207 75.16 12.188 Z M 75.16 12.188 C 75.191 12.164 75.156 12.117 75.125 12.141 L 74.453 12.66 Z M 75.16 12.188"/><path fill="#f26419" stroke="none" d="M 10.266 8.477 C 10.293 8.578 10.445 8.535 10.418 8.434 L 10.465 8.297 C 10.41 8.094 10.105 8.176 10.16 8.375 Z M 10.168 8.398 C 10.254 8.59 10.539 8.461 10.453 8.27 L 10.488 8.078 C 10.344 7.754 9.855 7.973 10 8.297 Z M 9.992 8.281 C 10.113 8.613 10.617 8.434 10.496 8.098 L 10.566 7.871 C 10.383 7.355 9.609 7.637 9.793 8.152 Z M 9.777 8.09 C 9.883 8.629 10.691 8.473 10.586 7.934 L 10.723 7.727 C 10.574 6.957 9.422 7.18 9.57 7.949 Z M 9.574 7.961 C 9.738 8.727 10.887 8.48 10.723 7.715 L 10.887 7.523 C 10.664 6.496 9.125 6.824 9.344 7.852 Z M 9.328 7.688 C 9.328 8.738 10.902 8.738 10.902 7.688 L 11.125 7.57 C 11.125 6.223 9.105 6.223 9.105 7.57 Z M 9.141 7.305 C 8.785 8.605 10.734 9.137 11.09 7.836 L 11.359 7.785 C 11.801 6.168 9.375 5.504 8.934 7.121 Z M 9.492 6.379 C 8.059 7.25 9.367 9.402 10.801 8.527 L 11.051 8.719 C 12.816 7.645 11.203 4.996 9.438 6.07 Z M 10.059 5.855 C 8.008 6.102 8.379 9.18 10.43 8.934 L 10.699 9.238 C 13.195 8.938 12.746 5.195 10.25 5.496 Z M 10.965 5.547 C 8.535 4.895 7.559 8.535 9.988 9.188 L 10.215 9.637 C 13.129 10.418 14.301 6.051 11.387 5.27 Z M 11.629 5.348 C 8.824 4.242 7.164 8.453 9.973 9.559 L 10.344 10.145 C 13.66 11.453 15.617 6.48 12.305 5.176 Z M 12.621 5.324 C 9.512 3.598 6.914 8.266 10.027 9.996 L 10.508 10.746 C 14.113 12.75 17.121 7.344 13.516 5.336 Z M 13.699 5.449 C 10.246 3.195 6.867 8.383 10.32 10.633 L 11.043 11.598 C 14.961 14.152 18.793 8.273 14.875 5.723 Z M 14.992 5.801 C 11.18 3.094 7.117 8.809 10.93 11.52 L 11.969 12.691 C 16.164 15.672 20.637 9.379 16.441 6.398 Z M 16.59 6.512 C 12.547 3.328 7.773 9.395 11.816 12.578 L 13.207 14.043 C 17.559 17.469 22.695 10.941 18.344 7.516 Z M 18.418 7.578 C 14.148 4.051 8.859 10.457 13.129 13.98 L 14.969 15.816 C 19.488 19.547 25.086 12.77 20.566 9.039 Z M 20.645 9.102 C 16.211 5.27 10.461 11.918 14.895 15.754 L 17.285 18.074 C 21.914 22.074 27.914 15.137 23.289 11.133 Z M 23.336 11.176 C 18.766 7.109 12.668 13.965 17.238 18.031 L 20.203 20.891 C 24.938 25.102 31.254 18.004 26.52 13.789 Z M 26.555 13.82 C 21.863 9.563 15.477 16.602 20.168 20.859 L 23.742 24.285 C 28.566 28.66 35.133 21.426 30.309 17.051 Z M 30.336 17.074 C 25.547 12.66 18.926 19.848 23.719 24.258 L 27.801 28.16 C 32.691 32.668 39.453 25.328 34.559 20.82 Z M 34.582 20.84 C 29.715 16.305 22.91 23.605 27.777 28.141 L 32.238 32.41 C 37.184 37.02 44.098 29.598 39.152 24.988 Z M 39.16 25 C 34.227 20.375 27.293 27.777 32.227 32.398 L 36.918 36.898 C 41.926 41.59 48.965 34.082 43.957 29.387 Z M 43.98 29.41 C 39 24.688 31.918 32.156 36.895 36.879 L 41.605 41.473 C 46.676 46.281 53.887 38.68 48.816 33.875 Z M 48.832 33.887 C 43.781 29.063 36.543 36.637 41.594 41.461 L 46.242 46.027 C 51.379 50.934 58.738 43.23 53.605 38.324 Z M 53.598 38.32 C 48.453 33.422 41.105 41.137 46.25 46.035 L 50.738 50.422 C 55.961 55.395 63.422 47.559 58.199 42.586 Z M 58.219 42.605 C 53.02 37.605 45.52 45.406 50.719 50.402 L 54.918 54.547 C 60.191 59.617 67.797 51.707 62.523 46.637 Z M 62.52 46.633 C 57.242 41.57 49.645 49.484 54.922 54.551 L 58.793 58.375 C 64.145 63.512 71.852 55.484 66.5 50.344 Z M 66.512 50.355 C 61.172 45.203 53.445 53.211 58.781 58.363 L 62.301 61.855 C 67.703 67.07 75.523 58.965 70.125 53.75 Z M 70.121 53.75 C 64.715 48.539 56.898 56.648 62.305 61.855 L 65.516 65.004 C 70.957 70.254 78.828 62.086 73.387 56.84 Z M 73.375 56.832 C 67.922 51.594 60.066 59.777 65.523 65.016 L 68.434 67.813 C 73.891 73.055 81.754 64.863 76.293 59.621 Z M 76.309 59.637 C 70.867 54.379 62.977 62.539 68.418 67.797 L 71.07 70.293 C 76.461 75.504 84.281 67.414 78.887 62.203 Z M 78.852 62.168 C 73.418 57.004 65.668 65.16 71.105 70.324 L 73.547 72.469 C 78.859 77.512 86.43 69.547 81.117 64.5 Z M 81.133 64.516 C 75.836 59.449 68.242 67.391 73.535 72.453 L 75.754 74.258 C 80.828 79.109 88.102 71.504 83.031 66.652 Z M 82.98 66.605 C 77.844 61.82 70.672 69.523 75.805 74.305 L 77.875 75.695 C 82.625 80.121 89.266 72.992 84.512 68.57 Z M 84.414 68.477 C 79.543 64.188 73.102 71.492 77.977 75.785 L 79.887 76.648 C 84.141 80.402 89.77 74.016 85.512 70.266 Z M 85.363 70.141 C 80.938 66.586 75.609 73.223 80.035 76.773 L 81.816 77.035 C 85.293 79.828 89.477 74.613 86 71.82 Z M 85.672 71.59 C 81.887 69.234 78.355 74.914 82.145 77.27 L 83.547 76.91 C 86.148 78.527 88.574 74.625 85.973 73.004 Z M 85.379 72.746 C 82.43 71.918 81.188 76.344 84.137 77.168 L 84.91 76.43 C 86.676 76.926 87.422 74.273 85.656 73.781 Z M 84.105 74.391 C 83.156 75.961 85.512 77.387 86.461 75.816 L 86.063 75.133 C 86.531 74.355 85.367 73.652 84.895 74.43 Z M 84.809 74.906 C 84.977 75.797 86.316 75.547 86.148 74.656 L 85.594 74.027 C 85.531 73.703 85.039 73.793 85.102 74.121 Z M 85.113 74.168 C 85.238 74.477 85.703 74.293 85.578 73.984 L 84.934 72.906 C 84.91 72.848 84.816 72.883 84.844 72.945 Z M 84.844 72.949 C 84.875 73.008 84.965 72.965 84.934 72.902 L 84.137 71.426 C 84.137 71.426 84.133 71.426 84.137 71.426 Z M 84.844 72.949"/></g></g></g></svg>
</svg>