<!DOCTYPE svg PUBLIC "-//W3C//DTD SVG 1.1//EN" "http://www.w3.org/Graphics/SVG/1.1/DTD/svg11.dtd">
<!-- Uploaded to: SVG Repo, www.svgrepo.com, Transformed by: SVG Repo Mixer Tools -->
<svg width="800px" height="800px" viewBox="-2.4 -2.4 28.80 28.80" fill="none" xmlns="http://www.w3.org/2000/svg" stroke="#0066cc">
<g id="SVGRepo_bgCarrier" stroke-width="0">
<path transform="translate(-2.4, -2.4), scale(0.8999999999999999)" d="M16,27.605535960859722C18.30525975841642,27.010668000916287,20.651039457105924,26.408803147454336,22.352690421653033,24.74372824271363C23.911512013202355,23.218412671463362,23.767675401198563,20.754646460077932,24.90387541400835,18.893044494815236C26.596901170818704,16.11911381308222,30.67224745093073,14.51089587689964,30.58080534953699,11.262409154997307C30.491957464968323,8.106082158008658,27.393920423310696,5.557719452713967,24.49337180684353,4.309876601220985C21.81893964670506,3.1593111413334407,18.909303304426135,4.87851480541177,16,4.9896117879284745C13.256493865550741,5.094377507126493,9.960215226748572,3.0548529780385323,7.9651915464082705,4.941034910027392C5.912536851720613,6.881703703027159,7.950713544106149,10.427458971077007,7.3328807991737985,13.18388226205316C6.807620668359364,15.527298454014003,4.75555005320869,17.28472164949372,4.660569808522979,19.68440421326896C4.53457040285854,22.867788061347067,4.103874481574805,26.954409705103103,6.71562699085014,28.778843152704404C9.337037967722107,30.610023499666685,12.903767947745118,28.404512838719935,16,27.605535960859722" fill="#e2e8f0" strokewidth="0"/>
</g>
<g id="SVGRepo_tracerCarrier" stroke-linecap="round" stroke-linejoin="round"/>
<g id="SVGRepo_iconCarrier"> <path d="M9 7H5C3.89543 7 3 7.89543 3 9V18C3 19.1046 3.89543 20 5 20H19C20.1046 20 21 19.1046 21 18V9C21 7.89543 20.1046 7 19 7H15M9 7V5C9 3.89543 9.89543 3 11 3H13C14.1046 3 15 3.89543 15 5V7M9 7H15" stroke="#0066cc" stroke-width="1.7759999999999998" stroke-linecap="round" stroke-linejoin="round"/> </g>
</svg>