<!DOCTYPE svg PUBLIC "-//W3C//DTD SVG 1.1//EN" "http://www.w3.org/Graphics/SVG/1.1/DTD/svg11.dtd">
<!-- Uploaded to: SVG Repo, www.svgrepo.com, Transformed by: SVG Repo Mixer Tools -->
<svg width="800px" height="800px" viewBox="-2.4 -2.4 28.80 28.80" fill="none" xmlns="http://www.w3.org/2000/svg" transform="rotate(0)matrix(1, 0, 0, 1, 0, 0)">
<g id="SVGRepo_bgCarrier" stroke-width="0">
<path transform="translate(-2.4, -2.4), scale(0.8999999999999999)" d="M16,27.107005396236975C18.526539194810635,27.22707300353916,21.12167172718122,28.60104707943642,23.42139832369115,27.547921201612457C25.783808089118978,26.466090491052448,26.98781644753882,23.872909487957898,28.143847727133554,21.545909430652763C29.33201798174247,19.15421614400357,30.919698662249626,16.525910645514955,30.1704575105922,13.9625957939988C29.426315640841977,11.416726680768479,26.34172174050844,10.527478623840873,24.39625816549669,8.724600884692151C22.711601936382237,7.1634155442931,21.61959039878913,4.963416544556109,19.50136255667351,4.0754542220123895C17.265290583288724,3.1380915722614673,14.7417188877084,3.1185029013683283,12.385346213727717,3.6896197270897595C9.955871139626694,4.278454467795671,7.809363971356277,5.6080189532545415,6.011583551095432,7.344987878729924C4.08936484743819,9.202185853850695,2.207393036747126,11.317391914376465,1.7626642766251024,13.952980158659466C1.3139335157245768,16.61228538990445,2.2739045717774617,19.314032568227134,3.5952140704154587,21.665075914810583C4.847429703623858,23.89317859323458,6.677927201974107,25.836666733021037,9.018479688212992,26.86345765468556C11.19497775765588,27.81827856635651,13.625953182559007,26.994184616896217,16,27.107005396236975" fill="#e2e8f0" strokewidth="0"/>
</g>
<g id="SVGRepo_tracerCarrier" stroke-linecap="round" stroke-linejoin="round"/>
<g id="SVGRepo_iconCarrier"> <path d="M4 19V6.2C4 5.0799 4 4.51984 4.21799 4.09202C4.40973 3.71569 4.71569 3.40973 5.09202 3.21799C5.51984 3 6.0799 3 7.2 3H16.8C17.9201 3 18.4802 3 18.908 3.21799C19.2843 3.40973 19.5903 3.71569 19.782 4.09202C20 4.51984 20 5.0799 20 6.2V17H6C4.89543 17 4 17.8954 4 19ZM4 19C4 20.1046 4.89543 21 6 21H20M9 7H15M9 11H15M19 17V21" stroke="#0066cc" stroke-width="1.512" stroke-linecap="round" stroke-linejoin="round"/> </g>
</svg>