<?xml version="1.0" standalone="no"?>
<svg height="67.132" preserveAspectRatio="none" viewBox="0.000 0.000 103.307 67.132" width="103.307" x="0.000" xmlns="http://www.w3.org/2000/svg" xmlns:svg="http://www.w3.org/2000/svg" xmlns:xlink="http://www.w3.org/1999/xlink" y="0.000">
<svg width="103.307" height="67.132" xmlns="http://www.w3.org/2000/svg"><defs><clipPath id="sYGseHcyclipPath1"><path fill="#000000" stroke="none" d="M 0 0 L 103.307 0 L 103.307 67.132 L 0 67.132 Z"/></clipPath></defs><g transform="matrix(0.99999994 0 0 1.0000025 851.62994 5341.1943)"><g transform="matrix(1 0 0 1 -851.63007 -5341.181)"><g clip-path="url(#sYGseHcyclipPath1)"><path fill="#f57c3a" stroke="none" d="M 8.633 7.113 C 8.887 7.121 8.898 6.738 8.645 6.73 L 8.512 6.082 C 7.398 6.047 7.348 7.719 8.461 7.754 Z M 8.461 7.754 C 9.578 7.785 9.625 6.113 8.512 6.082 L 8.211 5.555 C 6.41 5.5 6.328 8.207 8.133 8.262 Z M 9.066 7.922 C 10.422 6.73 8.633 4.699 7.277 5.891 L 6.73 5.586 C 4.785 7.297 7.355 10.219 9.301 8.504 Z M 7.961 8.988 C 10.551 9.063 10.664 5.176 8.074 5.102 L 7.777 4.484 C 4.375 4.383 4.223 9.488 7.629 9.59 Z M 9.254 9.063 C 11.957 6.996 8.855 2.938 6.152 5.008 L 5.629 4.668 C 2.301 7.211 6.117 12.203 9.445 9.656 Z M 9.613 9.52 C 12.758 6.754 8.605 2.035 5.461 4.805 L 4.816 4.703 C 1.172 7.91 5.984 13.383 9.633 10.172 Z M 9.543 10.25 C 13.293 7.156 8.656 1.535 4.906 4.625 L 4.473 4.438 C 0.289 7.887 5.461 14.16 9.645 10.711 Z M 11.121 7.691 C 11.281 2.273 3.152 2.035 2.996 7.453 L 2.625 7.586 C 2.449 13.492 11.313 13.754 11.484 7.844 Z M 7.184 3.285 C 1.277 3.113 1.016 11.973 6.926 12.148 L 7.23 12.488 C 13.578 12.672 13.855 3.148 7.508 2.965 Z M 7.508 2.965 C 1.16 2.777 0.879 12.301 7.23 12.488 L 8 12.813 C 14.75 13.008 15.047 2.883 8.297 2.684 Z M 8.297 2.684 C 1.547 2.488 1.25 12.613 8 12.813 L 9.543 13.125 C 16.648 13.332 16.961 2.672 9.855 2.465 Z M 9.211 2.484 C 2.133 3.133 3.105 13.75 10.184 13.102 L 12.551 13.117 C 19.938 12.441 18.922 1.363 11.539 2.039 Z M 11.953 2.016 C 4.539 2.137 4.723 13.262 12.137 13.141 L 15.254 13.27 C 22.91 13.145 22.723 1.66 15.066 1.785 Z M 14.922 1.789 C 7.273 2.105 7.742 13.578 15.395 13.266 L 19.285 13.242 C 27.121 12.922 26.637 1.172 18.805 1.492 Z M 18.859 1.492 C 11.027 1.738 11.395 13.492 19.23 13.246 L 23.91 13.195 C 31.875 12.945 31.5 0.996 23.535 1.246 Z M 23.566 1.246 C 15.602 1.453 15.91 13.402 23.879 13.195 L 29.023 13.129 C 37.078 12.922 36.766 0.836 28.711 1.047 Z M 28.754 1.047 C 20.699 1.191 20.918 13.277 28.977 13.133 L 34.738 13.07 C 42.852 12.922 42.629 0.75 34.516 0.898 Z M 34.66 0.898 C 26.547 0.848 26.477 13.023 34.59 13.07 L 40.648 13.133 C 48.801 13.18 48.871 0.957 40.723 0.906 Z M 40.586 0.906 C 32.438 1.039 32.637 13.262 40.785 13.129 L 47.012 13.043 C 55.18 12.91 54.98 0.66 46.813 0.793 Z M 46.953 0.793 C 38.785 0.738 38.707 12.988 46.875 13.043 L 53.094 13.082 C 61.262 13.137 61.34 0.887 53.176 0.832 Z M 53.039 0.836 C 44.875 0.965 45.066 13.211 53.23 13.082 L 59.305 12.961 C 67.434 12.832 67.242 0.637 59.113 0.766 Z M 59.09 0.766 C 50.961 0.93 51.203 13.121 59.332 12.961 L 65.09 12.773 C 73.121 12.613 72.883 0.563 64.852 0.723 Z M 64.836 0.723 C 56.805 0.902 57.074 12.953 65.105 12.773 L 70.398 12.512 C 78.238 12.336 77.977 0.574 70.133 0.75 Z M 70.09 0.75 C 62.25 0.98 62.598 12.742 70.438 12.508 L 75.262 12.141 C 82.797 11.918 82.465 0.613 74.926 0.836 Z M 74.879 0.836 C 67.344 1.125 67.777 12.426 75.309 12.137 L 79.508 11.648 C 86.602 11.379 86.199 0.734 79.102 1.004 Z M 79.266 1.004 C 72.164 1.055 72.246 11.703 79.344 11.652 L 82.922 11.145 C 89.379 11.098 89.309 1.406 82.848 1.457 Z M 83.027 1.457 C 76.57 1.27 76.285 10.953 82.742 11.141 L 85.707 10.555 C 91.266 10.715 91.508 2.383 85.953 2.219 Z M 86.188 2.234 C 80.648 1.758 79.938 10.066 85.477 10.539 L 87.887 9.848 C 92.238 10.223 92.797 3.699 88.445 3.324 Z M 88.559 3.336 C 84.227 2.813 83.438 9.313 87.773 9.836 L 89.441 9.02 C 92.434 9.383 92.98 4.891 89.984 4.527 Z M 90.344 4.602 C 87.445 3.758 86.184 8.105 89.082 8.945 L 90.418 8.402 C 92.164 8.91 92.926 6.285 91.18 5.777 Z M 91.734 6.098 C 90.414 4.848 88.535 6.832 89.859 8.082 L 90.777 8.02 C 91.445 8.652 92.391 7.648 91.727 7.016 Z M 91.887 7.781 C 92.238 6.934 90.965 6.406 90.613 7.254 L 90.832 7.836 C 90.695 8.164 91.188 8.367 91.32 8.039 Z M 91.145 8.195 C 91.484 8.105 91.352 7.594 91.008 7.684 L 90.121 8.125 C 90.043 8.145 90.074 8.266 90.152 8.246 Z M 90.145 8.246 C 90.227 8.234 90.207 8.113 90.129 8.125 L 88.578 8.418 C 88.574 8.422 88.574 8.426 88.578 8.426 Z M 90.145 8.246"/><path fill="#f57c3a" stroke="none" d="M 6.301 33.367 C 6.195 33.367 6.191 33.527 6.297 33.531 L 6.438 34.242 C 7.492 34.273 7.535 32.695 6.484 32.664 Z M 6.148 32.73 C 5.184 33.148 5.809 34.598 6.773 34.18 L 7.211 34.348 C 8.582 33.758 7.695 31.703 6.328 32.297 Z M 6.805 32.203 C 5.313 32.16 5.246 34.395 6.738 34.438 L 7.355 34.832 C 9.344 34.891 9.43 31.906 7.441 31.848 Z M 7.246 31.855 C 5.27 32.055 5.566 35.023 7.547 34.824 L 8.676 35.109 C 11.18 34.855 10.801 31.098 8.297 31.352 Z M 8.215 31.363 C 5.723 31.723 6.266 35.461 8.758 35.098 L 10.383 35.262 C 13.391 34.824 12.734 30.309 9.727 30.746 Z M 9.945 30.723 C 6.91 30.863 7.121 35.422 10.16 35.281 L 12.043 35.57 C 15.586 35.406 15.336 30.094 11.797 30.262 Z M 11.855 30.258 C 8.313 30.344 8.441 35.656 11.984 35.57 L 14.641 35.836 C 18.625 35.742 18.477 29.766 14.496 29.863 Z M 14.527 29.863 C 10.543 29.918 10.629 35.895 14.609 35.84 L 17.879 36.047 C 22.203 35.984 22.109 29.504 17.789 29.563 Z M 17.691 29.566 C 13.375 29.754 13.656 36.23 17.973 36.043 L 21.879 36.059 C 26.445 35.859 26.148 29.012 21.582 29.211 Z M 21.734 29.207 C 17.164 29.203 17.156 36.059 21.727 36.063 L 26.398 36.203 C 31.152 36.211 31.16 29.082 26.406 29.078 Z M 26.324 29.078 C 21.57 29.188 21.734 36.313 26.484 36.203 L 31.934 36.176 C 36.816 36.066 36.648 28.746 31.766 28.855 Z M 31.871 28.855 C 26.988 28.828 26.949 36.152 31.832 36.176 L 37.738 36.277 C 42.711 36.301 42.75 28.844 37.777 28.82 Z M 37.707 28.82 C 32.738 28.887 32.84 36.344 37.809 36.273 L 44.199 36.23 C 49.227 36.164 49.121 28.621 44.098 28.691 Z M 44.176 28.691 C 39.148 28.652 39.09 36.191 44.117 36.23 L 50.656 36.301 C 55.707 36.336 55.762 28.762 50.711 28.723 Z M 50.715 28.723 C 45.664 28.68 45.602 36.254 50.652 36.301 L 57.492 36.355 C 62.539 36.398 62.602 28.828 57.555 28.785 Z M 57.633 28.785 C 52.59 28.637 52.367 36.203 57.414 36.352 L 64.098 36.516 C 69.102 36.664 69.32 29.16 64.316 29.012 Z M 64.316 29.012 C 59.316 28.867 59.094 36.371 64.098 36.516 L 70.785 36.641 C 75.688 36.781 75.902 29.426 71 29.285 Z M 71 29.285 C 66.098 29.141 65.879 36.496 70.785 36.641 L 77.32 36.672 C 82.016 36.813 82.223 29.77 77.527 29.633 Z M 77.613 29.637 C 72.922 29.387 72.547 36.418 77.234 36.668 L 83.152 36.695 C 87.457 36.926 87.801 30.469 83.496 30.238 Z M 83.578 30.246 C 79.277 29.91 78.773 36.355 83.07 36.691 L 88.699 36.699 C 92.422 36.992 92.859 31.402 89.137 31.113 Z M 89.238 31.121 C 85.523 30.695 84.883 36.262 88.598 36.688 L 93.625 36.668 C 96.547 37.004 97.051 32.621 94.129 32.285 Z M 89.238 31.121"/><path fill="#f57c3a" stroke="none" d="M 14.031 60.848 C 14.055 60.891 14.117 60.859 14.094 60.816 L 13.969 60.512 C 13.926 60.43 13.805 60.496 13.848 60.574 Z M 13.848 60.574 C 13.891 60.656 14.012 60.594 13.969 60.512 L 13.875 60.207 C 13.797 60.063 13.578 60.176 13.656 60.324 Z M 13.664 60.336 C 13.758 60.473 13.961 60.332 13.867 60.195 L 13.641 59.707 C 13.477 59.473 13.121 59.719 13.285 59.953 Z M 13.316 59.988 C 13.523 60.184 13.82 59.875 13.613 59.676 L 13.414 59.293 C 13.07 58.965 12.578 59.48 12.922 59.805 Z M 12.926 59.809 C 13.273 60.133 13.758 59.609 13.41 59.289 L 13.391 58.992 C 12.844 58.484 12.082 59.305 12.629 59.813 Z M 12.758 59.902 C 13.426 60.238 13.93 59.238 13.262 58.902 L 13.094 58.488 C 12.074 57.977 11.305 59.504 12.324 60.016 Z M 12.684 60.105 C 13.824 60.141 13.875 58.43 12.734 58.395 L 12.434 58.004 C 10.781 57.953 10.707 60.434 12.359 60.48 Z M 12.359 60.48 C 14.012 60.531 14.086 58.051 12.434 58.004 L 12.133 57.543 C 9.879 57.477 9.781 60.855 12.031 60.922 Z M 12.031 60.922 C 14.285 60.988 14.383 57.609 12.133 57.543 L 11.992 57.051 C 9.09 56.965 8.965 61.32 11.867 61.406 Z M 11.867 61.406 C 14.77 61.492 14.898 57.137 11.992 57.051 L 11.848 56.539 C 8.266 56.434 8.109 61.805 11.688 61.91 Z M 11.688 61.91 C 15.27 62.012 15.426 56.645 11.848 56.539 L 11.711 56.031 C 7.457 55.906 7.273 62.281 11.523 62.406 Z M 11.723 55.574 C 6.863 55.43 6.648 62.723 11.508 62.867 L 11.813 63.289 C 17.223 63.445 17.461 55.328 12.051 55.172 Z M 10.863 55.313 C 5.641 56.734 7.773 64.57 12.996 63.145 L 13.566 63.387 C 19.281 61.828 16.945 53.258 11.23 54.816 Z M 12.531 54.66 C 6.613 54.488 6.352 63.367 12.27 63.539 L 13.344 63.938 C 19.75 64.125 20.031 54.516 13.625 54.328 Z M 13.188 54.336 C 6.793 54.727 7.383 64.324 13.777 63.93 L 15.363 64.18 C 22.219 63.758 21.586 53.473 14.73 53.895 Z M 14.887 53.887 C 8.023 54.102 8.34 64.398 15.207 64.188 L 17.398 64.438 C 24.691 64.211 24.352 53.273 17.059 53.5 Z M 16.863 53.508 C 9.586 53.996 10.313 64.914 17.594 64.43 L 20.566 64.512 C 28.223 64.004 27.457 52.52 19.801 53.027 Z M 20.145 53.016 C 12.469 53.07 12.551 64.582 20.227 64.527 L 24.121 64.738 C 32.113 64.684 32.027 52.691 24.035 52.75 Z M 23.891 52.75 C 15.898 53 16.273 64.984 24.266 64.734 L 28.785 64.789 C 37.035 64.531 36.645 52.156 28.398 52.418 Z M 28.605 52.414 C 20.355 52.395 20.324 64.77 28.578 64.793 L 33.867 64.914 C 42.266 64.938 42.297 52.336 33.898 52.316 Z M 33.922 52.316 C 25.52 52.266 25.445 64.867 33.844 64.914 L 39.914 64.953 C 48.316 65 48.391 52.402 39.992 52.352 Z M 40 52.352 C 31.602 52.289 31.504 64.887 39.906 64.953 L 46.441 65 C 54.84 65.066 54.938 52.465 46.539 52.402 Z M 46.676 52.402 C 38.277 52.156 37.91 64.754 46.305 65 L 52.988 65.195 C 61.387 65.441 61.754 52.848 53.359 52.602 Z M 53.359 52.602 C 44.961 52.355 44.594 64.949 52.988 65.195 L 59.988 65.398 C 68.383 65.645 68.754 53.051 60.355 52.805 Z M 60.355 52.805 C 51.961 52.559 51.59 65.152 59.988 65.398 L 66.824 65.602 C 75.219 65.848 75.59 53.25 67.191 53.004 Z M 67.191 53.004 C 58.797 52.758 58.426 65.355 66.824 65.602 L 73.207 65.676 C 81.453 65.918 81.816 53.547 73.57 53.305 Z M 73.57 53.305 C 65.324 53.063 64.961 65.434 73.207 65.676 L 79.273 65.512 C 87.066 65.742 87.41 54.051 79.617 53.824 Z M 79.617 53.824 C 71.82 53.594 71.48 65.285 79.273 65.512 L 84.734 65.164 C 91.855 65.375 92.168 54.695 85.051 54.488 Z M 85.051 54.488 C 77.93 54.281 77.617 64.957 84.734 65.164 L 89.418 64.578 C 95.57 64.758 95.84 55.527 89.688 55.348 Z M 89.848 55.355 C 83.707 54.961 83.109 64.176 89.254 64.57 L 93.352 63.871 C 98.215 64.184 98.688 56.891 93.824 56.578 Z M 93.848 56.578 C 88.984 56.234 88.469 63.523 93.328 63.871 L 96.828 63.012 C 100.219 63.25 100.578 58.16 97.188 57.922 Z M 93.848 56.578"/></g></g></g></svg>
</svg>