<?xml version="1.0" standalone="no"?>
<svg height="672.530" preserveAspectRatio="none" viewBox="0.000 0.000 690.707 672.530" width="690.707" x="0.000" xmlns="http://www.w3.org/2000/svg" xmlns:svg="http://www.w3.org/2000/svg" xmlns:xlink="http://www.w3.org/1999/xlink" y="0.000">
<svg width="690.707" height="672.53" xmlns="http://www.w3.org/2000/svg"><defs><clipPath id="3Ijt2IY2clipPath1"><path fill="#000000" stroke="none" d="M 0 0 L 690.707 0 L 690.707 672.53 L 0 672.53 Z"/></clipPath><clipPath id="3Ijt2IY2clip-0"><path fill="#000000" stroke="none" d="M 0 0 L 690.707 0 L 690.707 672.531 L 0 672.531 Z M 0 0"/></clipPath></defs><g transform="matrix(0.99999994 0 0 1.0000004 3425.9827 7559.9897)"><g transform="matrix(1 0 0 1 -3425.9832 -7559.9873)"><g clip-path="url(#3Ijt2IY2clipPath1)"><g clip-path="url(#3Ijt2IY2clip-0)"><path fill="#f57c3a" stroke="none" d="M 215.348 50.789 C 234.594 73.801 269.109 44.93 249.863 21.918 L 249.352 21.305 C 230.105 -1.707 195.586 27.164 214.832 50.176 Z M 213.133 47.859 C 229.293 73.137 267.207 48.898 251.051 23.621 L 250.359 22.543 C 234.203 -2.734 196.285 21.5 212.445 46.777 Z M 216.336 51.371 C 238.617 71.457 268.75 38.039 246.469 17.949 L 245.109 16.723 C 222.828 -3.367 192.695 30.055 214.977 50.145 Z M 217.102 51.84 C 241.648 69.094 267.523 32.277 242.98 15.027 L 241.441 13.945 C 216.898 -3.309 191.023 33.508 215.566 50.762 Z M 221.164 53.621 C 249.527 63.406 264.203 20.867 235.844 11.082 L 233.613 10.313 C 205.254 0.531 190.578 43.07 218.938 52.852 Z M 222.574 53.777 C 252.168 58.711 259.566 14.32 229.973 9.391 L 227.23 8.934 C 197.641 4 190.242 48.387 219.836 53.32 Z M 225.414 53.547 C 255.309 51.039 251.547 6.199 221.652 8.703 L 218.066 9.004 C 188.168 11.512 191.93 56.355 221.824 53.848 Z M 224.895 53.375 C 254.16 46.773 244.258 2.879 214.996 9.477 L 210.895 10.402 C 181.629 17.004 191.527 60.902 220.793 54.301 Z M 223.465 53.523 C 251.691 43.359 236.445 1.02 208.219 11.184 L 203.082 13.031 C 174.855 23.195 190.102 65.535 218.328 55.371 Z M 219.727 54.816 C 247.211 42.789 229.168 1.563 201.684 13.59 L 195.699 16.207 C 168.215 28.234 186.258 69.461 213.742 57.434 Z M 215.398 56.625 C 241.805 42.391 220.449 2.781 194.043 17.016 L 187.199 20.703 C 160.793 34.941 182.148 74.551 208.555 60.316 Z M 209.246 59.926 C 235.137 44.766 212.395 5.934 186.508 21.094 L 178.629 25.707 C 152.742 40.867 175.48 79.699 201.367 64.539 Z M 202.473 63.848 C 227.441 47.215 202.488 9.766 177.523 26.398 L 168.977 32.094 C 144.008 48.727 168.957 86.18 193.926 69.543 Z M 194.602 69.074 C 218.941 51.539 192.641 15.027 168.297 32.563 L 158.891 39.34 C 134.551 56.875 160.852 93.387 185.195 75.852 Z M 185.832 75.375 C 209.539 56.992 181.961 21.43 158.254 39.816 L 148.324 47.516 C 124.617 65.902 152.195 101.461 175.902 83.078 Z M 176.879 82.273 C 199.516 62.586 169.984 28.633 147.348 48.32 L 137.082 57.246 C 114.445 76.934 143.977 110.887 166.613 91.203 Z M 167.148 90.719 C 189.145 70.316 158.543 37.324 136.547 57.727 L 125.77 67.727 C 103.777 88.129 134.379 121.117 156.375 100.715 Z M 157.289 99.82 C 178.086 78.195 145.652 47 124.855 68.625 L 113.898 80.012 C 93.102 101.637 125.535 132.832 146.332 111.207 Z M 146.891 110.609 C 166.887 88.242 133.34 58.25 113.344 80.613 L 102.055 93.242 C 82.059 115.605 115.605 145.602 135.598 123.234 Z M 136.441 122.234 C 155.105 98.746 119.875 70.754 101.211 94.242 L 90.086 108.238 C 71.426 131.727 106.656 159.723 125.32 136.234 Z M 125.91 135.457 C 143.539 111.184 107.125 84.742 89.496 109.016 L 78.207 124.563 C 60.578 148.836 96.992 175.277 114.621 151.004 Z M 115.168 150.211 C 131.742 125.207 94.23 100.348 77.656 125.355 L 66.535 142.141 C 49.965 167.145 87.473 192.004 104.047 166.996 Z M 104.555 166.195 C 120.059 140.512 81.531 117.258 66.027 142.941 L 55.25 160.793 C 39.746 186.48 78.273 209.734 93.777 184.051 Z M 94.258 183.215 C 108.645 156.891 69.16 135.305 54.77 161.633 L 44.508 180.41 C 30.117 206.734 69.605 228.316 83.992 201.992 Z M 84.383 201.246 C 97.773 174.402 57.508 154.313 44.117 181.156 L 34.363 200.707 C 20.973 227.551 61.238 247.641 74.633 220.793 Z M 75.195 219.578 C 86.961 191.98 45.57 174.328 33.801 201.922 L 25.074 222.387 C 13.305 249.98 54.699 267.633 66.469 240.039 Z M 66.852 239.078 C 77.34 210.973 35.18 195.238 24.691 223.348 L 16.82 244.434 C 6.336 272.539 48.496 288.273 58.984 260.164 Z M 59.48 258.668 C 67.977 229.895 24.816 217.156 16.324 245.93 L 9.824 267.941 C 1.332 296.711 44.492 309.453 52.984 280.68 Z M 53.418 278.973 C 59.633 249.625 15.609 240.297 9.395 269.648 L 4.602 292.273 C -1.617 321.621 42.406 330.945 48.625 301.598 Z M 48.922 299.859 C 52.82 270.113 8.203 264.266 4.305 294.008 L 1.215 317.559 C -2.684 347.305 41.934 353.152 45.836 323.406 Z M 46.004 321.438 C 47.277 291.465 2.316 289.559 1.047 319.531 L 0.02 343.703 C -1.25 373.676 43.707 375.582 44.98 345.609 Z M 44.973 343.566 C 43.52 313.602 -1.43 315.785 0.027 345.75 L 1.23 370.523 C 2.688 400.488 47.633 398.305 46.176 368.34 Z M 45.984 366.305 C 41.813 336.594 -2.75 342.852 1.422 372.563 L 5.012 398.117 C 9.184 427.824 53.746 421.566 49.574 391.859 Z M 49.188 389.801 C 42.27 360.609 -1.52 370.984 5.398 400.176 L 11.563 426.188 C 18.477 455.379 62.266 445.004 55.348 415.813 Z M 54.77 413.797 C 45.164 385.375 2.535 399.785 12.141 428.203 L 21.035 454.52 C 30.641 482.938 73.27 468.531 63.664 440.109 Z M 62.988 438.355 C 51.047 410.836 9.766 428.75 21.711 456.273 L 33 482.285 C 44.945 509.805 86.223 491.887 74.277 464.367 Z M 73.387 462.547 C 59.016 436.215 19.516 457.773 33.891 484.105 L 47.754 509.504 C 62.129 535.84 101.625 514.277 87.254 487.945 Z M 86.32 486.391 C 69.875 461.301 32.238 485.973 48.688 511.059 L 64.422 535.066 C 80.871 560.156 118.504 535.484 102.059 510.395 Z M 101.012 508.934 C 82.613 485.238 47.07 512.832 65.469 536.531 L 82.922 559.008 C 101.32 582.707 136.863 555.109 118.465 531.414 Z M 117.258 529.981 C 96.953 507.898 63.824 538.356 84.129 560.441 L 102.953 580.914 C 123.258 602.996 156.387 572.539 136.082 550.457 Z M 134.918 549.281 C 113.047 528.746 82.246 561.555 104.117 582.09 L 123.789 600.555 C 145.66 621.09 176.461 588.281 154.59 567.746 Z M 153.113 566.481 C 129.551 547.91 101.699 583.258 125.262 601.824 L 145.969 618.141 C 169.535 636.707 197.383 601.363 173.82 582.793 Z M 172.359 581.734 C 147.379 565.117 122.457 602.586 147.434 619.203 L 168.477 633.199 C 193.453 649.816 218.379 612.348 193.398 595.734 Z M 191.738 594.727 C 165.418 580.328 143.82 619.805 170.137 634.203 L 191.523 645.906 C 217.844 660.309 239.441 620.828 213.125 606.43 Z M 211.258 605.516 C 183.723 593.609 165.859 634.91 193.391 646.82 L 215.113 656.215 C 242.648 668.125 260.512 626.82 232.977 614.914 Z M 231.051 614.184 C 202.543 604.84 188.531 647.606 217.039 656.945 L 239.121 664.18 C 267.629 673.52 281.637 630.754 253.129 621.414 Z M 250.844 620.797 C 221.512 614.504 212.07 658.504 241.406 664.797 L 263.641 669.566 C 292.973 675.859 302.41 631.859 273.078 625.566 Z M 270.762 625.195 C 240.934 621.992 236.129 666.734 265.957 669.938 L 288.891 672.402 C 318.723 675.606 323.527 630.863 293.695 627.66 Z M 291.293 627.531 C 261.293 627.531 261.293 672.531 291.293 672.531 L 314.555 672.531 C 344.555 672.531 344.555 627.531 314.555 627.531 Z M 312.383 627.633 C 282.523 630.531 286.867 675.32 316.727 672.426 L 340.512 670.117 C 370.371 667.223 366.023 622.43 336.164 625.328 Z M 334.129 625.621 C 304.66 631.231 313.074 675.438 342.547 669.824 L 366.84 665.199 C 396.313 659.59 387.898 615.383 358.426 620.996 Z M 356.758 621.379 C 327.797 629.215 339.555 672.652 368.512 664.816 L 392.973 658.195 C 421.934 650.359 410.18 606.922 381.219 614.758 Z M 379.699 615.227 C 351.367 625.094 366.164 667.59 394.496 657.727 L 418.793 649.266 C 447.125 639.402 432.328 596.906 403.996 606.77 Z M 402.668 607.281 C 375.016 618.914 392.469 660.395 420.121 648.758 L 443.902 638.75 C 471.555 627.113 454.102 585.637 426.449 597.27 Z M 425.336 597.777 C 398.359 610.895 418.035 651.363 445.016 638.246 L 468.121 627.012 C 495.098 613.891 475.422 573.422 448.441 586.543 Z M 447.297 587.137 C 421.113 601.781 443.078 641.055 469.262 626.414 L 491.844 613.785 C 518.027 599.145 496.063 559.867 469.879 574.512 Z M 468.793 575.16 C 443.473 591.25 467.609 629.231 492.926 613.141 L 514.48 599.441 C 539.801 583.352 515.668 545.371 490.348 561.461 Z M 489.258 562.199 C 464.922 579.738 491.23 616.246 515.57 598.707 L 536.277 583.781 C 560.613 566.242 534.305 529.734 509.969 547.273 Z M 508.84 548.145 C 485.66 567.188 514.223 601.957 537.406 582.914 L 557.074 566.754 C 580.258 547.711 551.691 512.938 528.512 531.984 Z M 527.449 532.914 C 505.508 553.371 536.195 586.285 558.137 565.824 L 576.793 548.426 C 598.734 527.965 568.047 495.055 546.106 515.516 Z M 545.172 516.438 C 524.461 538.145 557.02 569.207 577.727 547.504 L 595.348 529.035 C 616.059 507.332 583.5 476.266 562.789 497.973 Z M 561.918 498.941 C 542.5 521.813 576.809 550.934 596.223 528.066 L 612.816 508.516 C 632.231 485.645 597.926 456.523 578.512 479.395 Z M 577.637 480.496 C 559.688 504.531 595.746 531.457 613.695 507.418 L 629.098 486.785 C 647.043 462.746 610.984 435.824 593.039 459.863 Z M 592.262 460.973 C 575.789 486.043 613.398 510.754 629.871 485.68 L 643.727 464.594 C 660.195 439.52 622.586 414.813 606.113 439.887 Z M 605.316 441.195 C 590.59 467.332 629.793 489.422 644.523 463.285 L 656.836 441.43 C 671.566 415.293 632.359 393.203 617.633 419.34 Z M 616.879 420.797 C 604.094 447.934 644.805 467.113 657.59 439.973 L 668.031 417.805 C 680.816 390.668 640.109 371.488 627.324 398.629 Z M 626.512 400.582 C 616.336 428.805 658.664 444.07 668.844 415.852 L 677.223 392.613 C 687.402 364.395 645.07 349.125 634.895 377.348 Z M 634.293 379.277 C 626.691 408.297 670.223 419.703 677.824 390.684 L 684.156 366.52 C 691.758 337.5 648.227 326.094 640.625 355.113 Z M 640.172 357.273 C 635.445 386.898 679.883 393.988 684.609 364.363 L 688.711 338.648 C 693.438 309.023 648.996 301.938 644.273 331.563 Z M 644.035 333.676 C 642.129 363.613 687.035 366.477 688.945 336.535 L 690.66 309.609 C 692.57 279.672 647.66 276.809 645.754 306.75 Z M 645.711 308.59 C 646.258 338.586 691.254 337.762 690.703 307.77 L 690.191 279.75 C 689.641 249.754 644.648 250.578 645.199 280.574 Z M 645.352 282.816 C 648.891 312.605 693.578 307.297 690.039 277.504 L 686.617 248.719 C 683.074 218.926 638.391 224.238 641.93 254.027 Z M 642.227 255.863 C 648.211 285.262 692.309 276.281 686.32 246.883 L 680.336 217.496 C 674.348 188.098 630.254 197.078 636.242 226.473 Z M 636.824 228.73 C 645.816 257.348 688.746 243.859 679.754 215.238 L 670.516 185.84 C 661.52 157.219 618.59 170.707 627.582 199.328 Z M 628.375 201.465 C 640.215 229.027 681.563 211.27 669.723 183.703 L 657.231 154.617 C 645.391 127.051 604.043 144.809 615.883 172.375 Z M 617.02 174.656 C 631.898 200.703 670.973 178.387 656.094 152.336 L 640.176 124.473 C 625.297 98.422 586.223 120.742 601.102 146.793 Z M 602.754 149.281 C 620.953 173.133 656.727 145.832 638.527 121.984 L 618.68 95.973 C 600.481 72.121 564.703 99.422 582.902 123.27 Z M 584.844 125.492 C 606.008 146.758 637.902 115.012 616.738 93.75 L 593.301 70.199 C 572.137 48.934 540.242 80.68 561.406 101.941 Z M 563.898 104.105 C 587.945 122.043 614.852 85.973 590.809 68.035 L 563.781 47.875 C 539.734 29.938 512.828 66.008 536.871 83.945 Z M 539.547 85.66 C 565.879 100.035 587.441 60.535 561.109 46.16 L 530.648 29.531 C 504.316 15.156 482.754 54.656 509.086 69.031 Z M 511.895 70.32 C 539.945 80.953 555.895 38.871 527.84 28.242 L 494.137 15.469 C 466.086 4.84 450.137 46.918 478.191 57.551 Z M 480.789 58.359 C 509.918 65.527 520.672 21.828 491.543 14.66 L 455.266 5.734 C 426.133 -1.434 415.379 42.262 444.512 49.43 Z M 447.121 49.91 C 476.895 53.602 482.426 8.941 452.656 5.254 L 414.16 0.484 C 384.387 -3.207 378.855 41.453 408.625 45.141 Z M 411.219 45.313 C 441.219 45.547 441.566 0.547 411.57 0.313 L 371.535 0 C 341.535 -0.234 341.188 44.766 371.184 45 Z M 373.57 44.891 C 403.426 41.945 399.004 -2.836 369.152 0.109 L 328.605 4.109 C 298.75 7.055 303.168 51.84 333.023 48.891 Z M 335.516 48.504 C 364.855 42.238 355.453 -1.77 326.113 4.496 L 285.734 13.125 C 256.398 19.391 265.801 63.398 295.137 57.129 Z M 297.332 56.543 C 325.887 47.352 312.098 4.516 283.543 13.711 L 244.355 26.324 C 215.801 35.52 229.59 78.355 258.145 69.16 Z M 260.234 68.371 C 287.738 56.395 269.773 15.137 242.27 27.113 L 204.797 43.43 C 177.293 55.406 195.258 96.664 222.766 84.688 Z M 224.711 83.727 C 250.934 69.152 229.074 29.82 202.852 44.395 L 167.957 63.785 C 141.734 78.359 163.594 117.691 189.816 103.117 Z M 191.637 101.988 C 216.355 84.988 190.852 47.91 166.133 64.914 L 134.137 86.926 C 109.422 103.93 134.926 141.004 159.641 124 Z M 161.359 122.691 C 184.332 103.398 155.391 68.941 132.418 88.234 L 104.008 112.094 C 81.039 131.391 109.98 165.848 132.953 146.555 Z M 134.371 145.254 C 155.609 124.063 123.824 92.207 102.59 113.398 L 77.445 138.484 C 56.207 159.676 87.992 191.527 109.23 170.34 Z M 110.547 168.906 C 129.871 145.957 95.449 116.973 76.125 139.918 L 54.738 165.32 C 35.418 188.266 69.84 217.25 89.16 194.305 Z M 90.242 192.91 C 107.711 168.52 71.125 142.32 53.656 166.711 L 35.691 191.797 C 18.227 216.188 54.813 242.391 72.277 218 Z M 73.203 216.602 C 88.805 190.977 50.367 167.574 34.766 193.199 L 20.055 217.359 C 4.453 242.984 42.891 266.387 58.492 240.762 Z M 73.203 216.602"/></g><path fill="#f57c3a" stroke="none" d="M 341.73 349.5 C 371.73 349.5 371.73 304.5 341.73 304.5 L 341.457 304.5 C 311.457 304.5 311.457 349.5 341.457 349.5 Z M 341.457 349.5 C 371.457 349.5 371.457 304.5 341.457 304.5 L 341.309 304.5 C 311.309 304.5 311.309 349.5 341.309 349.5 Z M 341.309 349.5 C 371.309 349.5 371.309 304.5 341.309 304.5 L 341.031 304.5 C 311.031 304.5 311.031 349.5 341.031 349.5 Z M 341.031 349.5 C 371.031 349.5 371.031 304.5 341.031 304.5 L 340.746 304.5 C 310.746 304.5 310.746 349.5 340.746 349.5 Z M 350.008 347.504 C 377.348 335.156 358.828 294.145 331.484 306.492 L 331.199 306.621 C 303.859 318.969 322.379 359.98 349.723 347.633 Z M 355.813 343.578 C 377.746 323.105 347.039 290.211 325.109 310.68 L 324.969 310.809 C 303.039 331.277 333.742 364.176 355.676 343.707 Z M 362.031 333.176 C 369.922 304.234 326.508 292.395 318.617 321.336 L 318.477 321.844 C 310.582 350.785 353.996 362.625 361.891 333.684 Z M 362.383 331.426 C 367.266 301.824 322.867 294.5 317.984 324.102 L 317.836 324.996 C 312.953 354.594 357.355 361.918 362.238 332.32 Z M 362.406 331.09 C 365.648 301.266 320.91 296.402 317.668 326.227 L 317.531 327.496 C 314.289 357.32 359.023 362.184 362.266 332.359 Z M 362.152 333.262 C 366.594 303.59 322.09 296.926 317.648 326.594 L 317.363 328.504 C 312.918 358.172 357.422 364.836 361.863 335.168 Z M 361.984 334.227 C 365.176 304.395 320.43 299.613 317.242 329.441 L 316.957 332.113 C 313.766 361.945 358.512 366.727 361.699 336.898 Z M 361.508 338.273 C 366.535 308.699 322.172 301.16 317.145 330.738 L 316.582 334.043 C 311.559 363.621 355.922 371.156 360.949 341.582 Z M 361.066 340.797 C 365.043 311.059 320.441 305.094 316.465 334.828 L 315.902 339.027 C 311.926 368.766 356.527 374.73 360.504 344.996 Z M 360.414 345.621 C 365.227 316.012 320.809 308.793 315.996 338.402 L 315.148 343.617 C 310.336 373.227 354.75 380.445 359.566 350.836 Z M 359.637 350.352 C 363.805 320.641 319.242 314.391 315.074 344.102 L 314.219 350.207 C 310.051 379.914 354.613 386.168 358.781 356.457 Z M 358.727 356.84 C 363.402 327.207 318.953 320.191 314.273 349.824 L 313.152 356.945 C 308.473 386.578 352.926 393.594 357.602 363.961 Z M 357.715 363.141 C 361.297 333.352 316.621 327.98 313.039 357.766 L 312.043 366.035 C 308.461 395.82 353.137 401.195 356.719 371.41 Z M 356.715 371.449 C 360.348 341.668 315.68 336.219 312.047 366 L 310.914 375.281 C 307.281 405.063 351.949 410.512 355.582 380.734 Z M 355.613 380.477 C 358.906 350.66 314.176 345.719 310.883 375.539 L 309.762 385.715 C 306.469 415.535 351.195 420.473 354.488 390.656 Z M 354.512 390.453 C 357.531 360.605 312.762 356.07 309.738 385.918 L 308.605 397.109 C 305.586 426.957 350.355 431.492 353.379 401.645 Z M 353.41 401.281 C 355.953 371.391 311.113 367.578 308.574 397.473 L 307.578 409.18 C 305.039 439.07 349.875 442.883 352.418 412.988 Z M 352.441 412.641 C 354.52 382.715 309.629 379.598 307.551 409.527 L 306.703 421.738 C 304.629 451.668 349.52 454.781 351.598 424.855 Z M 351.613 424.602 C 353.352 394.652 308.43 392.043 306.688 421.992 L 305.977 434.195 C 304.238 464.145 349.164 466.758 350.902 436.805 Z M 350.914 436.559 C 352.324 406.59 307.371 404.48 305.965 434.445 L 305.402 446.41 C 303.996 476.379 348.945 478.488 350.355 448.52 Z M 350.352 448.582 C 351.84 418.617 306.895 416.387 305.406 446.352 L 304.844 457.672 C 303.355 487.633 348.301 489.863 349.789 459.902 Z M 349.797 459.699 C 351.016 429.723 306.055 427.898 304.836 457.871 L 304.41 468.301 C 303.195 498.273 348.156 500.102 349.375 470.125 Z M 349.371 470.238 C 350.738 440.27 305.785 438.219 304.418 468.188 L 303.992 477.473 C 302.625 507.441 347.578 509.492 348.945 479.523 Z M 348.938 479.691 C 350.531 449.734 305.594 447.344 304 477.301 L 303.566 485.445 C 301.977 515.402 346.91 517.793 348.504 487.832 Z M 348.457 488.508 C 350.949 458.613 306.105 454.875 303.613 484.77 L 303.051 491.512 C 300.563 521.41 345.406 525.145 347.898 495.25 Z M 347.852 495.734 C 350.988 465.898 306.234 461.191 303.098 491.027 L 302.535 496.371 C 299.398 526.207 344.152 530.914 347.289 501.078 Z M 347.035 502.84 C 352.52 473.344 308.277 465.117 302.793 494.609 L 302.082 498.422 C 296.598 527.918 340.84 536.145 346.324 506.652 Z M 344.172 512.906 C 357.996 486.281 318.059 465.543 304.234 492.168 L 303.238 494.086 C 289.414 520.711 329.352 541.445 343.176 514.82 Z M 325.594 526.824 C 355.426 523.648 350.656 478.902 320.824 482.078 L 319.699 482.199 C 289.871 485.379 294.637 530.125 324.469 526.945 Z M 303.828 517.723 C 321.359 542.066 357.875 515.766 340.344 491.422 L 339.063 489.645 C 321.531 465.301 285.016 491.602 302.547 515.945 Z M 299.613 510.352 C 309.688 538.609 352.074 523.496 341.996 495.238 L 340.727 491.672 C 330.652 463.414 288.266 478.531 298.34 506.789 Z M 299.613 510.352"/><path fill="#f57c3a" stroke="none" d="M 358.016 213.91 C 358.016 183.91 313.016 183.91 313.016 213.91 L 313.016 214.168 C 313.016 244.168 358.016 244.168 358.016 214.168 Z M 358.016 214.168 C 358.016 184.168 313.016 184.168 313.016 214.168 L 313.016 214.676 C 313.016 244.676 358.016 244.676 358.016 214.676 Z M 358.016 214.676 C 358.016 184.676 313.016 184.676 313.016 214.676 L 313.016 215.309 C 313.016 245.309 358.016 245.309 358.016 215.309 Z M 357.656 211.309 C 352.32 181.785 308.039 189.789 313.375 219.313 L 313.512 220.074 C 318.848 249.598 363.129 241.594 357.793 212.074 Z M 357.852 212.41 C 352.969 182.813 308.57 190.137 313.453 219.734 L 313.602 220.629 C 318.48 250.23 362.883 242.906 358 213.305 Z M 356.559 208.285 C 344.984 180.609 303.469 197.969 315.043 225.648 L 315.465 226.66 C 327.039 254.34 368.555 236.977 356.98 209.301 Z M 356.555 208.34 C 343.699 181.234 303.039 200.516 315.895 227.621 L 316.316 228.516 C 329.172 255.621 369.832 236.34 356.977 209.234 Z M 355.133 206.051 C 338.035 181.398 301.063 207.047 318.16 231.699 L 318.871 232.723 C 335.969 257.371 372.941 231.723 355.844 207.07 Z M 352.383 203.148 C 330.051 183.113 300 216.609 322.332 236.645 L 323.316 237.527 C 345.645 257.563 375.699 224.066 353.367 204.035 Z M 350.926 202.129 C 326.059 185.348 300.891 222.652 325.758 239.43 L 326.891 240.195 C 351.758 256.977 376.93 219.676 352.063 202.895 Z M 350.484 201.922 C 324.32 187.246 302.301 226.492 328.469 241.168 L 329.602 241.805 C 355.766 256.48 377.781 217.234 351.617 202.559 Z M 348.219 201.008 C 319.988 190.859 304.766 233.207 332.996 243.355 L 334.406 243.859 C 362.637 254.008 377.859 211.664 349.629 201.516 Z M 346.043 200.551 C 316.527 195.184 308.477 239.457 337.992 244.824 L 339.41 245.082 C 368.926 250.449 376.977 206.176 347.461 200.809 Z M 345.293 200.523 C 315.395 198.047 311.68 242.891 341.578 245.367 L 343.133 245.496 C 373.031 247.973 376.746 203.129 346.852 200.652 Z M 343.285 200.641 C 313.371 202.914 316.785 247.785 346.699 245.508 L 348.395 245.379 C 378.309 243.105 374.895 198.234 344.98 200.512 Z M 341.383 201.078 C 312.227 208.152 322.836 251.883 351.992 244.813 L 353.547 244.434 C 382.703 237.359 372.094 193.629 342.938 200.703 Z M 339.633 201.781 C 311.918 213.262 329.137 254.836 356.855 243.355 L 358.41 242.711 C 386.125 231.23 368.906 189.656 341.191 201.137 Z M 336.664 203.652 C 312.309 221.168 338.578 257.703 362.934 240.191 L 364.344 239.18 C 388.703 221.664 362.434 185.129 338.074 202.641 Z M 337.098 203.383 C 313.73 222.199 341.953 257.25 365.32 238.434 L 366.738 237.293 C 390.105 218.477 361.883 183.426 338.516 202.242 Z M 334.496 206.441 C 316.73 230.617 352.992 257.266 370.758 233.094 L 371.883 231.563 C 389.648 207.391 353.387 180.742 335.621 204.914 Z M 334.777 206.145 C 318.652 231.445 356.602 255.629 372.727 230.332 L 373.859 228.555 C 389.98 203.254 352.035 179.07 335.91 204.367 Z M 334.113 207.813 C 322.582 235.508 364.129 252.805 375.656 225.109 L 376.504 223.074 C 388.035 195.375 346.488 178.082 334.961 205.777 Z M 334.352 207.418 C 325.008 235.93 367.773 249.941 377.113 221.43 L 377.824 219.266 C 387.164 190.758 344.402 176.746 335.059 205.254 Z M 334.316 208.172 C 328.867 237.676 373.117 245.848 378.566 216.348 L 378.992 214.055 C 384.441 184.555 340.188 176.379 334.738 205.879 Z M 334.402 208.68 C 332.688 238.633 377.613 241.203 379.328 211.254 L 379.465 208.84 C 381.18 178.891 336.254 176.316 334.539 206.27 Z M 334.539 208.836 C 336.246 238.785 381.176 236.223 379.465 206.273 L 379.328 203.852 C 377.621 173.898 332.691 176.461 334.402 206.414 Z M 334.742 209.234 C 340.215 238.73 384.457 230.523 378.988 201.027 L 378.563 198.742 C 373.094 169.246 328.848 177.453 334.32 206.949 Z M 335.059 209.852 C 344.402 238.363 387.164 224.352 377.824 195.84 L 377.113 193.676 C 367.773 165.168 325.008 179.18 334.352 207.688 Z M 336.07 211.625 C 350.66 237.84 389.98 215.953 375.391 189.742 L 374.258 187.707 C 359.668 161.492 320.348 183.375 334.938 209.59 Z M 335.879 211.129 C 352.52 236.09 389.961 211.129 373.32 186.168 L 372.051 184.262 C 355.406 159.297 317.965 184.262 334.605 209.223 Z M 337.594 212.824 C 359.039 233.805 390.508 201.637 369.063 180.656 L 367.367 179 C 345.922 158.02 314.453 190.188 335.898 211.168 Z M 337.934 212.934 C 361.734 231.195 389.133 195.496 365.332 177.234 L 363.352 175.715 C 339.551 157.449 312.156 193.148 335.953 211.414 Z M 338.609 213.168 C 364.75 227.891 386.832 188.684 360.695 173.957 L 358.438 172.688 C 332.301 157.965 310.215 197.172 336.355 211.895 Z M 337.676 212.586 C 364.734 225.543 384.172 184.957 357.113 172 L 354.711 170.848 C 327.652 157.891 308.215 198.477 335.273 211.434 Z M 338.535 212.695 C 367.273 221.305 380.188 178.199 351.449 169.586 L 348.898 168.824 C 320.16 160.211 307.246 203.316 335.984 211.93 Z M 339.301 212.656 C 369.008 216.84 375.285 172.281 345.578 168.098 L 342.898 167.719 C 313.191 163.531 306.914 208.094 336.621 212.277 Z M 339.762 212.5 C 369.762 212.5 369.762 167.5 339.762 167.5 L 337.07 167.5 C 307.07 167.5 307.07 212.5 337.07 212.5 Z M 341.469 212.066 C 370.891 206.203 362.094 162.07 332.672 167.934 L 330.133 168.438 C 300.711 174.301 309.504 218.434 338.926 212.57 Z M 341.348 211.945 C 369.938 202.855 356.301 159.973 327.711 169.063 L 325.305 169.828 C 296.719 178.918 310.355 221.805 338.945 212.711 Z M 343.953 210.41 C 369.473 194.641 345.82 156.359 320.297 172.129 L 318.031 173.527 C 292.512 189.297 316.164 227.578 341.688 211.809 Z M 344.301 209.922 C 367.305 190.664 338.418 156.16 315.414 175.418 L 313.434 177.074 C 290.434 196.332 319.32 230.836 342.324 211.578 Z M 345.949 207.734 C 363.824 183.641 327.684 156.828 309.809 180.922 L 308.113 183.207 C 290.238 207.297 326.379 234.109 344.254 210.02 Z M 346.309 206.676 C 359.727 179.84 319.477 159.715 306.059 186.551 L 304.789 189.09 C 291.371 215.926 331.621 236.051 345.039 209.215 Z M 346.449 205.672 C 355.137 176.957 312.066 163.922 303.379 192.637 L 302.531 195.438 C 293.84 224.152 336.91 237.184 345.602 208.473 Z M 346.344 205.109 C 350.547 175.402 305.992 169.098 301.789 198.801 L 301.355 201.859 C 297.148 231.563 341.707 237.871 345.91 208.164 Z M 346.113 205.988 C 347.414 176.016 302.457 174.063 301.152 204.035 L 301.016 207.211 C 299.711 237.184 344.672 239.137 345.973 209.168 Z M 345.781 205.094 C 341.652 175.379 297.078 181.574 301.207 211.285 L 301.633 214.336 C 305.762 244.051 350.332 237.855 346.203 208.141 Z M 345.531 204.984 C 337.195 176.168 293.969 188.672 302.305 217.492 L 303.152 220.422 C 311.488 249.238 354.715 236.734 346.379 207.914 Z M 345.316 205.008 C 333.105 177.605 292.004 195.926 304.215 223.328 L 305.348 225.867 C 317.559 253.27 358.66 234.953 346.449 207.551 Z M 344.828 204.547 C 328.609 179.309 290.75 203.633 306.969 228.871 L 308.527 231.297 C 324.742 256.535 362.602 232.207 346.383 206.969 Z M 343.582 203.441 C 322.664 181.938 290.41 213.316 311.328 234.82 L 313.309 236.855 C 334.227 258.359 366.48 226.98 345.563 205.477 Z M 341.969 202.48 C 317.055 185.77 291.988 223.141 316.902 239.852 L 319.168 241.375 C 344.082 258.086 369.148 220.711 344.234 204 Z M 341.449 202.41 C 314.414 189.41 294.914 229.965 321.953 242.965 L 324.348 244.117 C 351.383 257.117 370.883 216.559 343.844 203.559 Z M 339.535 202.004 C 310.426 194.754 299.547 238.422 328.656 245.672 L 331.207 246.309 C 360.32 253.559 371.195 209.895 342.086 202.641 Z M 337.73 202 C 307.762 200.559 305.602 245.508 335.566 246.949 L 338.246 247.078 C 368.211 248.52 370.375 203.57 340.41 202.129 Z M 337.18 202.207 C 307.316 205.07 311.613 249.863 341.477 247 L 344.164 246.742 C 374.027 243.879 369.734 199.086 339.871 201.949 Z M 335.539 202.797 C 306.809 211.438 319.77 254.531 348.496 245.891 L 351.039 245.129 C 379.77 236.488 366.809 193.395 338.078 202.035 Z M 334.527 203.441 C 307.676 216.82 327.742 257.098 354.594 243.719 L 357.145 242.449 C 383.996 229.07 363.93 188.793 337.078 202.172 Z M 333.188 204.637 C 309.621 223.199 337.469 258.547 361.035 239.984 L 363.289 238.207 C 386.855 219.641 359.012 184.293 335.445 202.855 Z M 333.32 204.758 C 312.293 226.152 344.383 257.699 365.414 236.305 L 367.539 234.141 C 388.57 212.746 356.48 181.199 335.449 202.594 Z M 333.246 205.207 C 315.699 229.543 352.199 255.859 369.746 231.527 L 371.578 228.984 C 389.125 204.648 352.621 178.332 335.078 202.668 Z M 333.078 206.02 C 320 233.02 360.504 252.633 373.578 225.633 L 374.996 222.703 C 388.074 195.703 347.57 176.09 334.496 203.09 Z M 333.746 204.824 C 322.98 232.824 364.984 248.973 375.75 220.969 L 377.02 217.664 C 387.785 189.66 345.781 173.516 335.016 201.516 Z M 334.223 204.004 C 326.773 233.066 370.367 244.234 377.813 215.176 L 378.66 211.867 C 386.109 182.809 342.516 171.637 335.07 200.699 Z M 334.66 202.652 C 329.816 232.258 374.227 239.52 379.07 209.914 L 379.633 206.48 C 384.473 176.871 340.063 169.609 335.223 199.215 Z M 334.949 201.883 C 333.66 231.855 378.621 233.785 379.906 203.813 L 380.055 200.375 C 381.34 170.402 336.379 168.477 335.094 198.449 Z M 335.102 200.5 C 336.551 230.465 381.496 228.289 380.047 198.324 L 379.902 195.277 C 378.453 165.313 333.504 167.484 334.953 197.449 Z M 335.16 199.586 C 339.453 229.273 383.988 222.832 379.695 193.141 L 379.27 190.211 C 374.977 160.523 330.441 166.965 334.734 196.656 Z M 335.895 201.223 C 346.277 229.367 388.496 213.789 378.113 185.645 L 377.125 182.973 C 366.742 154.828 324.523 170.406 334.91 198.551 Z M 335.844 200.727 C 349.133 227.625 389.477 207.695 376.191 180.797 L 375.059 178.504 C 361.77 151.605 321.426 171.535 334.711 198.434 Z M 337.012 202.137 C 355.234 225.969 390.98 198.633 372.758 174.801 L 371.199 172.766 C 352.977 148.934 317.23 176.27 335.453 200.102 Z M 338.965 203.754 C 362.063 222.902 390.785 188.262 367.688 169.113 L 365.855 167.594 C 342.762 148.445 314.039 183.086 337.133 202.234 Z M 339.957 204.23 C 365.711 219.617 388.789 180.984 363.035 165.598 L 360.906 164.328 C 335.152 148.941 312.074 187.574 337.828 202.957 Z M 343.188 205.277 C 372.031 213.52 384.395 170.25 355.547 162.008 L 353.293 161.363 C 324.445 153.121 312.082 196.391 340.93 204.633 Z M 344.93 205.391 C 374.785 208.301 379.152 163.516 349.293 160.605 L 346.742 160.355 C 316.883 157.445 312.52 202.234 342.375 205.145 Z M 346.883 205.129 C 376.723 202.031 372.074 157.27 342.234 160.371 L 339.84 160.617 C 310 163.719 314.648 208.477 344.488 205.379 Z M 349.602 204.234 C 377.914 194.32 363.043 151.848 334.727 161.762 L 332.176 162.656 C 303.863 172.57 318.734 215.043 347.051 205.129 Z M 350.938 203.336 C 376.859 188.238 354.215 149.352 328.289 164.449 L 325.887 165.848 C 299.961 180.945 322.609 219.832 348.531 204.734 Z M 351.75 202.465 C 374.645 183.078 345.566 148.734 322.668 168.121 L 320.266 170.156 C 297.371 189.543 326.449 223.883 349.344 204.5 Z M 352.555 201.152 C 370.992 177.488 335.492 149.832 317.055 173.5 L 315.074 176.043 C 296.641 199.711 332.141 227.363 350.574 203.695 Z M 351.898 201.805 C 367.813 176.375 329.664 152.504 313.75 177.934 L 311.918 180.863 C 296.004 206.293 334.152 230.164 350.066 204.734 Z M 351.789 201.387 C 363.238 173.656 321.645 156.48 310.195 184.211 L 308.777 187.648 C 297.328 215.379 338.922 232.551 350.371 204.82 Z M 351.258 202.246 C 359.27 173.336 315.906 161.313 307.891 190.223 L 306.906 193.777 C 298.891 222.688 342.258 234.711 350.27 205.801 Z M 350.824 203.227 C 355.406 173.578 310.938 166.703 306.352 196.352 L 305.781 200.047 C 301.195 229.691 345.668 236.57 350.254 206.922 Z M 350.516 203.484 C 350.516 173.484 305.516 173.484 305.516 203.484 L 305.516 207.297 C 305.516 237.297 350.516 237.297 350.516 207.297 Z M 350.234 203.738 C 345.488 174.113 301.055 181.234 305.801 210.855 L 306.371 214.422 C 311.117 244.043 355.551 236.922 350.805 207.301 Z M 350.215 204.656 C 341.945 175.82 298.688 188.227 306.961 217.066 L 307.945 220.5 C 316.219 249.336 359.473 236.93 351.203 208.094 Z M 349.973 204.805 C 337.32 177.605 296.52 196.586 309.172 223.789 L 310.594 226.836 C 323.246 254.035 364.047 235.055 351.391 207.855 Z M 349.816 205.023 C 333.387 179.922 295.734 204.566 312.168 229.668 L 314 232.469 C 330.43 257.57 368.082 232.922 351.648 207.82 Z M 349.32 204.844 C 328.918 182.848 295.926 213.453 316.328 235.449 L 318.457 237.742 C 338.859 259.734 371.852 229.129 351.449 207.137 Z M 348.227 204.27 C 324.004 186.574 297.457 222.91 321.68 240.605 L 323.938 242.254 C 348.16 259.953 374.707 223.617 350.484 205.918 Z M 347.242 203.949 C 320.391 190.57 300.324 230.848 327.176 244.227 L 329.727 245.496 C 356.578 258.875 376.645 218.598 349.793 205.219 Z M 344.953 203.465 C 315.762 196.543 305.379 240.328 334.57 247.25 L 337.25 247.887 C 366.441 254.809 376.824 211.023 347.633 204.102 Z M 342.441 203.492 C 312.441 203.492 312.441 248.492 342.441 248.492 L 344.992 248.492 C 374.992 248.492 374.992 203.492 344.992 203.492 Z M 341.688 203.738 C 312.012 208.145 318.625 252.656 348.297 248.25 L 350.84 247.871 C 380.516 243.465 373.902 198.953 344.227 203.359 Z M 338.797 204.883 C 311.152 216.535 328.629 258 356.273 246.352 L 358.676 245.336 C 386.32 233.688 368.844 192.219 341.199 203.871 Z M 336.77 206.359 C 312.445 223.914 338.781 260.406 363.105 242.848 L 365.227 241.32 C 389.551 223.762 363.215 187.273 338.891 204.828 Z M 335.93 207.383 C 315.012 228.887 347.266 260.266 368.184 238.762 L 370.164 236.727 C 391.082 215.227 358.828 183.848 337.91 205.348 Z M 335.316 208.559 C 318.676 233.52 356.117 258.48 372.758 233.52 L 374.453 230.977 C 391.094 206.016 353.652 181.055 337.012 206.016 Z M 335.242 209.195 C 322.844 236.512 363.82 255.113 376.219 227.797 L 377.492 224.996 C 389.891 197.68 348.914 179.078 336.516 206.395 Z M 335.809 208.141 C 325.734 236.398 368.121 251.512 378.195 223.254 L 379.328 220.074 C 389.402 191.816 347.016 176.703 336.941 204.961 Z M 335.988 208.551 C 330.699 238.078 374.992 246.016 380.285 216.488 L 380.855 213.301 C 386.145 183.77 341.852 175.832 336.559 205.363 Z M 336.406 206.359 C 332.441 236.094 377.043 242.043 381.008 212.305 L 381.434 209.129 C 385.398 179.391 340.793 173.445 336.828 203.18 Z M 336.629 206.152 C 336.629 236.152 381.629 236.152 381.629 206.152 L 381.629 203.105 C 381.629 173.105 336.629 173.105 336.629 203.105 Z M 336.91 206.629 C 341.609 236.258 386.055 229.211 381.352 199.582 L 380.93 196.91 C 376.23 167.281 331.785 174.328 336.484 203.961 Z M 337.113 206.758 C 345.543 235.547 388.73 222.902 380.301 194.113 L 379.59 191.691 C 371.16 162.898 327.977 175.543 336.402 204.332 Z M 338.598 209.406 C 353.789 235.273 392.59 212.488 377.398 186.617 L 376.129 184.453 C 360.938 158.586 322.133 181.371 337.324 207.242 Z M 339.801 210.668 C 359.563 233.238 393.418 203.594 373.652 181.023 L 372.098 179.246 C 352.336 156.676 318.48 186.32 338.242 208.891 Z M 342.766 212.84 C 367.793 229.383 392.605 191.84 367.574 175.297 L 365.457 173.898 C 340.43 157.359 315.617 194.898 340.645 211.441 Z M 344.797 213.602 C 372.707 224.605 389.215 182.742 361.305 171.738 L 359.039 170.844 C 331.129 159.84 314.625 201.703 342.531 212.707 Z M 346.387 213.844 C 375.809 219.707 384.605 175.574 355.184 169.711 L 352.641 169.203 C 323.219 163.34 314.426 207.473 343.848 213.336 Z M 349.379 213.742 C 379.34 212.227 377.07 167.285 347.109 168.797 L 344.555 168.926 C 314.594 170.441 316.867 215.383 346.828 213.871 Z M 351.148 213.227 C 380.254 205.949 369.34 162.293 340.234 169.57 L 337.691 170.207 C 308.59 177.48 319.504 221.137 348.605 213.863 Z M 354.473 211.477 C 380.398 196.379 357.75 157.492 331.828 172.59 L 329.422 173.992 C 303.5 189.09 326.145 227.977 352.07 212.879 Z M 355.781 210.172 C 378.102 190.121 348.027 156.648 325.711 176.695 L 323.445 178.73 C 301.125 198.781 331.199 232.258 353.516 212.207 Z M 356.23 209.297 C 374.668 185.629 339.168 157.977 320.73 181.641 L 318.75 184.184 C 300.313 207.852 335.813 235.504 354.25 211.84 Z M 356.73 207.863 C 369.863 180.891 329.406 161.188 316.27 188.16 L 314.723 191.34 C 301.59 218.313 342.047 238.012 355.18 211.039 Z M 356.32 208.234 C 365.715 179.746 322.98 165.652 313.586 194.145 L 312.453 197.578 C 303.055 226.07 345.793 240.164 355.188 211.672 Z M 356.074 207.949 C 360.504 178.277 316 171.629 311.566 201.301 L 310.996 205.121 C 306.563 234.793 351.07 241.441 355.5 211.773 Z M 355.75 208.449 C 355.75 178.449 310.75 178.449 310.75 208.449 L 310.75 212.391 C 310.75 242.391 355.75 242.391 355.75 212.391 Z M 355.5 209.059 C 351.059 179.387 306.555 186.055 310.996 215.723 L 311.566 219.535 C 316.012 249.203 360.516 242.539 356.07 212.871 Z M 355.164 209.086 C 345.68 180.629 302.988 194.859 312.473 223.316 L 313.746 227.133 C 323.23 255.59 365.922 241.363 356.438 212.902 Z M 354.746 209.066 C 340.145 182.859 300.836 204.758 315.434 230.965 L 317.277 234.273 C 331.879 260.48 371.188 238.582 356.59 212.371 Z M 353.688 208.305 C 333.66 185.965 300.152 216.004 320.18 238.344 L 322.574 241.016 C 342.602 263.352 376.105 233.313 356.082 210.973 Z M 351.508 207.078 C 326.285 190.836 301.922 228.668 327.145 244.91 L 330.121 246.828 C 355.344 263.07 379.707 225.234 354.484 208.992 Z M 351.508 207.078"/></g></g></g></svg>
</svg>