<?xml version="1.0" standalone="no"?>
<svg height="47.052" preserveAspectRatio="none" viewBox="0.000 0.000 87.350 47.052" width="87.350" x="0.000" xmlns="http://www.w3.org/2000/svg" xmlns:svg="http://www.w3.org/2000/svg" xmlns:xlink="http://www.w3.org/1999/xlink" y="0.000">
<svg width="87.35" height="47.052" xmlns="http://www.w3.org/2000/svg"><defs><clipPath id="U5ILGkCfclipPath1"><path fill="#000000" stroke="none" d="M 0 0 L 87.35 0 L 87.35 47.052 L 0 47.052 Z"/></clipPath></defs><g transform="matrix(1.0000002 0 0 0.99999994 -482.75812 -370.44196)"><g transform="matrix(1 0 0 1 482.75833 370.44217)"><g clip-path="url(#U5ILGkCfclipPath1)"><path fill="#f57c3a" stroke="none" d="M 8.492 24.594 C 8.48 24.602 8.496 24.617 8.508 24.609 L 8.621 24.629 C 8.719 24.551 8.605 24.402 8.504 24.477 Z M 8.539 24.461 C 8.418 24.488 8.461 24.676 8.582 24.645 L 8.793 24.695 C 9.039 24.637 8.953 24.266 8.703 24.324 Z M 8.703 24.324 C 8.457 24.383 8.547 24.754 8.793 24.695 L 9.191 24.75 C 9.633 24.645 9.473 23.988 9.035 24.094 Z M 9.016 24.098 C 8.586 24.227 8.777 24.875 9.207 24.746 L 9.879 24.777 C 10.594 24.566 10.281 23.496 9.563 23.707 Z M 9.609 23.695 C 8.879 23.844 9.102 24.938 9.832 24.789 L 10.926 24.879 C 12.059 24.652 11.715 22.957 10.582 23.184 Z M 10.586 23.184 C 9.453 23.41 9.797 25.109 10.926 24.879 L 12.461 24.945 C 14.07 24.621 13.586 22.207 11.973 22.531 Z M 12.02 22.523 C 10.395 22.785 10.793 25.219 12.414 24.953 L 14.422 25.035 C 16.57 24.684 16.043 21.457 13.895 21.809 Z M 13.934 21.805 C 11.773 22.102 12.223 25.34 14.383 25.039 L 16.918 25.102 C 19.617 24.727 19.055 20.68 16.355 21.055 Z M 16.402 21.047 C 13.695 21.363 14.168 25.422 16.875 25.105 L 20.004 25.129 C 23.223 24.754 22.66 19.93 19.441 20.305 Z M 19.539 20.297 C 16.309 20.539 16.676 25.383 19.906 25.141 L 23.551 25.188 C 27.207 24.91 26.793 19.422 23.137 19.699 Z M 23.219 19.695 C 19.555 19.859 19.801 25.359 23.465 25.191 L 27.637 25.234 C 31.605 25.055 31.34 19.098 27.367 19.277 Z M 27.426 19.277 C 23.449 19.379 23.605 25.34 27.578 25.238 L 32.094 25.273 C 36.27 25.168 36.109 18.898 31.93 19.008 Z M 32.02 19.008 C 27.84 18.996 27.824 25.266 32.004 25.273 L 36.809 25.379 C 41.113 25.391 41.129 18.934 36.824 18.922 Z M 36.832 18.922 C 32.527 18.902 32.496 25.359 36.801 25.379 L 41.848 25.445 C 46.203 25.465 46.234 18.93 41.879 18.91 Z M 41.914 18.91 C 37.559 18.84 37.457 25.375 41.813 25.441 L 46.852 25.504 C 51.18 25.57 51.281 19.078 46.953 19.008 Z M 46.949 19.008 C 42.621 18.945 42.527 25.441 46.855 25.504 L 51.836 25.477 C 56.035 25.535 56.125 19.238 51.93 19.18 Z M 51.887 19.18 C 47.688 19.176 47.68 25.473 51.879 25.477 L 56.566 25.242 C 60.449 25.246 60.453 19.422 56.574 19.422 Z M 56.598 19.422 C 52.715 19.383 52.66 25.203 56.539 25.242 L 60.988 24.906 C 64.359 24.938 64.41 19.883 61.039 19.848 Z M 60.992 19.848 C 57.617 19.875 57.664 24.934 61.035 24.906 L 65.055 24.324 C 67.699 24.301 67.664 20.336 65.02 20.359 Z M 65.035 20.359 C 62.391 20.363 62.395 24.328 65.039 24.324 L 68.641 23.676 C 70.426 23.672 70.422 20.996 68.641 21 Z M 68.625 21 C 66.844 21.02 66.875 23.695 68.656 23.676 L 71.777 23.027 C 72.746 23.016 72.73 21.563 71.762 21.574 Z M 71.781 21.574 C 70.813 21.555 70.789 23.008 71.758 23.027 L 74.402 22.66 C 74.816 22.668 74.828 22.047 74.414 22.039 Z M 74.41 22.039 C 73.996 22.035 73.992 22.656 74.406 22.66 L 76.508 22.461 C 76.641 22.461 76.641 22.266 76.508 22.262 Z M 76.508 22.262 C 76.375 22.266 76.379 22.465 76.508 22.461 L 77.953 22.359 C 77.98 22.359 77.977 22.32 77.953 22.324 Z M 77.953 22.324 C 77.93 22.32 77.926 22.359 77.953 22.359 L 78.852 22.395 Z M 77.953 22.324"/><path fill="#f57c3a" stroke="none" d="M 13.176 23.633 C 13.176 23.641 13.188 23.641 13.188 23.633 L 13.199 23.582 C 13.199 23.559 13.172 23.559 13.168 23.578 Z M 13.172 23.59 C 13.188 23.605 13.211 23.582 13.195 23.57 L 13.156 23.496 C 13.121 23.461 13.07 23.512 13.105 23.547 Z M 13.098 23.539 C 13.117 23.578 13.184 23.551 13.16 23.508 L 13.145 23.379 C 13.102 23.289 12.965 23.355 13.008 23.445 Z M 13.023 23.465 C 13.094 23.539 13.203 23.434 13.133 23.359 L 13.066 23.195 C 12.93 23.055 12.723 23.262 12.859 23.398 Z M 12.832 23.359 C 12.918 23.535 13.18 23.406 13.094 23.23 L 13.133 23.07 C 12.984 22.77 12.531 22.996 12.68 23.297 Z M 12.727 23.359 C 12.965 23.602 13.32 23.246 13.086 23.008 L 13.078 22.793 C 12.707 22.414 12.141 22.973 12.512 23.352 Z M 12.516 23.355 C 12.895 23.727 13.453 23.16 13.074 22.789 L 13.137 22.605 C 12.594 22.07 11.793 22.887 12.336 23.422 Z M 12.793 22.055 C 11.512 21.98 11.402 23.898 12.68 23.973 L 12.73 24.188 C 14.293 24.277 14.43 21.938 12.867 21.848 Z M 12.867 21.848 C 11.309 21.754 11.172 24.098 12.73 24.188 L 12.957 24.426 C 14.813 24.531 14.977 21.746 13.117 21.637 Z M 13.574 21.742 C 11.859 21.027 10.781 23.602 12.5 24.32 L 12.703 24.652 C 14.703 25.488 15.953 22.488 13.957 21.656 Z M 13.895 21.629 C 11.863 20.879 10.738 23.926 12.77 24.676 L 13.219 25.082 C 15.531 25.938 16.813 22.469 14.5 21.617 Z M 14.563 21.641 C 12.285 20.703 10.879 24.121 13.156 25.059 L 13.84 25.57 C 16.379 26.617 17.949 22.805 15.41 21.758 Z M 15.535 21.813 C 13.066 20.602 11.246 24.301 13.715 25.516 L 14.625 26.168 C 17.313 27.488 19.293 23.461 16.609 22.137 Z M 16.594 22.129 C 13.895 20.828 11.945 24.875 14.641 26.176 L 15.863 26.918 C 18.727 28.297 20.797 24.004 17.934 22.625 Z M 17.969 22.641 C 15.129 21.215 12.988 25.473 15.828 26.902 L 17.367 27.773 C 20.313 29.254 22.531 24.836 19.586 23.355 Z M 19.645 23.387 C 16.742 21.828 14.402 26.18 17.305 27.742 L 19.086 28.758 C 22.055 30.352 24.445 25.902 21.477 24.309 Z M 21.5 24.32 C 18.551 22.695 16.113 27.121 19.063 28.746 L 21.027 29.863 C 24.012 31.508 26.48 27.027 23.496 25.383 Z M 23.512 25.395 C 20.535 23.727 18.039 28.188 21.012 29.855 L 23.156 31.078 C 26.148 32.754 28.668 28.262 25.672 26.582 Z M 25.648 26.57 C 22.637 24.922 20.164 29.441 23.176 31.09 L 25.383 32.309 C 28.406 33.965 30.891 29.426 27.863 27.77 Z M 27.883 27.781 C 24.875 26.098 22.352 30.617 25.363 32.297 L 27.633 33.566 C 30.645 35.25 33.172 30.73 30.156 29.047 Z M 30.156 29.047 C 27.145 27.359 24.617 31.883 27.629 33.566 L 29.902 34.82 C 32.898 36.496 35.41 32.004 32.414 30.328 Z M 32.438 30.34 C 29.457 28.637 26.902 33.105 29.883 34.809 L 32.125 36.012 C 35.027 37.672 37.516 33.32 34.613 31.66 Z M 34.602 31.656 C 31.691 30.012 29.227 34.379 32.141 36.02 L 34.25 37.027 C 36.977 38.566 39.281 34.48 36.559 32.941 Z M 36.609 32.973 C 33.922 31.367 31.516 35.395 34.203 37 L 36.137 37.844 C 38.516 39.27 40.648 35.699 38.27 34.277 Z M 38.238 34.258 C 35.836 32.879 33.766 36.484 36.168 37.863 L 37.938 38.422 C 39.883 39.539 41.559 36.621 39.613 35.504 Z M 39.652 35.527 C 37.738 34.355 35.984 37.227 37.898 38.398 L 39.434 38.746 C 40.773 39.563 42 37.555 40.664 36.738 Z M 40.613 36.711 C 39.238 35.957 38.105 38.02 39.484 38.773 L 40.715 38.871 C 41.5 39.301 42.141 38.129 41.359 37.699 Z M 41.281 37.66 C 40.449 37.336 39.965 38.582 40.793 38.906 L 41.574 38.82 C 41.949 38.969 42.172 38.402 41.797 38.254 Z M 41.703 38.234 C 41.301 38.211 41.266 38.816 41.668 38.84 L 41.922 38.656 C 42.059 38.664 42.07 38.457 41.934 38.449 Z M 41.832 38.59 C 41.883 38.719 42.074 38.641 42.023 38.512 L 41.785 38.16 C 41.773 38.133 41.734 38.148 41.746 38.176 Z M 41.75 38.18 C 41.766 38.203 41.801 38.176 41.781 38.152 L 41.152 37.426 C 41.152 37.422 41.148 37.426 41.148 37.426 Z M 41.148 37.43 C 41.152 37.43 41.152 37.426 41.152 37.426 L 40.191 36.344 Z M 41.148 37.43"/><path fill="#f57c3a" stroke="none" d="M 39.973 8.531 C 39.965 8.527 39.961 8.535 39.965 8.543 L 40.004 8.582 C 40.02 8.594 40.039 8.566 40.02 8.555 Z M 40.012 8.555 C 39.988 8.559 39.996 8.586 40.016 8.582 L 40.098 8.59 C 40.145 8.582 40.133 8.512 40.086 8.52 Z M 40.094 8.52 C 40.047 8.512 40.039 8.582 40.086 8.59 L 40.203 8.645 C 40.301 8.656 40.32 8.508 40.219 8.492 Z M 40.195 8.496 C 40.098 8.516 40.129 8.664 40.227 8.641 L 40.398 8.68 C 40.59 8.641 40.531 8.355 40.344 8.395 Z M 40.387 8.391 C 40.191 8.371 40.16 8.66 40.355 8.68 L 40.469 8.801 C 40.805 8.84 40.859 8.336 40.523 8.297 Z M 40.445 8.301 C 40.113 8.371 40.215 8.867 40.547 8.797 L 40.73 8.906 C 41.25 8.801 41.09 8.023 40.57 8.129 Z M 40.563 8.133 C 40.047 8.246 40.223 9.02 40.738 8.906 L 40.855 9.059 C 41.602 8.891 41.352 7.773 40.605 7.941 Z M 41.508 9.07 C 42.27 8.035 40.715 6.895 39.953 7.93 L 39.746 7.855 C 38.82 9.117 40.715 10.508 41.641 9.246 Z M 41.641 9.246 C 42.566 7.98 40.672 6.594 39.746 7.855 L 39.426 7.914 C 38.32 9.418 40.578 11.074 41.68 9.57 Z M 41.344 9.895 C 42.883 8.84 41.301 6.535 39.762 7.59 L 39.371 7.582 C 37.586 8.809 39.426 11.488 41.211 10.262 Z M 41.266 10.223 C 43 8.926 41.051 6.324 39.316 7.621 L 38.734 7.785 C 36.766 9.258 38.977 12.211 40.945 10.738 Z M 40.891 10.777 C 42.914 9.375 40.813 6.344 38.789 7.742 L 37.984 8.035 C 35.719 9.602 38.07 12.996 40.336 11.43 Z M 40.223 11.504 C 42.582 10.09 40.461 6.543 38.098 7.961 L 37.055 8.371 C 34.484 9.91 36.793 13.77 39.367 12.23 Z M 39.383 12.219 C 41.941 10.66 39.602 6.82 37.043 8.379 L 35.754 9 C 33.031 10.656 35.516 14.738 38.238 13.082 Z M 38.203 13.102 C 40.949 11.488 38.535 7.367 35.785 8.98 L 34.219 9.797 C 31.371 11.469 33.875 15.742 36.727 14.07 Z M 36.668 14.105 C 39.559 12.512 37.168 8.172 34.277 9.766 L 32.461 10.715 C 29.516 12.336 31.949 16.754 34.895 15.133 Z M 34.871 15.145 C 37.832 13.555 35.445 9.109 32.484 10.699 L 30.477 11.738 C 27.473 13.352 29.895 17.855 32.895 16.242 Z M 32.879 16.254 C 35.895 14.66 33.508 10.141 30.492 11.73 L 28.301 12.863 C 25.258 14.469 27.668 19.031 30.711 17.426 Z M 30.734 17.414 C 33.758 15.777 31.301 11.238 28.277 12.875 L 26.055 14.063 C 23.02 15.707 25.484 20.266 28.523 18.621 Z M 28.504 18.633 C 31.555 17.016 29.129 12.438 26.074 14.055 L 23.777 15.27 C 20.727 16.887 23.152 21.469 26.203 19.852 Z M 26.203 19.852 C 29.258 18.234 26.832 13.652 23.781 15.27 L 21.492 16.496 C 18.453 18.105 20.863 22.664 23.906 21.055 Z M 23.883 21.066 C 26.938 19.488 24.566 14.902 21.512 16.484 L 19.281 17.715 C 16.309 19.25 18.613 23.711 21.59 22.176 Z M 21.602 22.168 C 24.566 20.613 22.234 16.168 19.27 17.719 L 17.277 18.953 C 14.508 20.402 16.684 24.559 19.453 23.105 Z M 19.402 23.133 C 22.207 21.75 20.133 17.543 17.328 18.926 L 15.566 20.094 C 13.086 21.316 14.922 25.039 17.402 23.816 Z M 17.434 23.801 C 19.895 22.535 17.996 18.844 15.535 20.109 L 14.105 21.285 C 12.105 22.313 13.648 25.309 15.645 24.281 Z M 15.605 24.301 C 17.629 23.332 16.172 20.293 14.145 21.266 L 13.02 22.371 C 11.609 23.051 12.625 25.168 14.039 24.488 Z M 14.086 24.465 C 15.465 23.723 14.352 21.652 12.973 22.398 L 12.219 23.375 C 11.43 23.801 12.066 24.98 12.855 24.559 Z M 12.93 24.512 C 13.656 23.988 12.871 22.898 12.145 23.422 L 11.797 24.125 C 11.469 24.359 11.82 24.852 12.148 24.617 Z M 12.219 24.551 C 12.457 24.227 11.969 23.867 11.73 24.191 L 11.746 24.508 C 11.664 24.617 11.832 24.738 11.914 24.629 Z M 11.848 24.465 C 11.711 24.441 11.676 24.645 11.813 24.668 L 12.238 24.664 C 12.266 24.668 12.273 24.625 12.246 24.621 Z M 12.238 24.621 C 12.207 24.621 12.215 24.664 12.242 24.664 L 13.195 24.527 C 13.199 24.527 13.199 24.527 13.195 24.527 Z M 13.195 24.527 C 13.191 24.527 13.191 24.531 13.195 24.527 L 14.625 24.309 Z M 13.195 24.527"/></g></g></g></svg>
</svg>