<?xml version="1.0" standalone="no"?>
<svg height="94.031" preserveAspectRatio="none" viewBox="0.000 0.000 88.527 94.031" width="88.527" x="0.000" xmlns="http://www.w3.org/2000/svg" xmlns:svg="http://www.w3.org/2000/svg" xmlns:xlink="http://www.w3.org/1999/xlink" y="0.000">
<svg width="88.527" height="94.031" xmlns="http://www.w3.org/2000/svg"><defs><clipPath id="CZ2eKWsyclipPath1"><path fill="#000000" stroke="none" d="M 0 0 L 88.527 0 L 88.527 94.031 L 0 94.031 Z"/></clipPath></defs><g transform="matrix(1.0000002 0 0 0.99999994 -759.2192 -310.27698)"><g transform="matrix(1 0 0 1 759.21875 310.27686)"><g clip-path="url(#CZ2eKWsyclipPath1)"><path fill="#0066cc" stroke="none" d="M 52.438 48.715 C 52.438 48.762 52.504 48.762 52.504 48.715 L 52.578 48.684 C 52.578 48.543 52.363 48.543 52.363 48.684 Z M 52.375 48.738 C 52.445 48.863 52.633 48.758 52.563 48.633 L 52.668 48.496 C 52.496 48.191 52.035 48.449 52.207 48.754 Z M 52.176 48.625 C 52.176 48.977 52.699 48.977 52.699 48.625 L 52.965 48.566 C 52.965 47.859 51.91 47.859 51.91 48.566 Z M 51.91 48.566 C 51.91 49.27 52.965 49.27 52.965 48.566 L 53.344 48.504 C 53.344 47.293 51.531 47.293 51.531 48.504 Z M 51.633 48.926 C 52.199 50 53.805 49.152 53.242 48.082 L 53.641 47.797 C 52.773 46.152 50.309 47.449 51.176 49.094 Z M 51.016 48.445 C 51.016 50.301 53.801 50.301 53.801 48.445 L 54.367 48.383 C 54.367 45.77 50.445 45.77 50.445 48.383 Z M 51.035 49.785 C 52.906 51.613 55.648 48.809 53.777 46.98 L 54.188 46.5 C 51.715 44.086 48.094 47.793 50.563 50.207 Z M 52.375 50.945 C 55.832 50.945 55.832 45.762 52.375 45.762 L 52.313 45.137 C 48.023 45.137 48.023 51.57 52.313 51.57 Z M 53.289 51.418 C 57.375 50.117 55.422 43.984 51.336 45.289 L 51.059 44.754 C 46.219 46.297 48.531 53.559 53.375 52.016 Z M 53.59 51.938 C 58.328 50.109 55.582 43 50.844 44.828 L 50.469 44.332 C 44.984 46.449 48.16 54.676 53.645 52.559 Z M 53.938 52.434 C 59.258 49.926 55.496 41.949 50.176 44.457 L 49.676 44.055 C 43.664 46.891 47.918 55.91 53.93 53.074 Z M 54.816 52.539 C 60.113 48.52 54.086 40.574 48.789 44.594 L 48.129 44.379 C 42.227 48.855 48.941 57.711 54.844 53.23 Z M 54.457 53.5 C 60.719 49.539 54.777 40.148 48.516 44.109 L 47.734 43.926 C 40.828 48.297 47.379 58.656 54.289 54.285 Z M 54.961 53.793 C 61.211 48.527 53.313 39.152 47.063 44.418 L 46.16 44.512 C 39.391 50.215 47.945 60.371 54.719 54.668 Z M 54.566 54.789 C 61.5 49.285 53.246 38.883 46.313 44.387 L 45.398 44.801 C 38.207 50.504 46.766 61.293 53.957 55.586 Z M 54.238 55.352 C 61.117 49.27 51.996 38.953 45.117 45.035 L 44.195 45.848 C 37.32 51.926 46.441 62.246 53.316 56.164 Z M 53.418 56.074 C 60.176 49.859 50.855 39.723 44.098 45.938 L 42.984 46.961 C 36.227 53.176 45.551 63.313 52.305 57.098 Z M 52.328 57.078 C 59.059 50.836 49.695 40.738 42.965 46.98 L 41.664 48.184 C 34.93 54.426 44.293 64.523 51.027 58.285 Z M 51.031 58.281 C 57.758 52.031 48.387 41.941 41.66 48.191 L 40.133 49.605 C 33.406 55.852 42.781 65.941 49.508 59.695 Z M 49.602 59.605 C 56.207 53.23 46.645 43.32 40.039 49.695 L 38.355 51.32 C 31.75 57.695 41.313 67.605 47.918 61.23 Z M 47.879 61.266 C 54.535 54.945 45.051 44.961 38.395 51.281 L 36.492 53.09 C 29.836 59.41 39.316 69.398 45.977 63.074 Z M 45.977 63.074 C 52.633 56.75 43.148 46.766 36.492 53.09 L 34.43 55.047 C 27.773 61.371 37.258 71.355 43.914 65.031 Z M 43.91 65.039 C 50.57 58.723 41.098 48.727 34.438 55.043 L 32.215 57.148 C 25.551 63.465 35.023 73.461 41.688 67.145 Z M 41.656 67.172 C 48.355 60.895 38.941 50.848 32.242 57.121 L 29.863 59.352 C 23.164 65.629 32.578 75.676 39.277 69.402 Z M 39.246 69.43 C 45.984 63.195 36.633 53.086 29.895 59.324 L 27.387 61.645 C 20.648 67.879 30 77.984 36.738 71.75 Z M 36.676 71.809 C 43.492 65.66 34.266 55.434 27.449 61.586 L 24.848 63.934 C 18.031 70.082 27.254 80.309 34.07 74.156 Z M 34.105 74.129 C 40.883 67.934 31.59 57.77 24.813 63.965 L 22.211 66.344 C 15.434 72.535 24.727 82.699 31.5 76.508 Z M 31.531 76.48 C 38.27 70.246 28.922 60.137 22.18 66.371 L 19.641 68.719 C 12.902 74.953 22.254 85.063 28.992 78.828 Z M 29.059 78.766 C 35.715 72.445 26.234 62.457 19.578 68.777 L 17.164 71.07 C 10.504 77.391 19.984 87.375 26.645 81.059 Z M 26.68 81.023 C 33.293 74.656 23.742 64.734 17.129 71.102 L 14.91 73.238 C 8.297 79.605 17.848 89.527 24.461 83.16 Z M 24.578 83.043 C 31.035 76.516 21.246 66.832 14.789 73.359 L 12.82 75.348 C 6.363 81.871 16.152 91.559 22.609 85.031 Z M 22.754 84.883 C 29.012 78.164 18.934 68.777 12.676 75.496 L 10.996 77.305 C 4.738 84.023 14.816 93.406 21.074 86.688 Z M 21.121 86.637 C 27.309 79.855 17.137 70.574 10.945 77.355 L 9.52 78.922 C 3.328 85.703 13.504 94.984 19.691 88.203 Z M 19.988 87.855 C 25.711 80.672 14.941 72.094 9.219 79.273 L 8.938 81.262 C 4.063 87.379 13.238 94.691 18.113 88.574 Z M 18.262 88.379 C 22.875 82.063 13.402 75.141 8.789 81.457 L 9.234 83.445 C 5.824 88.109 12.824 93.223 16.234 88.559 Z M 16.531 88.086 C 19.313 83.02 11.715 78.852 8.934 83.914 L 9.992 85.477 C 8.285 88.582 12.945 91.141 14.648 88.035 Z M 14.941 87.184 C 15.516 83.691 10.27 82.828 9.699 86.324 L 10.922 86.926 C 10.633 88.703 13.297 89.141 13.586 87.363 Z M 12.129 85.801 C 10.336 85.973 10.59 88.66 12.383 88.488 L 12.625 87.668 C 13.363 87.598 13.258 86.492 12.523 86.563 Z M 12.254 86.664 C 11.648 87.094 12.293 87.996 12.895 87.566 L 13.305 86.801 C 13.484 86.672 13.293 86.398 13.113 86.527 Z M 13.086 86.551 C 12.934 86.711 13.176 86.938 13.328 86.777 L 14.086 85.781 C 14.113 85.754 14.07 85.711 14.043 85.742 Z M 14.043 85.742 C 14.02 85.773 14.063 85.809 14.086 85.777 L 15.145 84.438 C 15.148 84.434 15.145 84.434 15.145 84.434 Z M 15.145 84.434 C 15.141 84.438 15.145 84.438 15.145 84.438 L 16.316 82.781 Z M 15.145 84.434"/><path fill="#f26419" stroke="none" d="M 79.949 11.227 C 79.941 11.227 79.941 11.234 79.949 11.234 L 80.172 11.254 C 80.199 11.254 80.199 11.207 80.172 11.207 Z M 80.172 11.207 C 80.141 11.207 80.141 11.254 80.172 11.254 L 80.449 11.297 C 80.539 11.297 80.539 11.164 80.449 11.164 Z M 80.457 11.164 C 80.367 11.16 80.359 11.289 80.445 11.297 L 80.832 11.379 C 81 11.391 81.016 11.145 80.852 11.133 Z M 80.844 11.133 C 80.676 11.133 80.676 11.379 80.844 11.379 L 81.148 11.453 C 81.41 11.453 81.41 11.059 81.148 11.059 Z M 81.148 11.059 C 80.883 11.059 80.883 11.453 81.148 11.453 L 81.398 11.547 C 81.789 11.547 81.789 10.965 81.398 10.965 Z M 81.367 10.969 C 80.98 11.012 81.047 11.59 81.434 11.543 L 81.668 11.645 C 82.223 11.582 82.129 10.754 81.574 10.816 Z M 81.406 10.871 C 80.93 11.156 81.359 11.875 81.836 11.59 L 82.094 11.637 C 82.77 11.234 82.16 10.219 81.488 10.625 Z M 81.395 10.691 C 80.809 11.215 81.598 12.094 82.184 11.57 L 82.465 11.602 C 83.262 10.891 82.191 9.695 81.395 10.406 Z M 81.176 10.727 C 80.805 11.727 82.309 12.285 82.68 11.285 L 82.988 11.141 C 83.469 9.844 81.52 9.121 81.039 10.418 Z M 80.98 10.66 C 80.82 12.035 82.887 12.273 83.043 10.898 L 83.316 10.676 C 83.516 8.977 80.965 8.68 80.766 10.379 Z M 80.762 10.641 C 80.914 12.348 83.473 12.121 83.32 10.414 L 83.535 10.066 C 83.355 8.035 80.313 8.309 80.492 10.336 Z M 80.52 10.531 C 80.965 12.523 83.945 11.859 83.504 9.871 L 83.633 9.445 C 83.129 7.176 79.723 7.934 80.227 10.203 Z M 80.32 10.496 C 81.211 12.645 84.434 11.301 83.539 9.156 L 83.539 8.684 C 82.551 6.316 79 7.797 79.988 10.164 Z M 80.078 10.355 C 81.324 12.598 84.688 10.734 83.445 8.492 L 83.313 7.973 C 81.98 5.57 78.379 7.566 79.711 9.969 Z M 79.855 10.199 C 81.492 12.402 84.801 9.949 83.164 7.742 L 82.918 7.23 C 81.195 4.906 77.715 7.492 79.438 9.813 Z M 79.547 9.949 C 81.453 12.121 84.711 9.262 82.805 7.09 L 82.449 6.555 C 80.469 4.301 77.082 7.273 79.063 9.527 Z M 79.25 9.719 C 81.484 11.723 84.496 8.375 82.262 6.367 L 81.805 5.867 C 79.504 3.797 76.402 7.25 78.703 9.316 Z M 79.023 9.555 C 81.645 11.199 84.105 7.266 81.484 5.625 L 80.871 5.176 C 78.191 3.496 75.672 7.52 78.352 9.199 Z M 78.605 9.34 C 81.473 10.684 83.488 6.383 80.621 5.039 L 79.887 4.648 C 76.969 3.281 74.918 7.656 77.836 9.023 Z M 78.207 9.16 C 81.309 10.031 82.613 5.379 79.512 4.512 L 78.625 4.227 C 75.484 3.348 74.16 8.063 77.305 8.941 Z M 77.734 9.023 C 80.984 9.328 81.445 4.453 78.195 4.148 L 77.137 4.02 C 73.852 3.711 73.387 8.641 76.672 8.949 Z M 77.098 8.953 C 80.391 8.699 80.004 3.762 76.715 4.016 L 75.426 4.09 C 72.102 4.348 72.488 9.34 75.816 9.082 Z M 76.105 9.043 C 79.379 8.398 78.414 3.484 75.141 4.129 L 73.598 4.398 C 70.277 5.051 71.254 10.027 74.574 9.375 Z M 74.867 9.301 C 78.086 8.258 76.523 3.43 73.305 4.473 L 71.504 5.008 C 68.23 6.07 69.82 10.98 73.094 9.922 Z M 73.25 9.867 C 76.449 8.602 74.551 3.801 71.352 5.066 L 69.238 5.84 C 65.965 7.133 67.906 12.039 71.176 10.746 Z M 71.344 10.676 C 74.52 9.16 72.25 4.398 69.074 5.91 L 66.664 6.969 C 63.395 8.527 65.73 13.438 69.004 11.879 Z M 69.113 11.824 C 72.313 10.121 69.758 5.32 66.559 7.023 L 63.914 8.32 C 60.602 10.082 63.246 15.055 66.563 13.293 Z M 66.699 13.215 C 69.91 11.27 66.992 6.449 63.777 8.395 L 60.898 10 C 57.547 12.027 60.59 17.059 63.945 15.027 Z M 64.09 14.934 C 67.316 12.711 63.98 7.867 60.754 10.09 L 57.688 12.035 C 54.309 14.363 57.801 19.434 61.18 17.105 Z M 61.336 16.988 C 64.563 14.453 60.758 9.613 57.531 12.152 L 54.34 14.473 C 50.961 17.129 54.949 22.199 58.328 19.543 Z M 58.473 19.422 C 61.691 16.574 57.422 11.742 54.199 14.59 L 50.922 17.293 C 47.555 20.27 52.02 25.32 55.387 22.344 Z M 55.527 22.215 C 58.719 19.047 53.973 14.262 50.781 17.426 L 47.422 20.57 C 44.102 23.859 49.039 28.836 52.355 25.547 Z M 52.48 25.414 C 55.625 21.957 50.438 17.242 47.297 20.699 L 43.941 24.207 C 40.688 27.785 46.051 32.664 49.305 29.09 Z M 49.414 28.965 C 52.5 25.246 46.922 20.613 43.832 24.332 L 40.539 28.129 C 37.359 31.961 43.105 36.73 46.285 32.902 Z M 46.375 32.785 C 49.402 28.836 43.477 24.293 40.449 28.246 L 37.27 32.223 C 34.156 36.285 40.246 40.953 43.359 36.891 Z M 43.445 36.773 C 46.402 32.598 40.137 28.164 37.18 32.34 L 34.172 36.43 C 31.141 40.711 37.566 45.254 40.594 40.973 Z M 40.672 40.859 C 43.551 36.473 36.969 32.156 34.094 36.543 L 31.277 40.66 C 28.328 45.152 35.07 49.574 38.02 45.082 Z M 38.125 44.906 C 40.844 40.27 33.887 36.195 31.168 40.832 L 28.625 44.973 C 25.84 49.73 32.973 53.91 35.758 49.152 Z M 35.863 48.965 C 38.398 44.074 31.059 40.266 28.523 45.16 L 26.281 49.254 C 23.676 54.273 31.203 58.176 33.805 53.156 Z M 33.898 52.969 C 36.25 47.828 28.539 44.305 26.188 49.445 L 24.23 53.496 C 21.828 58.754 29.711 62.355 32.113 57.102 Z M 32.219 56.848 C 34.285 51.449 26.188 48.352 24.125 53.75 L 22.535 57.66 C 20.43 63.168 28.688 66.328 30.797 60.82 Z M 30.895 60.531 C 32.617 54.895 24.16 52.309 22.438 57.949 L 21.215 61.664 C 19.457 67.41 28.074 70.043 29.828 64.301 Z M 29.926 63.922 C 31.18 58.047 22.367 56.168 21.117 62.043 L 20.289 65.566 C 19.02 71.535 27.973 73.445 29.242 67.477 Z M 29.316 67.023 C 29.984 60.957 20.883 59.957 20.219 66.023 L 19.789 69.305 C 19.109 75.461 28.344 76.477 29.023 70.32 Z M 29.047 69.727 C 28.938 63.535 19.648 63.703 19.762 69.895 L 19.762 72.934 C 19.875 79.199 29.27 79.031 29.156 72.766 Z M 29.082 72.016 C 27.969 65.848 18.723 67.52 19.836 73.684 L 20.289 76.48 C 21.418 82.711 30.762 81.023 29.637 74.793 Z M 29.426 74.02 C 27.27 68.066 18.34 71.305 20.5 77.254 L 21.352 79.73 C 23.531 85.734 32.535 82.469 30.359 76.465 Z M 29.961 75.629 C 26.668 70.156 18.461 75.094 21.75 80.566 L 23.012 82.715 C 26.32 88.219 34.574 83.254 31.266 77.75 Z M 30.602 76.887 C 26.141 72.27 19.215 78.961 23.676 83.578 L 25.336 85.328 C 29.816 89.969 36.777 83.242 32.293 78.602 Z M 31.426 77.891 C 25.992 74.41 20.77 82.559 26.203 86.039 L 28.234 87.359 C 33.684 90.852 38.922 82.676 33.469 79.184 Z M 32.555 78.723 C 26.492 76.453 23.086 85.547 29.148 87.816 L 31.484 88.711 C 37.57 90.992 40.992 81.867 34.906 79.586 Z M 33.969 79.336 C 27.555 78.305 26.004 87.926 32.422 88.961 L 35.07 89.402 C 41.504 90.438 43.059 80.789 36.625 79.75 Z M 35.848 79.688 C 29.332 79.688 29.332 89.465 35.848 89.465 L 38.777 89.473 C 45.309 89.473 45.309 79.68 38.777 79.68 Z M 38.172 79.719 C 31.691 80.527 32.91 90.246 39.387 89.438 L 42.598 89.043 C 49.086 88.23 47.867 78.496 41.379 79.309 Z M 40.914 79.387 C 34.531 80.824 36.684 90.395 43.063 88.961 L 46.41 88.203 C 52.789 86.77 50.637 77.207 44.262 78.641 Z M 43.887 78.742 C 37.645 80.676 40.547 90.039 46.789 88.102 L 50.188 87.027 C 56.402 85.098 53.512 75.777 47.297 77.707 Z M 46.988 77.813 C 40.918 80.152 44.426 89.258 50.496 86.918 L 53.801 85.59 C 59.805 83.277 56.336 74.266 50.328 76.582 Z M 49.984 76.73 C 44.176 79.5 48.336 88.215 54.145 85.441 L 57.266 83.867 C 62.98 81.141 58.891 72.566 53.172 75.293 Z M 52.906 75.43 C 47.375 78.512 51.996 86.813 57.531 83.73 L 60.414 82.012 C 65.828 78.992 61.305 70.867 55.887 73.883 Z M 55.645 74.031 C 50.422 77.375 55.434 85.207 60.656 81.863 L 63.297 80.023 C 68.375 76.773 63.5 69.152 58.418 72.406 Z M 58.176 72.57 C 53.316 76.145 58.68 83.434 63.539 79.859 L 65.914 77.941 C 70.625 74.477 65.426 67.406 60.711 70.871 Z M 60.484 71.051 C 56.012 74.824 61.668 81.535 66.141 77.762 L 68.234 75.832 C 72.578 72.168 67.086 65.652 62.742 69.316 Z M 62.488 69.551 C 58.457 73.555 64.461 79.602 68.492 75.598 L 70.281 73.656 C 74.207 69.762 68.359 63.875 64.438 67.773 Z M 64.188 68.047 C 60.629 72.281 66.977 77.617 70.535 73.383 L 72.02 71.461 C 75.492 67.328 69.297 62.121 65.824 66.254 Z M 65.582 66.566 C 62.531 71.02 69.211 75.598 72.262 71.145 L 73.453 69.27 C 76.445 64.902 69.898 60.414 66.906 64.781 Z M 66.645 65.223 C 64.238 69.934 71.309 73.543 73.715 68.828 L 74.578 66.992 C 76.945 62.352 69.988 58.805 67.621 63.441 Z M 67.379 64.035 C 65.805 68.996 73.246 71.359 74.82 66.398 L 75.328 64.625 C 76.883 59.73 69.543 57.402 67.988 62.293 Z M 67.84 62.965 C 67.184 68.059 74.82 69.043 75.477 63.953 L 75.641 62.211 C 76.289 57.199 68.77 56.227 68.121 61.242 Z M 68.113 62.113 C 68.629 67.141 76.168 66.367 75.652 61.34 L 75.43 59.715 C 74.922 54.762 67.492 55.523 68 60.477 Z M 68.176 61.281 C 69.758 66.004 76.84 63.625 75.254 58.906 L 74.668 57.344 C 73.109 52.699 66.141 55.035 67.699 59.684 Z M 68.023 60.387 C 70.52 64.602 76.844 60.855 74.348 56.641 L 73.402 55.164 C 70.945 51.016 64.723 54.699 67.18 58.848 Z M 67.648 59.473 C 70.938 63 76.223 58.066 72.938 54.539 L 71.582 53.172 C 68.344 49.703 63.141 54.559 66.375 58.027 Z M 66.742 58.363 C 70.43 61.348 74.906 55.816 71.215 52.832 L 69.508 51.52 C 65.875 48.582 61.469 54.031 65.102 56.969 Z M 65.457 57.223 C 69.426 59.684 73.121 53.73 69.152 51.27 L 67.059 50.027 C 63.148 47.602 59.508 53.469 63.418 55.895 Z M 63.652 56.027 C 67.738 58.145 70.914 52.016 66.828 49.898 L 64.434 48.707 C 60.398 46.613 57.262 52.672 61.297 54.762 Z M 61.492 54.855 C 65.652 56.688 68.402 50.445 64.238 48.613 L 61.547 47.469 C 57.43 45.656 54.711 51.828 58.828 53.641 Z M 58.949 53.691 C 63.133 55.34 65.605 49.066 61.422 47.418 L 58.48 46.289 C 54.34 44.656 51.887 50.871 56.031 52.504 Z M 56.184 52.559 C 60.398 53.992 62.547 47.664 58.328 46.234 L 55.137 45.188 C 50.961 43.77 48.836 50.031 53.012 51.449 Z M 53.109 51.48 C 57.324 52.766 59.254 46.441 55.039 45.156 L 51.652 44.156 C 47.477 42.883 45.566 49.148 49.742 50.418 Z M 49.84 50.445 C 54.051 51.59 55.77 45.273 51.555 44.129 L 47.945 43.18 C 43.777 42.047 42.074 48.305 46.246 49.438 Z M 46.34 49.461 C 50.543 50.473 52.059 44.168 47.855 43.156 L 44.078 42.281 C 39.914 41.281 38.414 47.527 42.578 48.527 Z M 42.664 48.547 C 46.852 49.434 48.184 43.148 43.992 42.262 L 40.082 41.465 C 35.93 40.586 34.609 46.813 38.762 47.691 Z M 38.883 47.715 C 43.066 48.43 44.141 42.156 39.957 41.441 L 35.988 40.785 C 31.84 40.074 30.773 46.301 34.926 47.012 Z M 35.035 47.031 C 39.211 47.594 40.055 41.332 35.879 40.77 L 31.969 40.254 C 27.816 39.695 26.977 45.926 31.129 46.488 Z M 31.277 46.504 C 35.453 46.871 36 40.605 31.824 40.238 L 28.082 39.926 C 23.922 39.559 23.375 45.801 27.539 46.164 Z M 27.746 46.176 C 31.922 46.266 32.051 40 27.875 39.914 L 24.332 39.848 C 20.168 39.758 20.035 46.004 24.199 46.094 Z M 24.406 46.09 C 28.566 45.898 28.281 39.66 24.121 39.852 L 20.828 40.008 C 16.68 40.199 16.965 46.426 21.113 46.234 Z M 21.363 46.211 C 25.484 45.691 24.703 39.512 20.582 40.027 L 17.598 40.41 C 13.48 40.93 14.258 47.102 18.375 46.582 Z M 18.672 46.531 C 22.719 45.613 21.34 39.547 17.297 40.465 L 14.645 41.07 C 10.605 41.984 11.98 48.047 16.023 47.129 Z M 16.313 47.047 C 20.246 45.742 18.289 39.844 14.355 41.148 L 12.012 41.93 C 8.078 43.234 10.035 49.133 13.969 47.828 Z M 14.32 47.684 C 18.066 45.906 15.398 40.293 11.656 42.07 L 9.645 43.02 C 5.898 44.801 8.566 50.422 12.316 48.641 Z M 12.637 48.465 C 16.148 46.254 12.832 40.988 9.32 43.199 L 7.641 44.242 C 4.117 46.461 7.445 51.75 10.969 49.531 Z M 11.367 49.23 C 14.496 46.48 10.367 41.789 7.242 44.543 L 5.941 45.652 C 2.789 48.426 6.949 53.152 10.098 50.379 Z M 10.48 49.977 C 13.098 46.695 8.172 42.773 5.559 46.055 L 4.613 47.188 C 1.969 50.508 6.945 54.473 9.59 51.156 Z M 9.98 50.527 C 11.785 46.688 6.027 43.98 4.219 47.816 L 3.645 48.926 C 1.813 52.824 7.66 55.574 9.492 51.676 Z M 9.789 50.555 C 10.129 46.262 3.688 45.75 3.348 50.047 L 3.199 51.098 C 2.852 55.477 9.422 55.996 9.77 51.617 Z M 9.523 50.078 C 7.816 46.027 1.742 48.59 3.449 52.637 L 3.77 53.594 C 5.516 57.734 11.727 55.117 9.98 50.977 Z M 9.051 49.711 C 5.621 46.809 1.266 51.957 4.699 54.859 L 5.543 55.672 C 9.055 58.637 13.504 53.371 9.992 50.406 Z M 8.945 49.801 C 4.625 48.23 2.273 54.711 6.594 56.277 L 8.02 56.875 C 12.43 58.477 14.832 51.859 10.422 50.258 Z M 9.598 50.066 C 4.934 49.566 4.18 56.563 8.844 57.066 L 10.93 57.355 C 15.684 57.867 16.453 50.738 11.699 50.227 Z M 11.184 50.207 C 6.406 50.383 6.668 57.551 11.445 57.375 L 14.18 57.32 C 19.023 57.145 18.758 49.883 13.914 50.063 Z M 13.563 50.09 C 8.762 50.738 9.734 57.941 14.535 57.293 L 17.891 56.875 C 22.738 56.219 21.758 48.949 16.91 49.602 Z M 16.664 49.645 C 11.871 50.625 13.34 57.813 18.133 56.832 L 22.074 56.055 C 26.902 55.07 25.422 47.828 20.594 48.816 Z M 20.402 48.859 C 15.637 50.098 17.496 57.25 22.266 56.012 L 26.707 54.875 C 31.5 53.629 29.629 46.438 24.836 47.684 Z M 24.672 47.734 C 19.941 49.199 22.141 56.297 26.875 54.828 L 31.734 53.332 C 36.477 51.859 34.27 44.742 29.523 46.215 Z M 29.391 46.258 C 24.707 47.906 27.18 54.938 31.863 53.289 L 37.004 51.488 C 41.695 49.836 39.219 42.793 34.527 44.445 Z M 34.438 44.48 C 29.785 46.25 32.441 53.227 37.094 51.453 L 42.367 49.445 C 47.016 47.672 44.359 40.699 39.711 42.469 Z M 39.633 42.5 C 35.023 44.375 37.836 51.289 42.445 49.414 L 47.684 47.262 C 52.27 45.395 49.473 38.52 44.887 40.383 Z M 44.828 40.41 C 40.277 42.355 43.191 49.18 47.746 47.234 L 52.727 45.066 C 57.227 43.141 54.344 36.387 49.84 38.313 Z M 49.801 38.328 C 45.32 40.305 48.285 47.023 52.766 45.047 L 57.395 42.918 C 61.777 40.98 58.875 34.406 54.492 36.344 Z M 54.469 36.352 C 50.102 38.32 53.051 44.875 57.418 42.906 L 61.605 40.875 C 65.809 38.98 62.969 32.676 58.766 34.57 Z M 58.77 34.566 C 54.563 36.457 57.398 42.766 61.605 40.875 L 65.367 38.941 C 69.305 37.172 66.648 31.262 62.711 33.035 Z M 62.73 33.027 C 58.777 34.773 61.398 40.695 65.348 38.949 L 68.656 37.074 C 72.145 35.531 69.832 30.301 66.344 31.844 Z M 66.316 31.855 C 62.848 33.43 65.211 38.637 68.684 37.063 L 71.504 35.195 C 74.332 33.91 72.406 29.672 69.578 30.957 Z M 69.621 30.938 C 66.77 32.164 68.613 36.441 71.465 35.215 L 73.891 33.473 C 75.961 32.582 74.621 29.477 72.555 30.371 Z M 72.551 30.371 C 70.484 31.266 71.828 34.367 73.895 33.473 L 75.961 31.895 C 77.266 31.332 76.418 29.375 75.113 29.941 Z M 75.137 29.93 C 73.824 30.465 74.621 32.438 75.938 31.906 L 77.727 30.621 C 78.402 30.348 77.992 29.332 77.316 29.605 Z M 77.324 29.602 C 76.645 29.863 77.031 30.887 77.715 30.625 L 79.242 29.691 C 79.516 29.586 79.359 29.18 79.09 29.281 Z M 79.094 29.281 C 78.82 29.379 78.965 29.789 79.238 29.691 L 80.473 29.094 C 80.551 29.066 80.512 28.945 80.43 28.973 Z M 80.434 28.973 C 80.352 28.992 80.387 29.117 80.469 29.094 L 81.402 28.793 C 81.418 28.789 81.414 28.77 81.398 28.773 Z M 81.398 28.773 C 81.383 28.773 81.387 28.797 81.402 28.793 L 81.957 28.66 C 81.961 28.656 81.961 28.656 81.957 28.656 Z M 81.398 28.773"/><path fill="#0066cc" stroke="none" d="M 16.18 10.965 C 16.203 10.98 16.227 10.945 16.203 10.93 L 16.145 10.813 C 16.047 10.75 15.949 10.898 16.051 10.961 Z M 16.027 10.941 C 16.102 11.035 16.238 10.926 16.168 10.832 L 16.207 10.609 C 15.992 10.336 15.586 10.656 15.801 10.93 Z M 15.852 10.98 C 16.133 11.18 16.434 10.758 16.152 10.559 L 16.203 10.219 C 15.59 9.781 14.938 10.695 15.547 11.133 Z M 15.629 11.184 C 16.309 11.508 16.793 10.496 16.117 10.168 L 16.238 9.758 C 15.055 9.188 14.199 10.965 15.383 11.535 Z M 16.691 10.203 C 16.098 9.031 14.34 9.918 14.934 11.09 L 14.508 11.379 C 15.406 13.16 18.074 11.813 17.176 10.035 Z M 16.949 9.703 C 15.613 8.227 13.398 10.234 14.734 11.711 L 14.484 12.32 C 16.352 14.387 19.453 11.582 17.582 9.516 Z M 17.641 9.586 C 15.867 7.441 12.648 10.105 14.426 12.25 L 14.27 13.09 C 16.602 15.91 20.832 12.406 18.496 9.59 Z M 18.469 9.555 C 16.09 6.773 11.918 10.344 14.297 13.125 L 14.332 14.188 C 17.285 17.641 22.465 13.211 19.512 9.758 Z M 19.477 9.715 C 16.469 6.309 11.359 10.824 14.367 14.227 L 14.711 15.59 C 18.289 19.637 24.359 14.27 20.785 10.223 Z M 20.758 10.195 C 17.141 6.18 11.121 11.602 14.738 15.617 L 15.359 17.289 C 19.563 21.957 26.559 15.652 22.359 10.988 Z M 22.438 11.082 C 18.359 6.309 11.203 12.426 15.281 17.199 L 16.121 19.242 C 20.793 24.711 29 17.699 24.324 12.23 Z M 24.316 12.223 C 19.633 6.762 11.441 13.793 16.129 19.25 L 17.297 21.648 C 22.57 27.793 31.785 19.883 26.512 13.738 Z M 26.547 13.781 C 21.328 7.59 12.043 15.418 17.262 21.609 L 18.656 24.301 C 24.449 31.172 34.758 22.48 28.965 15.605 Z M 28.938 15.578 C 23.105 8.738 12.848 17.488 18.68 24.328 L 20.73 26.953 C 26.688 33.938 37.164 25 31.207 18.016 Z M 31.285 18.109 C 25.453 11.02 14.816 19.766 20.648 26.855 L 22.902 29.598 C 28.734 36.688 39.371 27.941 33.539 20.852 Z M 33.469 20.766 C 27.52 13.77 17.027 22.691 22.977 29.684 L 25.355 32.484 C 31.305 39.48 41.793 30.559 35.848 23.566 Z M 35.836 23.551 C 29.875 16.574 19.402 25.52 25.367 32.496 L 27.813 35.359 C 33.773 42.34 44.246 33.395 38.281 26.414 Z M 38.207 26.328 C 32.129 19.445 21.809 28.563 27.887 35.445 L 30.359 38.246 C 36.438 45.129 46.758 36.012 40.684 29.129 Z M 40.602 29.043 C 34.406 22.266 24.246 31.563 30.441 38.336 L 32.918 41.043 C 39.113 47.816 49.273 38.523 43.078 31.75 Z M 43.043 31.711 C 36.793 24.984 26.707 34.359 32.953 41.082 L 35.332 43.645 C 41.582 50.367 51.672 40.996 45.422 34.27 Z M 45.281 34.121 C 38.836 27.586 29.027 37.254 35.473 43.789 L 37.793 46.141 C 44.238 52.68 54.043 43.012 47.598 36.477 Z M 47.508 36.383 C 40.941 29.969 31.316 39.82 37.883 46.234 L 40.039 48.34 C 46.605 54.754 56.23 44.902 49.664 38.488 Z M 49.551 38.383 C 42.84 32.117 33.441 42.184 40.152 48.449 L 42.156 50.316 C 48.867 56.582 58.262 46.516 51.551 40.25 Z M 51.5 40.203 C 44.727 34.008 35.434 44.164 42.207 50.363 L 44.133 51.82 C 50.684 57.816 59.676 47.988 53.125 41.992 Z M 53.066 41.938 C 46.438 36.023 37.57 45.965 44.195 51.879 L 46.508 52.414 C 52 57.316 59.352 49.078 53.859 44.176 Z M 53.926 44.238 C 48.516 39.246 41.031 47.363 46.441 52.352 L 48.66 52.5 C 52.703 56.23 58.293 50.164 54.254 46.438 Z M 54.344 46.523 C 50.422 42.672 44.641 48.559 48.566 52.41 L 50.637 52.266 C 53.082 54.668 56.684 51 54.238 48.598 Z M 54.32 48.684 C 51.988 46.172 48.223 49.672 50.555 52.18 L 52.172 52.082 C 53.367 53.367 55.293 51.574 54.102 50.289 Z M 54.191 50.402 C 53.148 48.992 51.035 50.559 52.078 51.969 L 53.078 52.02 C 53.512 52.602 54.387 51.957 53.953 51.375 Z M 54.012 51.473 C 53.715 50.813 52.723 51.258 53.02 51.922 L 53.465 51.973 C 53.551 52.172 53.848 52.039 53.758 51.844 Z M 53.59 52.066 C 53.801 52.098 53.848 51.777 53.633 51.75 L 53.395 51.852 C 53.355 51.844 53.348 51.902 53.387 51.906 Z M 53.379 51.902 C 53.41 51.922 53.438 51.871 53.402 51.852 L 52.883 51.605 C 52.883 51.605 52.879 51.609 52.883 51.609 Z M 52.883 51.609 C 52.883 51.609 52.887 51.609 52.883 51.605 L 52.184 51.125 Z M 52.883 51.609"/></g></g></g></svg>
</svg>