<?xml version="1.0" standalone="no"?>
<svg height="80.735" preserveAspectRatio="none" viewBox="0.000 0.000 84.757 80.735" width="84.757" x="0.000" xmlns="http://www.w3.org/2000/svg" xmlns:svg="http://www.w3.org/2000/svg" xmlns:xlink="http://www.w3.org/1999/xlink" y="0.000">
<svg width="84.757" height="80.735" xmlns="http://www.w3.org/2000/svg"><defs><clipPath id="Yj9E4As4clipPath1"><path fill="#000000" stroke="none" d="M 0 0 L 84.757 0 L 84.757 80.735 L 0 80.735 Z"/></clipPath></defs><g transform="matrix(0.9999998 0 0 1 -651.8979 -168.352)"><g transform="matrix(1 0 0 1 651.8981 168.35156)"><g clip-path="url(#Yj9E4As4clipPath1)"><path fill="#f26419" stroke="none" d="M 32.113 10.711 C 32.082 10.73 32.117 10.777 32.148 10.758 L 32.504 10.57 C 32.59 10.504 32.496 10.371 32.406 10.434 Z M 32.406 10.434 C 32.316 10.5 32.414 10.633 32.504 10.57 L 33.039 10.289 C 33.223 10.16 33.027 9.887 32.848 10.016 Z M 32.848 10.016 C 32.664 10.145 32.859 10.418 33.039 10.289 L 33.758 9.914 C 34.055 9.703 33.738 9.254 33.441 9.469 Z M 33.41 9.492 C 33.145 9.746 33.523 10.145 33.789 9.891 L 34.359 9.512 C 34.742 9.148 34.195 8.578 33.816 8.941 Z M 33.836 8.922 C 33.43 9.254 33.934 9.863 34.34 9.531 L 34.906 9.219 C 35.434 8.785 34.781 7.988 34.25 8.426 Z M 34.203 8.469 C 33.73 8.969 34.48 9.676 34.953 9.176 L 35.359 8.902 C 35.93 8.297 35.027 7.441 34.453 8.047 Z M 34.398 8.117 C 33.918 8.797 34.941 9.512 35.418 8.832 L 35.734 8.535 C 36.277 7.758 35.113 6.941 34.57 7.719 Z M 34.531 7.781 C 34.074 8.613 35.316 9.297 35.773 8.469 L 35.988 8.211 C 36.488 7.305 35.133 6.559 34.633 7.461 Z M 34.535 7.836 C 34.535 8.867 36.086 8.867 36.086 7.836 L 36.133 7.547 C 36.133 6.453 34.492 6.453 34.492 7.547 Z M 34.563 7.883 C 35.016 8.883 36.512 8.203 36.059 7.207 L 36.012 7.016 C 35.539 5.977 33.98 6.684 34.453 7.723 Z M 34.738 8.07 C 35.672 8.727 36.656 7.324 35.723 6.668 L 35.496 6.477 C 34.531 5.797 33.516 7.242 34.48 7.918 Z M 34.859 8.07 C 36.027 8.238 36.277 6.492 35.113 6.324 L 34.707 6.234 C 33.504 6.063 33.246 7.867 34.449 8.039 Z M 34.578 8.051 C 35.793 8.051 35.793 6.227 34.578 6.227 L 33.93 6.195 C 32.668 6.195 32.668 8.082 33.93 8.082 Z M 34.078 8.07 C 35.32 7.871 35.023 6.008 33.781 6.207 L 33.035 6.281 C 31.73 6.488 32.043 8.441 33.344 8.234 Z M 33.492 8.195 C 34.746 7.793 34.141 5.91 32.887 6.316 L 31.969 6.543 C 30.633 6.977 31.277 8.977 32.613 8.547 Z M 32.684 8.52 C 33.984 7.992 33.195 6.043 31.895 6.57 L 30.719 6.945 C 29.301 7.52 30.164 9.645 31.582 9.07 Z M 31.617 9.055 C 33.016 8.438 32.086 6.34 30.688 6.957 L 29.324 7.414 C 27.758 8.105 28.797 10.453 30.363 9.762 Z M 30.496 9.691 C 31.969 8.82 30.66 6.609 29.188 7.484 L 27.633 8.199 C 25.957 9.191 27.445 11.703 29.117 10.711 Z M 29.16 10.688 C 30.801 9.637 29.227 7.18 27.586 8.227 L 25.844 9.098 C 23.969 10.297 25.77 13.105 27.641 11.906 Z M 27.766 11.82 C 29.52 10.453 27.473 7.82 25.719 9.184 L 23.863 10.344 C 21.867 11.891 24.191 14.879 26.184 13.332 Z M 26.289 13.242 C 28.164 11.555 25.629 8.742 23.754 10.43 L 21.805 11.883 C 19.707 13.777 22.547 16.922 24.645 15.031 Z M 24.707 14.973 C 26.727 12.996 23.762 9.969 21.742 11.941 L 19.637 13.703 C 17.41 15.879 20.676 19.215 22.898 17.039 Z M 23.063 16.863 C 25.051 14.469 21.457 11.488 19.473 13.883 L 17.449 16.027 C 15.305 18.613 19.184 21.832 21.328 19.246 Z M 21.418 19.129 C 23.41 16.426 19.355 13.438 17.359 16.141 L 15.352 18.594 C 13.227 21.473 17.551 24.656 19.672 21.777 Z M 19.75 21.664 C 21.723 18.68 17.246 15.719 15.273 18.707 L 13.27 21.465 C 11.188 24.617 15.914 27.738 17.996 24.59 Z M 18.105 24.41 C 19.949 21.113 15.004 18.348 13.16 21.645 L 11.316 24.648 C 9.383 28.113 14.578 31.016 16.512 27.555 Z M 16.586 27.418 C 18.344 23.863 13.004 21.227 11.246 24.781 L 9.484 28.023 C 7.641 31.754 13.238 34.52 15.082 30.789 Z M 15.152 30.637 C 16.793 26.813 11.055 24.352 9.414 28.176 L 7.82 31.543 C 6.109 35.535 12.094 38.105 13.809 34.113 Z M 13.895 33.891 C 15.313 29.785 9.156 27.66 7.734 31.766 L 6.387 35.262 C 4.914 39.531 11.316 41.746 12.793 37.477 Z M 12.84 37.328 C 14.121 32.996 7.625 31.074 6.344 35.406 L 5.156 38.965 C 3.824 43.461 10.566 45.457 11.898 40.961 Z M 11.977 40.656 C 12.898 36.059 6.004 34.672 5.078 39.27 L 4.219 42.898 C 3.262 47.66 10.406 49.098 11.367 44.332 Z M 11.402 44.105 C 12.059 39.293 4.836 38.309 4.184 43.125 L 3.566 46.699 C 2.891 51.684 10.363 52.699 11.039 47.719 Z M 11.07 47.387 C 11.305 42.363 3.77 42.012 3.535 47.035 L 3.246 50.566 C 3.004 55.762 10.789 56.125 11.031 50.93 Z M 11.027 50.473 C 10.656 45.285 2.879 45.844 3.25 51.027 L 3.371 54.453 C 3.754 59.805 11.777 59.23 11.395 53.879 Z M 11.328 53.387 C 10.289 48.125 2.398 49.688 3.438 54.949 L 3.98 58.277 C 5.051 63.688 13.164 62.082 12.094 56.676 Z M 11.914 56.035 C 9.992 50.867 2.238 53.75 4.16 58.918 L 5.211 62.027 C 7.18 67.32 15.121 64.367 13.152 59.074 Z M 12.914 58.547 C 10.246 53.57 2.781 57.574 5.449 62.551 L 6.926 65.488 C 9.648 70.566 17.266 66.484 14.543 61.406 Z M 14.059 60.684 C 10.375 56.254 3.73 61.781 7.41 66.211 L 9.48 68.805 C 13.223 73.309 19.973 67.695 16.23 63.195 Z M 15.68 62.637 C 11.195 58.875 5.551 65.602 10.035 69.363 L 12.695 71.66 C 17.227 75.461 22.934 68.664 18.402 64.859 Z M 17.836 64.457 C 12.762 61.406 8.191 69.016 13.262 72.063 L 16.43 74.008 C 21.543 77.078 26.152 69.41 21.039 66.34 Z M 20.465 66.051 C 14.965 63.742 11.508 71.992 17.008 74.301 L 20.598 75.816 C 26.109 78.125 29.574 69.859 24.063 67.547 Z M 23.465 67.344 C 17.684 65.832 15.414 74.508 21.199 76.02 L 25.207 77.031 C 30.945 78.531 33.195 69.922 27.457 68.422 Z M 26.969 68.324 C 21.098 67.473 19.824 76.281 25.695 77.129 L 30.117 77.684 C 35.875 78.516 37.125 69.879 31.367 69.047 Z M 30.961 69.008 C 25.152 68.715 24.711 77.43 30.523 77.723 L 35.098 77.813 C 40.723 78.098 41.148 69.664 35.523 69.379 Z M 35.152 69.375 C 29.527 69.59 29.844 78.027 35.473 77.816 L 40.125 77.441 C 45.484 77.238 45.18 69.195 39.82 69.398 Z M 39.492 69.426 C 34.164 70.066 35.125 78.055 40.453 77.414 L 45.234 76.586 C 50.23 75.984 49.328 68.492 44.336 69.094 Z M 44.105 69.129 C 39.156 70.035 40.52 77.457 45.465 76.551 L 50.156 75.406 C 54.734 74.566 53.473 67.699 48.895 68.539 Z M 48.684 68.586 C 44.164 69.707 45.852 76.484 50.367 75.359 L 54.953 73.922 C 59.102 72.891 57.551 66.672 53.406 67.703 Z M 53.195 67.762 C 49.129 69.074 51.098 75.176 55.164 73.863 L 59.566 72.148 C 63.281 70.949 61.484 65.383 57.773 66.578 Z M 57.59 66.645 C 53.965 68.082 56.121 73.52 59.75 72.082 L 63.891 70.141 C 67.172 68.84 65.219 63.918 61.938 65.219 Z M 61.82 65.27 C 58.605 66.73 60.797 71.551 64.008 70.09 L 67.973 67.969 C 70.832 66.668 68.887 62.383 66.027 63.68 Z M 65.875 63.754 C 63.117 65.258 65.367 69.395 68.125 67.891 L 71.809 65.527 C 74.195 64.227 72.246 60.648 69.863 61.949 Z M 69.77 62 C 67.457 63.418 69.586 66.895 71.898 65.473 L 75.316 62.977 C 77.246 61.797 75.473 58.906 73.547 60.086 Z M 73.418 60.172 C 71.605 61.523 73.633 64.242 75.445 62.891 L 78.398 60.203 C 79.797 59.16 78.234 57.066 76.836 58.109 Z M 73.418 60.172"/><path fill="#f26419" stroke="none" d="M 35.883 8.184 C 35.883 8.188 35.891 8.188 35.891 8.184 L 35.902 8.125 C 35.902 8.102 35.871 8.102 35.871 8.125 Z M 35.871 8.125 C 35.871 8.148 35.902 8.148 35.902 8.125 L 35.91 8.066 C 35.91 8.035 35.863 8.035 35.863 8.066 Z M 35.863 8.066 C 35.863 8.098 35.91 8.098 35.91 8.066 L 35.918 8.008 C 35.918 7.965 35.852 7.965 35.852 8.008 Z M 35.852 8.008 C 35.852 8.051 35.918 8.051 35.918 8.008 L 35.934 7.949 C 35.934 7.883 35.836 7.883 35.836 7.949 Z M 35.836 7.949 C 35.836 8.012 35.934 8.012 35.934 7.949 L 35.957 7.895 C 35.957 7.801 35.816 7.801 35.816 7.895 Z M 35.887 8 C 36.023 8 36.023 7.789 35.887 7.789 L 35.805 7.742 C 35.602 7.742 35.602 8.047 35.805 8.047 Z M 35.805 8.113 C 36.102 8.113 36.102 7.676 35.805 7.676 L 35.723 7.586 C 35.309 7.586 35.309 8.203 35.723 8.203 Z M 35.723 8.203 C 36.133 8.203 36.133 7.586 35.723 7.586 L 35.563 7.477 C 35.004 7.477 35.004 8.313 35.563 8.313 Z M 35.789 8.246 C 36.258 7.945 35.805 7.238 35.336 7.543 L 35.184 7.492 C 34.574 7.883 35.16 8.797 35.77 8.406 Z M 35.66 8.461 C 36.34 8.219 35.977 7.195 35.293 7.438 L 35.086 7.371 C 34.238 7.676 34.691 8.945 35.539 8.645 Z M 35.543 8.641 C 36.391 8.328 35.922 7.063 35.078 7.375 L 34.871 7.309 C 33.859 7.68 34.418 9.199 35.43 8.824 Z M 35.5 8.797 C 36.473 8.328 35.773 6.871 34.801 7.336 L 34.504 7.34 C 33.379 7.883 34.188 9.566 35.313 9.027 Z M 35.582 8.832 C 36.445 7.93 35.094 6.637 34.23 7.539 L 33.984 7.633 C 33.02 8.641 34.531 10.09 35.5 9.082 Z M 35.344 9.215 C 36.488 8.41 35.281 6.695 34.141 7.5 L 33.844 7.598 C 32.602 8.469 33.91 10.332 35.152 9.461 Z M 35.332 9.305 C 36.363 8.191 34.699 6.641 33.664 7.754 L 33.289 8.051 C 32.188 9.234 33.961 10.883 35.059 9.703 Z M 35.113 9.637 C 36.129 8.383 34.246 6.863 33.234 8.117 L 32.859 8.488 C 31.793 9.801 33.766 11.395 34.828 10.082 Z M 34.918 9.953 C 35.813 8.52 33.66 7.18 32.766 8.613 L 32.398 9.105 C 31.469 10.602 33.707 11.996 34.637 10.504 Z M 34.629 10.516 C 35.578 9.035 33.359 7.613 32.41 9.094 L 31.949 9.699 C 30.957 11.246 33.277 12.734 34.27 11.188 Z M 34.34 11.063 C 35.168 9.422 32.703 8.18 31.879 9.824 L 31.395 10.602 C 30.52 12.34 33.129 13.652 34.004 11.914 Z M 34.035 11.848 C 34.82 10.066 32.148 8.887 31.363 10.668 L 30.852 11.551 C 30.004 13.469 32.883 14.742 33.73 12.82 Z M 33.777 12.703 C 34.469 10.723 31.496 9.688 30.805 11.668 L 30.262 12.777 C 29.504 14.945 32.754 16.078 33.508 13.91 Z M 33.523 13.871 C 34.223 11.688 30.949 10.637 30.246 12.82 L 29.676 14.043 C 28.902 16.445 32.508 17.602 33.277 15.199 Z M 33.305 15.102 C 33.945 12.66 30.285 11.699 29.645 14.141 L 29.055 15.656 C 28.352 18.34 32.375 19.395 33.078 16.711 Z M 33.113 16.563 C 33.621 13.836 29.527 13.074 29.02 15.801 L 28.512 17.512 C 27.957 20.484 32.418 21.316 32.973 18.34 Z M 32.996 18.207 C 33.367 15.203 28.863 14.641 28.488 17.645 L 28.066 19.594 C 27.664 22.832 32.523 23.438 32.926 20.195 Z M 32.93 20.16 C 33.281 16.914 28.414 16.387 28.063 19.633 L 27.664 21.879 C 27.289 25.332 32.469 25.891 32.84 22.438 Z M 32.855 22.16 C 32.855 18.688 27.648 18.688 27.648 22.16 L 27.512 24.652 C 27.512 28.305 32.992 28.305 32.992 24.652 Z M 32.992 24.57 C 32.883 20.918 27.406 21.082 27.516 24.734 L 27.477 27.406 C 27.59 31.215 33.305 31.043 33.188 27.234 Z M 33.172 26.996 C 32.738 23.207 27.059 23.855 27.492 27.645 L 27.719 30.496 C 28.168 34.414 34.039 33.742 33.594 29.828 Z M 33.574 29.684 C 32.934 25.793 27.102 26.75 27.738 30.641 L 28.152 33.668 C 28.809 37.664 34.805 36.68 34.148 32.684 Z M 34.066 32.328 C 32.938 28.441 27.105 30.137 28.234 34.023 L 29.07 37.117 C 30.223 41.082 36.176 39.352 35.02 35.387 Z M 34.957 35.188 C 33.539 31.305 27.719 33.434 29.133 37.313 L 30.238 40.461 C 31.676 44.391 37.574 42.238 36.137 38.305 Z M 36.02 38.023 C 34.211 34.25 28.547 36.965 30.355 40.738 L 31.805 43.824 C 33.633 47.633 39.344 44.895 37.52 41.086 Z M 37.387 40.836 C 35.227 37.207 29.781 40.445 31.941 44.074 L 33.715 47.102 C 35.887 50.75 41.363 47.496 39.195 43.844 Z M 39.023 43.586 C 36.508 40.16 31.371 43.934 33.887 47.355 L 36.008 50.262 C 38.531 53.695 43.684 49.91 41.16 46.477 Z M 40.906 46.172 C 37.977 43.074 33.332 47.469 36.262 50.566 L 38.785 53.238 C 41.719 56.34 46.367 51.941 43.434 48.84 Z M 43.152 48.574 C 39.863 45.852 35.781 50.781 39.066 53.504 L 42.012 55.938 C 45.297 58.656 49.375 53.73 46.09 51.012 Z M 45.836 50.824 C 42.301 48.441 38.73 53.746 42.266 56.125 L 45.469 58.246 C 48.973 60.605 52.512 55.352 49.008 52.992 Z M 48.691 52.805 C 44.941 50.867 42.031 56.496 45.785 58.434 L 49.406 60.227 C 53.074 62.121 55.914 56.621 52.25 54.727 Z M 51.941 54.59 C 48.094 53.105 45.867 58.879 49.715 60.363 L 53.523 61.672 C 57.188 63.086 59.305 57.59 55.645 56.18 Z M 55.363 56.086 C 51.578 55.047 50.02 60.723 53.805 61.766 L 57.883 62.605 C 61.32 63.547 62.738 58.391 59.297 57.445 Z M 59.078 57.395 C 55.57 56.746 54.598 62.004 58.102 62.656 L 62.254 63.035 C 65.258 63.59 66.09 59.086 63.086 58.527 Z M 62.859 58.496 C 59.816 58.242 59.434 62.809 62.48 63.063 L 66.684 62.945 C 69.105 63.148 69.41 59.516 66.988 59.313 Z M 66.836 59.305 C 64.402 59.305 64.402 62.953 66.836 62.953 L 71 62.441 C 72.75 62.441 72.75 59.816 71 59.816 Z M 70.891 59.824 C 69.148 59.973 69.371 62.586 71.113 62.438 L 75.156 61.602 C 76.25 61.508 76.113 59.867 75.016 59.961 Z M 70.891 59.824"/><path fill="#f26419" stroke="none" d="M 52.809 37.527 C 52.809 37.504 52.773 37.504 52.773 37.527 L 52.73 37.586 C 52.73 37.664 52.852 37.664 52.852 37.586 Z M 52.844 37.613 C 52.883 37.539 52.773 37.488 52.738 37.559 L 52.578 37.695 C 52.492 37.867 52.75 37.992 52.836 37.82 Z M 52.824 37.84 C 52.934 37.68 52.695 37.52 52.59 37.676 L 52.406 37.727 C 52.211 38.02 52.648 38.316 52.844 38.023 Z M 52.844 38.027 C 53.047 37.738 52.613 37.434 52.41 37.723 L 52.211 37.754 C 51.898 38.199 52.566 38.672 52.883 38.223 Z M 52.211 37.531 C 51.602 37.98 52.273 38.891 52.883 38.445 L 53.055 38.512 C 53.832 37.941 52.973 36.777 52.199 37.348 Z M 52.035 37.516 C 51.48 38.301 52.664 39.133 53.219 38.344 L 53.426 38.32 C 54.098 37.363 52.664 36.352 51.988 37.313 Z M 52.102 37.176 C 51.25 37.98 52.457 39.258 53.309 38.457 L 53.664 38.34 C 54.672 37.391 53.246 35.879 52.238 36.828 Z M 52.262 36.809 C 51.227 37.73 52.609 39.281 53.641 38.359 L 54.082 38.188 C 55.277 37.121 53.68 35.328 52.48 36.395 Z M 52.438 36.434 C 51.293 37.559 52.98 39.273 54.125 38.148 L 54.656 37.867 C 55.961 36.582 54.031 34.625 52.727 35.91 Z M 52.762 35.875 C 51.41 37.109 53.266 39.141 54.617 37.902 L 55.309 37.516 C 56.836 36.117 54.738 33.824 53.211 35.223 Z M 53.293 35.152 C 51.672 36.441 53.605 38.875 55.227 37.582 L 56.07 37.141 C 57.879 35.703 55.723 32.992 53.918 34.43 Z M 53.805 34.523 C 52.125 36.109 54.504 38.629 56.184 37.043 L 57.027 36.469 C 58.867 34.734 56.266 31.98 54.426 33.715 Z M 54.5 33.648 C 52.574 35.285 55.031 38.172 56.957 36.535 L 57.871 35.949 C 59.945 34.184 57.297 31.074 55.223 32.84 Z M 55.234 32.832 C 53.148 34.582 55.777 37.711 57.863 35.957 L 58.84 35.297 C 61.051 33.438 58.262 30.121 56.051 31.98 Z M 56.066 31.969 C 53.84 33.813 56.602 37.148 58.828 35.309 L 59.871 34.578 C 62.203 32.645 59.309 29.148 56.977 31.078 Z M 57.043 31.027 C 54.641 32.871 57.406 36.473 59.809 34.629 L 60.836 33.941 C 63.324 32.031 60.457 28.301 57.973 30.211 Z M 57.898 30.27 C 55.488 32.273 58.496 35.891 60.91 33.883 L 61.93 33.117 C 64.402 31.059 61.313 27.344 58.836 29.406 Z M 58.848 29.398 C 56.359 31.445 59.434 35.176 61.918 33.125 L 62.934 32.355 C 65.473 30.266 62.336 26.457 59.801 28.547 Z M 59.773 28.566 C 57.262 30.691 60.449 34.457 62.961 32.336 L 63.875 31.605 C 66.426 29.453 63.191 25.629 60.645 27.785 Z M 60.742 27.707 C 58.09 29.73 61.129 33.711 63.781 31.684 L 64.781 30.953 C 67.461 28.906 64.391 24.887 61.711 26.934 Z M 61.695 26.945 C 59.031 29.012 62.129 33.008 64.793 30.941 L 65.703 30.258 C 68.383 28.18 65.266 24.156 62.586 26.234 Z M 62.574 26.246 C 59.902 28.34 63.043 32.344 65.715 30.25 L 66.535 29.621 C 69.219 27.516 66.063 23.492 63.379 25.598 Z M 63.387 25.59 C 60.695 27.688 63.84 31.723 66.527 29.625 L 67.352 28.992 C 70.047 26.891 66.898 22.848 64.203 24.949 Z M 64.172 24.973 C 61.508 27.109 64.715 31.109 67.383 28.969 L 68.035 28.453 C 70.707 26.309 67.488 22.301 64.816 24.445 Z M 64.809 24.453 C 62.148 26.613 65.383 30.602 68.043 28.445 L 68.621 27.984 C 71.289 25.82 68.043 21.82 65.379 23.984 Z M 65.363 23.996 C 62.715 26.18 65.988 30.152 68.637 27.969 L 69.129 27.57 C 71.781 25.387 68.504 21.406 65.852 23.59 Z M 65.602 23.824 C 63.262 26.34 67.035 29.852 69.375 27.336 L 69.703 26.988 C 72.043 24.473 68.27 20.961 65.926 23.477 Z M 66.113 23.297 C 63.531 25.563 66.934 29.438 69.516 27.168 L 69.844 26.875 C 72.422 24.609 69.023 20.742 66.445 23.008 Z M 66.051 23.445 C 64.055 26.238 68.246 29.23 70.238 26.438 L 70.398 26.203 C 72.391 23.418 68.207 20.43 66.219 23.219 Z M 65.969 23.652 C 64.555 26.773 69.238 28.891 70.648 25.77 L 70.719 25.59 C 72.125 22.48 67.465 20.371 66.059 23.48 Z M 66.066 25.609 C 67.504 28.707 72.145 26.555 70.711 23.461 L 70.617 23.293 C 69.191 20.219 64.578 22.355 66.004 25.434 Z M 66.832 26.434 C 69.594 28.402 72.543 24.262 69.785 22.293 L 69.605 22.195 C 66.871 20.242 63.945 24.348 66.68 26.297 Z M 67.324 26.629 C 70.504 27.719 72.141 22.953 68.965 21.863 L 68.625 21.77 C 65.477 20.688 63.852 25.41 67.004 26.492 Z M 67.516 26.613 C 70.824 27.008 71.418 22.051 68.113 21.652 L 67.621 21.617 C 64.344 21.223 63.754 26.137 67.031 26.531 Z M 67.324 26.547 C 70.625 26.547 70.625 21.598 67.324 21.598 L 66.672 21.621 C 63.398 21.621 63.398 26.527 66.672 26.527 Z M 66.672 26.527 C 69.941 26.527 69.941 21.621 66.672 21.621 L 65.938 21.637 C 62.691 21.637 62.691 26.508 65.938 26.508 Z M 65.938 26.508 C 69.184 26.508 69.184 21.637 65.938 21.637 L 65.039 21.656 C 61.813 21.656 61.813 26.492 65.039 26.492 Z M 65.039 26.492 C 68.262 26.492 68.262 21.656 65.039 21.656 L 63.98 21.664 C 60.77 21.664 60.77 26.48 63.98 26.48 Z M 63.98 26.48 C 67.191 26.48 67.191 21.664 63.98 21.664 L 62.836 21.676 C 59.637 21.676 59.637 26.473 62.836 26.473 Z M 62.836 26.473 C 66.031 26.473 66.031 21.676 62.836 21.676 L 61.613 21.68 C 58.422 21.68 58.422 26.465 61.613 26.465 Z M 61.613 26.465 C 64.801 26.465 64.801 21.68 61.613 21.68 L 60.383 21.688 C 57.199 21.688 57.199 26.461 60.383 26.461 Z M 60.383 26.461 C 63.566 26.461 63.566 21.688 60.383 21.688 L 59.078 21.688 C 55.898 21.688 55.898 26.457 59.078 26.457 Z M 58.957 26.457 C 62.133 26.617 62.379 21.855 59.203 21.691 L 58.059 21.633 C 54.879 21.469 54.637 26.234 57.813 26.398 Z M 57.938 26.402 C 61.117 26.402 61.117 21.629 57.938 21.629 L 56.793 21.625 C 53.609 21.625 53.609 26.402 56.793 26.402 Z M 56.66 26.398 C 59.84 26.574 60.102 21.805 56.922 21.629 L 55.859 21.566 C 52.676 21.391 52.414 26.168 55.598 26.344 Z M 55.727 26.348 C 58.918 26.348 58.918 21.563 55.727 21.563 L 54.836 21.563 C 51.641 21.563 51.641 26.348 54.836 26.348 Z M 54.836 26.348 C 58.027 26.348 58.027 21.563 54.836 21.563 L 54.016 21.559 C 50.816 21.559 50.816 26.355 54.016 26.355 Z M 54.016 26.355 C 57.211 26.355 57.211 21.559 54.016 21.559 L 53.281 21.555 C 50.078 21.555 50.078 26.355 53.281 26.355 Z M 53.281 26.355 C 56.484 26.355 56.484 21.555 53.281 21.555 L 52.707 21.551 C 49.5 21.551 49.5 26.359 52.707 26.359 Z M 52.707 26.359 C 55.914 26.359 55.914 21.551 52.707 21.551 L 52.219 21.547 C 49.008 21.547 49.008 26.363 52.219 26.363 Z M 52.645 26.324 C 55.805 25.75 54.945 21.016 51.789 21.586 L 51.461 21.637 C 48.289 22.211 49.152 26.969 52.324 26.395 Z M 53.297 25.984 C 55.922 24.113 53.113 20.176 50.488 22.047 L 50.313 22.145 C 47.664 24.035 50.496 28.004 53.145 26.117 Z M 54.168 24.133 C 54.168 20.879 49.289 20.879 49.289 24.133 L 49.258 24.363 C 49.258 27.656 54.199 27.656 54.199 24.363 Z M 53.75 22.945 C 51.855 20.246 47.813 23.086 49.707 25.781 L 49.918 26.152 C 51.84 28.895 55.949 26.008 54.027 23.27 Z M 53.945 23.16 C 51.875 20.527 47.93 23.633 50 26.262 L 50.367 26.816 C 52.48 29.504 56.512 26.332 54.398 23.645 Z M 54.172 23.395 C 51.727 21.008 48.145 24.68 50.59 27.066 L 51.199 27.75 C 53.711 30.199 57.379 26.438 54.871 23.988 Z M 54.82 23.941 C 52.246 21.563 48.68 25.422 51.254 27.801 L 52.023 28.602 C 54.66 31.039 58.32 27.078 55.68 24.641 Z M 55.66 24.625 C 52.996 22.211 49.379 26.207 52.039 28.617 L 52.898 29.48 C 55.621 31.945 59.324 27.863 56.602 25.395 Z M 56.563 25.359 C 53.793 22.945 50.168 27.098 52.938 29.516 L 53.965 30.484 C 56.789 32.949 60.488 28.711 57.66 26.246 Z M 57.727 26.305 C 54.977 23.75 51.152 27.875 53.898 30.426 L 54.926 31.445 C 57.723 34.043 61.617 29.844 58.82 27.25 Z M 58.805 27.234 C 55.984 24.66 52.121 28.883 54.941 31.461 L 56.059 32.531 C 58.914 35.141 62.824 30.859 59.973 28.254 Z M 59.836 28.137 C 56.828 25.711 53.188 30.223 56.195 32.648 L 57.402 33.656 C 60.438 36.105 64.113 31.551 61.074 29.102 Z M 61.211 29.215 C 58.324 26.59 54.383 30.918 57.27 33.543 L 58.398 34.598 C 61.305 37.242 65.27 32.887 62.367 30.242 Z M 62.238 30.133 C 59.188 27.66 55.477 32.234 58.527 34.707 L 59.664 35.645 C 62.727 38.133 66.453 33.535 63.391 31.051 Z M 63.492 31.137 C 60.539 28.516 56.613 32.941 59.563 35.563 L 60.543 36.438 C 63.5 39.063 67.434 34.629 64.477 32.004 Z M 64.418 31.953 C 61.395 29.41 57.578 33.945 60.602 36.492 L 61.492 37.246 C 64.523 39.797 68.348 35.25 65.316 32.699 Z M 65.344 32.727 C 62.348 30.137 58.465 34.633 61.465 37.223 L 62.199 37.863 C 65.203 40.457 69.09 35.953 66.086 33.359 Z M 66.125 33.395 C 63.168 30.75 59.203 35.188 62.164 37.832 L 62.809 38.414 C 65.773 41.063 69.742 36.613 66.777 33.969 Z M 66.672 33.875 C 63.586 31.371 59.828 36.004 62.914 38.508 L 63.488 38.977 C 66.578 41.484 70.34 36.848 67.246 34.34 Z M 67.086 34.215 C 63.828 31.926 60.395 36.809 63.648 39.098 L 64.133 39.449 C 67.398 41.746 70.844 36.852 67.578 34.555 Z M 67.852 34.77 C 64.871 32.109 60.883 36.578 63.863 39.234 L 64.184 39.531 C 67.168 42.195 71.164 37.719 68.18 35.051 Z M 67.938 34.855 C 64.688 32.516 61.18 37.387 64.426 39.727 L 64.668 39.906 C 67.918 42.25 71.434 37.371 68.184 35.031 Z M 66.426 34.461 C 62.418 34.461 62.418 40.473 66.426 40.473 L 66.59 40.473 C 70.598 40.473 70.598 34.465 66.59 34.465 Z M 64.809 35.051 C 61.582 37.426 65.148 42.262 68.371 39.887 L 68.445 39.82 C 71.656 37.453 68.109 32.633 64.895 35 Z M 63.844 38.387 C 65.145 42.156 70.801 40.203 69.5 36.434 L 69.395 36.211 C 68.102 32.473 62.496 34.41 63.789 38.145 Z M 64.051 38.703 C 66.086 42.094 71.168 39.039 69.133 35.652 L 68.848 35.27 C 66.844 31.938 61.844 34.941 63.848 38.273 Z M 63.871 38.313 C 65.926 41.613 70.879 38.527 68.82 35.227 L 68.438 34.746 C 66.43 31.523 61.602 34.535 63.605 37.754 Z M 63.691 37.887 C 65.871 40.992 70.531 37.719 68.352 34.613 L 67.785 33.973 C 65.676 30.965 61.168 34.129 63.277 37.137 Z M 63.234 37.07 C 65.258 40.133 69.852 37.098 67.828 34.035 L 67.164 33.227 C 65.219 30.285 60.809 33.203 62.754 36.141 Z M 62.797 36.207 C 64.828 39.086 69.148 36.043 67.117 33.16 L 66.359 32.305 C 64.426 29.563 60.313 32.465 62.246 35.207 Z M 62.141 35.043 C 63.855 37.926 68.184 35.355 66.465 32.469 L 65.695 31.438 C 64.074 28.711 59.98 31.145 61.602 33.871 Z M 61.637 33.926 C 63.328 36.609 67.355 34.07 65.66 31.387 L 64.809 30.297 C 63.215 27.773 59.426 30.164 61.02 32.688 Z M 60.977 32.613 C 62.469 35.199 66.348 32.961 64.855 30.375 L 64 29.168 C 62.602 26.742 58.957 28.844 60.359 31.27 Z M 60.328 31.215 C 61.656 33.684 65.359 31.695 64.031 29.227 L 63.266 28.07 C 62.02 25.75 58.543 27.617 59.789 29.938 Z M 59.766 29.898 C 60.961 32.242 64.477 30.453 63.285 28.109 L 62.531 26.883 C 61.41 24.676 58.098 26.359 59.223 28.566 Z M 59.199 28.52 C 60.254 30.758 63.613 29.172 62.559 26.934 L 61.895 25.758 C 60.895 23.633 57.711 25.137 58.711 27.258 Z M 58.633 27.07 C 59.383 29.293 62.719 28.172 61.973 25.945 L 61.492 24.754 C 60.777 22.621 57.574 23.695 58.293 25.828 Z M 58.309 25.871 C 59.082 27.984 62.25 26.824 61.477 24.711 L 61.023 23.625 C 60.273 21.582 57.207 22.703 57.957 24.746 Z M 57.902 24.566 C 58.41 26.684 61.586 25.922 61.078 23.805 L 60.793 22.773 C 60.293 20.703 57.188 21.449 57.688 23.52 Z M 57.688 23.531 C 58.203 25.598 61.301 24.828 60.789 22.762 L 60.523 21.777 C 60.02 19.738 56.957 20.496 57.465 22.539 Z M 57.426 22.301 C 57.617 24.395 60.758 24.109 60.563 22.016 L 60.473 21.145 C 60.281 19.066 57.164 19.352 57.355 21.434 Z M 57.355 21.441 C 57.559 23.52 60.676 23.215 60.473 21.137 L 60.391 20.32 C 60.188 18.246 57.074 18.551 57.277 20.629 Z M 57.27 20.473 C 57.27 22.563 60.398 22.563 60.398 20.473 L 60.398 19.723 C 60.398 17.637 57.27 17.637 57.27 19.723 Z M 57.27 19.723 C 57.27 21.809 60.398 21.809 60.398 19.723 L 60.41 19.145 C 60.41 17.047 57.262 17.047 57.262 19.145 Z M 57.262 19.145 C 57.262 21.242 60.41 21.242 60.41 19.145 L 60.434 18.563 C 60.434 16.434 57.234 16.434 57.234 18.563 Z M 57.266 18.258 C 56.855 20.348 59.992 20.965 60.402 18.871 L 60.527 18.473 C 60.945 16.324 57.723 15.691 57.305 17.84 Z M 57.313 17.789 C 56.824 19.926 60.027 20.656 60.516 18.523 L 60.664 18.191 C 61.172 15.965 57.836 15.203 57.328 17.426 Z M 57.281 17.809 C 57.281 20.09 60.707 20.09 60.707 17.809 L 60.797 17.52 C 60.797 15.117 57.191 15.117 57.191 17.52 Z M 57.379 16.719 C 56.313 18.875 59.543 20.473 60.609 18.316 L 60.797 18.195 C 61.934 15.902 58.492 14.203 57.359 16.496 Z M 57.16 17.348 C 57.16 19.902 60.996 19.902 60.996 17.348 L 61.133 17.23 C 61.133 14.492 57.027 14.492 57.027 17.23 Z M 61.273 17.23 C 61.273 14.305 56.887 14.305 56.887 17.23 L 56.746 17.402 C 56.746 20.516 61.414 20.516 61.414 17.402 Z M 61.32 18.051 C 62.188 15.059 57.703 13.762 56.836 16.75 L 56.629 17.012 C 55.719 20.16 60.445 21.531 61.359 18.379 Z M 61.457 17.695 C 61.457 14.414 56.535 14.414 56.535 17.695 L 56.422 18.098 C 56.422 21.527 61.566 21.527 61.566 18.098 Z M 61.543 18.449 C 62.008 15.051 56.914 14.352 56.445 17.746 L 56.277 18.313 C 55.793 21.832 61.07 22.559 61.555 19.039 Z M 61.516 19.246 C 62.273 15.773 57.07 14.641 56.313 18.109 L 56.074 18.852 C 55.297 22.414 60.645 23.582 61.422 20.016 Z M 61.445 19.898 C 62.066 16.301 56.672 15.375 56.051 18.969 L 55.836 19.887 C 55.203 23.563 60.715 24.508 61.344 20.836 Z M 61.313 21 C 62.164 17.371 56.723 16.094 55.867 19.723 L 55.582 20.754 C 54.715 24.438 60.242 25.738 61.109 22.051 Z M 61.086 22.145 C 62.078 18.488 56.594 17.004 55.605 20.66 L 55.246 21.871 C 54.246 25.563 59.785 27.063 60.785 23.371 Z M 60.836 23.137 C 61.527 19.375 55.883 18.34 55.195 22.102 L 54.93 23.434 C 54.238 27.223 59.918 28.262 60.609 24.477 Z M 60.559 24.711 C 61.566 20.996 55.992 19.484 54.984 23.199 L 54.566 24.703 C 53.555 28.43 59.145 29.949 60.156 26.223 Z M 60.195 26.051 C 60.98 22.27 55.309 21.094 54.527 24.875 L 54.23 26.449 C 53.457 30.188 59.066 31.352 59.844 27.609 Z M 59.809 27.754 C 60.777 24.059 55.23 22.609 54.266 26.305 L 53.973 27.902 C 53.047 31.441 58.355 32.828 59.281 29.289 Z M 59.281 29.289 C 60.207 25.75 54.898 24.363 53.973 27.902 L 53.84 29.539 C 53.012 32.707 57.766 33.949 58.594 30.781 Z M 58.582 30.82 C 59.465 27.668 54.73 26.348 53.852 29.5 L 53.898 31.078 C 53.188 33.629 57.016 34.695 57.727 32.145 Z M 57.738 32.105 C 58.398 29.543 54.551 28.547 53.891 31.113 L 54.16 32.543 C 53.703 34.313 56.352 34.996 56.809 33.23 Z M 56.82 33.168 C 57.199 31.383 54.52 30.82 54.145 32.605 L 54.496 33.891 C 54.289 34.879 55.77 35.191 55.98 34.203 Z M 55.973 34.227 C 56.219 33.246 54.746 32.883 54.504 33.863 L 54.672 34.953 C 54.566 35.379 55.207 35.539 55.316 35.113 Z M 55.32 35.07 C 55.371 34.633 54.715 34.559 54.664 34.996 L 54.809 35.719 C 54.793 35.855 55.004 35.879 55.02 35.742 Z M 55.016 35.711 C 54.988 35.574 54.785 35.613 54.813 35.75 L 54.973 36.137 C 54.98 36.164 55.02 36.156 55.012 36.129 Z M 55 36.113 C 54.977 36.105 54.961 36.141 54.988 36.152 L 55.16 36.191 Z M 55.156 36.191 C 55.156 36.191 55.16 36.195 55.16 36.191 L 55.402 35.902 Z M 55.156 36.191"/></g></g></g></svg>
</svg>