<?xml version="1.0" standalone="no"?>
<svg height="641.165" preserveAspectRatio="none" viewBox="0.000 0.000 741.712 641.165" width="741.712" x="0.000" xmlns="http://www.w3.org/2000/svg" xmlns:svg="http://www.w3.org/2000/svg" xmlns:xlink="http://www.w3.org/1999/xlink" y="0.000">
<svg width="741.712" height="641.165" xmlns="http://www.w3.org/2000/svg"><defs><clipPath id="dDzEvAwFclipPath1"><path fill="#000000" stroke="none" d="M 0 0 L 741.712 0 L 741.712 641.165 L 0 641.165 Z"/></clipPath></defs><g transform="matrix(1.0000001 0 0 0.99999994 2565.4033 6523.111)"><g transform="matrix(1 0 0 1 -2565.4028 -6523.112)"><g clip-path="url(#dDzEvAwFclipPath1)"><path fill="#f26419" stroke="none" d="M 120.02 247.707 C 120.203 247.707 120.203 247.434 120.02 247.434 L 119.813 247.023 C 119.082 247.023 119.082 248.117 119.813 248.117 Z M 119.586 248.07 C 120.25 248.371 120.699 247.371 120.035 247.074 L 120.199 246.145 C 118.426 245.344 117.223 248.004 118.996 248.805 Z M 119.598 248.934 C 121.543 248.934 121.543 246.016 119.598 246.016 L 119.277 244.57 C 115.41 244.57 115.41 250.375 119.277 250.375 Z M 119.277 250.375 C 123.148 250.375 123.148 244.57 119.277 244.57 L 118.961 242.754 C 112.664 242.754 112.664 252.195 118.961 252.195 Z M 118.961 252.195 C 125.258 252.195 125.258 242.754 118.961 242.754 L 118.641 240.73 C 109.648 240.73 109.648 254.219 118.641 254.219 Z M 120.605 253.93 C 129.211 251.309 125.281 238.402 116.676 241.02 L 115.777 239.207 C 104.629 242.602 109.719 259.328 120.867 255.934 Z M 121.703 255.633 C 132.453 251.125 125.691 235.004 114.941 239.512 L 114.098 238.098 C 101.344 243.445 109.367 262.574 122.121 257.227 Z M 122.379 257.113 C 134.98 251.422 126.445 232.516 113.84 238.207 L 113.109 237.16 C 98.977 243.543 108.547 264.742 122.68 258.359 Z M 125.828 256.262 C 137.168 245.68 121.297 228.676 109.957 239.254 L 109.082 238.734 C 96.793 250.207 114 268.641 126.289 257.172 Z M 126.078 257.363 C 138.629 246.18 121.848 227.352 109.297 238.539 L 108.445 238.227 C 95.098 250.121 112.945 270.145 126.289 258.246 Z M 129.051 254.82 C 137.828 239.242 114.465 226.074 105.688 241.652 L 104.824 241.668 C 95.559 258.105 120.219 272.004 129.484 255.566 Z M 129.941 254.68 C 138.027 237.629 112.453 225.504 104.367 242.551 L 103.371 242.902 C 94.855 260.855 121.785 273.629 130.301 255.672 Z M 131.102 253.605 C 136.855 234.586 108.328 225.953 102.57 244.969 L 101.469 245.785 C 95.398 265.848 125.492 274.957 131.563 254.895 Z M 131.484 255.148 C 137.895 235.191 107.961 225.574 101.551 245.531 L 100.281 246.598 C 93.508 267.676 125.125 277.832 131.898 256.754 Z M 132.215 255.625 C 137.484 234.121 105.23 226.223 99.961 247.723 L 98.648 249.23 C 93.09 271.918 127.125 280.258 132.684 257.566 Z M 132.547 258.09 C 138.801 235.582 105.043 226.199 98.785 248.707 L 97.191 250.73 C 90.578 274.516 126.258 284.434 132.867 260.648 Z M 132.781 260.949 C 139.797 237.281 104.293 226.758 97.277 250.426 L 95.418 253 C 88.004 278.012 125.523 289.133 132.938 264.121 Z M 132.914 264.207 C 140.441 239.227 102.973 227.938 95.445 252.914 L 93.305 256.129 C 85.348 282.535 124.961 294.477 132.918 268.066 Z M 132.715 268.703 C 141.523 242.566 102.316 229.352 93.508 255.488 L 90.945 259.52 C 81.648 287.102 123.023 301.047 132.32 273.465 Z M 132.316 273.477 C 141.629 245.895 100.258 231.93 90.949 259.508 L 88.508 264.641 C 78.91 293.066 121.547 307.461 131.145 279.039 Z M 130.996 279.461 C 141.156 251.234 98.816 235.992 88.656 264.219 L 86.316 270.719 C 76.156 298.945 118.496 314.188 128.656 285.957 Z M 128.77 285.641 C 138.504 257.266 95.941 242.66 86.203 271.035 L 83.547 278.777 C 73.809 307.156 116.375 321.762 126.109 293.387 Z M 126.086 293.457 C 135.918 265.113 93.406 250.363 83.57 278.707 L 80.387 287.883 C 70.555 316.227 113.07 330.977 122.902 302.633 Z M 122.984 302.395 C 132.5 273.941 89.82 259.672 80.309 288.121 L 76.695 298.926 C 67.18 327.375 109.859 341.648 119.371 313.195 Z M 119.551 312.637 C 128.32 283.949 85.285 270.793 76.516 299.484 L 72.691 312 C 63.918 340.691 106.953 353.848 115.723 325.156 Z M 115.797 324.906 C 124.234 296.117 81.051 283.461 72.613 312.25 L 68.469 326.395 C 60.031 355.188 103.215 367.84 111.652 339.051 Z M 111.75 338.711 C 119.734 309.793 76.359 297.816 68.375 326.734 L 64.02 342.5 C 56.035 371.418 99.414 383.395 107.398 354.477 Z M 107.457 354.262 C 115.152 325.266 71.66 313.719 63.961 342.715 L 59.395 359.918 C 51.695 388.914 95.191 400.461 102.887 371.465 Z M 103.004 371.008 C 110.094 341.859 66.367 331.223 59.277 360.375 L 54.816 378.727 C 47.727 407.875 91.449 418.512 98.539 389.359 Z M 98.602 389.113 C 105.355 359.883 61.512 349.746 54.758 378.977 L 50.293 398.281 C 43.535 427.512 87.379 437.648 94.137 408.418 Z M 94.207 408.098 C 100.535 378.773 56.551 369.281 50.223 398.605 L 45.973 418.293 C 39.645 447.617 83.629 457.109 89.961 427.785 Z M 90.035 427.426 C 95.883 398 51.746 389.227 45.898 418.652 L 41.965 438.43 C 36.117 467.855 80.254 476.629 86.102 447.203 Z M 86.113 447.148 C 91.891 417.711 47.734 409.047 41.957 438.484 L 38.129 457.984 C 32.352 487.422 76.512 496.09 82.285 466.652 Z M 82.324 466.453 C 87.836 436.961 43.602 428.695 38.09 458.184 L 34.59 476.918 C 29.078 506.406 73.313 514.676 78.824 485.184 Z M 78.805 485.277 C 84.441 455.809 40.242 447.359 34.605 476.824 L 31.207 494.598 C 25.574 524.063 69.773 532.512 75.41 503.047 Z M 75.406 503.063 C 81.059 473.598 36.863 465.121 31.211 494.582 L 28.02 511.211 C 22.367 540.676 66.563 549.152 72.215 519.691 Z M 72.188 519.84 C 78.035 490.414 33.902 481.641 28.051 511.063 L 24.973 526.551 C 19.121 555.973 63.258 564.75 69.105 535.324 Z M 69.129 535.223 C 74.84 505.77 30.664 497.203 24.949 526.652 L 22.188 540.887 C 16.477 570.34 60.652 578.91 66.367 549.457 Z M 66.32 549.68 C 72.328 520.285 28.238 511.273 22.234 540.668 L 19.574 553.672 C 13.57 583.063 57.656 592.074 63.664 562.68 Z M 63.641 562.789 C 69.793 533.426 25.75 524.199 19.598 553.563 L 17.156 565.223 C 11.004 594.586 55.047 603.813 61.199 574.449 Z M 61.215 574.375 C 67.266 544.992 23.191 535.914 17.141 565.297 L 15.016 575.617 C 8.965 605 53.039 614.074 59.09 584.691 Z M 59.094 584.68 C 65.129 555.293 21.047 546.242 15.012 575.629 L 13.207 584.422 C 7.172 613.813 51.254 622.863 57.285 593.477 Z M 57.348 593.164 C 62.969 563.695 18.762 555.266 13.145 584.734 L 11.762 591.996 C 6.141 621.465 50.348 629.891 55.965 600.422 Z M 56.059 599.902 C 60.984 570.313 16.594 562.922 11.668 592.516 L 10.715 598.25 C 5.789 627.844 50.176 635.234 55.102 605.641 Z M 55.23 604.773 C 59 575.012 14.355 569.356 10.586 599.117 L 11.352 603.492 C 7.801 631.523 49.848 636.848 53.398 608.816 Z M 53.566 606.152 C 53.566 577.898 11.184 577.898 11.184 606.152 L 16.84 608.824 C 16.84 629.539 47.91 629.539 47.91 608.824 Z M 46.762 602.957 C 38.938 583.773 10.164 595.512 17.988 614.691 L 24.074 613.438 C 28.82 625.078 46.281 617.953 41.535 606.316 Z M 27.945 601.797 C 17.172 608.277 26.891 624.434 37.664 617.957 L 36.203 613.367 C 41.629 610.106 36.734 601.973 31.313 605.234 Z M 29.883 606.563 C 26.23 611.727 33.98 617.207 37.633 612.043 L 36.82 608.309 C 38.301 606.215 35.156 603.992 33.676 606.086 Z M 33.574 606.246 C 32.305 608.477 35.648 610.379 36.918 608.152 L 37.75 603.941 C 38.121 603.289 37.145 602.731 36.773 603.383 Z M 36.762 603.406 C 36.418 604.074 37.418 604.586 37.762 603.918 L 39.793 598.93 C 39.848 598.82 39.684 598.734 39.629 598.844 Z M 39.625 598.848 C 39.574 598.961 39.742 599.035 39.793 598.926 L 42.363 593.055 C 42.367 593.051 42.359 593.047 42.355 593.051 Z M 42.355 593.051 C 42.355 593.059 42.363 593.059 42.363 593.055 L 45.336 586.273 Z M 42.355 593.051"/><path fill="#f26419" stroke="none" d="M 26.395 75.625 C 26.383 75.676 26.457 75.691 26.469 75.641 L 26.75 74.703 C 26.781 74.555 26.559 74.508 26.527 74.652 Z M 26.527 74.66 C 26.504 74.809 26.727 74.844 26.75 74.695 L 27.105 73.383 C 27.156 73.047 26.656 72.969 26.602 73.301 Z M 26.602 73.297 C 26.543 73.629 27.043 73.723 27.102 73.387 L 27.66 71.711 C 27.781 71.059 26.805 70.879 26.684 71.527 Z M 26.684 71.523 C 26.555 72.172 27.531 72.363 27.66 71.715 L 28.383 70.176 C 28.617 68.984 26.832 68.637 26.598 69.824 Z M 26.598 69.824 C 26.363 71.016 28.148 71.363 28.383 70.176 L 29.375 68.68 C 29.785 66.59 26.648 65.977 26.242 68.066 Z M 26.25 68.027 C 25.789 70.105 28.906 70.797 29.367 68.719 L 30.66 67.504 C 31.41 64.129 26.344 63 25.594 66.379 Z M 25.594 66.383 C 24.848 69.758 29.914 70.879 30.66 67.5 L 32.23 66.34 C 33.348 61.293 25.773 59.617 24.66 64.664 Z M 24.691 64.535 C 23.402 69.543 30.914 71.473 32.199 66.469 L 33.969 65.602 C 35.75 58.66 25.34 55.984 23.559 62.926 Z M 23.48 63.277 C 22.164 70.32 32.73 72.293 34.047 65.25 L 35.887 64.406 C 37.605 55.191 23.789 52.613 22.066 61.824 Z M 22.121 61.574 C 20.066 70.719 33.781 73.797 35.836 64.656 L 37.613 64.051 C 40.137 52.824 23.293 49.039 20.77 60.27 Z M 20.945 59.609 C 17.547 70.602 34.035 75.703 37.438 64.711 L 38.93 64.434 C 42.859 51.73 23.801 45.836 19.871 58.543 Z M 20.105 57.863 C 15.273 70.25 33.855 77.504 38.691 65.113 L 39.848 65.238 C 45.227 51.457 24.551 43.391 19.172 57.172 Z M 29.512 50.109 C 14.715 50.109 14.715 72.301 29.512 72.301 L 29.613 73.297 C 45.738 73.297 45.738 49.109 29.613 49.109 Z M 41.395 58.473 C 37.754 42.766 14.191 48.227 17.832 63.938 L 17.004 64.633 C 20.938 81.594 46.379 75.691 42.445 58.73 Z M 42.707 60.27 C 40.824 42.961 14.863 45.785 16.742 63.094 L 15.883 64.152 C 17.902 82.75 45.797 79.719 43.777 61.121 Z M 43.824 61.688 C 42.559 43.023 14.563 44.922 15.832 63.586 L 14.922 65.184 C 16.281 85.199 46.301 83.16 44.941 63.148 Z M 44.957 63.41 C 43.949 43.379 13.898 44.891 14.906 64.922 L 13.988 67.176 C 15.066 88.582 47.176 86.965 46.098 65.559 Z M 46.105 65.766 C 45.305 44.348 13.176 45.551 13.98 66.969 L 13.035 69.777 C 13.891 92.594 48.113 91.309 47.258 68.492 Z M 47.27 69.137 C 47.27 46.305 13.023 46.305 13.023 69.137 L 11.969 72.77 C 11.969 97.004 48.324 97.004 48.324 72.77 Z M 48.32 72.348 C 47.758 48.117 11.414 48.957 11.977 73.188 L 10.996 77.703 C 11.59 103.379 50.098 102.488 49.504 76.813 Z M 49.508 77.621 C 49.988 51.945 11.477 51.223 10.992 76.898 L 9.809 82.422 C 9.301 109.539 49.977 110.301 50.484 83.184 Z M 50.488 82.801 C 50.488 55.68 9.805 55.68 9.805 82.801 L 8.781 89.59 C 8.781 118.078 51.512 118.078 51.512 89.59 Z M 51.512 89.863 C 51.875 61.379 9.145 60.832 8.781 89.316 L 7.719 97.43 C 7.336 127.199 51.988 127.77 52.367 98 Z M 52.363 98.207 C 53.02 68.445 8.375 67.461 7.723 97.223 L 7.332 106.965 C 6.672 136.957 51.664 137.945 52.324 107.953 Z M 52.32 108.094 C 53.164 78.105 8.184 76.836 7.336 106.824 L 7.02 118.105 C 6.172 148.094 51.156 149.363 52 119.375 Z M 51.992 119.66 C 53.219 89.688 8.258 87.844 7.027 117.816 L 6.496 130.813 C 5.266 160.789 50.23 162.633 51.457 132.656 Z M 51.457 132.715 C 52.762 102.742 7.805 100.785 6.5 130.758 L 5.863 145.379 C 4.559 175.352 49.516 177.309 50.82 147.336 Z M 50.809 147.535 C 52.379 117.574 7.441 115.223 5.871 145.18 L 5.02 161.43 C 3.449 191.387 48.391 193.742 49.957 163.781 Z M 49.969 163.547 C 51.227 133.574 6.266 131.691 5.008 161.664 L 4.27 179.344 C 3.012 209.32 47.973 211.203 49.23 181.227 Z M 49.223 181.41 C 50.719 151.445 5.773 149.203 4.277 179.164 L 3.32 198.277 C 1.824 228.238 46.77 230.484 48.266 200.523 Z M 48.273 200.328 C 49.512 170.352 4.551 168.5 3.313 198.473 L 2.461 219.117 C 1.227 249.09 46.188 250.945 47.422 220.969 Z M 47.426 220.918 C 48.59 190.941 3.625 189.191 2.461 219.168 L 1.609 241.059 C 0.441 271.035 45.41 272.781 46.574 242.805 Z M 46.582 242.559 C 47.418 212.57 2.438 211.316 1.602 241.305 L 0.965 264.141 C 0.129 294.129 45.109 295.383 45.945 265.395 Z M 45.949 265.277 C 46.625 235.281 1.637 234.27 0.961 264.262 L 0.43 287.871 C -0.25 317.863 44.738 318.879 45.418 288.887 Z M 45.422 288.68 C 45.816 258.68 0.82 258.082 0.426 288.082 L 0.105 312.066 C -0.293 342.063 44.703 342.66 45.102 312.664 Z M 45.105 312.465 C 45.234 282.465 0.234 282.266 0.105 312.266 L 0 336.066 C -0.129 366.066 44.867 366.262 45 336.262 Z M 45 336.063 C 44.867 306.063 -0.133 306.262 0 336.262 L 0.105 359.676 C 0.238 389.672 45.238 389.473 45.105 359.473 Z M 45.102 359.258 C 44.68 329.262 -0.316 329.895 0.105 359.891 L 0.426 382.547 C 0.848 412.543 45.84 411.91 45.418 381.914 Z M 45.414 381.672 C 44.672 351.684 -0.313 352.797 0.43 382.789 L 0.961 404.289 C 1.707 434.281 46.691 433.164 45.949 403.176 Z M 45.941 402.922 C 44.859 372.941 -0.109 374.563 0.969 404.543 L 1.711 425.09 C 2.789 455.07 47.762 453.449 46.68 423.469 Z M 46.668 423.172 C 45.195 393.207 0.246 395.418 1.723 425.383 L 2.676 444.789 C 4.152 474.75 49.098 472.539 47.625 442.574 Z M 47.621 442.504 C 46.047 412.543 1.109 414.902 2.68 444.859 L 3.645 463.207 C 5.215 493.164 50.152 490.809 48.582 460.848 Z M 48.57 460.66 C 46.75 430.715 1.832 433.449 3.652 463.395 L 4.711 480.793 C 6.535 510.734 51.453 508.004 49.629 478.059 Z M 49.621 477.953 C 47.66 448.016 2.758 450.961 4.719 480.898 L 5.785 497.145 C 7.75 527.082 52.652 524.137 50.688 494.199 Z M 50.684 494.117 C 48.609 464.191 3.719 467.301 5.789 497.227 L 6.848 512.516 C 8.922 542.441 53.816 539.332 51.742 509.406 Z M 51.719 509.117 C 49.266 479.219 4.414 482.902 6.871 512.801 L 8.039 527.043 C 10.496 556.941 55.344 553.258 52.891 523.359 Z M 52.875 523.168 C 50.164 493.293 5.348 497.355 8.059 527.234 L 9.227 540.133 C 11.934 570.008 56.75 565.945 54.043 536.07 Z M 54.039 536.051 C 51.309 506.176 6.496 510.277 9.227 540.152 L 11.031 551.652 C 13.672 580.539 57 576.574 54.355 547.688 Z M 54.348 547.613 C 51.605 518.738 8.293 522.855 11.039 551.727 L 15.648 561.508 C 17.93 585.516 53.945 582.094 51.664 558.086 Z M 51.66 558.047 C 49.332 534.043 13.32 537.535 15.648 561.543 L 20.875 569.816 C 22.637 587.984 49.891 585.34 48.125 567.172 Z M 48.141 567.313 C 46.566 549.129 19.289 551.488 20.859 569.672 L 26.258 576.625 C 27.281 588.461 45.035 586.926 44.012 575.09 Z M 44.023 575.215 C 43.164 563.363 25.391 564.652 26.25 576.5 L 30.797 582.125 C 31.258 588.484 40.793 587.793 40.332 581.434 Z M 40.344 581.672 C 40.199 575.297 30.637 575.52 30.785 581.891 L 33.582 586.32 C 33.648 589.102 37.82 589.004 37.754 586.223 Z M 37.754 586.344 C 37.848 583.563 33.68 583.422 33.582 586.199 L 34.883 589.309 C 34.852 590.219 36.219 590.266 36.25 589.356 Z M 36.211 589.555 C 36.512 588.695 35.219 588.242 34.918 589.106 L 34.898 590.813 C 34.836 590.992 35.105 591.086 35.168 590.906 Z M 35.031 591 C 35.223 591 35.223 590.719 35.031 590.719 L 34.18 590.848 C 34.164 590.848 34.164 590.871 34.18 590.871 Z M 34.172 590.867 C 34.18 590.879 34.199 590.867 34.191 590.852 L 33.121 589.332 Z M 34.172 590.867"/><path fill="#f26419" stroke="none" d="M 27.164 66.855 C 27.184 66.863 27.191 66.84 27.176 66.832 L 26.973 66.711 C 26.922 66.688 26.887 66.762 26.938 66.785 Z M 26.945 66.789 C 27 66.805 27.023 66.723 26.969 66.707 L 26.668 66.559 C 26.543 66.52 26.488 66.707 26.609 66.742 Z M 26.598 66.738 C 26.715 66.789 26.793 66.613 26.676 66.563 L 26.293 66.293 C 26.063 66.191 25.91 66.535 26.141 66.637 Z M 26.176 66.648 C 26.418 66.703 26.504 66.336 26.258 66.281 L 25.871 66.039 C 25.434 65.938 25.281 66.594 25.719 66.695 Z M 25.699 66.688 C 26.129 66.816 26.32 66.172 25.891 66.043 L 25.629 65.727 C 24.906 65.512 24.586 66.598 25.309 66.813 Z M 25.305 66.813 C 26.023 67.031 26.355 65.949 25.633 65.73 L 25.414 65.313 C 24.266 64.965 23.742 66.684 24.887 67.035 Z M 24.547 66.84 C 25.441 67.645 26.645 66.309 25.754 65.504 L 25.875 64.953 C 24.496 63.711 22.633 65.781 24.012 67.02 Z M 23.641 66.48 C 24.305 68.215 26.902 67.227 26.242 65.492 L 26.801 64.945 C 25.801 62.324 21.867 63.82 22.863 66.445 Z M 22.801 66.25 C 23.539 68.957 27.602 67.852 26.863 65.141 L 27.668 64.512 C 26.602 60.59 20.719 62.195 21.789 66.117 Z M 21.68 65.316 C 21.68 69.379 27.777 69.379 27.777 65.316 L 28.934 64.836 C 28.934 59.234 20.523 59.234 20.523 64.836 Z M 20.523 64.836 C 20.523 70.441 28.934 70.441 28.934 64.836 L 30.246 64.262 C 30.246 56.902 19.211 56.902 19.211 64.262 Z M 19.211 64.262 C 19.211 71.621 30.246 71.621 30.246 64.262 L 31.633 63.496 C 31.633 54.289 17.824 54.289 17.824 63.496 Z M 17.875 62.668 C 16.77 71.805 30.477 73.461 31.582 64.324 L 32.938 63.617 C 34.246 52.809 18.035 50.848 16.727 61.656 Z M 16.867 60.848 C 14.48 71.469 30.414 75.047 32.797 64.426 L 33.98 63.688 C 36.652 51.777 18.789 47.766 16.113 59.676 Z M 16.285 59.031 C 12.75 70.715 30.273 76.016 33.809 64.332 L 34.879 63.508 C 38.719 50.824 19.691 45.066 15.852 57.75 Z M 15.738 58.156 C 12.438 70.992 31.695 75.941 34.992 63.105 L 35.938 62.027 C 39.453 48.355 18.941 43.082 15.43 56.758 Z M 15.535 56.367 C 11.504 69.895 31.797 75.945 35.828 62.414 L 36.801 61.137 C 41.047 46.887 19.672 40.516 15.426 54.766 Z M 15.816 53.664 C 10.102 67.395 30.695 75.965 36.41 62.238 L 37.535 60.914 C 43.523 46.531 21.949 37.551 15.961 51.934 Z M 16.02 51.793 C 9.848 66.098 31.305 75.355 37.477 61.051 L 38.684 59.535 C 45.125 44.609 22.734 34.949 16.293 49.875 Z M 16.824 48.797 C 8.945 63.016 30.273 74.836 38.152 60.617 L 39.551 59.141 C 47.762 44.328 25.543 32.016 17.336 46.828 Z M 17.613 46.352 C 8.77 60.793 30.434 74.055 39.273 59.613 L 40.855 57.957 C 50.031 42.969 27.551 29.203 18.375 44.191 Z M 19.215 42.973 C 8.418 56.836 29.211 73.035 40.012 59.172 L 41.867 57.551 C 53.051 43.195 31.52 26.422 20.336 40.777 Z M 20.695 40.336 C 8.922 54.211 29.738 71.871 41.512 57.992 L 43.555 56.277 C 55.715 41.941 34.211 23.703 22.055 38.039 Z M 23.125 36.91 C 9.461 49.816 28.82 70.313 42.484 57.406 L 44.906 55.715 C 58.992 42.41 39.035 21.281 24.949 34.586 Z M 25.934 33.738 C 10.719 45.73 28.707 68.555 43.922 56.563 L 46.723 54.879 C 62.371 42.547 43.875 19.074 28.227 31.406 Z M 29.199 30.703 C 12.613 41.734 29.16 66.617 45.75 55.586 L 48.832 53.992 C 65.844 42.68 48.875 17.16 31.863 28.477 Z M 33.113 27.727 C 15.105 37.371 29.574 64.387 47.582 54.738 L 51.16 53.254 C 69.613 43.367 54.785 15.688 36.332 25.57 Z M 37.32 25.086 C 18.219 33.652 31.066 62.305 50.168 53.738 L 54.137 52.34 C 73.66 43.582 60.527 14.297 41.004 23.055 Z M 42.137 22.598 C 22.004 29.844 32.875 60.043 53.008 52.797 L 57.371 51.586 C 77.926 44.188 66.828 13.352 46.273 20.75 Z M 46.895 20.539 C 26.059 27.105 35.91 58.363 56.746 51.797 L 61.41 50.668 C 82.664 43.969 72.617 12.09 51.363 18.789 Z M 52.445 18.488 C 30.789 23.746 38.676 56.23 60.332 50.969 L 65.5 50 C 87.512 44.652 79.492 11.633 57.477 16.977 Z M 57.895 16.883 C 35.75 21.676 42.941 54.887 65.082 50.098 L 70.445 49.195 C 92.914 44.332 85.621 10.625 63.148 15.488 Z M 63.629 15.391 C 41.031 19.609 47.359 53.512 69.961 49.293 L 75.633 48.441 C 98.5 44.172 92.098 9.867 69.227 14.137 Z M 69.336 14.117 C 46.438 18.238 52.625 52.586 75.523 48.461 L 81.395 47.586 C 104.523 43.418 98.277 8.723 75.145 12.891 Z M 75.254 12.871 C 52.098 16.891 58.129 51.625 81.285 47.605 L 87.367 46.699 C 110.723 42.645 104.637 7.613 81.281 11.668 Z M 81.301 11.664 C 57.941 15.695 63.988 50.734 87.348 46.703 L 93.426 45.793 C 116.965 41.73 110.871 6.426 87.332 10.484 Z M 87.414 10.473 C 63.859 14.426 69.785 49.762 93.344 45.809 L 99.641 44.906 C 123.398 40.922 117.418 5.285 93.66 9.27 Z M 93.93 9.227 C 70.113 12.855 75.555 48.578 99.371 44.949 L 105.664 44.145 C 129.68 40.488 124.191 4.461 100.176 8.121 Z M 100.242 8.109 C 76.211 11.68 81.566 47.727 105.594 44.156 L 112.102 43.391 C 136.395 39.781 130.984 3.344 106.691 6.953 Z M 106.98 6.91 C 82.633 10.133 87.465 46.652 111.813 43.43 L 118.328 42.809 C 142.988 39.543 138.094 2.555 113.434 5.816 Z M 114.02 5.75 C 89.266 8.234 92.992 45.359 117.742 42.875 L 124.461 42.473 C 149.57 39.957 145.793 2.289 120.684 4.809 Z M 120.973 4.781 C 95.828 6.914 99.027 44.633 124.172 42.5 L 130.887 42.203 C 156.395 40.043 153.148 1.781 127.641 3.945 Z M 128.172 3.906 C 102.613 5.363 104.801 43.699 130.355 42.242 L 137.168 42.121 C 163.082 40.645 160.867 1.773 134.953 3.25 Z M 135.535 3.227 C 109.586 3.93 110.641 42.848 136.586 42.148 L 143.5 42.207 C 169.773 41.496 168.707 2.082 142.434 2.793 Z M 142.965 2.785 C 116.68 2.785 116.68 42.215 142.965 42.215 L 149.871 42.41 C 176.418 42.41 176.418 2.59 149.871 2.59 Z M 150.152 2.594 C 123.609 2.223 123.051 42.035 149.594 42.406 L 156.496 42.66 C 183.246 43.035 183.813 2.91 157.059 2.535 Z M 157.32 2.539 C 130.578 1.816 129.492 41.93 156.234 42.656 L 163.141 42.922 C 189.988 43.648 191.078 3.375 164.23 2.648 Z M 164.531 2.656 C 137.695 1.527 136.004 41.781 162.84 42.91 L 169.742 43.246 C 196.641 44.379 198.34 4.031 171.441 2.902 Z M 171.422 2.898 C 144.52 1.797 142.863 42.145 169.762 43.25 L 176.668 43.547 C 203.59 44.656 205.246 4.273 178.328 3.168 Z M 178.066 3.16 C 151.133 2.402 149.996 42.801 176.93 43.559 L 183.832 43.734 C 210.742 44.492 211.875 4.125 184.965 3.367 Z M 184.953 3.367 C 158.039 2.629 156.93 42.996 183.844 43.734 L 190.645 43.922 C 217.559 44.66 218.664 4.293 191.754 3.555 Z M 191.488 3.551 C 164.57 3.164 163.992 43.543 190.91 43.93 L 197.707 44.016 C 224.617 44.402 225.191 4.039 198.281 3.652 Z M 198.293 3.652 C 171.383 3.258 170.789 43.621 197.699 44.016 L 204.285 44.129 C 231.215 44.527 231.809 4.133 204.879 3.734 Z M 204.582 3.734 C 177.648 3.734 177.648 44.133 204.582 44.133 L 211.066 44.148 C 238.02 44.148 238.02 3.719 211.066 3.719 Z M 211.379 3.719 C 184.43 3.305 183.805 43.727 210.754 44.145 L 217.016 44.258 C 243.988 44.676 244.613 4.219 217.645 3.801 Z M 217.332 3.797 C 190.355 3.797 190.355 44.262 217.332 44.262 L 223.387 44.285 C 250.391 44.285 250.391 3.773 223.387 3.773 Z M 223.723 3.777 C 196.719 3.332 196.047 43.832 223.051 44.281 L 228.898 44.402 C 255.93 44.852 256.602 4.297 229.57 3.852 Z M 229.234 3.848 C 202.195 3.848 202.195 44.406 229.234 44.406 L 234.859 44.414 C 261.906 44.414 261.906 3.84 234.859 3.84 Z M 235.203 3.844 C 208.156 3.387 207.473 43.953 234.516 44.41 L 239.832 44.5 C 266.875 44.957 267.563 4.391 240.516 3.934 Z M 240.566 3.934 C 213.523 3.41 212.738 43.973 239.781 44.5 L 244.77 44.613 C 271.832 45.137 272.621 4.539 245.559 4.016 Z M 245.984 4.027 C 218.938 2.93 217.293 43.504 244.34 44.598 L 249.121 44.801 C 276.18 45.898 277.824 5.309 250.766 4.215 Z M 250.793 4.215 C 223.738 3.082 222.039 43.668 249.094 44.801 L 253.559 45.012 C 280.648 46.145 282.348 5.512 255.258 4.379 Z M 255.832 4.41 C 228.785 2.512 225.941 43.082 252.984 44.977 L 257.133 45.254 C 284.156 47.148 287 6.609 259.977 4.715 Z M 260.512 4.762 C 233.547 2.148 229.633 42.598 256.594 45.207 L 260.527 45.59 C 287.492 48.199 291.406 7.754 264.441 5.141 Z M 264.613 5.16 C 237.672 2.32 233.414 42.73 260.355 45.57 L 263.969 45.945 C 290.898 48.781 295.156 8.383 268.227 5.547 Z M 268.469 5.574 C 241.574 2.41 236.828 42.754 263.723 45.918 L 267.02 46.281 C 293.883 49.441 298.625 9.145 271.762 5.984 Z M 271.879 6 C 245.035 2.684 240.059 42.949 266.902 46.266 L 269.984 46.613 C 296.789 49.93 301.758 9.727 274.953 6.414 Z M 274.539 6.367 C 247.676 3.605 243.535 43.902 270.398 46.66 L 273.168 46.867 C 299.93 49.617 304.055 9.477 277.293 6.727 Z M 278.336 6.863 C 251.758 2.719 245.543 42.59 272.125 46.734 L 274.59 46.973 C 300.984 51.086 307.152 11.496 280.758 7.383 Z M 279.41 7.219 C 252.797 4.906 249.328 44.82 275.938 47.137 L 278.188 47.105 C 304.496 49.395 307.93 9.926 281.617 7.641 Z M 281.895 7.664 C 255.617 5.008 251.633 44.422 277.91 47.078 L 279.855 46.988 C 305.75 49.605 309.676 10.762 283.781 8.145 Z M 284.094 8.18 C 258.246 5.145 253.695 43.918 279.543 46.953 L 281.176 46.773 C 306.543 49.754 311.008 11.707 285.645 8.73 Z M 284.656 8.641 C 259.172 6.98 256.684 45.207 282.168 46.867 L 283.68 46.57 C 308.641 48.195 311.078 10.754 286.117 9.129 Z M 284.898 9.09 C 259.883 9.09 259.883 46.609 284.898 46.609 L 286.066 46.219 C 310.559 46.219 310.559 9.48 286.066 9.48 Z M 287.922 9.574 C 263.555 7.102 259.848 43.652 284.215 46.125 L 285.203 45.891 C 309.129 48.32 312.77 12.43 288.844 10 Z M 284.684 10.063 C 260.836 13.18 265.516 48.953 289.363 45.832 L 290.07 45.477 C 313.574 42.402 308.961 7.145 285.457 10.223 Z M 287.762 10.07 C 264.059 10.07 264.059 45.629 287.762 45.629 L 288.398 45.441 C 311.855 45.441 311.855 10.258 288.398 10.258 Z M 285.254 10.543 C 262.176 14.738 268.469 49.352 291.547 45.156 L 292.059 44.949 C 314.988 40.781 308.734 6.387 285.805 10.559 Z M 285.348 10.648 C 262.539 15.43 269.711 49.641 292.52 44.859 L 292.938 44.711 C 315.668 39.945 308.52 5.848 285.789 10.613 Z M 281.996 11.875 C 260.949 21.699 275.68 53.27 296.73 43.449 L 296.926 43.328 C 317.938 33.52 303.23 2 282.215 11.805 Z M 282.41 11.715 C 261.277 21.258 275.594 52.961 296.727 43.418 L 296.926 43.281 C 318.008 33.758 303.727 2.137 282.645 11.656 Z M 289.785 10.121 C 266.652 10.121 266.652 44.816 289.785 44.816 L 290 44.746 C 313.039 44.746 313.039 10.191 290 10.191 Z M 278.207 14.836 C 261.367 30.555 284.945 55.82 301.789 40.102 L 301.781 39.887 C 318.465 24.313 295.109 -0.715 278.422 14.859 Z M 290.102 10.477 C 267.578 10.477 267.578 44.266 290.102 44.266 L 290.207 43.949 C 312.309 43.949 312.309 10.797 290.207 10.797 Z M 290.207 43.949 C 312.309 43.949 312.309 10.797 290.207 10.797 L 290.102 11.184 C 268.52 11.184 268.52 43.559 290.102 43.559 Z M 290.102 43.141 C 311.125 43.141 311.125 11.605 290.102 11.605 L 290 12.02 C 269.527 12.02 269.527 42.727 290 42.727 Z M 290 42.727 C 310.473 42.727 310.473 12.02 290 12.02 L 289.887 12.402 C 269.93 12.402 269.93 42.34 289.887 42.34 Z M 289.887 42.34 C 309.844 42.34 309.844 12.402 289.887 12.402 L 289.785 12.758 C 270.301 12.758 270.301 41.984 289.785 41.984 Z M 289.785 41.984 C 309.27 41.984 309.27 12.758 289.785 12.758 L 289.68 13.066 C 270.605 13.066 270.605 41.68 289.68 41.68 Z M 289.68 41.68 C 308.758 41.68 308.758 13.066 289.68 13.066 L 289.57 13.313 C 270.824 13.313 270.824 41.434 289.57 41.434 Z M 289.57 41.434 C 308.316 41.434 308.316 13.313 289.57 13.313 L 289.465 13.5 C 270.969 13.5 270.969 41.242 289.465 41.242 Z M 289.465 41.242 C 307.961 41.242 307.961 13.5 289.465 13.5 L 289.363 13.645 C 271.059 13.645 271.059 41.098 289.363 41.098 Z M 289.363 41.098 C 307.664 41.098 307.664 13.645 289.363 13.645 L 289.25 13.754 C 271.094 13.754 271.094 40.992 289.25 40.992 Z M 289.25 40.992 C 307.41 40.992 307.41 13.754 289.25 13.754 L 289.148 13.813 C 271.07 13.813 271.07 40.93 289.148 40.93 Z M 289.148 40.93 C 307.227 40.93 307.227 13.813 289.148 13.813 L 289.043 13.848 C 271.012 13.848 271.012 40.895 289.043 40.895 Z M 289.043 40.895 C 307.074 40.895 307.074 13.848 289.043 13.848 L 288.934 13.859 C 270.918 13.859 270.918 40.883 288.934 40.883 Z M 288.934 40.883 C 306.949 40.883 306.949 13.859 288.934 13.859 L 288.727 13.895 C 270.758 13.895 270.758 40.848 288.727 40.848 Z M 288.727 40.848 C 306.691 40.848 306.691 13.895 288.727 13.895 L 288.613 13.957 C 270.727 13.957 270.727 40.789 288.613 40.789 Z M 288.613 40.789 C 306.504 40.789 306.504 13.957 288.613 13.957 L 288.398 14.051 C 270.641 14.051 270.641 40.691 288.398 40.691 Z M 288.398 40.691 C 306.16 40.691 306.16 14.051 288.398 14.051 L 288.297 14.199 C 270.73 14.199 270.73 40.547 288.297 40.547 Z M 297.285 37.004 C 310.125 25.016 292.148 5.754 279.309 17.742 L 279.34 17.98 C 266.691 29.789 284.398 48.762 297.047 36.953 Z M 301.168 27.469 C 301.168 10.168 275.215 10.168 275.215 27.469 L 275.48 27.566 C 275.48 44.516 300.906 44.516 300.906 27.566 Z M 300.633 27.566 C 300.633 10.98 275.754 10.98 275.754 27.566 L 276.012 27.664 C 276.012 43.906 300.375 43.906 300.375 27.664 Z M 288.191 39.254 C 303.648 39.254 303.648 16.07 288.191 16.07 L 288.082 16.047 C 272.598 16.047 272.598 39.277 288.082 39.277 Z M 288.082 39.355 C 303.676 39.355 303.676 15.969 288.082 15.969 L 287.977 15.836 C 272.211 15.836 272.211 39.488 287.977 39.488 Z M 295.723 36.598 C 307.637 26.273 292.148 8.398 280.234 18.727 L 280.016 18.684 C 267.926 29.164 283.641 47.301 295.734 36.82 Z M 295.777 36.781 C 307.816 26.246 292.012 8.188 279.973 18.723 L 279.719 18.656 C 267.461 29.383 283.551 47.766 295.809 37.043 Z M 296.098 36.777 C 308.004 25.668 291.336 7.805 279.43 18.918 L 279.164 18.844 C 267.027 30.172 284.02 48.375 296.156 37.047 Z M 296.156 37.047 C 308.289 25.723 291.301 7.516 279.164 18.844 L 278.91 18.781 C 266.559 30.309 283.852 48.836 296.203 37.309 Z M 295.898 37.578 C 308.617 26.453 291.926 7.379 279.211 18.508 L 278.965 18.449 C 266.043 29.754 283.004 49.137 295.926 37.832 Z M 300.504 28.141 C 300.504 10.73 274.387 10.73 274.387 28.141 L 274.234 28.23 C 274.234 45.844 300.656 45.844 300.656 28.23 Z M 287.445 41.656 C 305.348 41.656 305.348 14.801 287.445 14.801 L 287.34 14.684 C 269.277 14.684 269.277 41.777 287.34 41.777 Z M 301.008 28.23 C 301.008 10.008 273.676 10.008 273.676 28.23 L 273.523 28.328 C 273.523 46.75 301.16 46.75 301.16 28.328 Z M 287.34 11.738 C 265.223 11.738 265.223 44.918 287.34 44.918 L 287.445 45.367 C 310.164 45.367 310.164 11.285 287.445 11.285 Z M 287.445 11.285 C 264.727 11.285 264.727 45.367 287.445 45.367 L 287.66 45.781 C 310.934 45.781 310.934 10.871 287.66 10.871 Z M 287.66 10.871 C 264.387 10.871 264.387 45.781 287.66 45.781 L 287.875 46.168 C 311.664 46.168 311.664 10.484 287.875 10.484 Z M 287.875 10.484 C 264.082 10.484 264.082 46.168 287.875 46.168 L 288.191 46.52 C 312.449 46.52 312.449 10.137 288.191 10.137 Z M 288.191 10.137 C 263.938 10.137 263.938 46.52 288.191 46.52 L 288.613 46.844 C 313.301 46.844 313.301 9.813 288.613 9.813 Z M 288.613 9.813 C 263.926 9.813 263.926 46.844 288.613 46.844 L 289.043 47.125 C 314.109 47.125 314.109 9.527 289.043 9.527 Z M 293.25 10.004 C 268.82 4.398 260.41 41.043 284.84 46.648 L 285.207 46.98 C 309.949 52.66 318.469 15.547 293.727 9.867 Z M 293.727 9.867 C 268.98 4.188 260.465 41.301 285.207 46.98 L 285.586 47.262 C 310.574 52.996 319.18 15.516 294.191 9.777 Z M 289.887 9.293 C 264.25 9.293 264.25 47.75 289.887 47.75 L 290.316 47.91 C 316.168 47.91 316.168 9.133 290.316 9.133 Z M 293.785 9.445 C 268.352 4.82 261.414 42.973 286.848 47.598 L 287.355 47.848 C 312.992 52.508 319.984 14.051 294.348 9.391 Z M 294.145 9.352 C 268.461 4.961 261.871 43.488 287.555 47.883 L 288.055 48.125 C 313.941 52.551 320.586 13.719 294.695 9.293 Z M 294.898 9.328 C 269.059 4.629 262.012 43.391 287.852 48.086 L 288.355 48.352 C 314.418 53.094 321.527 13.996 295.465 9.254 Z M 296.352 9.438 C 270.531 3.512 261.645 42.242 287.465 48.168 L 287.844 48.457 C 313.918 54.441 322.895 15.328 296.82 9.344 Z M 295.922 9.16 C 269.598 4.375 262.418 43.855 288.742 48.641 L 289.227 49.004 C 315.902 53.855 323.176 13.84 296.5 8.992 Z M 297.344 9.164 C 270.895 3.191 261.938 42.859 288.387 48.832 L 288.746 49.234 C 315.598 55.297 324.691 15.02 297.84 8.957 Z M 297.598 8.902 C 270.672 3.164 262.066 43.551 288.988 49.289 L 289.332 49.742 C 316.746 55.586 325.508 14.469 298.098 8.625 Z M 302.484 10.082 C 277.012 -1.609 259.477 36.598 284.945 48.289 L 285.199 48.852 C 311.16 60.766 329.035 21.824 303.074 9.906 Z M 302.957 9.852 C 276.922 -1.906 259.285 37.148 285.32 48.906 L 285.559 49.516 C 312.148 61.523 330.164 21.637 303.574 9.629 Z M 301.809 8.922 C 274.273 -0.73 259.793 40.566 287.324 50.223 L 287.684 50.902 C 315.875 60.785 330.703 18.5 302.512 8.617 Z M 307.805 11.305 C 283.199 -5.637 257.789 31.273 282.395 48.211 L 282.762 48.582 C 307.473 65.594 332.992 28.531 308.281 11.52 Z M 308.598 11.742 C 284.188 -5.695 258.031 30.922 282.441 48.359 L 282.977 48.738 C 307.387 66.176 333.543 29.559 309.133 12.121 Z M 311.07 13.676 C 288.727 -6.348 258.695 27.168 281.039 47.188 L 281.57 47.664 C 303.914 67.684 333.945 34.172 311.602 14.152 Z M 311.711 14.25 C 289.5 -5.918 259.25 27.402 281.461 47.566 L 281.988 48.043 C 304.199 68.211 334.449 34.891 312.238 14.727 Z M 314.734 17.395 C 296.082 -6.102 260.84 21.879 279.488 45.375 L 280.023 46.047 C 298.676 69.543 333.922 41.566 315.27 18.066 Z M 315.195 17.98 C 296.426 -5.422 261.324 22.73 280.094 46.133 L 280.625 46.801 C 299.398 70.203 334.5 42.047 315.73 18.645 Z M 317.336 20.922 C 301.602 -4.621 263.285 18.98 279.02 44.523 L 279.555 45.387 C 295.289 70.93 333.602 47.328 317.867 21.785 Z M 318.836 23.523 C 305.418 -3.309 265.172 16.816 278.586 43.648 L 279.113 44.699 C 292.527 71.531 332.777 51.41 319.363 24.574 Z M 320.07 26.141 C 308.738 -1.637 267.074 15.359 278.402 43.137 L 278.832 44.188 C 290.164 71.965 331.832 54.969 320.5 27.191 Z M 320.563 27.352 C 309.449 -0.512 267.652 16.164 278.77 44.027 L 279.301 45.363 C 290.418 73.227 332.215 56.551 321.098 28.688 Z M 321.652 30.246 C 312.613 1.641 269.703 15.199 278.746 43.805 L 279.168 45.141 C 288.207 73.746 331.117 60.184 322.074 31.582 Z M 322.398 32.707 C 314.863 3.672 271.305 14.977 278.844 44.016 L 279.266 45.641 C 286.801 74.68 330.359 63.371 322.82 34.336 Z M 322.938 34.805 C 316.031 5.613 272.238 15.977 279.148 45.168 L 279.578 46.98 C 286.484 76.176 330.277 65.813 323.367 36.617 Z M 323.492 37.168 C 317.316 7.813 273.277 17.074 279.453 46.434 L 279.875 48.438 C 286.051 77.797 330.09 68.535 323.914 39.176 Z M 323.941 39.313 C 317.945 9.918 273.852 18.91 279.848 48.305 L 280.277 50.406 C 286.273 79.801 330.363 70.809 324.371 41.414 Z M 324.48 42.004 C 319.273 12.461 274.957 20.273 280.164 49.816 L 280.586 52.211 C 285.797 81.758 330.113 73.941 324.902 44.398 Z M 324.871 44.207 C 319.406 14.711 275.156 22.906 280.621 52.402 L 281.578 57.559 C 287.043 87.059 331.289 78.859 325.824 49.363 Z M 325.797 49.219 C 320.141 19.758 275.945 28.242 281.605 57.703 L 282.137 60.48 C 287.793 89.941 331.988 81.453 326.328 51.992 Z M 326.379 52.25 C 321.066 22.727 276.777 30.695 282.09 60.219 L 282.621 63.18 C 287.934 92.707 332.223 84.738 326.91 55.215 Z M 326.594 53.742 C 319.32 24.637 275.664 35.551 282.938 64.656 L 283.68 67.617 C 290.953 96.723 334.609 85.809 327.336 56.703 Z M 327.363 56.82 C 320.242 27.676 276.527 38.359 283.648 67.5 L 284.398 70.559 C 291.52 99.703 335.23 89.02 328.109 59.879 Z M 327.789 58.699 C 319.102 29.988 276.027 43.023 284.719 71.734 L 285.672 74.891 C 294.363 103.605 337.434 90.57 328.746 61.855 Z M 328.309 60.555 C 317.883 32.426 275.688 48.063 286.113 76.191 L 287.281 79.348 C 297.707 107.48 339.902 91.84 329.477 63.711 Z M 329.406 63.52 C 318.727 35.484 276.672 51.504 287.352 79.539 L 288.625 82.883 C 299.305 110.918 341.359 94.898 330.68 66.863 Z M 330.207 65.723 C 318.008 38.316 276.898 56.613 289.098 84.023 L 290.586 87.363 C 302.785 114.773 343.895 96.473 331.695 69.063 Z M 331.656 68.98 C 319.344 41.621 278.309 60.094 290.621 87.449 L 292.215 90.984 C 304.527 118.344 345.563 99.871 333.25 72.516 Z M 332.527 71.059 C 318.273 44.66 278.68 66.047 292.934 92.441 L 294.844 95.98 C 309.102 122.375 348.695 100.988 334.438 74.594 Z M 334.652 75.004 C 320.941 48.32 280.918 68.887 294.629 95.57 L 296.547 99.301 C 310.258 125.984 350.281 105.414 336.57 78.73 Z M 335.863 77.461 C 320.457 51.719 281.844 74.828 297.254 100.57 L 299.48 104.293 C 314.887 130.035 353.5 106.926 338.094 81.184 Z M 338.23 81.418 C 323.137 55.492 284.246 78.137 299.344 104.063 L 301.57 107.887 C 316.668 133.813 355.555 111.172 340.457 85.246 Z M 340.332 85.031 C 324.953 59.273 286.316 82.344 301.699 108.102 L 304.035 112.02 C 319.418 137.777 358.055 114.703 342.672 88.949 Z M 342.07 87.996 C 325.418 63.039 287.988 88.016 304.637 112.973 L 307.191 116.797 C 323.844 141.754 361.273 116.777 344.625 91.82 Z M 344.48 91.605 C 327.543 66.848 290.398 92.25 307.336 117.012 L 309.883 120.734 C 326.82 145.496 363.961 120.09 347.023 95.332 Z M 345.641 93.512 C 326.277 70.598 291.906 99.641 311.27 122.555 L 317.004 129.344 C 336.367 152.258 370.738 123.215 351.375 100.301 Z M 349.234 98.09 C 326.926 78.031 296.84 111.496 319.148 131.555 L 322.441 134.516 C 344.75 154.574 374.836 121.109 352.527 101.051 Z M 351.172 99.926 C 327.359 81.676 299.988 117.395 323.801 135.645 L 327.41 138.41 C 351.223 156.66 378.594 120.941 354.781 102.691 Z M 352.801 101.336 C 327.184 85.73 303.77 124.16 329.391 139.766 L 333.324 142.16 C 358.945 157.77 382.355 119.336 356.734 103.73 Z M 354.793 102.676 C 327.766 89.656 308.234 130.195 335.262 143.219 L 339.617 145.313 C 366.645 158.332 386.172 117.793 359.145 104.773 Z M 357.008 103.875 C 328.785 93.703 313.531 136.039 341.754 146.211 L 346.535 147.934 C 374.758 158.105 390.016 115.77 361.789 105.598 Z M 359.5 104.91 C 330.359 97.789 319.68 141.504 348.824 148.625 L 353.926 149.871 C 383.066 156.988 393.746 113.273 364.602 106.152 Z M 363.168 105.852 C 333.625 100.645 325.813 144.965 355.355 150.172 L 360.777 151.125 C 390.32 156.332 398.133 112.016 368.586 106.809 Z M 366.547 106.543 C 336.652 104.055 332.918 148.902 362.816 151.391 L 368.551 151.867 C 398.449 154.355 402.18 109.512 372.285 107.023 Z M 370.797 106.949 C 340.801 106.441 340.043 151.434 370.039 151.941 L 375.773 152.039 C 405.77 152.543 406.531 107.551 376.535 107.043 Z M 375.035 107.07 C 345.074 108.559 347.309 153.504 377.273 152.012 L 383.113 151.723 C 413.078 150.23 410.84 105.289 380.879 106.777 Z M 379.332 106.91 C 349.543 110.457 354.867 155.141 384.656 151.594 L 390.289 150.922 C 420.078 147.371 414.754 102.688 384.965 106.238 Z M 383.793 106.41 C 354.234 111.52 361.902 155.863 391.461 150.75 L 396.984 149.797 C 426.547 144.684 418.879 100.34 389.316 105.453 Z M 388.328 105.648 C 359.027 112.078 368.668 156.031 397.973 149.602 L 403.148 148.336 C 432.289 141.945 422.699 98.234 393.559 104.629 Z M 392.309 104.941 C 363.586 113.004 375.68 156.09 404.402 148.023 L 408.285 143.477 C 432.734 136.613 422.438 99.938 397.988 106.801 Z M 397.316 107.004 C 373.133 114.766 384.773 151.035 408.957 143.277 L 412.223 138.105 C 431.418 131.945 422.176 103.148 402.98 109.309 Z M 402.422 109.5 C 383.48 116.402 393.836 144.816 412.777 137.914 L 415.238 132.449 C 428.801 127.504 421.387 107.16 407.824 112.102 Z M 407.68 112.156 C 394.188 117.293 401.891 137.531 415.383 132.395 L 417.41 127.168 C 425.715 124.008 420.973 111.551 412.668 114.711 Z M 412.375 114.832 C 404.23 118.383 409.559 130.598 417.703 127.047 L 419.469 122.691 C 423.59 120.891 420.895 114.707 416.77 116.504 Z M 416.691 116.539 C 412.613 118.445 415.473 124.559 419.547 122.652 L 421.348 119.598 C 423.004 118.824 421.844 116.344 420.188 117.117 Z M 420.117 117.152 C 418.512 118.02 419.813 120.43 421.418 119.563 L 423.094 117.566 C 423.57 117.309 423.184 116.594 422.707 116.852 Z M 422.688 116.863 C 422.223 117.148 422.652 117.84 423.113 117.555 L 424.637 116.223 C 424.719 116.168 424.641 116.043 424.555 116.094 Z M 424.547 116.102 C 424.473 116.164 424.566 116.277 424.645 116.215 L 425.871 115.109 C 425.879 115.105 425.871 115.098 425.867 115.102 Z M 425.867 115.102 C 425.859 115.105 425.867 115.113 425.871 115.109 L 426.719 114.152 Z M 425.867 115.102"/><path fill="#f26419" stroke="none" d="M 385.441 124.953 C 385.441 124.887 385.344 124.887 385.344 124.953 L 385.219 125.043 C 385.219 125.273 385.566 125.273 385.566 125.043 Z M 385.512 125.172 C 385.68 125.012 385.445 124.758 385.273 124.914 L 385.004 124.836 C 384.598 125.215 385.168 125.824 385.574 125.445 Z M 385.461 125.52 C 385.969 125.293 385.625 124.531 385.117 124.758 L 384.73 124.477 C 383.719 124.934 384.406 126.453 385.418 125.996 Z M 385.645 125.848 C 386.457 125.086 385.32 123.867 384.504 124.625 L 383.941 124.23 C 382.473 125.602 384.531 127.809 386 126.438 Z M 386.652 123.531 C 384.25 121.293 380.891 124.895 383.289 127.133 L 382.578 128.105 C 386.145 131.434 391.137 126.086 387.57 122.758 Z M 385.074 121.773 C 380.199 121.773 380.199 129.09 385.074 129.09 L 385.188 130.469 C 391.906 130.469 391.906 120.391 385.188 120.391 Z M 385.188 120.391 C 378.465 120.391 378.465 130.469 385.188 130.469 L 385.926 133.57 C 396.777 133.57 396.777 117.293 385.926 117.293 Z M 384.703 117.383 C 373.973 119.016 376.422 135.109 387.152 133.477 L 388.004 134.797 C 400.621 132.879 397.742 113.949 385.121 115.871 Z M 386.563 115.762 C 373.801 115.762 373.801 134.906 386.563 134.906 L 387.52 136.246 C 402.07 136.246 402.07 114.418 387.52 114.418 Z M 385.734 114.566 C 371.379 116.945 374.945 138.48 389.301 136.102 L 390.684 137.195 C 406.762 134.535 402.766 110.418 386.691 113.082 Z M 386.551 113.105 C 370.508 115.953 374.777 140.02 390.824 137.172 L 392.66 138.23 C 410.492 135.066 405.742 108.316 387.91 111.484 Z M 388 111.469 C 370.148 114.516 374.723 141.293 392.574 138.246 L 395.039 139.266 C 414.762 135.898 409.711 106.316 389.988 109.684 Z M 389.457 109.785 C 369.867 113.859 375.98 143.242 395.57 139.168 L 398.637 140.063 C 420.188 135.582 413.461 103.258 391.914 107.738 Z M 393.051 107.543 C 371.238 110.512 375.691 143.227 397.5 140.258 L 401.223 141.34 C 425.113 138.09 420.234 102.254 396.344 105.508 Z M 396.473 105.488 C 372.559 108.57 377.184 144.441 401.094 141.359 L 405.762 142.426 C 431.863 139.059 426.816 99.91 400.719 103.273 Z M 401.543 103.188 C 375.324 105.449 378.719 144.777 404.938 142.512 L 410.621 143.801 C 439.191 141.332 435.492 98.477 406.918 100.941 Z M 407.188 100.922 C 378.586 103.031 381.75 145.93 410.352 143.82 L 416.902 144.332 C 446.82 142.129 443.512 97.25 413.594 99.457 Z M 414.094 99.426 C 384.133 100.965 386.441 145.902 416.402 144.363 L 423.945 143.977 C 453.906 142.438 451.598 97.496 421.637 99.035 Z M 422.059 99.02 C 392.074 99.996 393.539 144.973 423.523 143.996 L 432.234 143.711 C 462.219 142.734 460.754 97.758 430.77 98.734 Z M 431.281 98.723 C 401.281 99.02 401.723 144.016 431.723 143.723 L 441.605 143.625 C 471.602 143.332 471.164 98.332 441.164 98.629 Z M 441.184 98.629 C 411.184 98.895 411.586 143.895 441.586 143.625 L 452.422 143.527 C 482.422 143.262 482.02 98.262 452.02 98.531 Z M 452.406 98.531 C 422.406 98.285 422.039 143.285 452.039 143.527 L 463.934 143.625 C 493.934 143.871 494.301 98.871 464.301 98.625 Z M 464.461 98.629 C 434.465 98.168 433.777 143.164 463.773 143.625 L 476.414 143.816 C 506.41 144.277 507.102 99.281 477.105 98.824 Z M 477.246 98.824 C 447.25 98.18 446.281 143.168 476.277 143.816 L 489.445 144.098 C 519.438 144.746 520.406 99.754 490.414 99.109 Z M 490.254 99.105 C 460.254 98.676 459.609 143.672 489.605 144.102 L 503.102 144.297 C 533.098 144.727 533.742 99.73 503.746 99.301 Z M 503.422 99.297 C 473.422 99.297 473.422 144.297 503.422 144.297 L 516.918 144.297 C 546.918 144.297 546.918 99.297 516.918 99.297 Z M 516.512 99.301 C 486.516 99.844 487.328 144.836 517.324 144.293 L 543.773 143.816 C 573.77 143.273 572.957 98.281 542.961 98.824 Z M 542.512 98.836 C 512.531 99.977 514.246 144.945 544.223 143.805 L 556.762 143.324 C 586.742 142.184 585.027 97.219 555.051 98.359 Z M 554.82 98.367 C 524.856 99.816 527.027 144.762 556.992 143.316 L 568.887 142.742 C 598.852 141.297 596.684 96.348 566.715 97.793 Z M 566.27 97.82 C 536.34 99.863 539.402 144.758 569.332 142.715 L 580.594 141.949 C 610.523 139.906 607.461 95.012 577.531 97.051 Z M 577.629 97.047 C 547.688 98.957 550.555 143.863 580.492 141.953 L 590.906 141.289 C 620.848 139.379 617.984 94.473 588.043 96.383 Z M 587.695 96.406 C 557.789 98.781 561.352 143.641 591.258 141.266 L 600.926 140.496 C 630.832 138.121 627.266 93.262 597.359 95.637 Z M 597.434 95.633 C 567.52 97.914 570.941 142.785 600.856 140.504 L 609.566 139.84 C 639.481 137.559 636.059 92.688 606.145 94.969 Z M 606.191 94.965 C 576.273 97.184 579.602 142.059 609.52 139.84 L 617.27 139.266 C 647.188 137.051 643.859 92.172 613.941 94.391 Z M 613.715 94.41 C 583.82 96.934 587.606 141.773 617.5 139.25 L 624.301 138.676 C 654.195 136.152 650.41 91.309 620.516 93.836 Z M 620.574 93.828 C 590.676 96.273 594.34 141.125 624.242 138.68 L 630.082 138.203 C 659.984 135.758 656.316 90.906 626.414 93.352 Z M 626.465 93.348 C 596.559 95.727 600.129 140.586 630.035 138.207 L 634.816 137.824 C 664.723 135.445 661.152 90.586 631.246 92.969 Z M 630.785 93.008 C 600.934 96.004 605.426 140.777 635.277 137.785 L 641.043 127.891 C 658.602 126.133 655.957 99.797 638.402 101.559 Z M 638.313 101.566 C 620.766 103.449 623.59 129.766 641.133 127.883 L 642.332 122.023 C 652.32 120.949 650.715 105.969 640.727 107.039 Z M 639.383 107.309 C 629.754 110.172 634.047 124.613 643.676 121.754 L 643.484 117.617 C 647.977 116.281 645.973 109.543 641.484 110.879 Z M 638.969 114.246 C 638.969 118.934 645.996 118.934 645.996 114.246 L 643.766 114.055 C 643.766 112.344 641.203 112.344 641.203 114.055 Z M 642.117 115.281 C 643.758 115.77 644.488 113.313 642.848 112.824 L 641.617 113.469 C 641.219 113.348 641.039 113.953 641.441 114.07 Z M 641.465 114.078 C 641.875 114.164 642.004 113.551 641.594 113.461 L 639.731 113.352 C 639.68 113.34 639.664 113.418 639.715 113.426 Z M 639.719 113.43 C 639.77 113.434 639.781 113.359 639.727 113.352 L 636.961 113 C 636.961 113 636.961 113.004 636.961 113.004 Z M 639.719 113.43"/><path fill="#f26419" stroke="none" d="M 625.059 107.684 C 625.098 107.684 625.098 107.625 625.059 107.625 L 624.852 106.414 C 623.199 106.414 623.199 108.891 624.852 108.891 Z M 626.5 105.887 C 624.145 103.691 620.852 107.223 623.203 109.418 L 622.254 110.645 C 626.113 114.25 631.52 108.457 627.66 104.852 Z M 627.66 104.852 C 623.797 101.25 618.391 107.043 622.254 110.645 L 621.125 112.063 C 626.746 117.309 634.613 108.875 628.992 103.629 Z M 627.363 102.559 C 620.313 99.488 615.707 110.063 622.758 113.133 L 622.41 115.105 C 631.836 119.211 637.996 105.066 628.566 100.961 Z M 628.691 101.016 C 619.336 96.746 612.93 110.777 622.285 115.051 L 622.191 116.941 C 633.68 122.188 641.551 104.953 630.059 99.707 Z M 629.121 99.336 C 617.137 95.34 611.145 113.316 623.129 117.313 L 623.52 118.977 C 637.344 123.586 644.258 102.848 630.434 98.238 Z M 630.106 98.137 C 616.145 93.961 609.883 114.906 623.848 119.078 L 624.781 120.59 C 640.25 125.215 647.188 102.012 631.719 97.387 Z M 631.949 97.457 C 616.574 92.523 609.176 115.586 624.547 120.52 L 625.742 121.914 C 642.34 127.242 650.332 102.344 633.734 97.016 Z M 633.699 97.004 C 617.086 91.723 609.16 116.641 625.773 121.926 L 627.332 123.281 C 644.988 128.898 653.41 102.414 635.754 96.797 Z M 635.926 96.852 C 618.34 91.012 609.578 117.387 627.164 123.227 L 628.973 124.535 C 647.406 130.66 656.59 103.008 638.156 96.887 Z M 638.008 96.836 C 619.508 90.91 610.621 118.66 629.121 124.586 L 633.578 127.102 C 653.391 133.445 662.91 103.727 643.098 97.383 Z M 643.133 97.395 C 623.336 91 613.746 120.695 633.543 127.09 L 636.07 128.352 C 656.406 134.918 666.258 104.414 645.922 97.848 Z M 646.895 98.195 C 627.027 90.332 615.227 120.137 635.098 128 L 637.602 129.438 C 657.984 137.504 670.086 106.934 649.703 98.863 Z M 650.176 99.063 C 630.059 90.363 617.012 120.543 637.129 129.242 L 639.621 130.773 C 660.254 139.695 673.633 108.742 653 99.824 Z M 654.074 100.336 C 634.121 89.98 618.594 119.914 638.547 130.266 L 641.098 132.102 C 661.59 142.734 677.539 111.992 657.047 101.363 Z M 659.113 102.625 C 640.309 89.238 620.223 117.449 639.031 130.836 L 641.273 133.074 C 660.648 146.867 681.336 117.809 661.961 104.016 Z M 664.102 105.805 C 647.113 89.164 622.152 114.641 639.137 131.285 L 642.996 136.91 C 661.238 154.785 688.047 127.422 669.805 109.547 Z M 671.965 112.066 C 657.078 91.316 625.953 113.641 640.836 134.395 L 642.273 137.852 C 657.816 159.52 690.324 136.203 674.777 114.535 Z M 676.688 117.813 C 665.512 93.594 629.188 110.355 640.363 134.574 L 641.91 142.789 C 654.223 169.469 694.246 151 681.934 124.32 Z M 683.152 127.645 C 675.273 99.336 632.809 111.156 640.691 139.465 L 641.418 143.789 C 649.465 172.691 692.813 160.621 684.77 131.719 Z M 685.082 132.984 C 678.719 103.668 634.742 113.207 641.106 142.527 L 642.059 146.926 C 648.422 176.246 692.398 166.703 686.035 137.387 Z M 686.402 139.609 C 683.008 109.805 638.297 114.895 641.691 144.703 L 642.227 149.383 C 645.621 179.188 690.332 174.094 686.938 144.289 Z M 686.988 144.781 C 684.25 114.906 639.438 119.012 642.176 148.887 L 642.602 153.57 C 645.34 183.445 690.152 179.344 687.414 149.469 Z M 687.504 151.012 C 686.824 121.02 641.836 122.035 642.516 152.027 L 642.617 156.617 C 643.297 186.609 688.285 185.59 687.606 155.598 Z M 687.606 156.617 C 688.285 126.625 643.297 125.605 642.617 155.598 L 642.516 160.188 C 641.836 190.18 686.824 191.195 687.504 161.203 Z M 687.484 161.793 C 688.945 131.828 644 129.633 642.535 159.598 L 642.32 163.992 C 640.859 193.957 685.805 196.152 687.27 166.188 Z M 687.223 166.867 C 689.598 136.961 644.738 133.406 642.363 163.313 L 642.047 167.324 C 639.676 197.23 684.535 200.789 686.906 170.883 Z M 686.891 171.066 C 689.508 141.184 644.68 137.254 642.063 167.141 L 641.742 170.773 C 639.125 200.66 683.953 204.586 686.57 174.699 Z M 686.609 174.219 C 688.586 144.285 643.688 141.316 641.707 171.254 L 641.492 174.5 C 639.516 204.434 684.414 207.402 686.395 177.465 Z M 686.383 177.66 C 688.617 147.742 643.742 144.391 641.508 174.305 L 641.293 177.18 C 639.059 207.094 683.934 210.445 686.168 180.531 Z M 686.207 179.871 C 687.563 149.902 642.609 147.867 641.254 177.836 L 642.594 180.191 C 641.324 208.23 683.387 210.137 684.656 182.098 Z M 684.676 181.145 C 684.676 153.074 642.574 153.074 642.574 181.145 L 645.52 182.965 C 645.52 207.102 681.731 207.102 681.731 182.965 Z M 681.676 181.563 C 679.805 157.496 643.707 160.301 645.574 184.367 L 649.336 185.418 C 650.828 204.609 679.613 202.375 678.121 183.18 Z M 678.047 182.453 C 675.586 163.363 646.945 167.055 649.41 186.148 L 653.742 186.461 C 655.481 199.922 675.672 197.316 673.934 183.855 Z M 672.777 180.285 C 666.277 168.367 648.402 178.117 654.902 190.031 L 658.762 188.422 C 662.606 195.473 673.18 189.703 669.332 182.656 Z M 660.094 181 C 654.039 186.27 661.949 195.352 668.004 190.078 L 666.195 187.574 C 669.16 184.992 665.289 180.551 662.328 183.129 Z M 661.5 184.32 C 660.125 188 665.648 190.063 667.023 186.383 L 665.539 185.176 C 666.066 183.758 663.941 182.965 663.414 184.383 Z M 663.348 184.656 C 663.188 186.16 665.441 186.402 665.606 184.898 L 664.879 183.855 C 664.922 183.457 664.324 183.395 664.281 183.789 Z M 664.281 183.844 C 664.309 184.242 664.906 184.203 664.879 183.801 L 664.52 182.289 C 664.516 182.234 664.43 182.242 664.434 182.297 Z M 664.434 182.301 C 664.445 182.355 664.527 182.34 664.52 182.285 L 664.16 180.48 C 664.16 180.477 664.156 180.48 664.156 180.48 Z M 664.434 182.301"/><path fill="#f26419" stroke="none" d="M 36.465 613.965 C 36.512 613.926 36.453 613.859 36.406 613.898 L 36.113 614.031 C 35.969 614.156 36.16 614.375 36.305 614.246 Z M 36.328 614.219 C 36.438 614.063 36.199 613.895 36.09 614.055 L 35.703 614.262 C 35.438 614.641 36.008 615.035 36.27 614.656 Z M 36.219 614.715 C 36.559 614.402 36.094 613.891 35.75 614.203 L 35.164 614.242 C 34.461 614.887 35.43 615.938 36.129 615.297 Z M 36.207 615.215 C 36.801 614.469 35.684 613.578 35.09 614.324 L 34.254 614.356 C 33.133 615.758 35.238 617.438 36.359 616.035 Z M 36.391 615.992 C 37.453 614.547 35.285 612.953 34.223 614.398 L 33.207 614.133 C 31.375 616.625 35.113 619.375 36.945 616.883 Z M 36.656 617.207 C 38.922 615.102 35.762 611.703 33.496 613.809 L 32.387 613.074 C 28.863 616.356 33.781 621.645 37.309 618.367 Z M 37.758 617.859 C 40.609 613.981 34.789 609.699 31.938 613.582 L 30.477 612.988 C 26.418 618.512 34.699 624.598 38.758 619.078 Z M 38.18 619.738 C 43.121 614.992 36 607.578 31.055 612.328 L 29.637 611.293 C 23.035 617.637 32.551 627.543 39.156 621.199 Z M 38.98 621.359 C 45.801 615.246 36.629 605.02 29.813 611.133 L 28.395 610.008 C 19.805 617.707 31.355 630.594 39.941 622.891 Z M 40.164 622.688 C 48.48 614.695 36.492 602.219 28.176 610.211 L 26.891 609.098 C 16.941 618.656 31.277 633.574 41.227 624.016 Z M 44.402 616.711 C 44.609 602.918 23.918 602.609 23.711 616.402 L 22.156 616.598 C 21.922 632.457 45.715 632.813 45.949 616.949 Z M 34.254 604.879 C 18.391 604.609 17.992 628.402 33.855 628.668 L 33.938 630.188 C 51.824 630.488 52.273 603.66 34.387 603.359 Z M 34.387 603.359 C 16.504 603.063 16.055 629.891 33.938 630.188 L 34.137 631.777 C 54.137 632.113 54.641 602.113 34.641 601.777 Z M 30.008 602.43 C 10.879 608.27 19.637 636.965 38.77 631.129 L 39.934 632.543 C 61.227 626.047 51.48 594.106 30.188 600.602 Z M 32.148 600.133 C 10.227 604.016 16.051 636.898 37.973 633.016 L 39.398 634.566 C 63.656 630.27 57.207 593.887 32.953 598.184 Z M 31.941 598.391 C 7.965 604.035 16.43 640.004 40.406 634.359 L 42.516 635.762 C 68.895 629.555 59.582 589.988 33.203 596.195 Z M 34.223 595.984 C 7.559 600.836 14.836 640.828 41.5 635.977 L 44.527 637.395 C 73.73 632.078 65.758 588.277 36.555 593.59 Z M 36.973 593.52 C 7.676 598.277 14.813 642.223 44.109 637.465 L 48.012 638.871 C 79.957 633.68 72.172 585.762 40.227 590.953 Z M 40.898 590.852 C 8.82 595.145 15.262 643.262 47.34 638.969 L 52.273 638.391 C 84.457 634.082 77.996 585.805 45.809 590.113 Z M 46.598 590.02 C 14.289 593.277 19.176 641.742 51.484 638.484 L 57.855 637.84 C 90.164 634.582 85.273 586.117 52.965 589.379 Z M 53.613 589.32 C 21.23 591.715 24.82 640.289 57.203 637.898 L 65.469 637.285 C 97.852 634.895 94.266 586.316 61.879 588.711 Z M 62.363 588.68 C 29.938 590.426 32.559 639.066 64.984 637.316 L 75.48 636.754 C 107.906 635.004 105.285 586.367 72.859 588.113 Z M 73.402 588.09 C 40.945 589.113 42.48 637.797 74.938 636.777 L 88.219 636.356 C 120.676 635.336 119.145 586.648 86.688 587.672 Z M 87.242 587.66 C 54.77 587.941 55.191 636.648 87.664 636.367 L 104.395 636.223 C 136.867 635.945 136.445 587.234 103.973 587.516 Z M 104.078 587.516 C 71.605 587.656 71.816 636.363 104.289 636.227 L 124.82 636.137 C 157.293 635.996 157.082 587.289 124.613 587.426 Z M 124.809 587.426 C 92.336 587.305 92.152 636.012 124.625 636.137 L 149.055 636.231 C 181.527 636.352 181.711 587.645 149.238 587.52 Z M 149.367 587.52 C 116.898 587.227 116.457 635.934 148.926 636.227 L 177.039 636.484 C 209.512 636.777 209.953 588.07 177.48 587.777 Z M 177.508 587.777 C 145.035 587.449 144.547 636.156 177.016 636.484 L 208.137 636.797 C 240.609 637.121 241.098 588.414 208.629 588.09 Z M 208.551 588.09 C 176.078 587.863 175.742 636.57 208.215 636.797 L 241.234 637.023 C 273.707 637.25 274.043 588.543 241.57 588.316 Z M 241.582 588.316 C 209.109 588.074 208.75 636.785 241.223 637.023 L 275.137 637.277 C 307.605 637.516 307.969 588.809 275.496 588.57 Z M 275.34 588.566 C 242.867 588.539 242.82 637.246 275.293 637.277 L 308.984 637.309 C 341.457 637.34 341.504 588.629 309.027 588.598 Z M 308.855 588.602 C 276.383 588.801 276.688 637.512 309.16 637.309 L 341.734 637.106 C 374.207 636.902 373.902 588.195 341.43 588.395 Z M 341.32 588.398 C 308.852 588.746 309.371 637.453 341.844 637.106 L 372.758 636.773 C 405.227 636.426 404.703 587.719 372.234 588.066 Z M 372.094 588.066 C 339.625 588.606 340.43 637.309 372.898 636.77 L 401.91 636.289 C 434.375 635.754 433.57 587.051 401.105 587.59 Z M 401.055 587.59 C 368.586 588.191 369.492 636.891 401.957 636.289 L 429.078 635.785 C 461.547 635.184 460.645 586.484 428.176 587.086 Z M 428.207 587.086 C 395.738 587.645 396.578 636.348 429.047 635.789 L 454.266 635.352 C 486.734 634.793 485.895 586.09 453.426 586.652 Z M 453.492 586.648 C 421.023 587.117 421.727 635.824 454.195 635.356 L 477.965 635.012 C 510.434 634.543 509.73 585.836 477.262 586.305 Z M 477.199 586.309 C 444.734 586.859 445.559 635.563 478.027 635.008 L 500.234 634.633 C 532.703 634.082 531.875 585.379 499.406 585.93 Z M 499.609 585.93 C 467.137 586.215 467.563 634.922 500.035 634.637 L 520.902 634.453 C 553.375 634.168 552.945 585.461 520.477 585.746 Z M 520.434 585.746 C 487.961 586.086 488.477 634.793 520.945 634.453 L 540.469 634.246 C 572.941 633.902 572.426 585.195 539.957 585.539 Z M 540.047 585.539 C 507.574 585.758 507.906 634.465 540.375 634.246 L 558.453 634.125 C 590.926 633.906 590.594 585.199 558.125 585.418 Z M 558.082 585.418 C 525.609 585.691 526.023 634.398 558.492 634.125 L 575.34 633.981 C 607.813 633.707 607.402 585 574.93 585.273 Z M 574.871 585.273 C 542.398 585.629 542.93 634.336 575.402 633.981 L 591.023 633.809 C 623.492 633.457 622.961 584.75 590.488 585.106 Z M 590.445 585.106 C 557.977 585.52 558.598 634.223 591.066 633.809 L 605.465 633.625 C 637.938 633.211 637.316 584.508 604.844 584.922 Z M 604.973 584.918 C 572.5 585.164 572.867 633.871 605.34 633.629 L 618.391 633.531 C 650.863 633.285 650.496 584.578 618.027 584.82 Z M 617.949 584.824 C 585.477 585.168 585.996 633.875 618.469 633.527 L 630.293 633.402 C 662.766 633.055 662.246 584.352 629.773 584.695 Z M 629.953 584.695 C 597.481 584.805 597.645 633.512 630.117 633.402 L 640.496 633.371 C 672.969 633.262 672.805 584.551 640.332 584.66 Z M 640.531 584.66 C 608.063 584.5 607.82 633.207 640.293 633.371 L 649.445 633.031 C 681.402 633.188 681.641 585.25 649.68 585.09 Z M 649.625 585.09 C 617.668 585.004 617.539 632.941 649.496 633.031 L 657.203 629.496 C 684.422 629.566 684.531 588.742 657.313 588.668 Z M 657.941 588.68 C 630.738 587.77 629.371 628.57 656.574 629.484 L 663.16 626.047 C 685.496 626.797 686.617 593.293 664.285 592.547 Z M 664.684 592.563 C 642.371 591.281 640.449 624.75 662.762 626.031 L 668.109 622.457 C 685.266 623.445 686.742 597.711 669.586 596.727 Z M 670.481 596.809 C 653.434 594.633 650.172 620.203 667.219 622.375 L 671.641 618.793 C 683.246 620.273 685.465 602.867 673.863 601.387 Z M 674.539 601.5 C 663.086 599.113 659.508 616.293 670.961 618.68 L 674.523 615.523 C 680.992 616.871 683.016 607.164 676.543 605.816 Z M 677.852 606.285 C 672.008 603.195 667.371 611.961 673.215 615.051 L 676.109 613.59 C 678.836 615.031 681 610.945 678.273 609.504 Z M 679.168 610.348 C 677.57 607.711 673.617 610.109 675.215 612.746 L 677.133 613.055 C 677.707 614.008 679.133 613.141 678.559 612.191 Z M 678.629 612.906 C 679.008 611.863 677.441 611.293 677.059 612.34 L 677.195 613.828 C 677.106 614.078 677.481 614.215 677.57 613.965 Z M 677.508 614.051 C 677.715 613.887 677.465 613.574 677.258 613.742 L 675.668 615.242 C 675.648 615.262 675.676 615.293 675.695 615.277 Z M 675.695 615.277 C 675.719 615.262 675.699 615.227 675.672 615.238 L 672.871 616.809 Z M 675.695 615.277"/><path fill="#f26419" stroke="none" d="M 690.504 254.301 C 690.566 254.301 690.566 254.211 690.504 254.211 L 690.398 254.074 C 690.156 254.074 690.156 254.438 690.398 254.438 Z M 690.281 254.395 C 690.461 254.551 690.703 254.277 690.52 254.117 L 690.504 253.703 C 690.016 253.277 689.379 254.012 689.867 254.434 Z M 690.043 254.535 C 690.664 254.723 690.945 253.793 690.324 253.605 L 690.172 252.965 C 688.828 252.555 688.215 254.57 689.559 254.98 Z M 689.156 254.75 C 690.195 255.699 691.617 254.141 690.578 253.195 L 690.871 252.234 C 688.938 250.469 686.293 253.367 688.227 255.129 Z M 688.555 255.375 C 690.813 256.699 692.797 253.313 690.543 251.988 L 690.832 250.766 C 687.195 248.633 683.992 254.09 687.629 256.223 Z M 686.684 255.375 C 689.188 258.766 694.281 255.012 691.773 251.617 L 692.645 250.527 C 689.074 245.691 681.816 251.047 685.387 255.883 Z M 684.664 254.391 C 686.246 260.191 694.945 257.816 693.363 252.02 L 694.594 251.273 C 692.527 243.695 681.16 246.797 683.227 254.375 Z M 683.422 254.965 C 686.277 262.285 697.258 258 694.398 250.684 L 695.445 249.945 C 691.988 241.086 678.699 246.273 682.156 255.133 Z M 682.559 249.086 C 677.953 257.406 690.434 264.316 695.039 255.996 L 696.113 256.082 C 701.356 246.617 687.156 238.758 681.918 248.223 Z M 681.613 248.828 C 677.18 258.695 691.984 265.348 696.418 255.477 L 697.316 255.309 C 702.16 244.527 685.988 237.258 681.145 248.043 Z M 684.078 244.461 C 674.457 251.332 684.766 265.762 694.383 258.891 L 695.262 258.992 C 705.523 251.66 694.527 236.266 684.266 243.598 Z M 685.438 242.879 C 674.219 248.648 682.867 265.473 694.086 259.707 L 695.055 259.773 C 706.867 253.699 697.762 235.984 685.949 242.055 Z M 686.438 241.82 C 674.313 247.242 682.445 265.426 694.57 260.008 L 695.594 260.016 C 708.238 254.363 699.758 235.398 687.113 241.051 Z M 688.848 240.453 C 675.406 243.793 680.418 263.953 693.859 260.613 L 695.129 260.719 C 709.098 257.25 703.891 236.293 689.918 239.766 Z M 691.703 239.477 C 677.352 240.57 678.988 262.098 693.344 261.008 L 694.648 261.336 C 709.566 260.199 707.863 237.82 692.945 238.957 Z M 694.586 238.953 C 679.66 237.902 678.086 260.289 693.008 261.34 L 694.356 261.902 C 709.902 262.996 711.543 239.676 695.996 238.582 Z M 697.883 238.871 C 682.719 235.262 677.305 258.004 692.465 261.613 L 693.941 262.512 C 709.793 266.285 715.457 242.508 699.602 238.734 Z M 702.086 239.617 C 687.41 232.535 676.785 254.547 691.461 261.629 L 692.789 262.949 C 708.195 270.383 719.352 247.27 703.941 239.836 Z M 705.914 241.016 C 692.078 230.949 676.981 251.699 690.816 261.766 L 692.102 263.574 C 706.695 274.191 722.621 252.305 708.031 241.688 Z M 709.969 243.402 C 697.668 230.199 677.863 248.652 690.164 261.855 L 691.305 264.195 C 704.293 278.141 725.211 258.652 712.223 244.707 Z M 713.16 245.824 C 701.664 230.625 678.863 247.875 690.363 263.074 L 691.539 265.938 C 703.672 281.977 727.731 263.777 715.598 247.738 Z M 716.844 249.676 C 707.293 231.977 680.746 246.301 690.293 264 L 691.277 267.543 C 701.344 286.203 729.332 271.102 719.266 252.445 Z M 719.918 253.805 C 711.668 234.277 682.375 246.648 690.621 266.18 L 691.531 270.527 C 700.227 291.105 731.094 278.066 722.402 257.488 Z M 722.856 258.688 C 715.762 237.504 683.984 248.141 691.078 269.324 L 691.828 274.383 C 699.301 296.699 732.77 285.492 725.301 263.18 Z M 725.711 264.594 C 720.129 241.734 685.836 250.109 691.418 272.969 L 691.883 278.832 C 697.762 302.91 733.879 294.09 728 270.012 Z M 728.223 271.035 C 723.703 246.664 687.148 253.438 691.664 277.809 L 691.848 284.301 C 696.609 309.984 735.133 302.848 730.375 277.164 Z M 730.563 278.422 C 727.484 252.484 688.578 257.105 691.66 283.043 L 691.461 290.336 C 694.707 317.672 735.711 312.805 732.465 285.469 Z M 732.516 285.961 C 729.926 258.555 688.816 262.438 691.41 289.844 L 691.047 297.781 C 693.777 326.66 737.09 322.563 734.359 293.688 Z M 734.441 294.922 C 733.359 265.938 689.883 267.563 690.965 296.547 L 690.543 305.273 C 691.664 335.254 736.633 333.574 735.512 303.594 Z M 735.527 304.434 C 735.527 274.434 690.527 274.434 690.527 304.434 L 690.527 313.992 C 690.527 343.992 735.527 343.992 735.527 313.992 Z M 735.508 314.918 C 736.742 284.941 691.781 283.09 690.547 313.066 L 690.117 323.48 C 688.883 353.453 733.844 355.305 735.078 325.332 Z M 735.035 326.098 C 737.293 296.184 692.422 292.797 690.164 322.711 L 689.313 333.992 C 687.055 363.906 731.926 367.293 734.184 337.379 Z M 734.125 338.051 C 737.277 308.219 692.527 303.484 689.371 333.32 L 688.098 345.359 C 684.945 375.195 729.695 379.926 732.852 350.094 Z M 732.777 350.715 C 736.758 320.98 692.156 315.004 688.172 344.742 L 686.473 357.453 C 682.488 387.188 727.09 393.16 731.074 363.426 Z M 731.043 363.641 C 735.313 333.949 690.773 327.543 686.5 357.234 L 684.59 370.516 C 680.32 400.211 724.863 406.617 729.133 376.922 Z M 729.035 377.539 C 734.133 347.977 689.785 340.332 684.688 369.898 L 682.352 383.469 C 677.254 413.031 721.602 420.676 726.695 391.109 Z M 726.656 391.328 C 732.043 361.816 687.773 353.738 682.391 383.25 L 679.844 397.207 C 674.457 426.723 718.727 434.797 724.109 405.285 Z M 724.059 405.559 C 729.809 376.113 685.641 367.492 679.895 396.938 L 677.133 411.082 C 671.383 440.527 715.551 449.148 721.297 419.703 Z M 721.277 419.813 C 727.172 390.398 683.047 381.555 677.152 410.973 L 674.281 425.305 C 668.387 454.719 712.512 463.559 718.406 434.145 Z M 718.348 434.418 C 724.609 405.078 680.598 395.691 674.34 425.031 L 671.258 439.465 C 665 468.805 709.012 478.191 715.27 448.852 Z M 715.242 448.977 C 721.664 419.672 677.707 410.039 671.285 439.344 L 668.102 453.867 C 661.68 483.172 705.637 492.805 712.059 463.5 Z M 712.09 463.359 C 718.324 434.016 674.309 424.664 668.074 454.008 L 664.984 468.535 C 658.75 497.879 702.77 507.23 709.004 477.887 Z M 708.984 477.965 C 715.328 448.645 671.344 439.133 665.004 468.453 L 661.922 482.695 C 655.582 512.02 699.566 521.531 705.906 492.207 Z M 705.887 492.301 C 712.352 463.008 668.41 453.309 661.945 482.602 L 658.863 496.555 C 652.398 525.848 696.34 535.547 702.809 506.254 Z M 702.871 505.949 C 708.934 476.566 664.859 467.477 658.801 496.855 L 656.039 510.238 C 649.977 539.621 694.047 548.715 700.109 519.332 Z M 700.098 519.395 C 706.238 490.027 662.191 480.816 656.051 510.18 L 653.395 522.887 C 647.254 552.25 691.301 561.461 697.441 532.098 Z M 697.492 531.848 C 703.301 502.414 659.148 493.703 653.344 523.137 L 651.004 534.992 C 645.195 564.422 689.344 573.133 695.152 543.703 Z M 695.215 543.367 C 700.578 513.852 656.301 505.809 650.941 535.324 L 648.926 546.41 C 643.566 575.93 687.84 583.969 693.203 554.453 Z M 693.246 554.195 C 698.266 524.617 653.898 517.09 648.883 546.668 L 647.18 556.703 C 642.16 586.281 686.527 593.809 691.547 564.231 Z M 691.594 563.93 C 696.211 534.285 651.746 527.359 647.129 557.004 L 645.746 565.891 C 641.129 595.531 685.594 602.457 690.211 572.816 Z M 690.277 572.363 C 694.289 542.633 649.695 536.609 645.68 566.34 L 644.621 574.18 C 640.606 603.91 685.203 609.934 689.215 580.203 Z M 689.234 580.074 C 693.074 550.32 648.445 544.559 644.606 574.313 L 643.754 580.906 C 639.914 610.66 684.543 616.422 688.383 586.668 Z M 688.41 586.445 C 691.957 556.656 647.27 551.34 643.727 581.129 L 644.289 586.621 C 640.934 614.809 683.219 619.844 686.574 591.652 Z M 686.613 591.313 C 689.512 563.07 647.152 558.723 644.25 586.961 L 647.766 591.477 C 645.402 614.469 679.891 618.012 682.254 595.02 Z M 682.125 595.988 C 685.781 573.168 651.547 567.684 647.891 590.504 L 652.156 593.934 C 649.504 610.5 674.348 614.477 677.004 597.914 Z M 676.816 598.844 C 680.707 582.523 656.231 576.691 652.344 593.008 L 656.742 595.469 C 654.356 605.492 669.391 609.078 671.781 599.051 Z M 662.531 604.793 C 672.578 607.098 676.035 592.035 665.992 589.727 L 664.715 593.348 C 659.629 592.18 657.875 599.813 662.965 600.981 Z M 660.121 598.387 C 661.754 603.348 669.191 600.898 667.559 595.941 L 664.809 595.051 C 664.152 593.047 661.145 594.035 661.805 596.039 Z M 661.738 595.766 C 662.035 597.856 665.172 597.41 664.875 595.32 L 663.336 592.512 C 663.25 591.91 662.348 592.039 662.434 592.641 Z M 662.434 592.629 C 662.508 593.234 663.41 593.121 663.336 592.52 L 662.426 588.172 C 662.414 588.074 662.266 588.094 662.277 588.191 Z M 662.277 588.191 C 662.289 588.289 662.438 588.273 662.426 588.172 L 661.719 582.543 C 661.719 582.535 661.711 582.535 661.711 582.543 Z M 661.711 582.543 C 661.711 582.547 661.719 582.547 661.719 582.543 L 661.078 575.762 Z M 661.711 582.543"/><path fill="#f26419" stroke="none" d="M 118.742 259.379 C 118.742 259.371 118.73 259.371 118.73 259.379 L 118.723 259.441 C 118.723 259.457 118.75 259.457 118.75 259.441 Z M 118.742 259.434 C 118.73 259.422 118.715 259.441 118.73 259.453 L 118.895 259.594 C 118.926 259.613 118.957 259.57 118.93 259.547 Z M 118.941 259.57 C 118.941 259.531 118.883 259.531 118.883 259.57 L 118.848 259.629 C 118.848 259.715 118.977 259.715 118.977 259.629 Z M 118.953 259.578 C 118.883 259.527 118.805 259.625 118.875 259.68 L 118.992 259.867 C 119.141 259.98 119.313 259.758 119.164 259.645 Z M 119.129 259.887 C 119.305 259.82 119.203 259.559 119.027 259.625 L 118.809 259.547 C 118.445 259.688 118.656 260.23 119.016 260.09 Z M 119.203 259.82 C 119.203 259.43 118.621 259.43 118.621 259.82 L 118.352 259.883 C 118.352 260.633 119.473 260.633 119.473 259.883 Z M 118.914 260.445 C 119.66 260.445 119.66 259.324 118.914 259.324 L 118.738 258.863 C 117.379 258.863 117.379 260.902 118.738 260.902 Z M 119.105 260.836 C 120.371 260.344 119.637 258.441 118.367 258.934 L 117.938 258.309 C 115.75 259.152 117.02 262.434 119.207 261.586 Z M 118.57 261.703 C 120.914 261.703 120.914 258.188 118.57 258.188 L 118.406 257.16 C 114.691 257.16 114.691 262.734 118.406 262.734 Z M 117.457 262.566 C 120.949 263.836 122.852 258.594 119.355 257.324 L 119.621 256.051 C 114.512 254.199 111.734 261.863 116.84 263.715 Z M 118.23 263.957 C 123.664 263.957 123.664 255.809 118.23 255.809 L 118.066 254.344 C 110.68 254.344 110.68 265.426 118.066 265.426 Z M 116.125 265.074 C 123.043 267.664 126.93 257.285 120.008 254.695 L 120.227 253.082 C 111.324 249.75 106.324 263.098 115.227 266.43 Z M 115.227 266.43 C 124.129 269.762 129.125 256.414 120.227 253.082 L 120.43 251.5 C 109.59 247.441 103.5 263.699 114.344 267.758 Z M 114.379 267.77 C 125.234 271.781 131.25 255.496 120.395 251.484 L 120.352 250.043 C 107.82 245.414 100.875 264.211 113.406 268.84 Z M 112.43 268.422 C 124.402 274.352 133.301 256.395 121.328 250.465 L 121.344 249.16 C 107.973 242.531 98.027 262.594 111.402 269.223 Z M 109.602 268.105 C 121.488 277.137 135.031 259.309 123.148 250.277 L 123.457 249.188 C 110.449 239.305 95.625 258.813 108.633 268.695 Z M 106.945 267.141 C 117.879 279.277 136.082 262.875 125.145 250.738 L 125.559 249.684 C 113.719 236.543 94.008 254.305 105.852 267.445 Z M 102.438 258.563 C 102.438 276.25 128.973 276.25 128.973 258.563 L 129.98 258.184 C 129.98 239.152 101.43 239.152 101.43 258.184 Z M 101.43 258.184 C 101.43 277.219 129.98 277.219 129.98 258.184 L 131.027 257.809 C 131.027 237.379 100.383 237.379 100.383 257.809 Z M 105.621 246.27 C 90.242 259.715 110.406 282.785 125.785 269.344 L 127.031 269.75 C 143.543 255.32 121.898 230.551 105.387 244.98 Z M 107.832 243.215 C 88.961 254.387 105.719 282.691 124.59 271.52 L 126.051 272.059 C 146.309 260.063 128.316 229.676 108.059 241.672 Z M 111.473 240.113 C 89.137 247.559 100.305 281.063 122.641 273.617 L 124.574 274.359 C 148.574 266.359 136.57 230.359 112.57 238.359 Z M 114.637 237.797 C 89.887 243.047 97.758 280.168 122.508 274.922 L 125.16 275.793 C 151.738 270.156 143.285 230.289 116.707 235.926 Z M 117.57 235.762 C 90.773 240.246 97.5 280.441 124.297 275.957 L 127.91 276.828 C 156.621 272.023 149.414 228.953 120.699 233.762 Z M 121.184 233.684 C 92.371 237.844 98.613 281.063 127.426 276.902 L 131.973 277.418 C 162.316 273.035 155.746 227.523 125.402 231.906 Z M 126.109 231.813 C 95.648 235.25 100.801 280.945 131.266 277.508 L 136.836 276.879 C 167.297 273.445 162.145 227.75 131.68 231.188 Z M 132.125 231.141 C 101.602 233.984 105.867 279.77 136.391 276.926 L 143.133 276.297 C 173.66 273.453 169.395 227.668 138.871 230.512 Z M 139.043 230.496 C 108.5 233.105 112.414 278.926 142.961 276.313 L 151.055 275.621 C 181.602 273.012 177.684 227.191 147.141 229.805 Z M 147.387 229.785 C 116.813 232.066 120.238 277.922 150.809 275.641 L 160.078 274.949 C 190.652 272.668 187.23 226.809 156.656 229.094 Z M 156.965 229.07 C 126.367 230.941 129.172 276.84 159.77 274.969 L 170.051 274.344 C 200.652 272.473 197.848 226.574 167.246 228.441 Z M 167.41 228.434 C 136.801 230.086 139.277 276.004 169.891 274.352 L 181.531 273.723 C 212.145 272.07 209.668 226.152 179.055 227.805 Z M 179.281 227.793 C 148.652 229.145 150.68 275.086 181.305 273.734 L 194.113 273.172 C 224.742 271.82 222.715 225.879 192.09 227.23 Z M 192.273 227.223 C 161.637 228.328 163.293 274.285 193.93 273.176 L 207.926 272.672 C 238.563 271.566 236.902 225.609 206.266 226.719 Z M 206.543 226.707 C 175.895 227.445 177 273.418 207.648 272.68 L 223.168 272.309 C 253.816 271.57 252.711 225.598 222.063 226.336 Z M 222.188 226.332 C 191.535 226.906 192.395 272.883 223.047 272.309 L 240.074 271.992 C 270.723 271.418 269.863 225.441 239.211 226.016 Z M 239.414 226.012 C 208.762 226.313 209.215 272.297 239.871 271.992 L 258.762 271.809 C 289.418 271.504 288.965 225.523 258.309 225.824 Z M 258.465 225.824 C 227.809 225.918 227.949 271.902 258.605 271.809 L 279.344 271.746 C 310 271.648 309.859 225.664 279.203 225.758 Z M 279.34 225.758 C 248.684 225.672 248.551 271.656 279.207 271.746 L 301.465 271.809 C 332.121 271.895 332.25 225.91 301.594 225.824 Z M 301.77 225.824 C 271.117 225.5 270.633 271.484 301.285 271.809 L 325.07 272.059 C 355.723 272.379 356.207 226.398 325.551 226.074 Z M 325.66 226.078 C 295.004 225.613 294.309 271.594 324.961 272.055 L 349.918 272.434 C 380.574 272.898 381.27 226.918 350.617 226.453 Z M 350.656 226.453 C 320.008 225.934 319.223 271.91 349.875 272.434 L 375.844 272.875 C 406.496 273.395 407.277 227.418 376.625 226.898 Z M 376.664 226.898 C 346.012 226.324 345.152 272.301 375.805 272.875 L 402.617 273.375 C 433.27 273.949 434.129 227.969 403.477 227.398 Z M 403.531 227.398 C 372.879 226.758 371.914 272.73 402.566 273.375 L 429.719 273.941 C 460.371 274.586 461.332 228.609 430.684 227.969 Z M 430.676 227.969 C 400.027 227.336 399.074 273.309 429.727 273.941 L 457.035 274.508 C 487.684 275.141 488.633 229.168 457.984 228.531 Z M 457.988 228.531 C 427.336 227.895 426.379 273.871 457.031 274.508 L 484.184 275.07 C 514.836 275.711 515.789 229.734 485.141 229.098 Z M 485.105 229.098 C 454.453 228.508 453.57 274.484 484.219 275.074 L 510.527 275.578 C 541.18 276.168 542.063 230.191 511.41 229.602 Z M 511.363 229.602 C 480.711 229.074 479.922 275.055 510.574 275.578 L 536.039 276.016 C 566.691 276.543 567.481 230.563 536.828 230.039 Z M 536.793 230.039 C 506.141 229.559 505.418 275.535 536.07 276.016 L 560.184 276.395 C 590.836 276.875 591.555 230.895 560.902 230.414 Z M 560.797 230.414 C 530.145 230.074 529.633 276.055 560.289 276.395 L 582.883 276.645 C 613.539 276.984 614.047 231.004 583.395 230.664 Z M 583.348 230.664 C 552.691 230.387 552.273 276.367 582.93 276.648 L 604.008 276.84 C 634.664 277.117 635.082 231.133 604.426 230.855 Z M 604.293 230.855 C 573.637 230.754 573.484 276.738 604.141 276.84 L 623.707 276.902 C 654.363 277.004 654.512 231.02 623.856 230.918 Z M 623.699 230.918 C 593.043 231.027 593.207 277.012 623.863 276.902 L 641.734 276.84 C 672.391 276.73 672.227 230.746 641.57 230.855 Z M 641.469 230.855 C 610.813 231.098 611.18 277.082 641.836 276.84 L 657.863 276.711 C 688.516 276.469 688.152 230.484 657.496 230.727 Z M 657.379 230.727 C 626.727 231.129 627.324 277.109 657.977 276.711 L 672.313 276.523 C 702.969 276.125 702.367 230.145 671.715 230.543 Z M 671.66 230.543 C 641.008 231.012 641.711 276.992 672.367 276.523 L 684.836 275.844 C 714.836 275.383 714.148 230.379 684.148 230.84 Z M 683.961 230.844 C 653.965 231.551 655.027 276.547 685.023 275.84 L 695.531 270.879 C 719.254 270.32 718.414 234.742 694.695 235.301 Z M 694.598 235.305 C 670.879 235.996 671.914 271.566 695.633 270.879 L 704.082 265.484 C 720.941 264.992 720.203 239.707 703.348 240.195 Z M 703.234 240.199 C 686.379 240.844 687.344 266.121 704.195 265.48 L 710.574 260.195 C 720.711 259.809 720.133 244.602 709.992 244.984 Z M 709.977 244.988 C 699.84 245.398 700.453 260.605 710.59 260.191 L 715.16 256.18 C 720.199 255.977 719.895 248.414 714.856 248.617 Z M 714.746 248.625 C 709.715 248.973 710.234 256.52 715.266 256.172 L 717.813 253.719 C 719.82 253.578 719.613 250.566 717.606 250.707 Z M 717.348 250.746 C 715.391 251.23 716.117 254.164 718.07 253.68 L 718.824 252.383 C 719.387 252.246 719.176 251.402 718.613 251.539 Z M 718.648 252.391 C 719.223 252.484 719.359 251.625 718.789 251.531 L 717.555 251.695 C 717.457 251.68 717.434 251.828 717.531 251.844 Z M 717.539 251.844 C 717.637 251.852 717.648 251.703 717.551 251.695 L 714.336 251.516 C 714.332 251.516 714.332 251.523 714.336 251.523 Z M 714.336 251.523 C 714.344 251.523 714.344 251.516 714.336 251.516 L 709.109 251.27 Z M 714.336 251.523"/></g></g></g></svg>
</svg>