<?xml version="1.0" standalone="no"?>
<svg height="115.702" preserveAspectRatio="none" viewBox="0.000 0.000 122.620 115.702" width="122.620" x="0.000" xmlns="http://www.w3.org/2000/svg" xmlns:svg="http://www.w3.org/2000/svg" xmlns:xlink="http://www.w3.org/1999/xlink" y="0.000">
<svg width="122.62" height="115.702" xmlns="http://www.w3.org/2000/svg"><defs><clipPath id="PyvZuiowclipPath1"><path fill="#000000" stroke="none" d="M 0 0 L 122.62 0 L 122.62 115.702 L 0 115.702 Z"/></clipPath></defs><g transform="matrix(0.9999998 0 0 0.99999994 -486.96692 -155.12299)"><g transform="matrix(1 0 0 1 486.96722 155.12344)"><g clip-path="url(#PyvZuiowclipPath1)"><path fill="#f26419" stroke="none" d="M 37.625 56.016 C 37.625 56.016 37.621 56.016 37.621 56.016 L 37.563 56.23 C 37.563 56.234 37.566 56.234 37.566 56.234 Z M 37.566 56.234 C 37.566 56.23 37.563 56.23 37.563 56.23 L 37.5 56.5 C 37.5 56.508 37.508 56.508 37.508 56.504 Z M 37.508 56.504 C 37.512 56.496 37.504 56.496 37.5 56.5 L 37.379 56.93 C 37.375 56.938 37.391 56.941 37.391 56.934 Z M 37.391 56.934 C 37.395 56.922 37.379 56.922 37.379 56.93 L 37.309 57.363 C 37.309 57.379 37.332 57.383 37.336 57.367 Z M 37.336 57.367 C 37.336 57.352 37.313 57.348 37.309 57.363 L 37.242 57.848 C 37.238 57.875 37.281 57.883 37.285 57.852 Z M 37.285 57.852 C 37.289 57.82 37.246 57.816 37.242 57.848 L 37.164 58.383 C 37.16 58.438 37.238 58.445 37.246 58.395 Z M 37.246 58.391 C 37.25 58.34 37.172 58.332 37.164 58.383 L 37.07 58.973 C 37.059 59.07 37.203 59.086 37.215 58.988 Z M 37.215 58.988 C 37.223 58.891 37.078 58.879 37.07 58.977 L 36.957 59.676 C 36.941 59.844 37.195 59.867 37.211 59.695 Z M 37.211 59.684 C 37.211 59.516 36.957 59.516 36.957 59.684 L 36.867 60.492 C 36.867 60.781 37.297 60.781 37.297 60.492 Z M 37.297 60.492 C 37.297 60.207 36.867 60.207 36.867 60.492 L 36.73 61.355 C 36.73 61.828 37.438 61.828 37.438 61.355 Z M 37.438 61.336 C 37.406 60.863 36.703 60.91 36.73 61.379 L 36.586 62.313 C 36.633 63.055 37.746 62.984 37.699 62.238 Z M 37.691 62.18 C 37.563 61.445 36.461 61.637 36.59 62.371 L 36.504 63.441 C 36.695 64.531 38.332 64.246 38.141 63.156 Z M 38.141 63.164 C 37.965 62.07 36.324 62.34 36.5 63.43 L 36.359 64.617 C 36.609 66.145 38.898 65.773 38.652 64.246 Z M 38.633 64.148 C 38.254 62.648 36.004 63.211 36.379 64.711 L 36.316 65.988 C 36.813 67.973 39.785 67.227 39.289 65.246 Z M 39.273 65.191 C 38.707 63.23 35.762 64.082 36.332 66.043 L 36.32 67.395 C 37.031 69.848 40.711 68.781 40.004 66.328 Z M 39.957 66.195 C 39.066 63.797 35.477 65.133 36.367 67.527 L 36.523 68.941 C 37.574 71.77 41.813 70.191 40.762 67.367 Z M 40.672 67.16 C 39.348 64.449 35.285 66.441 36.609 69.148 L 37.027 70.617 C 38.512 73.648 43.063 71.422 41.578 68.387 Z M 41.453 68.16 C 39.664 65.293 35.363 67.973 37.152 70.84 L 37.813 72.301 C 39.75 75.406 44.406 72.504 42.473 69.398 Z M 42.379 69.258 C 40.258 66.277 35.785 69.457 37.906 72.441 L 38.73 73.887 C 40.98 77.051 45.723 73.676 43.477 70.516 Z M 43.238 70.223 C 40.598 67.375 36.328 71.336 38.969 74.18 L 40.074 75.559 C 42.828 78.527 47.281 74.398 44.527 71.43 Z M 44.336 71.238 C 41.328 68.527 37.262 73.039 40.27 75.75 L 41.582 77.066 C 44.688 79.867 48.887 75.203 45.781 72.406 Z M 45.582 72.242 C 42.254 69.707 38.453 74.695 41.781 77.23 L 43.297 78.477 C 46.699 81.066 50.586 75.965 47.184 73.371 Z M 46.891 73.172 C 43.223 70.973 39.922 76.473 43.59 78.676 L 45.363 79.793 C 49.082 82.023 52.434 76.445 48.711 74.211 Z M 48.406 74.051 C 44.469 72.223 41.73 78.129 45.668 79.953 L 47.637 80.898 C 51.609 82.742 54.371 76.781 50.398 74.941 Z M 50.168 74.844 C 46.066 73.309 43.766 79.461 47.867 80.996 L 50.02 81.816 C 54.141 83.359 56.453 77.18 52.332 75.637 Z M 52.082 75.555 C 47.852 74.352 46.043 80.695 50.273 81.902 L 52.551 82.555 C 56.789 83.762 58.598 77.406 54.359 76.199 Z M 53.965 76.113 C 49.613 75.43 48.59 81.961 52.945 82.641 L 55.344 83.02 C 59.703 83.703 60.723 77.164 56.363 76.48 Z M 56.148 76.457 C 51.754 76.063 51.164 82.652 55.559 83.047 L 57.957 83.266 C 62.355 83.66 62.945 77.063 58.547 76.668 Z M 58.113 76.656 C 53.699 76.84 53.977 83.461 58.391 83.277 L 60.91 83.18 C 65.336 82.996 65.059 76.355 60.633 76.543 Z M 60.336 76.566 C 55.945 77.148 56.816 83.734 61.207 83.152 L 63.664 82.84 C 68.066 82.258 67.195 75.652 62.793 76.234 Z M 62.379 76.316 C 58.082 77.445 59.781 83.891 64.078 82.758 L 66.539 82.121 C 70.852 80.984 69.148 74.52 64.836 75.656 Z M 64.531 75.754 C 60.352 77.297 62.668 83.566 66.848 82.023 L 69.188 81.172 C 73.387 79.621 71.059 73.328 66.863 74.879 Z M 66.621 74.977 C 62.559 76.852 65.367 82.945 69.43 81.074 L 71.773 80.004 C 75.852 78.125 73.031 72.012 68.957 73.891 Z M 68.582 74.09 C 64.773 76.465 68.34 82.18 72.148 79.805 L 74.313 78.465 C 78.129 76.082 74.559 70.352 70.738 72.734 Z M 70.461 72.93 C 66.898 75.68 71.027 81.023 74.59 78.27 L 76.688 76.652 C 80.254 73.898 76.121 68.551 72.559 71.305 Z M 72.25 71.57 C 69.043 74.734 73.785 79.547 76.992 76.383 L 78.852 74.551 C 82.063 71.391 77.32 66.578 74.109 69.738 Z M 73.816 70.07 C 71.047 73.625 76.379 77.777 79.148 74.223 L 80.828 72.066 C 83.594 68.512 78.266 64.359 75.496 67.914 Z M 75.238 68.293 C 72.977 72.188 78.82 75.582 81.082 71.688 L 82.461 69.309 C 84.719 65.418 78.883 62.027 76.621 65.922 Z M 76.465 66.223 C 74.609 70.32 80.758 73.109 82.613 69.008 L 83.809 66.363 C 85.664 62.27 79.527 59.488 77.672 63.578 Z M 77.516 63.984 C 76.207 68.281 82.648 70.25 83.961 65.953 L 84.793 63.203 C 86.105 58.914 79.672 56.953 78.363 61.238 Z M 78.285 61.543 C 77.387 65.938 83.973 67.285 84.871 62.895 L 85.469 59.98 C 86.371 55.594 79.785 54.242 78.887 58.633 Z M 78.828 59.027 C 78.457 63.492 85.156 64.051 85.527 59.586 L 85.766 56.672 C 86.137 52.207 79.441 51.652 79.07 56.113 Z M 79.063 56.465 C 79.16 60.941 85.875 60.797 85.777 56.32 L 85.711 53.461 C 85.613 48.988 78.906 49.137 79.004 53.605 Z M 79.031 53.961 C 79.598 58.395 86.254 57.543 85.684 53.105 L 85.324 50.301 C 84.754 45.867 78.105 46.719 78.672 51.152 Z M 78.781 51.672 C 80.043 55.961 86.477 54.07 85.215 49.781 L 84.441 47.137 C 83.18 42.84 76.734 44.734 77.996 49.031 Z M 78.184 49.52 C 80.098 53.566 86.172 50.695 84.258 46.648 L 83.066 44.109 C 81.145 40.047 75.055 42.93 76.977 46.988 Z M 77.305 47.539 C 79.961 51.164 85.395 47.18 82.738 43.555 L 81.008 41.18 C 78.344 37.543 72.891 41.543 75.559 45.176 Z M 75.863 45.539 C 79.008 48.762 83.848 44.043 80.703 40.816 L 78.555 38.59 C 75.391 35.344 70.523 40.09 73.688 43.336 Z M 74.102 43.695 C 77.746 46.391 81.789 40.926 78.145 38.23 L 75.465 36.203 C 71.785 33.48 67.699 39.004 71.383 41.727 Z M 71.738 41.961 C 75.727 44.207 79.098 38.223 75.109 35.973 L 72.074 34.207 C 68.027 31.926 64.605 38 68.656 40.281 Z M 69.059 40.477 C 73.367 42.219 75.98 35.754 71.672 34.012 L 68.223 32.539 C 63.824 30.762 61.156 37.355 65.555 39.137 Z M 65.883 39.25 C 70.434 40.59 72.441 33.766 67.895 32.426 L 64.262 31.254 C 59.586 29.875 57.52 36.887 62.195 38.266 Z M 62.66 38.371 C 67.477 39.125 68.609 31.906 63.797 31.148 L 60.035 30.438 C 55.066 29.656 53.895 37.113 58.863 37.895 Z M 59.344 37.938 C 64.375 38.078 64.586 30.535 59.555 30.395 L 55.781 30.152 C 50.574 30.008 50.355 37.82 55.563 37.965 Z M 56.195 37.934 C 61.359 37.238 60.316 29.492 55.152 30.188 L 51.535 30.535 C 46.191 31.254 47.27 39.273 52.617 38.555 Z M 53.445 38.352 C 58.52 36.523 55.777 28.91 50.703 30.738 L 47.367 31.809 C 42.133 33.691 44.961 41.543 50.191 39.656 Z M 51 39.262 C 55.707 36.301 51.266 29.238 46.559 32.199 L 43.504 34 C 38.676 37.035 43.23 44.273 48.055 41.238 Z M 48.746 40.699 C 52.855 36.746 46.922 30.582 42.813 34.535 L 40.184 36.961 C 36 40.988 42.035 47.262 46.219 43.238 Z M 46.82 42.523 C 50.047 37.699 42.813 32.852 39.582 37.676 L 37.445 40.785 C 34.18 45.66 41.496 50.555 44.762 45.68 Z M 45.133 45 C 47.492 39.629 39.434 36.09 37.074 41.461 L 35.516 45.023 C 33.16 50.391 41.211 53.922 43.566 48.559 Z M 43.824 47.781 C 45.145 42.07 36.578 40.09 35.258 45.801 L 34.434 49.699 C 33.137 55.309 41.551 57.258 42.848 51.648 Z M 42.945 51.051 C 43.445 45.316 34.844 44.563 34.34 50.297 L 34.164 54.414 C 33.68 59.906 41.922 60.629 42.402 55.137 Z M 42.41 54.531 C 42.086 49.027 33.828 49.512 34.152 55.02 L 34.75 59.098 C 35.047 64.133 42.598 63.688 42.301 58.652 Z M 42.25 58.215 C 41.367 53.25 33.918 54.574 34.801 59.539 L 36.148 63.469 C 36.883 67.594 43.07 66.496 42.336 62.371 Z M 42.262 62.039 C 41.082 58.016 35.051 59.781 36.227 63.801 L 38.27 67.422 C 39.094 70.238 43.313 69.004 42.492 66.188 Z M 42.422 65.992 C 41.336 63.27 37.25 64.898 38.336 67.621 L 40.652 70.887 C 41.273 72.441 43.609 71.512 42.988 69.953 Z M 42.93 69.824 C 42.137 68.348 39.922 69.535 40.715 71.016 L 43.047 73.934 C 43.414 74.613 44.438 74.066 44.07 73.383 Z M 44.035 73.324 C 43.594 72.691 42.641 73.355 43.082 73.988 L 45.316 76.523 C 45.465 76.738 45.793 76.512 45.641 76.293 Z M 45.625 76.273 C 45.449 76.078 45.152 76.344 45.328 76.539 L 47.426 78.648 C 47.465 78.688 47.527 78.633 47.488 78.59 Z M 47.484 78.586 C 47.441 78.551 47.387 78.617 47.434 78.652 L 49.555 80.242 C 49.559 80.246 49.563 80.238 49.559 80.238 Z M 49.559 80.238 C 49.555 80.234 49.551 80.242 49.555 80.242 L 51.594 81.152 Z M 49.559 80.238"/><path fill="#f26419" stroke="none" d="M 59.941 14.477 C 59.941 14.465 59.922 14.465 59.922 14.477 L 59.895 14.582 C 59.895 14.633 59.969 14.633 59.969 14.582 Z M 59.965 14.602 C 59.988 14.559 59.922 14.52 59.898 14.566 L 59.785 14.648 C 59.727 14.762 59.898 14.855 59.957 14.738 Z M 59.969 14.691 C 59.969 14.563 59.773 14.563 59.773 14.691 L 59.664 14.852 C 59.664 15.133 60.082 15.133 60.082 14.852 Z M 60.055 14.957 C 60.195 14.715 59.828 14.508 59.691 14.75 L 59.461 14.766 C 59.199 15.227 59.895 15.625 60.156 15.16 Z M 60.16 15.156 C 60.418 14.691 59.719 14.301 59.461 14.77 L 59.168 14.742 C 58.734 15.523 59.902 16.172 60.336 15.391 Z M 60.207 15.555 C 60.859 14.949 59.945 13.973 59.297 14.578 L 59.016 14.398 C 58.051 15.301 59.402 16.746 60.367 15.848 Z M 59.691 16.113 C 61.012 16.113 61.012 14.133 59.691 14.133 L 59.629 13.781 C 57.84 13.781 57.84 16.465 59.629 16.465 Z M 59.629 16.465 C 61.422 16.465 61.422 13.781 59.629 13.781 L 59.512 13.426 C 57.25 13.426 57.25 16.82 59.512 16.82 Z M 58.395 16.402 C 60.098 17.891 62.336 15.336 60.633 13.844 L 60.773 13.559 C 58.758 11.797 56.117 14.816 58.129 16.578 Z M 58.109 16.559 C 60.098 18.348 62.781 15.367 60.793 13.578 L 60.82 13.309 C 58.617 11.324 55.641 14.633 57.844 16.617 Z M 57.395 16.055 C 58.852 18.641 62.73 16.453 61.273 13.871 L 61.273 13.586 C 59.727 10.836 55.602 13.16 57.148 15.91 Z M 56.887 15.195 C 57.484 18.297 62.133 17.398 61.535 14.301 L 61.563 13.957 C 60.941 10.746 56.121 11.676 56.738 14.887 Z M 56.711 14.715 C 57.102 17.965 61.977 17.383 61.586 14.133 L 61.578 13.637 C 61.18 10.32 56.207 10.918 56.605 14.234 Z M 56.586 13.934 C 56.586 17.277 61.598 17.277 61.598 13.934 L 61.621 13.34 C 61.621 9.965 56.559 9.965 56.559 13.34 Z M 56.559 13.34 C 56.559 16.715 61.621 16.715 61.621 13.34 L 61.637 12.586 C 61.637 9.195 56.547 9.195 56.547 12.586 Z M 56.547 12.586 C 56.547 15.98 61.637 15.98 61.637 12.586 L 61.637 11.668 C 61.637 8.273 56.547 8.273 56.547 11.668 Z M 56.547 11.668 C 56.547 15.066 61.637 15.066 61.637 11.668 L 61.637 10.699 C 61.637 7.305 56.547 7.305 56.547 10.699 Z M 56.547 10.57 C 56.375 13.961 61.457 14.223 61.633 10.832 L 61.688 9.699 C 61.863 6.313 56.785 6.051 56.609 9.438 Z M 56.621 9.309 C 56.277 12.684 61.336 13.199 61.68 9.824 L 61.785 8.637 C 62.129 5.285 57.098 4.77 56.758 8.125 Z M 56.754 8.137 C 56.43 11.488 61.461 11.98 61.785 8.625 L 61.879 7.379 C 62.203 4.066 57.23 3.582 56.906 6.895 Z M 56.906 6.895 C 56.582 10.211 61.555 10.695 61.879 7.383 L 61.941 6.137 C 62.258 2.902 57.402 2.426 57.086 5.664 Z M 56.906 6.895"/><path fill="#f26419" stroke="none" d="M 90.879 32.555 C 90.887 32.547 90.875 32.535 90.867 32.543 L 90.785 32.574 C 90.746 32.609 90.801 32.668 90.84 32.633 Z M 90.855 32.602 C 90.855 32.551 90.773 32.551 90.773 32.602 L 90.699 32.707 C 90.699 32.863 90.93 32.863 90.93 32.707 Z M 90.93 32.707 C 90.93 32.555 90.699 32.555 90.699 32.707 L 90.547 32.762 C 90.547 33.117 91.078 33.117 91.078 32.762 Z M 91.078 32.762 C 91.078 32.41 90.547 32.41 90.547 32.762 L 90.309 32.871 C 90.309 33.547 91.316 33.547 91.316 32.871 Z M 90.813 32.367 C 90.141 32.367 90.141 33.375 90.813 33.375 L 90.871 33.695 C 91.969 33.695 91.969 32.051 90.871 32.051 Z M 90.871 32.051 C 89.777 32.051 89.777 33.695 90.871 33.695 L 90.992 34.066 C 92.582 34.066 92.582 31.68 90.992 31.68 Z M 90.648 31.73 C 89.125 32.195 89.82 34.477 91.34 34.012 L 91.633 34.332 C 93.656 33.719 92.734 30.688 90.711 31.301 Z M 90.52 31.375 C 88.598 32.242 89.898 35.133 91.824 34.262 L 92.215 34.48 C 94.578 33.414 92.977 29.871 90.617 30.938 Z M 90.492 31 C 88.211 32.23 90.059 35.648 92.34 34.418 L 92.766 34.5 C 95.371 33.098 93.262 29.191 90.66 30.594 Z M 90.805 30.523 C 88.105 31.73 89.918 35.781 92.617 34.574 L 93.18 34.539 C 96.121 33.223 94.148 28.813 91.207 30.129 Z M 90.949 30.262 C 88.188 31.922 90.676 36.066 93.438 34.402 L 94.047 34.199 C 96.965 32.441 94.332 28.066 91.414 29.82 Z M 91.461 29.793 C 88.508 31.488 91.051 35.918 94.004 34.223 L 94.711 33.93 C 97.773 32.168 95.137 27.574 92.074 29.332 Z M 91.996 29.379 C 88.996 31.242 91.785 35.742 94.789 33.883 L 95.605 33.453 C 98.68 31.547 95.82 26.934 92.742 28.84 Z M 92.777 28.816 C 89.672 30.68 92.465 35.336 95.57 33.473 L 96.492 32.973 C 99.645 31.082 96.809 26.348 93.652 28.242 Z M 93.621 28.258 C 90.492 30.195 93.391 34.887 96.523 32.953 L 97.496 32.383 C 100.656 30.43 97.727 25.691 94.57 27.645 Z M 94.566 27.645 C 91.41 29.598 94.34 34.336 97.5 32.383 L 98.645 31.695 C 101.824 29.727 98.875 24.961 95.695 26.926 Z M 95.625 26.973 C 92.508 29.031 95.598 33.711 98.715 31.648 L 99.859 30.898 C 102.984 28.836 99.887 24.148 96.762 26.211 Z M 96.738 26.227 C 93.633 28.32 96.773 32.98 99.879 30.887 L 101.074 30.066 C 104.168 27.98 101.039 23.344 97.945 25.43 Z M 97.82 25.516 C 94.848 27.77 98.223 32.23 101.199 29.977 L 102.313 29.082 C 105.246 26.863 101.918 22.469 98.988 24.688 Z M 99.109 24.598 C 96.063 26.652 99.145 31.227 102.191 29.172 L 103.336 28.281 C 106.281 26.297 103.305 21.887 100.359 23.867 Z M 100.254 23.945 C 97.414 26.074 100.605 30.336 103.445 28.203 L 104.402 27.234 C 107.023 25.266 104.074 21.332 101.453 23.301 Z M 101.34 23.391 C 98.836 25.508 102.012 29.262 104.516 27.145 L 105.262 26.078 C 107.426 24.246 104.68 21 102.516 22.832 Z M 102.648 22.727 C 100.344 24.379 102.824 27.836 105.129 26.184 L 105.762 25.168 C 107.574 23.871 105.625 21.152 103.813 22.453 Z M 103.723 22.52 C 102.004 23.941 104.133 26.52 105.852 25.098 L 106.23 24.094 C 107.402 23.129 105.953 21.367 104.777 22.336 Z M 104.789 22.328 C 103.605 23.281 105.035 25.059 106.219 24.105 L 106.512 23.234 C 107.176 22.695 106.371 21.695 105.703 22.23 Z M 105.707 22.23 C 105.035 22.762 105.836 23.77 106.508 23.234 L 106.762 22.578 C 107.063 22.34 106.703 21.891 106.406 22.129 Z M 106.418 22.121 C 106.105 22.344 106.438 22.809 106.75 22.586 L 106.941 22.219 C 107.047 22.141 106.934 21.984 106.828 22.059 Z M 106.844 22.051 C 106.727 22.102 106.809 22.281 106.926 22.227 L 107.016 22.102 C 107.039 22.09 107.023 22.051 106.996 22.063 Z M 107.02 22.098 C 107.039 22.078 107.012 22.047 106.992 22.066 L 106.945 22.137 C 106.945 22.137 106.945 22.141 106.949 22.141 Z M 106.949 22.141 C 106.949 22.137 106.945 22.137 106.945 22.137 L 106.766 22.352 Z M 106.949 22.141"/><path fill="#f26419" stroke="none" d="M 100.711 60.113 C 100.711 60.113 100.707 60.113 100.707 60.113 L 100.688 60.168 C 100.688 60.195 100.73 60.195 100.73 60.168 Z M 100.73 60.168 C 100.73 60.141 100.688 60.141 100.688 60.168 L 100.66 60.223 C 100.66 60.289 100.758 60.289 100.758 60.223 Z M 100.742 60.258 C 100.789 60.215 100.723 60.145 100.676 60.188 L 100.582 60.207 C 100.488 60.297 100.621 60.441 100.719 60.352 Z M 100.75 60.277 C 100.75 60.148 100.551 60.148 100.551 60.277 L 100.461 60.328 C 100.461 60.582 100.84 60.582 100.84 60.328 Z M 100.773 60.473 C 100.965 60.305 100.715 60.02 100.523 60.188 L 100.359 60.125 C 100.016 60.426 100.469 60.945 100.813 60.645 Z M 101.168 60.383 C 101.168 59.609 100.008 59.609 100.008 60.383 L 99.695 60.438 C 99.695 61.629 101.48 61.629 101.48 60.438 Z M 100.586 59.547 C 99.395 59.547 99.395 61.332 100.586 61.332 L 100.648 61.707 C 102.34 61.707 102.34 59.172 100.648 59.172 Z M 100.648 59.172 C 98.957 59.172 98.957 61.707 100.648 61.707 L 100.766 62.125 C 103.016 62.125 103.016 58.75 100.766 58.75 Z M 100.766 58.75 C 98.52 58.75 98.52 62.125 100.766 62.125 L 100.945 62.547 C 103.754 62.547 103.754 58.332 100.945 58.332 Z M 100.945 58.332 C 98.137 58.332 98.137 62.547 100.945 62.547 L 101.129 62.906 C 104.422 62.906 104.422 57.969 101.129 57.969 Z M 101.129 57.969 C 97.84 57.969 97.84 62.906 101.129 62.906 L 101.488 63.199 C 105.172 63.199 105.172 57.68 101.488 57.68 Z M 101.488 57.68 C 97.809 57.68 97.809 63.199 101.488 63.199 L 101.906 63.438 C 105.906 63.438 105.906 57.441 101.906 57.441 Z M 102.211 57.457 C 98.234 57.055 97.629 63.02 101.605 63.422 L 102.125 63.668 C 106.355 64.098 107 57.75 102.77 57.32 Z M 102.445 57.305 C 98.195 57.305 98.195 63.684 102.445 63.684 L 103.164 63.84 C 107.625 63.84 107.625 57.148 103.164 57.148 Z M 103.383 57.156 C 98.934 56.867 98.496 63.543 102.949 63.832 L 103.781 64.008 C 108.391 64.309 108.84 57.391 104.23 57.09 Z M 104.188 57.09 C 99.574 56.844 99.207 63.766 103.824 64.008 L 104.777 64.148 C 109.512 64.398 109.887 57.301 105.152 57.051 Z M 105.324 57.063 C 100.609 56.582 99.891 63.656 104.609 64.137 L 105.68 64.309 C 110.477 64.793 111.207 57.598 106.41 57.109 Z M 106.391 57.109 C 101.59 56.648 100.898 63.848 105.699 64.309 L 106.836 64.457 C 111.688 64.922 112.387 57.645 107.535 57.18 Z M 107.352 57.164 C 102.48 56.941 102.148 64.25 107.02 64.473 L 108.215 64.551 C 113.121 64.773 113.457 57.418 108.551 57.195 Z M 108.691 57.203 C 103.801 56.793 103.184 64.133 108.078 64.543 L 109.332 64.664 C 114.246 65.074 114.863 57.703 109.953 57.293 Z M 109.813 57.285 C 104.887 57.059 104.547 64.449 109.473 64.672 L 110.672 64.727 C 115.598 64.949 115.934 57.566 111.012 57.34 Z M 110.84 57.336 C 105.914 57.336 105.914 64.73 110.84 64.73 L 112.039 64.699 C 116.93 64.699 116.93 57.367 112.039 57.367 Z M 112.215 57.371 C 107.332 57.137 106.984 64.461 111.863 64.695 L 113.008 64.672 C 117.785 64.898 118.129 57.734 113.352 57.504 Z M 113.18 57.5 C 108.398 57.5 108.398 64.676 113.18 64.676 L 114.141 64.52 C 118.719 64.52 118.719 57.652 114.141 57.652 Z M 114.141 57.652 C 109.566 57.652 109.566 64.52 114.141 64.52 L 115.039 64.219 C 119.215 64.219 119.215 57.957 115.039 57.957 Z M 114.781 57.969 C 110.621 58.313 111.141 64.551 115.301 64.207 L 115.918 63.645 C 119.398 63.355 118.965 58.133 115.484 58.422 Z M 115.699 58.414 C 112.207 58.414 112.207 63.652 115.699 63.652 L 116.238 62.914 C 118.746 62.914 118.746 59.152 116.238 59.152 Z M 115.902 59.184 C 113.438 59.633 114.109 63.332 116.574 62.883 L 116.738 62.059 C 118.176 61.797 117.785 59.637 116.344 59.898 Z M 116.223 59.93 C 114.82 60.355 115.461 62.453 116.859 62.027 L 116.871 61.418 C 117.531 61.219 117.23 60.227 116.57 60.43 Z M 116.203 60.922 C 116.203 61.613 117.238 61.613 117.238 60.922 L 116.902 60.871 C 116.902 60.629 116.535 60.629 116.535 60.871 Z M 116.625 61.031 C 116.832 61.156 117.023 60.844 116.816 60.715 L 116.563 60.727 C 116.516 60.699 116.473 60.77 116.52 60.801 Z M 116.516 60.797 C 116.563 60.828 116.609 60.762 116.566 60.73 L 116.242 60.547 C 116.238 60.543 116.234 60.547 116.238 60.551 Z M 116.238 60.551 C 116.242 60.555 116.246 60.547 116.242 60.543 L 115.758 60.277 Z M 116.238 60.551"/><path fill="#f26419" stroke="none" d="M 86.016 84.777 C 86.023 84.777 86.023 84.766 86.016 84.766 L 85.957 84.73 C 85.906 84.73 85.906 84.813 85.957 84.813 Z M 85.957 84.813 C 86.012 84.813 86.012 84.73 85.957 84.73 L 85.895 84.688 C 85.785 84.688 85.785 84.855 85.895 84.855 Z M 85.895 84.855 C 86.008 84.855 86.008 84.688 85.895 84.688 L 85.836 84.617 C 85.633 84.617 85.633 84.922 85.836 84.922 Z M 85.836 84.922 C 86.039 84.922 86.039 84.617 85.836 84.617 L 85.777 84.523 C 85.445 84.523 85.445 85.02 85.777 85.02 Z M 86.027 84.77 C 86.027 84.438 85.531 84.438 85.531 84.77 L 85.402 84.82 C 85.402 85.324 86.156 85.324 86.156 84.82 Z M 86.156 84.82 C 86.156 84.32 85.402 84.32 85.402 84.82 L 85.238 84.93 C 85.238 85.652 86.32 85.652 86.32 84.93 Z M 86.215 84.613 C 85.789 84.031 84.918 84.668 85.344 85.25 L 85.297 85.531 C 85.883 86.332 87.082 85.453 86.496 84.652 Z M 86.254 84.438 C 85.383 83.961 84.668 85.27 85.539 85.746 L 85.727 86.121 C 86.879 86.75 87.82 85.02 86.668 84.391 Z M 86.801 84.477 C 85.762 83.672 84.555 85.23 85.594 86.035 L 85.844 86.574 C 87.168 87.602 88.711 85.613 87.387 84.586 Z M 87.328 84.547 C 85.949 83.594 84.523 85.66 85.902 86.613 L 86.281 87.223 C 87.973 88.391 89.727 85.855 88.035 84.688 Z M 88.141 84.766 C 86.559 83.457 84.594 85.832 86.176 87.141 L 86.66 87.895 C 88.52 89.438 90.832 86.641 88.969 85.102 Z M 88.969 85.098 C 87.102 83.563 84.797 86.359 86.66 87.895 L 87.297 88.715 C 89.395 90.445 91.988 87.301 89.891 85.57 Z M 89.961 85.629 C 87.941 83.809 85.211 86.836 87.23 88.656 L 87.961 89.535 C 90.141 91.5 93.086 88.23 90.91 86.266 Z M 90.855 86.223 C 88.617 84.324 85.773 87.684 88.012 89.578 L 88.965 90.523 C 91.313 92.516 94.297 88.992 91.945 87 Z M 91.949 87.004 C 89.602 85.012 86.613 88.535 88.961 90.523 L 89.992 91.492 C 92.414 93.547 95.492 89.914 93.07 87.863 Z M 93.172 87.949 C 90.871 85.766 87.594 89.219 89.895 91.402 L 90.949 92.461 C 93.289 94.684 96.621 91.172 94.281 88.949 Z M 94.188 88.863 C 91.73 86.766 88.586 90.449 91.043 92.547 L 92.234 93.582 C 94.703 95.688 97.867 91.984 95.395 89.875 Z M 95.496 89.965 C 93.145 87.723 89.781 91.25 92.133 93.492 L 93.227 94.504 C 95.559 96.723 98.887 93.227 96.555 91.008 Z M 96.504 90.961 C 94.113 88.813 90.887 92.398 93.281 94.551 L 94.43 95.441 C 96.715 97.496 99.801 94.063 97.512 92.008 Z M 97.566 92.059 C 95.344 89.93 92.152 93.266 94.375 95.391 L 95.457 96.066 C 97.43 97.957 100.262 94.996 98.289 93.105 Z M 98.301 93.117 C 96.34 91.215 93.484 94.156 95.445 96.059 L 96.547 96.477 C 98.063 97.945 100.266 95.676 98.75 94.207 Z M 98.867 94.332 C 97.52 92.707 95.086 94.73 96.434 96.352 L 97.422 96.629 C 98.273 97.648 99.805 96.375 98.957 95.352 Z M 98.941 95.336 C 98.066 94.332 96.563 95.641 97.438 96.645 L 98.227 96.809 C 98.672 97.316 99.438 96.652 98.992 96.141 Z M 99.035 96.195 C 98.664 95.629 97.816 96.188 98.188 96.754 L 98.625 96.855 C 98.77 97.074 99.102 96.859 98.957 96.641 Z M 98.914 96.902 C 99.121 96.734 98.871 96.43 98.668 96.594 L 98.695 96.758 C 98.645 96.801 98.707 96.879 98.762 96.836 Z M 98.699 96.84 C 98.754 96.879 98.813 96.797 98.758 96.758 L 98.434 96.578 C 98.43 96.574 98.422 96.582 98.426 96.59 Z M 98.426 96.59 C 98.434 96.594 98.441 96.582 98.434 96.578 L 97.891 96.152 Z M 98.426 96.59"/><path fill="#f26419" stroke="none" d="M 61.07 98.578 C 61.07 98.578 61.07 98.582 61.074 98.582 L 61.133 98.527 C 61.137 98.523 61.133 98.52 61.129 98.523 Z M 61.129 98.523 C 61.125 98.527 61.129 98.531 61.133 98.527 L 61.195 98.477 C 61.199 98.469 61.191 98.457 61.184 98.465 Z M 61.184 98.465 C 61.176 98.473 61.188 98.48 61.195 98.477 L 61.32 98.375 C 61.336 98.363 61.316 98.34 61.301 98.352 Z M 61.297 98.359 C 61.285 98.375 61.313 98.391 61.324 98.371 L 61.398 98.27 C 61.418 98.234 61.359 98.203 61.34 98.238 Z M 61.336 98.254 C 61.336 98.297 61.402 98.297 61.402 98.254 L 61.434 98.199 C 61.434 98.117 61.305 98.117 61.305 98.199 Z M 61.305 98.199 C 61.305 98.285 61.434 98.285 61.434 98.199 L 61.484 98.148 C 61.484 97.996 61.254 97.996 61.254 98.148 Z M 61.367 98.344 C 61.629 98.344 61.629 97.957 61.367 97.957 L 61.309 97.84 C 60.898 97.84 60.898 98.457 61.309 98.457 Z M 61.309 98.457 C 61.723 98.457 61.723 97.84 61.309 97.84 L 61.25 97.684 C 60.629 97.684 60.629 98.617 61.25 98.617 Z M 61.25 98.617 C 61.875 98.617 61.875 97.684 61.25 97.684 L 61.188 97.477 C 60.289 97.477 60.289 98.824 61.188 98.824 Z M 61.863 98.148 C 61.863 97.25 60.516 97.25 60.516 98.148 L 60.27 98.199 C 60.27 99.426 62.109 99.426 62.109 98.199 Z M 62.109 98.199 C 62.109 96.973 60.27 96.973 60.27 98.199 L 59.992 98.363 C 59.992 99.961 62.387 99.961 62.387 98.363 Z M 62.305 97.93 C 61.723 96.441 59.492 97.313 60.074 98.801 L 59.859 99.07 C 60.582 100.926 63.367 99.84 62.645 97.98 Z M 62.746 98.523 C 62.746 96.531 59.758 96.531 59.758 98.523 L 59.477 98.848 C 59.477 101.219 63.027 101.219 63.027 98.848 Z M 63.012 98.609 C 62.695 96.266 59.172 96.738 59.492 99.086 L 59.313 99.551 C 59.672 102.215 63.668 101.676 63.309 99.012 Z M 63.316 99.086 C 63.051 96.41 59.043 96.809 59.305 99.48 L 59.191 100.09 C 59.477 102.996 63.832 102.566 63.547 99.66 Z M 63.523 99.504 C 63.027 96.629 58.715 97.375 59.215 100.25 L 59.215 100.969 C 59.742 104.004 64.289 103.215 63.766 100.184 Z M 63.777 100.254 C 63.348 97.207 58.777 97.848 59.203 100.895 L 59.242 101.77 C 59.688 104.93 64.422 104.266 63.98 101.105 Z M 63.965 101.027 C 63.414 97.887 58.703 98.711 59.254 101.852 L 59.379 102.887 C 59.941 106.102 64.766 105.254 64.203 102.039 Z M 64.207 102.063 C 63.672 98.84 58.84 99.641 59.375 102.863 L 59.512 103.953 C 60.059 107.227 64.973 106.414 64.426 103.137 Z M 64.434 103.188 C 63.957 99.902 59.027 100.617 59.504 103.902 L 59.656 105.145 C 60.137 108.469 65.125 107.746 64.645 104.422 Z M 64.645 104.422 C 64.164 101.098 59.176 101.816 59.656 105.145 L 59.813 106.391 C 60.297 109.746 65.332 109.016 64.848 105.66 Z M 64.848 105.676 C 64.383 102.316 59.344 103.016 59.813 106.375 L 59.98 107.668 C 60.449 111.043 65.508 110.34 65.039 106.965 Z M 65.035 106.953 C 64.551 103.582 59.496 104.313 59.98 107.684 L 60.168 108.926 C 60.652 112.285 65.695 111.559 65.211 108.195 Z M 65.211 108.195 C 64.723 104.832 59.68 105.563 60.168 108.926 L 60.383 110.16 C 60.863 113.477 65.836 112.758 65.355 109.441 Z M 65.211 108.195"/><path fill="#f26419" stroke="none" d="M 34.086 86.965 C 34.066 86.965 34.066 87 34.086 87 L 34.145 87.195 C 34.43 87.195 34.43 86.77 34.145 86.77 Z M 34.145 87.797 C 35.23 87.797 35.23 86.168 34.145 86.168 L 34.023 85.242 C 31.707 85.242 31.707 88.723 34.023 88.723 Z M 35.211 88.254 C 36.906 86.672 34.535 84.129 32.84 85.711 L 32.566 85.539 C 30.57 87.402 33.367 90.398 35.363 88.535 Z M 34.758 88.926 C 37.277 87.871 35.695 84.09 33.176 85.148 L 32.949 84.949 C 30.098 86.145 31.891 90.422 34.742 89.227 Z M 35.711 88.465 C 37.547 85.977 33.816 83.223 31.98 85.711 L 31.676 85.738 C 29.66 88.469 33.758 91.492 35.773 88.762 Z M 35.145 89.363 C 37.961 87.473 35.121 83.246 32.305 85.141 L 31.961 85.141 C 28.934 87.176 31.984 91.715 35.012 89.684 Z M 35.492 89.273 C 37.973 86.598 33.961 82.879 31.48 85.551 L 31.055 85.762 C 28.422 88.598 32.68 92.551 35.313 89.711 Z M 35.137 89.887 C 38.004 87.285 34.102 82.984 31.234 85.586 L 30.707 85.844 C 27.68 88.59 31.797 93.133 34.828 90.387 Z M 34.945 90.273 C 37.824 87.371 33.469 83.051 30.59 85.957 L 29.992 86.32 C 26.953 89.383 31.547 93.938 34.582 90.875 Z M 34.656 90.797 C 37.59 87.637 32.848 83.238 29.914 86.398 L 29.191 86.934 C 26.105 90.258 31.094 94.887 34.18 91.563 Z M 34.168 91.578 C 37.27 88.27 32.309 83.609 29.203 86.918 L 28.422 87.5 C 25.156 90.977 30.375 95.871 33.637 92.395 Z M 33.773 92.242 C 36.832 88.586 31.348 83.992 28.285 87.652 L 27.434 88.402 C 24.223 92.238 29.973 97.047 33.18 93.215 Z M 33.168 93.234 C 36.395 89.418 30.676 84.574 27.445 88.387 L 26.547 89.203 C 23.18 93.18 29.145 98.23 32.512 94.254 Z M 32.555 94.203 C 35.852 90.168 29.801 85.219 26.504 89.254 L 25.551 90.191 C 22.133 94.375 28.406 99.504 31.824 95.32 Z M 31.715 95.453 C 35.309 91.418 29.258 86.027 25.664 90.059 L 24.609 91.055 C 20.906 95.211 27.141 100.77 30.848 96.613 Z M 31 96.43 C 34.461 92.066 27.918 86.875 24.457 91.238 L 23.48 92.309 C 19.934 96.777 26.637 102.094 30.18 97.625 Z M 30.09 97.734 C 33.781 93.383 27.258 87.852 23.566 92.199 L 22.551 93.285 C 18.801 97.707 25.434 103.332 29.184 98.914 Z M 29.211 98.883 C 32.922 94.43 26.238 88.863 22.527 93.316 L 21.594 94.363 C 17.844 98.867 24.594 104.492 28.348 99.992 Z M 29.211 98.883"/><path fill="#f26419" stroke="none" d="M 21.762 56.789 C 21.785 56.746 21.723 56.715 21.699 56.754 L 21.563 56.82 C 21.484 56.969 21.703 57.086 21.785 56.938 Z M 21.797 56.879 C 21.797 56.715 21.547 56.715 21.547 56.879 L 21.359 56.984 C 21.359 57.406 21.988 57.406 21.988 56.984 Z M 21.926 57.172 C 22.176 56.836 21.668 56.461 21.422 56.801 L 21.051 56.781 C 20.559 57.449 21.559 58.188 22.055 57.52 Z M 22.047 57.523 C 22.547 56.863 21.555 56.113 21.055 56.773 L 20.613 56.691 C 19.793 57.781 21.426 59.016 22.246 57.926 Z M 21.965 58.184 C 23.129 57.477 22.066 55.727 20.898 56.434 L 20.484 56.156 C 18.797 57.18 20.336 59.707 22.02 58.684 Z M 21.953 58.723 C 23.688 57.785 22.285 55.18 20.551 56.117 L 20.027 55.863 C 17.738 57.098 19.59 60.531 21.883 59.297 Z M 21.758 59.359 C 24.129 58.289 22.523 54.73 20.152 55.801 L 19.621 55.59 C 16.75 56.887 18.695 61.191 21.563 59.895 Z M 21.438 59.949 C 24.375 58.82 22.688 54.414 19.746 55.539 L 19.215 55.402 C 15.879 56.68 17.797 61.684 21.133 60.406 Z M 20.707 60.527 C 24.207 59.82 23.141 54.57 19.641 55.277 L 19.051 55.145 C 15.23 55.922 16.395 61.656 20.215 60.879 Z M 20.387 60.84 C 24.156 59.836 22.652 54.184 18.883 55.188 L 18.227 55.152 C 14.199 56.223 15.809 62.27 19.836 61.195 Z M 19.715 61.227 C 23.785 60.32 22.422 54.215 18.352 55.121 L 17.594 55.109 C 13.297 56.066 14.734 62.516 19.031 61.559 Z M 18.773 61.605 C 23.133 60.996 22.219 54.453 17.855 55.063 L 17.055 55.016 C 12.48 55.652 13.441 62.512 18.012 61.871 Z M 17.953 61.879 C 22.535 61.32 21.695 54.449 17.113 55.008 L 16.199 54.969 C 11.418 55.551 12.293 62.719 17.07 62.137 Z M 17.195 62.117 C 21.949 61.371 20.828 54.238 16.074 54.984 L 15.035 55.012 C 10.102 55.789 11.262 63.188 16.195 62.414 Z M 15.973 62.441 C 20.945 61.961 20.227 54.508 15.258 54.984 L 14.109 54.977 C 8.98 55.469 9.723 63.16 14.848 62.668 Z M 14.801 62.672 C 19.934 62.242 19.289 54.543 14.156 54.973 L 12.887 54.973 C 7.609 55.41 8.273 63.324 13.547 62.883 Z M 13.543 62.883 C 18.82 62.445 18.164 54.535 12.887 54.969 L 11.563 54.992 C 6.172 55.441 6.84 63.527 12.23 63.078 Z M 12.344 63.07 C 17.723 62.469 16.824 54.406 11.445 55.004 L 10.004 55.105 C 4.547 55.711 5.457 63.898 10.914 63.289 Z M 10.891 63.293 C 16.348 62.719 15.488 54.527 10.027 55.102 L 8.465 55.234 C 2.961 55.813 3.832 64.066 9.336 63.488 Z M 9.34 63.488 C 14.844 62.898 13.961 54.648 8.461 55.234 L 6.957 55.391 C 1.449 55.977 2.332 64.242 7.84 63.652 Z M 7.852 63.652 C 13.359 63.051 12.457 54.789 6.949 55.391 L 5.453 55.586 C -0.012 56.184 0.883 64.379 6.348 63.781 Z M 7.852 63.652"/><path fill="#f26419" stroke="none" d="M 25 16.211 C 21.488 12.895 16.512 18.16 20.023 21.48 L 21.16 22.68 C 24.762 26.078 29.863 20.68 26.262 17.277 Z M 26.383 17.398 C 22.945 13.836 17.602 18.996 21.039 22.559 L 22.207 23.832 C 25.688 27.438 31.098 22.215 27.617 18.609 Z M 27.551 18.543 C 23.977 15.023 18.703 20.383 22.273 23.898 L 23.539 25.129 C 27.102 28.637 32.363 23.293 28.801 19.785 Z M 28.805 19.789 C 25.246 16.277 19.977 21.613 23.535 25.125 L 24.859 26.301 C 28.328 29.727 33.461 24.523 29.996 21.102 Z M 30.063 21.168 C 26.688 17.656 21.414 22.719 24.793 26.234 L 26.105 27.254 C 29.258 30.539 34.188 25.809 31.031 22.523 Z M 31.117 22.613 C 28.086 19.215 22.988 23.762 26.02 27.16 L 27.34 27.918 C 29.941 30.836 34.32 26.934 31.719 24.016 Z M 31.691 23.988 C 29.055 21.102 24.727 25.063 27.363 27.945 L 28.781 28.336 C 30.719 30.449 33.891 27.547 31.953 25.434 Z M 31.984 25.469 C 30.098 23.313 26.863 26.145 28.75 28.301 L 30.063 28.484 C 31.191 29.77 33.121 28.078 31.992 26.793 Z M 31.938 26.73 C 30.727 25.523 28.914 27.336 30.121 28.547 L 31.129 28.613 C 31.715 29.199 32.59 28.324 32.004 27.738 Z M 32.02 27.758 C 31.461 27.152 30.555 27.992 31.113 28.598 L 31.703 28.656 C 31.906 28.875 32.238 28.57 32.035 28.348 Z M 32.023 28.336 C 31.805 28.133 31.496 28.461 31.715 28.668 L 31.949 28.648 C 32 28.699 32.074 28.621 32.023 28.574 Z M 31.938 28.629 C 31.961 28.695 32.059 28.66 32.035 28.594 L 31.934 28.445 C 31.93 28.438 31.918 28.441 31.922 28.449 Z M 31.922 28.449 C 31.926 28.457 31.938 28.449 31.934 28.445 L 31.625 27.961 Z M 31.922 28.449"/></g></g></g></svg>
</svg>